<?xml version="1.0" encoding="utf-8"?>
<!-- Generator: Adobe Illustrator 24.2.0, SVG Export Plug-In . SVG Version: 6.00 Build 0)  -->
<svg version="1.1" id="Layer_1" xmlns="http://www.w3.org/2000/svg" xmlns:xlink="http://www.w3.org/1999/xlink" x="0px" y="0px"
	 viewBox="0 0 24 24" style="enable-background:new 0 0 24 24;" xml:space="preserve">
<style type="text/css">
	.st0{fill:#FFFFFF;}
</style>
<path class="st0" d="M10,19c-0.2,0-0.5-0.1-0.6-0.2c-0.4-0.4-0.5-1-0.1-1.4c0,0,0,0,0,0l4.5-5.4L9.4,6.6C9,6.2,9.1,5.6,9.5,5.2
	c0,0,0,0,0,0c0.4-0.4,1-0.3,1.4,0.1c0,0,0,0,0,0.1l4.8,6c0.3,0.4,0.3,0.9,0,1.3l-5,6C10.6,18.9,10.3,19,10,19z"/>
</svg>
