<svg xmlns="http://www.w3.org/2000/svg" width="24" height="24" viewBox="0 0 24 24">
  <g transform="translate(3 2)">
    <path d="M11.9047619,8.88571429 L18.2571429,8.88571429 C18.6937108,8.88571429 19.047619,8.53180604 19.047619,8.0952381 C19.047619,4.15034703 15.849653,0.952380952 11.9047619,0.952380952 C11.468194,0.952380952 11.1142857,1.3062892 11.1142857,1.74285714 L11.1142857,8.0952381 C11.1142857,8.53180604 11.468194,8.88571429 11.9047619,8.88571429 Z" opacity=".48"/>
    <path d="M18.1714286,10.4761905 L10.4095238,10.4761905 C10.1796695,10.4761905 9.95922946,10.3848812 9.79669793,10.2223497 C9.6341664,10.0598182 9.54285714,9.8393781 9.54285714,9.60952381 L9.54285714,1.82857143 C9.54433807,1.57870836 9.43907108,1.34009928 9.25352707,1.17274586 C9.06798306,1.00539244 8.81981511,0.925217057 8.57142857,0.952380952 C3.59994917,1.48027191 -0.11709445,5.76239373 0.0591612993,10.7587134 C0.235417049,15.7550331 4.24496693,19.764583 9.2412866,19.9408387 C14.2376063,20.1170945 18.5197281,16.4000508 19.047619,11.4285714 C19.06903,11.1832984 18.986259,10.9403346 18.8195638,10.7591442 C18.6528686,10.5779537 18.4176326,10.4752577 18.1714286,10.4761905 Z"/>
  </g>
</svg>
