<svg xmlns="http://www.w3.org/2000/svg" width="24" height="24" viewBox="0 0 24 24">
  <g transform="translate(2 2)">
    <path d="M9.58985382,1.32162476 C11.2516557,1.32162476 12.6541554,2.44401932 13.0870564,3.9693958 L13.0870564,3.9693958 L6.09265122,3.9693958 C6.52555222,2.44401932 7.92805123,1.32162476 9.58985382,1.32162476 Z M14.2187703,2.08721929e-14 C15.1281339,2.08721929e-14 15.8743538,0.742991398 15.8743538,1.65235392 C15.8743538,2.56172881 15.1281339,3.30535382 14.2187703,3.30535382 C13.3094063,3.30535382 12.5657704,2.56172881 12.5657704,1.65235392 C12.5657704,0.742991398 13.3094063,2.08721929e-14 14.2187703,2.08721929e-14 Z" opacity=".48"/>
    <path d="M7.60483293,15.8737079 C8.5141969,15.8737079 9.25783283,16.6173452 9.25783283,17.5267078 C9.25783283,18.4360827 8.51420286,19.1816454 7.60483293,19.1816454 C6.695463,19.1816454 5.95247894,18.4360827 5.95247894,17.5267078 C5.95247894,16.6173452 6.69546895,15.8737079 7.60483293,15.8737079 Z M14.2187703,15.8737079 C15.1281339,15.8737079 15.8743538,16.6173452 15.8743538,17.5267078 C15.8743538,18.4360827 15.1281402,19.1816454 14.2187703,19.1816454 C13.3094003,19.1816454 12.5657704,18.4360827 12.5657704,17.5267078 C12.5657704,16.6173452 13.3094053,15.8737079 14.2187703,15.8737079 Z M3.63802072,2.64647915 C4.1082402,2.64774187 4.51763131,2.98373029 4.60953764,3.44488018 L4.60953764,3.44488018 L4.84660331,4.63085412 L18.188812,4.63085412 C18.8245932,4.63085412 19.2950584,5.23989386 19.1532236,5.85429372 L19.1532236,5.85429372 L17.1682024,14.4532519 C17.0645489,14.902277 16.6576772,15.2122496 16.2037912,15.2122496 L16.2037912,15.2122496 L5.62045795,15.2122496 C5.14961968,15.2122496 4.73561259,14.8781275 4.64829513,14.4112649 L4.64829513,14.4112649 L2.82024127,4.62891638 L0.99154154,4.62891638 C0.688319784,4.62891638 0.420222159,4.50334414 0.249338799,4.31110616 C0.0784553735,4.11885628 -1.0658141e-14,3.8762747 -1.0658141e-14,3.63737481 C-1.0658141e-14,3.39847491 0.0784554066,3.15589334 0.249338799,2.96364345 C0.420222159,2.77140581 0.688319784,2.64647915 0.99154154,2.64647915 L0.99154154,2.64647915 Z"/>
  </g>
</svg>
