<svg xmlns="http://www.w3.org/2000/svg" width="24" height="24" viewBox="0 0 24 24">
  <g transform="translate(2 1.5)">
    <path d="M17.3913043,9.76996262e-15 C18.5919234,1.12380511e-14 19.5652174,0.973294022 19.5652174,2.17391304 L19.5652174,13.4782609 C19.5652174,14.6788799 18.5919234,15.6521739 17.3913043,15.6521739 L2.60869565,15.6521739 C1.40807663,15.6521739 0.434782609,14.6788799 0.434782609,13.4782609 L0.434782609,2.17391304 C0.434782609,0.973294022 1.40807663,9.99051275e-15 2.60869565,9.76996262e-15 L17.3913043,9.76996262e-15 Z M14.0782609,5.50486963 C13.74689,5.50486963 13.4782609,5.77349878 13.4782609,6.10486963 L13.4782609,6.10486963 L13.4782609,9.54730428 C13.4782609,9.69263817 13.5310118,9.83303215 13.6267149,9.94240705 C13.8449241,10.191789 14.2239817,10.2170595 14.4733636,9.9988503 L14.4733636,9.9988503 L16.4404691,8.27763297 C16.4605156,8.26009232 16.4793717,8.24123618 16.4969124,8.22118972 C16.7151216,7.97180774 16.6898511,7.59275017 16.4404691,7.37454094 L16.4404691,7.37454094 L14.4733636,5.65332361 C14.3639887,5.55762058 14.2235948,5.50486963 14.0782609,5.50486963 Z M5.92173913,5.50486963 C5.77640524,5.50486963 5.63601126,5.55762058 5.52663637,5.65332361 L3.55953085,7.37454094 C3.31014887,7.59275017 3.28487837,7.97180774 3.5030876,8.22118972 C3.52062825,8.24123618 3.53948439,8.26009232 3.55953085,8.27763297 L5.52663637,9.9988503 C5.77601834,10.2170595 6.15507592,10.191789 6.37328515,9.94240705 C6.46898818,9.83303215 6.52173913,9.69263817 6.52173913,9.54730428 L6.52173913,6.10486963 C6.52173913,5.77349878 6.25310998,5.50486963 5.92173913,5.50486963 Z"/>
    <path d="M5.2,17.6521739 C6.0836556,17.6521739 6.8,18.3685183 6.8,19.2521739 C6.8,20.1358295 6.0836556,20.8521739 5.2,20.8521739 C4.3163444,20.8521739 3.6,20.1358295 3.6,19.2521739 C3.6,18.3685183 4.3163444,17.6521739 5.2,17.6521739 Z M10,17.6521739 C10.8836556,17.6521739 11.6,18.3685183 11.6,19.2521739 C11.6,20.1358295 10.8836556,20.8521739 10,20.8521739 C9.1163444,20.8521739 8.4,20.1358295 8.4,19.2521739 C8.4,18.3685183 9.1163444,17.6521739 10,17.6521739 Z M14.8,17.6521739 C15.6836556,17.6521739 16.4,18.3685183 16.4,19.2521739 C16.4,20.1358295 15.6836556,20.8521739 14.8,20.8521739 C13.9163444,20.8521739 13.2,20.1358295 13.2,19.2521739 C13.2,18.3685183 13.9163444,17.6521739 14.8,17.6521739 Z" opacity=".48"/>
  </g>
</svg>
