<svg xmlns="http://www.w3.org/2000/svg" width="24" height="24" viewBox="0 0 24 24">
  <g transform="translate(2 2)">
    <path d="M15.625,0 C13.2125,0 11.25,1.9625 11.25,4.375 C11.25,6.62 14.76,10.59625 15.16,11.0425 C15.27875,11.17375 15.4475,11.25 15.625,11.25 C15.8025,11.25 15.97125,11.17375 16.09,11.0425 C16.49,10.59625 20,6.62 20,4.375 C20,1.9625 18.0375,0 15.625,0 Z M15.625,6.25 C14.59,6.25 13.75,5.41 13.75,4.375 C13.75,3.34 14.59,2.5 15.625,2.5 C16.66,2.5 17.5,3.34 17.5,4.375 C17.5,5.41 16.66,6.25 15.625,6.25 Z" opacity=".48"/>
    <path d="M5.25,5.4769159 C5.80228475,5.4769159 6.25,5.92463115 6.25,6.4769159 L6.25,6.4769159 L6.25,17.1205253 C6.25,17.5294008 6.00108406,17.8970895 5.62146489,18.0489723 L5.62146489,18.0489723 L0.8575,19.955 C0.7825,19.985 0.70375,20 0.625,20 C0.50125,20 0.38,19.9625 0.275,19.8925 C0.10375,19.77625 0,19.5825 0,19.375 L0,19.375 L0,7.92375 C0,7.6675 0.15625,7.4375 0.3925,7.3425 L0.3925,7.3425 L4.87867765,5.54841188 C4.99677842,5.50118166 5.12280532,5.4769159 5.25,5.4769159 Z M20,7.88875 L20,17.0775 C20,17.3325 19.845,17.56375 19.6075,17.6575 L19.6075,17.6575 L15.1213223,19.4515881 C15.0032216,19.4988183 14.8771947,19.5230841 14.75,19.5230841 C14.1977153,19.5230841 13.75,19.0753688 13.75,18.5230841 L13.75,18.5230841 L13.75,11.32875 C13.93875,11.55 14.1025,11.73625 14.23,11.8775 C14.585,12.2725 15.09375,12.5 15.625,12.5 C16.15625,12.5 16.665,12.2725 17.02,11.8775 C17.6075,11.2225 18.97625,9.6225 20,7.88875 L20,7.88875 Z M7.57152331,6.10564229 C7.77663672,5.59285877 8.35860716,5.34344286 8.87139068,5.54855627 L8.87139068,5.54855627 L10.39375,6.1575 C10.8675,7.3875 11.70125,8.68375 12.5,9.76 L12.5,9.76 L12.5,18.320467 C12.5,18.4476865 12.4757248,18.5737374 12.4284767,18.6918577 C12.2233633,19.2046412 11.6413928,19.4540571 11.1286093,19.2489437 L11.1286093,19.2489437 L8.12860932,18.0489437 C7.74895094,17.8970804 7.5,17.5293716 7.5,17.120467 L7.5,17.120467 L7.5,6.47703296 C7.5,6.34981353 7.5242752,6.22376256 7.57152331,6.10564229 Z"/>
  </g>
</svg>
