<svg xmlns="http://www.w3.org/2000/svg" xmlns:xlink="http://www.w3.org/1999/xlink" viewBox="0 0 10.12 10.12"><defs><style>.cls-1{fill:url(#linear-gradient);}.cls-2{fill:#fff;}</style><linearGradient id="linear-gradient" x1="8.5912" y1="7.7303" x2="0.5188" y2="1.6293" gradientUnits="userSpaceOnUse"><stop offset="0" stop-color="#2bb673"/><stop offset="0.1754" stop-color="#2ab37a"/><stop offset="0.428" stop-color="#27ab8d"/><stop offset="0.7258" stop-color="#239dac"/><stop offset="0.8571" stop-color="#2196bc"/></linearGradient></defs><g id="Layer_2" data-name="Layer 2"><g id="Icon_Name" data-name="Icon Name"><circle class="cls-1" cx="5.06" cy="5.06" r="5.06"/><path class="cls-2" d="M1.9722,8.4529a4.3672,4.3672,0,0,0,.6941-.8218A4.2284,4.2284,0,0,0,3.05,6.63c.1742-.716.2675-1.4094.4472-2.1488a3.9807,3.9807,0,0,1,3.13-3.0639,2.9551,2.9551,0,0,1,1.1927.107,1.25,1.25,0,0,1,.3165.1461.4707.4707,0,0,1,.1891.2285.3411.3411,0,0,1-.0231.2841A.4587.4587,0,0,1,8.2016,2.3a2.1191,2.1191,0,0,0-.36.359,4.3909,4.3909,0,0,0-.7,1.9021,5.4262,5.4262,0,0,0,.0234,2.0756,3.0835,3.0835,0,0,0,.9821,1.8173l-.0212.0339a2.6521,2.6521,0,0,1-1.392-1.7394A4.9438,4.9438,0,0,1,6.6162,4.47,8.7271,8.7271,0,0,1,6.8819,3.37a2.6971,2.6971,0,0,1,.5488-1.0613,2.605,2.605,0,0,1,.4224-.4067c.011-.0071.0179-.0218-.0081.0171a.1956.1956,0,0,0-.0172.1523c.0222.0561.0327.0395.0085.0286a.771.771,0,0,0-.18-.0834A2.4636,2.4636,0,0,0,6.68,1.9113a3.5752,3.5752,0,0,0-2.863,2.66c-.1858.677-.341,1.43-.5577,2.1233a4.4114,4.4114,0,0,1-.4636,1.0166,3.8271,3.8271,0,0,1-.8.7736Z"/><path class="cls-2" d="M3.9439,5.8129A3.9572,3.9572,0,0,1,6.3539,2.15,5.7427,5.7427,0,0,0,4.8,3.7483a6.7666,6.7666,0,0,0-.8445,2.0659Z"/><path class="cls-2" d="M6.3157,8.4091H5.8669L5.5847,7.578H4.7058l-.2744.8311h-.437l.2876-.8477H3.9031V7.2245h.4936l.106-.3125h-.6V6.5741h.7143l.3013-.8867h.4687l.3028.8867h.7109V6.912H5.8049l.1069.3125h.4893v.3369H6.0266Zm-.3912-.08h.28l-.289-.8477H6.321V7.3046H5.8542l-.1606-.4727H6.321V6.6542H5.6326L5.33,5.7675H4.9763l-.3013.8867H3.9831v.1777H4.614l-.16.4727H3.9831v.1767h.41l-.2876.8477h.2681l.2744-.8311h.9941ZM5.5959,7.3046H4.6941l.16-.4727h.5821Zm-.7905-.08h.6792L5.3782,6.912H4.9114Zm.57-.57H4.9143L4.968,6.495c.0444-.14.0869-.291.1323-.4756l.0078-.03h.0625l.0152.03c.04.1572.08.3106.1367.4795Zm-.35-.08h.2378l-.0166-.05c-.042-.123-.0742-.2383-.1035-.35-.0332.1279-.0654.2392-.0991.3447V6.52Z"/></g></g></svg>