<?xml version="1.0" encoding="UTF-8" standalone="no"?>
<svg
   xmlns:dc="http://purl.org/dc/elements/1.1/"
   xmlns:cc="http://creativecommons.org/ns#"
   xmlns:rdf="http://www.w3.org/1999/02/22-rdf-syntax-ns#"
   xmlns:svg="http://www.w3.org/2000/svg"
   xmlns="http://www.w3.org/2000/svg"
   xmlns:xlink="http://www.w3.org/1999/xlink"
   xmlns:sodipodi="http://sodipodi.sourceforge.net/DTD/sodipodi-0.dtd"
   xmlns:inkscape="http://www.inkscape.org/namespaces/inkscape"
   width="355px"
   height="260px"
   viewBox="0 0 355 260"
   version="1.1"
   id="svg131"
   sodipodi:docname="illustration_seo.svg"
   inkscape:version="1.0.2 (e86c870879, 2021-01-15, custom)">
  <metadata
     id="metadata135">
    <rdf:RDF>
      <cc:Work
         rdf:about="">
        <dc:format>image/svg+xml</dc:format>
        <dc:type
           rdf:resource="http://purl.org/dc/dcmitype/StillImage" />
      </cc:Work>
    </rdf:RDF>
  </metadata>
  <sodipodi:namedview
     pagecolor="#ffffff"
     bordercolor="#666666"
     borderopacity="1"
     objecttolerance="10"
     gridtolerance="10"
     guidetolerance="10"
     inkscape:pageopacity="0"
     inkscape:pageshadow="2"
     inkscape:window-width="1920"
     inkscape:window-height="1017"
     id="namedview133"
     showgrid="false"
     inkscape:zoom="2.9859155"
     inkscape:cx="177.5"
     inkscape:cy="130"
     inkscape:window-x="-8"
     inkscape:window-y="-8"
     inkscape:window-maximized="1"
     inkscape:current-layer="#gr" />
  <title
     id="title2">__🥭Illustrations/ illustration_seo</title>
  <defs
     id="defs63">
    <linearGradient
       inkscape:collect="always"
       id="linearGradient964">
      <stop
         style="stop-color:#3eb5ff;stop-opacity:1;"
         offset="0"
         id="stop960" />
      <stop
         style="stop-color:#3eb5ff;stop-opacity:0;"
         offset="1"
         id="stop962" />
    </linearGradient>
    <linearGradient
       x1="19.4959033%"
       y1="70.8097699%"
       x2="77.4790349%"
       y2="18.2357903%"
       id="linearGradient-1">
      <stop
         stop-color="#00AB55"
         offset="0%"
         id="stop4" />
      <stop
         stop-color="#00AB55"
         stop-opacity="0"
         offset="100%"
         id="stop6" />
    </linearGradient>
    <filter
       x="-35.6%"
       y="-38.8%"
       width="171.1%"
       height="177.5%"
       filterUnits="objectBoundingBox"
       id="filter-2">
      <feOffset
         dx="12"
         dy="12"
         in="SourceAlpha"
         result="shadowOffsetOuter1"
         id="feOffset9" />
      <feGaussianBlur
         stdDeviation="12"
         in="shadowOffsetOuter1"
         result="shadowBlurOuter1"
         id="feGaussianBlur11" />
      <feColorMatrix
         values="0 0 0 0 0   0 0 0 0 0.321568627   0 0 0 0 0.28627451  0 0 0 0.32 0"
         type="matrix"
         in="shadowBlurOuter1"
         result="shadowMatrixOuter1"
         id="feColorMatrix13" />
      <feMerge
         id="feMerge19">
        <feMergeNode
           in="shadowMatrixOuter1"
           id="feMergeNode15" />
        <feMergeNode
           in="SourceGraphic"
           id="feMergeNode17" />
      </feMerge>
    </filter>
    <linearGradient
       x1="55.647854%"
       y1="21.7699098%"
       x2="45.0059063%"
       y2="112.994736%"
       id="linearGradient-3">
      <stop
         stop-color="#000000"
         offset="0%"
         id="stop22" />
      <stop
         stop-color="#000000"
         stop-opacity="0.69"
         offset="8%"
         id="stop24" />
      <stop
         stop-color="#000000"
         stop-opacity="0.32"
         offset="21%"
         id="stop26" />
      <stop
         stop-color="#000000"
         stop-opacity="0"
         offset="100%"
         id="stop28" />
    </linearGradient>
    <linearGradient
       x1="-32.1581978%"
       y1="19.9534504%"
       x2="215.481884%"
       y2="-174.062289%"
       id="linearGradient-4">
      <stop
         stop-color="#000000"
         offset="1%"
         id="stop31" />
      <stop
         stop-color="#000000"
         stop-opacity="0.69"
         offset="8%"
         id="stop33" />
      <stop
         stop-color="#000000"
         stop-opacity="0.32"
         offset="21%"
         id="stop35" />
      <stop
         stop-color="#000000"
         stop-opacity="0"
         offset="100%"
         id="stop37" />
    </linearGradient>
    <linearGradient
       x1="0%"
       y1="12.8711957%"
       x2="100%"
       y2="87.1288043%"
       id="linearGradient-5">
      <stop
         stop-color="#FFE16A"
         offset="0%"
         id="stop40" />
      <stop
         stop-color="#B78103"
         offset="100%"
         id="stop42" />
    </linearGradient>
    <filter
       x="-37.1%"
       y="-45.1%"
       width="174.2%"
       height="190.2%"
       filterUnits="objectBoundingBox"
       id="filter-6">
      <feOffset
         dx="4"
         dy="4"
         in="SourceAlpha"
         result="shadowOffsetOuter1"
         id="feOffset45" />
      <feGaussianBlur
         stdDeviation="4"
         in="shadowOffsetOuter1"
         result="shadowBlurOuter1"
         id="feGaussianBlur47" />
      <feColorMatrix
         values="0 0 0 0 0   0 0 0 0 0.321568627   0 0 0 0 0.28627451  0 0 0 0.32 0"
         type="matrix"
         in="shadowBlurOuter1"
         result="shadowMatrixOuter1"
         id="feColorMatrix49" />
      <feMerge
         id="feMerge55">
        <feMergeNode
           in="shadowMatrixOuter1"
           id="feMergeNode51" />
        <feMergeNode
           in="SourceGraphic"
           id="feMergeNode53" />
      </feMerge>
    </filter>
    <linearGradient
       x1="49.6622116%"
       y1="33.6306938%"
       x2="52.2276766%"
       y2="84.09698%"
       id="linearGradient-7">
      <stop
         stop-color="#00AB55"
         offset="0%"
         id="stop58"
         style="stop-color:#3eb5ff;stop-opacity:1" />
      <stop
         stop-color="#007B55"
         offset="100%"
         id="stop60"
         style="stop-color:#1f6ab7;stop-opacity:1" />
    </linearGradient>
    <linearGradient
       inkscape:collect="always"
       xlink:href="#linearGradient964"
       id="linearGradient966"
       x1="43.202831"
       y1="198.26414"
       x2="296.72641"
       y2="53.584908"
       gradientUnits="userSpaceOnUse" />
  </defs>
  <g
     id="__🥭Illustrations/-illustration_seo"
     stroke="none"
     stroke-width="1"
     fill="none"
     fill-rule="evenodd">
    <g
       id="Group"
       fill="url(#linearGradient-1)"
       opacity="0.24">
      <g
         id="__🥭Illustrations/-X🩸Setup/-Shape_1">
        <path
           d="m 0,143.56385 c 0,29.94128 11.053354,57.22515 29.242418,77.84527 20.866898,23.66329 51.126038,38.54086 84.855092,38.59088 14.74091,0.0213 28.83588,-2.80724 41.78277,-7.97079 6.69419,-2.67088 14.18669,-2.36434 20.67023,0.8 7.60521,3.70692 16.12142,5.78533 25.11413,5.78533 3.71476,0 7.35258,-0.35723 10.87146,-1.03525 10.04441,-1.9287 19.1848,-6.49265 26.69129,-12.95678 4.71749,-4.06415 10.75953,-6.10691 16.93448,-6.09978 h 0.10494 c 20.4044,0 39.35756,-6.30652 55.09343,-17.11361 14.06776,-9.64907 25.55563,-22.8918 33.20981,-38.44026 C 351.24326,169.4196 355,154.11352 355,137.91397 355,82.352978 310.79203,37.305216 256.26681,37.305216 c -5.55855,0 -11.00439,0.478414 -16.3173,1.371084 C 225.88174,15.470045 200.68989,0 171.95195,0 159.81891,0 148.31627,2.7572181 138.02001,7.699775 128.22824,12.384907 119.52236,19.042309 112.40064,27.155548 88.218514,27.548418 65.858402,35.598291 47.557406,49.032699 18.749505,70.167675 0,104.63726 0,143.56385 Z"
           id="background"
           style="fill:url(#linearGradient966);fill-opacity:1" />
      </g>
    </g>
    <g
       id="#gr"
       filter="url(#filter-2)"
       transform="translate(71,38)">
      <path
         d="m 21.413718,167.42744 -1.016606,-0.0635 c -3.327798,-0.26209 -5.559567,1.43754 -8.363177,3.08159 -3.33574,1.96173 -7.1480144,3.04187 -10.3963899,5.09891 -0.4844765,0.30975 -1.02454871,0.88159 -0.73068589,1.37401 0.19855599,0.32563 0.65126349,0.37329 1.04043319,0.38123 8.2202166,0.15884 16.4166066,0.19061 24.6209386,0.19061 H 175.4852 c 5.42929,-0.0221 10.85163,-0.39085 16.23393,-1.10397 0.79967,-0.0242 1.45658,-0.63926 1.53319,-1.43561 0.0766,-0.79636 -0.45099,-1.52541 -1.23138,-1.70157 -4.61709,-1.58845 -9.25536,-3.07365 -13.9148,-4.4556 -11.84188,-3.55812 -25.13719,-2.00144 -37.32852,-1.74729 -12.83466,0.27798 -25.69314,0.59567 -38.51986,-0.23033 -9.236821,-0.59566 -16.488085,0 -25.756677,0.30181 -6.758845,0.19855 -13.446209,0.79422 -20.228881,0.69097 l -24.088809,-0.2939 c -3.589891,0.0238 -7.20361,0.12708 -10.769675,-0.0874 z"
         id="Path"
         fill="#005249"
         style="fill:#0b357a;fill-opacity:1" />
      <polygon
         id="polygon69"
         fill="#00ab55"
         fill-rule="nonzero"
         points="118.62672,129.84476 77.851264,129.84476 68.820939,168.33285 129.33285,168.33285 "
         style="fill:#3eb5ff;fill-opacity:1" />
      <polygon
         id="polygon71"
         fill="url(#linearGradient-3)"
         fill-rule="nonzero"
         points="118.62672,129.84476 77.851264,129.84476 68.820939,168.33285 129.33285,168.33285 " />
      <path
         d="m 189.71769,27.008664 v 99.277976 c -0.035,5.97938 -4.90141,10.80317 -10.88087,10.78561 H 22.041155 c -5.989979,0 -10.848276,-4.85123 -10.857039,-10.8412 V 27.008664 c 0,-5.996177 4.860862,-10.857066 10.857039,-10.857066 H 178.83682 c 2.87947,-0.0063 5.64352,1.131501 7.68408,3.163124 2.04056,2.031623 3.19048,4.790647 3.19679,7.670115 z"
         id="path73"
         fill="#00ab55"
         fill-rule="nonzero"
         style="fill:#3eb5ff;fill-opacity:1" />
      <path
         d="M 189.71769,27.016607 V 114.03971 H 11.184116 V 27.016607 c 0,-5.997464 4.859577,-10.860598 10.857039,-10.864985 H 178.83682 c 2.88368,-0.0021 5.65009,1.141412 7.69065,3.178991 2.04056,2.03758 3.18811,4.802314 3.19022,7.685994 z"
         id="path75"
         fill="#005249"
         style="fill:#0b357a;fill-opacity:1" />
      <path
         d="M 187.03321,29.057762 V 111.13285 H 13.892419 V 29.057762 C 13.940462,23.289483 18.63949,18.643691 24.407942,18.661219 H 176.49386 c 5.77773,-0.03069 10.49129,4.618928 10.53935,10.396543 z"
         id="path77"
         fill="#ffffff"
         fill-rule="nonzero" />
      <path
         d="M 187.03321,29.057762 V 111.13285 H 13.892419 V 29.057762 C 13.940462,23.289483 18.63949,18.643691 24.407942,18.661219 H 176.49386 c 5.77773,-0.03069 10.49129,4.618928 10.53935,10.396543 z"
         id="path79"
         fill="#00ab55"
         fill-rule="nonzero"
         opacity="0.18"
         style="fill:#3eb5ff;fill-opacity:1" />
      <path
         d="m 52.015163,137.0722 c 1.453429,-6.73502 -5.456318,-12.66787 -5.194224,-19.55379 0.111191,-3.02599 1.588447,-5.80577 3.065704,-8.45848 0.08697,-0.20804 0.240634,-0.38127 0.436823,-0.49242 0.301805,-0.12708 0.635379,0.0635 0.929242,0.2065 2.740072,1.40577 6.226714,-0.58773 7.545126,-3.36751 1.318411,-2.77978 1.072202,-6.012276 0.794224,-9.070038 -2.972427,2.396792 -6.992897,3.037649 -10.563177,1.683755 -1.73935,-0.675091 -3.383394,-1.834657 -5.24982,-1.826756 -1.866426,0.008 -3.581949,1.270799 -4.940072,2.628922 -4.662094,4.662097 -7.283032,11.063537 -8.48231,17.552347 -1.199278,6.48881 -0.9213,14.00216 -0.794224,20.60217 z"
         id="path81"
         fill="url(#linearGradient-4)"
         fill-rule="nonzero" />
      <line
         x1="159.9899"
         y1="63.868591"
         x2="135.96461"
         y2="50.771843"
         id="line83" />
      <path
         d="m 62.657762,57.324188 h 82.599278 c 3.07046,0 5.55957,2.489103 5.55957,5.559567 v 0 c 0,3.070463 -2.48911,5.559566 -5.55957,5.559566 H 62.657762 Z"
         id="path85"
         fill="#00ab55"
         fill-rule="nonzero"
         style="fill:#3eb5ff;fill-opacity:1" />
      <rect
         id="Rectangle"
         fill="#ffffff"
         fill-rule="nonzero"
         x="62.657761"
         y="57.324188"
         width="66.683029"
         height="11.07148" />
      <circle
         id="Oval"
         stroke="#ffffff"
         stroke-width="0.794224"
         cx="139.22888"
         cy="62.232491"
         r="2.668592" />
      <line
         x1="141.67509"
         y1="66.576897"
         x2="140.57906"
         y2="64.535744"
         id="line89"
         stroke="#ffffff"
         stroke-width="0.794224" />
      <path
         d="m 44.263538,167.94368 c -0.04838,0.5423 0.136479,1.07954 0.508303,1.47726 0.197604,0.13666 0.422518,0.22879 0.659206,0.27003 0.627442,0.12285 1.268282,0.1629 1.906137,0.11914 1.191657,-0.0819 2.375629,-0.25183 3.542238,-0.50831 l 2.001444,-0.38122 c 0.256155,-0.009 0.496056,-0.12793 0.659206,-0.32563 0.128929,-0.26256 0.08488,-0.57717 -0.111191,-0.79423 -0.342044,-0.39505 -0.787686,-0.68664 -1.286643,-0.84188 -1.203262,-0.48942 -2.443506,-0.88247 -3.709025,-1.17545 -0.209522,-0.032 -0.408335,-0.11366 -0.579783,-0.23826 -0.254152,-0.22239 -0.301805,-0.59567 -0.476535,-0.88159 -0.348572,-0.51713 -0.983082,-0.76142 -1.588447,-0.61155 -0.579784,0.11119 -1.413719,0.50036 -1.588448,1.13574 -0.08214,0.91813 -0.06082,1.84258 0.06354,2.75595 z"
         id="path91"
         fill="#ba8b72"
         fill-rule="nonzero" />
      <path
         d="m 50.744404,166.0296 c -0.416969,-0.10922 -0.860414,0.0153 -1.159567,0.32563 -0.333574,0.48448 0.09531,1.26282 -0.293862,1.69964 -0.24471,0.20601 -0.564079,0.30096 -0.881589,0.2621 h -2.207942 c -0.594055,0.0282 -1.18927,-0.0199 -1.771119,-0.14296 -0.130147,-0.0555 -0.273621,-0.0721 -0.412997,-0.0477 -0.201451,0.0565 -0.348872,0.22903 -0.373285,0.43683 -0.01901,0.20268 0.01095,0.40697 0.08736,0.59567 0.143284,0.4033 0.349706,0.78129 0.611552,1.11985 0.072,0.0999 0.163955,0.18371 0.270036,0.24621 0.125465,0.0523 0.261577,0.0741 0.397112,0.0635 1.31047,0 2.620939,0.0477 3.971119,-0.0556 0.913358,-0.0635 1.818773,-0.19061 2.724188,-0.27003 1.31549,0.002 2.621389,-0.22383 3.859928,-0.66715 0.32567,-0.11005 0.592405,-0.3481 0.738628,-0.65921 0.06668,-0.27635 0.0054,-0.56804 -0.166787,-0.79422 -0.175904,-0.23296 -0.397517,-0.42754 -0.651263,-0.57184 -0.715326,-0.4612 -1.501453,-0.80194 -2.327076,-1.00867 -0.792243,-0.23025 -1.598806,-0.40801 -2.414441,-0.53213 z"
         id="path93"
         fill="#7a4f01"
         fill-rule="nonzero" />
      <path
         d="m 19.992058,165.49747 v 0.16679 c 0.07942,1.76318 2.382671,1.81083 3.677256,1.74729 1.188615,-0.0858 2.369665,-0.2557 3.534296,-0.5083 l 2.009386,-0.38123 c 0.254213,-0.0169 0.491322,-0.134 0.659206,-0.32563 0.120345,-0.26387 0.07699,-0.57355 -0.111191,-0.79422 -0.343066,-0.3976 -0.79202,-0.68956 -1.294585,-0.84188 -1.082274,-0.4159 -2.185026,-0.77642 -3.303971,-1.08015 -0.99278,-0.29386 -0.158845,-1.65992 -0.04765,-2.38267 0.03987,-0.14557 0.03987,-0.29919 0,-0.44476 -0.113252,-0.15688 -0.279879,-0.26703 -0.468592,-0.30975 -0.5783,-0.19909 -1.183563,-0.3089 -1.794945,-0.32563 -0.123762,-0.0164 -0.249465,0.009 -0.357401,0.0715 -0.09508,0.0733 -0.166823,0.17262 -0.206498,0.28592 l -1.91408,4.09025 c -0.189616,0.31773 -0.318863,0.66778 -0.381227,1.03249 z"
         id="path95"
         fill="#ba8b72"
         fill-rule="nonzero" />
      <path
         d="m 20.833935,113.56318 c 0,0 -1.429603,8.05343 1.52491,14.08953 1.548155,3.24621 3.279713,6.40173 5.186281,9.45126 0,0 -6.147292,6.64765 -6.147292,15.03466 0,8.387 -0.158845,8.73646 -0.158845,8.73646 l 3.693141,1.86643 9.212996,-25.66932 c 0,0 0.555957,-3.63754 0,-4.86859 -0.555956,-1.23105 -5.281588,-15.26498 -5.281588,-15.26498 z"
         id="path97"
         fill="#212b36"
         fill-rule="nonzero" />
      <path
         d="m 54.223105,80.912667 c -1.906138,0 -3.971119,-2.033245 -5.162455,-5.170429 -1.334296,-3.629603 -0.754513,-6.957401 1.35018,-7.73574 2.104693,-0.778339 4.701805,1.38195 6.044044,5.011552 v 0 c 1.342238,3.637546 0.794223,6.965344 -1.342239,7.743683 -0.285558,0.101342 -0.586526,0.152399 -0.88953,0.150934 z M 51.300361,69.563172 c -0.102499,-3.07e-4 -0.204388,0.01578 -0.301805,0.04766 -0.984838,0.365343 -1.334296,2.811553 -0.325632,5.559567 1.008664,2.748015 2.859206,4.360289 3.844043,3.971119 0.984838,-0.389169 1.334297,-2.811552 0.333574,-5.559567 v 0 c -0.913357,-2.430325 -2.525631,-4.018777 -3.55018,-4.018777 z"
         id="Shape"
         fill="#292d32"
         fill-rule="nonzero" />
      <path
         d="m 61.8,88.894585 c -0.260959,-7.6e-4 -0.508171,-0.117095 -0.67509,-0.31769 l -6.353791,-8.005776 c -0.141606,-0.17886 -0.206129,-0.406761 -0.179301,-0.633308 0.02683,-0.226547 0.142796,-0.433074 0.322261,-0.573912 v 0 c 0.366595,-0.290536 0.899059,-0.23019 1.191336,0.135018 v 0 l 6.353791,8.005776 c 0.205257,0.255572 0.245229,0.606407 0.102722,0.901601 -0.142507,0.295193 -0.442083,0.482109 -0.76987,0.480349 z"
         id="path100"
         fill="#292d32"
         fill-rule="nonzero" />
      <path
         d="m 50.561733,77.028881 c 0.09844,0.840698 0.132958,1.687653 0.103249,2.533574 -0.167979,0.650074 -0.569454,1.215532 -1.127798,1.588447 -0.557681,0.374995 -1.17958,0.644215 -1.834657,0.794224 -0.290189,0.02336 -0.554145,0.177007 -0.717765,0.417805 -0.163619,0.240799 -0.209261,0.542788 -0.124112,0.821185 v 2.168231 c 0.0243,0.226444 -0.03194,0.454212 -0.158845,0.643321 -0.103268,0.101587 -0.232353,0.172995 -0.373285,0.206498 -1.08397,0.253143 -2.193866,-0.305148 -2.636823,-1.326354 -0.238267,-0.476534 -0.508304,-0.945126 -0.794224,-1.397834 -0.280661,-0.585887 -0.450313,-1.218714 -0.500361,-1.866426 -0.212286,-2.07862 0.179288,-4.174366 1.127798,-6.036101 0.586331,-1.19021 1.446422,-2.224497 2.509747,-3.01805 0.841877,-0.60361 2.501805,-1.516968 3.367509,-0.468592 0.428881,0.524187 0.420939,1.294584 0.794224,1.842599 0.293863,0.397112 0.794224,0.667148 0.881588,1.151625 0.08736,0.484476 -0.238267,0.794223 -0.389169,1.231046 -0.08194,0.22951 -0.124892,0.471114 -0.127076,0.714802 z"
         id="path102"
         fill="#ba8b72"
         fill-rule="nonzero" />
      <path
         d="m 56.923466,81.405054 v -0.127076 c 0.008,-0.496761 0.190756,-0.974823 0.516245,-1.35018 0.345376,-0.374224 0.906331,-0.453886 1.342239,-0.190614 0.174729,0.119134 0.293862,0.301805 0.484476,0.38917 0.190614,0.08736 0.60361,0 0.794224,0.238267 0.190613,0.238267 0.150902,0.412996 0.246209,0.619495 0.09531,0.206498 0.373285,0.381227 0.555957,0.579783 0.897473,0.968953 -0.09531,2.700361 -0.452708,3.685199 -0.540072,1.477256 -1.056317,2.962454 -1.509025,4.47148 -0.526957,0.07955 -1.065251,-0.02419 -1.52491,-0.293863 -0.169296,-0.100245 -0.319807,-0.229255 -0.444765,-0.381228 -0.293726,-0.528593 -0.35692,-1.154786 -0.174729,-1.731408 0.11083,-0.435564 0.143104,-0.887401 0.09531,-1.334296 -0.126513,-0.484117 -0.285724,-0.959095 -0.476535,-1.42166 -0.135018,-0.38917 -0.246209,-0.881589 0.06354,-1.159567 0.103249,-0.09531 0.254152,-0.150903 0.341516,-0.262094 0.07508,-0.115717 0.113804,-0.251256 0.111192,-0.38917 0.04765,-0.476534 0.0079,-0.88953 0.03177,-1.342238 z"
         id="path104"
         fill="#ba8b72"
         fill-rule="nonzero" />
      <path
         d="m 39.41083,117.04188 8.935018,20.03032 -0.373285,28.48881 -4.098195,-0.3018 c 0,0 -7.012996,-16.20217 -2.501805,-26.20939 0,0 -10.833213,-9.26065 -14.836101,-14.5343 -4.916245,-6.48881 -3.804332,-11.91335 -3.804332,-11.91335 z"
         id="path106"
         fill="#212b36"
         fill-rule="nonzero" />
      <path
         d="m 43.548736,82.413718 c 1.100499,0.246693 2.167184,0.625366 3.176896,1.127798 3.431047,1.588448 3.581949,4.288809 4.765343,7.537184 0.761377,2.066894 1.630929,4.092314 2.605054,6.06787 l 1.636101,-9.784837 4.590614,1.850541 c 0,0 0.452707,14.454876 -2.914802,16.392776 -2.168231,1.25488 -5.202166,-0.20649 -7.148014,-1.21516 -0.714802,-0.36534 -1.898195,-1.46931 -2.668592,-1.58845 -1.469314,-0.19855 -1.588448,1.5408 -2.859206,2.56535 -0.849957,0.49071 -1.664686,1.04006 -2.438267,1.64404 -0.723475,0.8466 -1.264257,1.83353 -1.588448,2.89892 -0.366945,1.31148 -0.474852,2.6819 -0.317689,4.03465 0.06354,0.92925 0.127075,1.98556 -0.53213,2.62889 -0.376357,0.32568 -0.840554,0.53292 -1.334296,0.59566 -1.631771,0.2357 -3.290223,0.21695 -4.916246,-0.0556 -3.225343,-0.25421 -6.417717,-0.82617 -9.530686,-1.70758 -1.125208,-0.35339 -2.223985,-0.786 -3.288086,-1.29459 -0.232808,-0.0978 -0.445527,-0.23784 -0.627437,-0.413 -0.196626,-0.22535 -0.328387,-0.49985 -0.381228,-0.79422 -0.420938,-1.96967 1.000722,-3.79639 1.715524,-5.6787 0.476534,-1.27076 0.635379,-2.64476 1.072202,-3.93141 0.476534,-1.43754 1.366065,-2.38267 2.160289,-3.653427 0.643321,-1.000722 1.000722,-2.184115 1.644043,-3.216606 1.718372,-2.649023 3.632498,-5.165793 5.726354,-7.529242 1.229009,-1.522742 2.595541,-2.929154 4.08231,-4.201444 1.70196,-1.492503 3.876149,-2.336303 6.13935,-2.382672 0.412408,0.0024 0.824002,0.03692 1.231047,0.103249 z"
         id="path108"
         fill="url(#linearGradient-5)" />
      <path
         d="m 39.950902,65.592058 c -2.692001,0.149394 -5.019297,1.92872 -5.869314,4.487364 -0.3574,0.9213 -0.21444,2.080867 -0.3574,3.073647 -0.064,1.122073 -0.522531,2.185418 -1.294585,3.002166 -0.953069,0.873646 -2.382672,1.008664 -3.597834,1.326353 -1.945848,0.492419 -3.883755,1.651986 -4.598556,3.534296 -0.714801,1.882311 -0.111191,3.804333 -0.428881,5.686643 -0.262153,1.566983 -1.114845,2.973924 -2.382671,3.931408 -0.873647,0.643321 -1.91408,1.048375 -2.819495,1.659928 -1.575956,1.185649 -2.616198,2.94893 -2.891766,4.90174 -0.275568,1.952808 0.236125,3.935087 1.422452,5.510537 l 0.111191,0.14296 c 0.334842,0.33767 0.645365,0.69862 0.929242,1.08014 0.259364,0.44539 0.495305,0.90402 0.706859,1.37401 1.26257,2.19868 3.664675,3.48904 6.194946,3.3278 2.502541,-0.20723 4.790525,-1.49476 6.266426,-3.52636 1.389892,-1.85054 2.152347,-4.16967 3.836101,-5.750177 1.176055,-0.918581 2.412538,-1.757054 3.701083,-2.509748 2.009387,-1.429603 3.574008,-3.724909 3.454874,-6.187003 -0.111191,-2.049098 -1.834657,-4.280867 -0.238267,-6.099639 0.59516,-0.58759 1.256083,-1.104602 1.969675,-1.540794 0.718108,-0.440978 1.304991,-1.066255 1.699639,-1.810831 0.794224,-1.715523 -0.357401,-3.883754 0.555957,-5.559567 0.67509,-1.199278 2.184115,-1.644043 3.176895,-2.636823 1.082641,-1.217335 1.341439,-2.960328 0.659206,-4.439711 -0.705521,-1.452505 -2.026484,-2.511026 -3.597834,-2.883032 -1.151122,-0.239245 -2.329988,-0.316767 -3.502527,-0.230325 l -2.001444,0.06354 c -0.369532,-0.02531 -0.740789,-0.0013 -1.103972,0.07148 z"
         id="path110"
         fill="#b72136"
         fill-rule="nonzero" />
      <path
         d="m 26.687365,163.28159 c -0.415532,-0.11121 -0.858744,0.0102 -1.159567,0.31769 -0.333574,0.49242 0.09531,1.26281 -0.293863,1.70758 -0.250168,0.20108 -0.57089,0.29272 -0.889531,0.25415 h -2.231769 c -0.593982,0.0242 -1.188704,-0.0238 -1.771119,-0.14296 -0.134347,-0.0499 -0.27823,-0.069 -0.420938,-0.0556 -0.198372,0.0639 -0.341169,0.23776 -0.365343,0.44477 -0.02317,0.20018 0.007,0.40294 0.08736,0.58773 0.143258,0.40576 0.349647,0.78637 0.611553,1.12779 0.06965,0.10195 0.16211,0.18625 0.270036,0.24621 0.12647,0.0487 0.261754,0.0704 0.397112,0.0635 1.310469,0 2.620938,0.0477 3.971119,-0.0556 0.905415,-0.0715 1.81083,-0.19855 2.724187,-0.27003 1.315153,-0.002 2.62039,-0.22763 3.859928,-0.66715 0.325642,-0.11126 0.590342,-0.35294 0.730686,-0.66715 0.06892,-0.27516 0.01061,-0.56673 -0.158845,-0.79422 -0.176219,-0.23055 -0.39788,-0.42247 -0.651263,-0.5639 -0.715326,-0.46119 -1.501453,-0.80194 -2.327076,-1.00866 -0.781041,-0.23003 -1.577205,-0.40519 -2.382671,-0.52419 z"
         id="path112"
         fill="#7a4f01"
         fill-rule="nonzero" />
      <g
         id="g117"
         filter="url(#filter-6)"
         transform="translate(109.79495,76.631769)"
         fill-rule="nonzero">
        <rect
           id="rect114"
           fill="#ffffff"
           x="-7.1054274e-15"
           y="4.6185278e-14"
           width="61.544403"
           height="50.35379"
           rx="7.2433214" />
        <path
           d="m 38.39278,17.018773 c 0,-1.10457 0.89543,-2 2,-2 h 1.14657 c 1.10457,0 2,0.89543 2,2 v 24.884476 h 9.276535 v 0.794224 H 9.0382671 V 10.380505 H 9.832491 v 31.522744 h 6.536462 V 28.511191 c 0,-1.104569 0.895431,-2 2,-2 h 1.14657 c 1.10457,0 2,0.895431 2,2 v 13.392058 h 5.353069 V 21.8 c 0,-1.10457 0.895431,-2 2,-2 h 1.14657 c 1.10457,0 2.000001,0.89543 2.000001,2 v 20.103249 h 6.377617 z"
           id="Combined-Shape"
           fill="#00ab55"
           style="fill:#3eb5ff;fill-opacity:1" />
      </g>
      <rect
         id="rect119"
         fill="url(#linearGradient-7)"
         fill-rule="nonzero"
         x="2.2570398"
         y="0.41805053"
         width="61.544403"
         height="50.35379"
         rx="4.7256317" />
      <rect
         id="rect121"
         fill="#005249"
         opacity="0.48"
         x="10.326354"
         y="10.84621"
         width="45.127796"
         height="2.8353791"
         rx="1"
         style="fill:#0b357a;fill-opacity:1" />
      <rect
         id="rect123"
         fill="#005249"
         opacity="0.48"
         x="10.326354"
         y="19.344404"
         width="28.09964"
         height="2.8353791"
         rx="1"
         style="fill:#0b357a;fill-opacity:1" />
      <rect
         id="rect125"
         fill="#005249"
         opacity="0.48"
         x="10.326354"
         y="27.8426"
         width="45.127796"
         height="2.8353791"
         rx="1"
         style="fill:#0b357a;fill-opacity:1" />
      <rect
         id="rect127"
         fill="#005249"
         opacity="0.48"
         x="10.326354"
         y="36.340794"
         width="28.09964"
         height="2.8353791"
         rx="1"
         style="fill:#0b357a;fill-opacity:1" />
    </g>
  </g>
</svg>
