<?xml version="1.0" encoding="UTF-8"?>
<svg width="294px" height="217px" viewBox="0 0 294 217" version="1.1" xmlns="http://www.w3.org/2000/svg" xmlns:xlink="http://www.w3.org/1999/xlink">
    <title>__🥭Illustrations/ illustration_upload</title>
    <defs>
        <linearGradient x1="19.4959033%" y1="70.8097699%" x2="77.4790349%" y2="18.2357903%" id="linearGradient-1">
            <stop stop-color="#00AB55" offset="0%"></stop>
            <stop stop-color="#00AB55" stop-opacity="0" offset="100%"></stop>
        </linearGradient>
        <filter x="-32.1%" y="-43.4%" width="164.2%" height="186.8%" filterUnits="objectBoundingBox" id="filter-2">
            <feOffset dx="12" dy="12" in="SourceAlpha" result="shadowOffsetOuter1"></feOffset>
            <feGaussianBlur stdDeviation="12" in="shadowOffsetOuter1" result="shadowBlurOuter1"></feGaussianBlur>
            <feColorMatrix values="0 0 0 0 0   0 0 0 0 0.321568627   0 0 0 0 0.28627451  0 0 0 0.32 0" type="matrix" in="shadowBlurOuter1" result="shadowMatrixOuter1"></feColorMatrix>
            <feMerge>
                <feMergeNode in="shadowMatrixOuter1"></feMergeNode>
                <feMergeNode in="SourceGraphic"></feMergeNode>
            </feMerge>
        </filter>
        <linearGradient x1="50%" y1="100%" x2="50%" y2="0%" id="linearGradient-3">
            <stop stop-color="#808080" stop-opacity="0.25" offset="0%"></stop>
            <stop stop-color="#808080" stop-opacity="0.12" offset="54%"></stop>
            <stop stop-color="#808080" stop-opacity="0.1" offset="100%"></stop>
        </linearGradient>
        <linearGradient x1="87.0863486%" y1="26.1728265%" x2="31.1851136%" y2="80.4737954%" id="linearGradient-4">
            <stop stop-color="#00AB55" offset="0%"></stop>
            <stop stop-color="#007B55" offset="100%"></stop>
        </linearGradient>
    </defs>
    <g id="__🥭Illustrations/-illustration_upload" stroke="none" stroke-width="1" fill="none" fill-rule="evenodd">
        <g id="Group" transform="translate(0.000000, 1.000000)" fill="url(#linearGradient-1)" opacity="0.24">
            <g id="__🥭Illustrations/-X🩸Setup/-Shape_1">
                <path d="M0,119.268431 C0,144.142726 9.18278652,166.809322 24.2937011,183.939888 C41.629278,203.598615 66.7676404,215.958444 94.7887004,216 C107.034999,216.017667 118.744666,213.667832 129.500538,209.378117 C135.061871,207.15923 141.286405,207.413889 146.672736,210.04273 C152.990906,213.122323 160.065914,214.849001 167.536776,214.849001 C170.62289,214.849001 173.645072,214.552228 176.568453,213.988952 C184.913036,212.386642 192.506593,208.595058 198.742752,203.224853 C202.661903,199.848487 207.681439,198.15142 212.811401,198.157343 L212.898579,198.157343 C229.849925,198.157343 245.595627,192.918086 258.668506,183.939888 C270.355571,175.923733 279.899341,164.922084 286.258194,152.004901 C291.802092,140.748594 294.923077,128.032769 294.923077,114.574684 C294.923077,68.4163204 258.196451,30.9920253 212.898579,30.9920253 C208.280709,30.9920253 203.756476,31.389477 199.342668,32.1310799 C187.655602,12.8520372 166.726986,0 142.852387,0 C132.772632,0 123.216593,2.29061192 114.662782,6.39673612 C106.528073,10.2889997 99.2954984,15.8197647 93.3789942,22.5599939 C73.289227,22.8863782 54.7131344,29.5739648 39.5092296,40.7348578 C15.5765115,58.293145 0,86.9294131 0,119.268431 Z" id="background"></path>
            </g>
        </g>
        <g id="#gr" filter="url(#filter-2)" transform="translate(39.000000, 30.000000)">
            <path d="M160.6415,30.0821614 C160.671108,30.0150506 160.694794,29.9439921 160.71848,29.8729336 C160.643094,30.0300476 160.577181,30.1915339 160.521095,30.356526 C160.562546,30.2637552 160.603997,30.1729583 160.6415,30.0821614 Z" id="Path" fill="url(#linearGradient-3)" fill-rule="nonzero"></path>
            <path d="M143.763138,104.30866 C143.69208,105.187022 141.530718,104.855416 141.530718,104.855416 C137.946213,105.352825 138.538367,101.839378 138.538367,101.839378 L138.538367,101.659758 L138.662719,98.383173 L138.698248,97.469282 C138.698248,97.469282 142.645941,95.6651863 142.545275,96.0441648 C142.507772,96.1862818 142.590674,96.5277572 142.705157,96.8968665 C142.902541,97.5107328 143.184801,98.2055268 143.184801,98.2055268 C143.184801,98.2055268 143.208488,99.6543301 143.090057,100.080681 C142.971626,100.507032 143.707871,101.647915 143.707871,101.647915 C143.707871,101.647915 143.707871,101.718974 143.719714,101.8453 C143.77813,102.665057 143.792625,103.487353 143.763138,104.30866 L143.763138,104.30866 Z" id="Path" fill="#B77983" fill-rule="nonzero"></path>
            <path d="M150.673575,105.25808 C150.673575,105.25808 148.512213,105.59166 148.441155,104.711325 C148.408334,103.888166 148.420854,103.063825 148.478658,102.242043 C148.478658,102.123612 148.488527,102.044658 148.488527,102.044658 C148.488527,102.044658 149.224772,100.903775 149.106341,100.477424 C148.98791,100.051073 149.011596,98.6002961 149.011596,98.6002961 C149.011596,98.6002961 149.088576,98.4167283 149.189243,98.1522329 C149.400444,97.597582 149.718233,96.697508 149.653096,96.440908 C149.558352,96.0599556 153.500123,97.8640513 153.500123,97.8640513 L153.5396,98.8865038 L153.660005,102.054528 L153.660005,102.234148 C153.660005,102.234148 154.260054,105.757464 150.673575,105.25808 Z" id="Path" fill="#B77983" fill-rule="nonzero"></path>
            <path d="M164.630644,43.4451024 L164.589193,43.4451024 C164.664199,43.2477177 164.630644,43.4451024 164.630644,43.4451024 Z" id="Path"></path>
            <path d="M142.720947,96.8968665 C141.236615,98.6614853 139.633851,98.6318776 138.67851,98.383173 L138.714039,97.469282 C138.714039,97.469282 142.661732,95.6651863 142.561066,96.0441648 C142.523563,96.1862818 142.598569,96.5277572 142.720947,96.8968665 Z" id="Path" fill="#000000" fill-rule="nonzero" opacity="0.05"></path>
            <path d="M153.5396,98.8943992 C151.018998,100.351098 149.540587,98.6437207 149.197138,98.1601283 C149.40834,97.6054774 149.726129,96.7054034 149.660992,96.4488034 C149.566247,96.067851 153.508019,97.8719467 153.508019,97.8719467 L153.5396,98.8943992 Z" id="Path" fill="#000000" fill-rule="nonzero" opacity="0.05"></path>
            <path d="M150.839378,84.3609672 C150.839378,84.3609672 153.237602,82.9792746 153.760671,83.6010363 C154.28374,84.2227979 150.839378,84.3609672 150.839378,84.3609672 Z" id="Path" fill="#000000" fill-rule="nonzero" opacity="0.05"></path>
            <path d="M152.288182,85.1208981 C152.288182,85.1208981 151.893412,85.3182828 152.763879,85.5709351 C153.634345,85.8235875 152.288182,85.1208981 152.288182,85.1208981 Z" id="Path" fill="#000000" fill-rule="nonzero" opacity="0.05"></path>
            <path d="M137.786331,81.3212435 C137.705403,81.3449297 139.78189,82.7226746 141.657044,81.5817913 C141.649149,81.5817913 138.254133,81.1791266 137.786331,81.3212435 Z" id="Path" fill="#000000" fill-rule="nonzero" opacity="0.05"></path>
            <path d="M141.554404,83.9563286 C141.554404,83.9563286 140.985936,85.0735258 139.821367,85.2393289 C138.656797,85.405132 141.554404,83.9563286 141.554404,83.9563286 Z" id="Path" fill="#000000" fill-rule="nonzero" opacity="0.05"></path>
            <path d="M149.177399,86.3802122 C149.177399,86.3802122 151.909203,90.7226746 151.386134,91.7471009 C150.863064,92.7715273 149.177399,86.3802122 149.177399,86.3802122 Z" id="Path" fill="#000000" fill-rule="nonzero" opacity="0.05"></path>
            <path d="M143.786825,103.647422 C143.786825,103.890205 143.786825,104.117197 143.763138,104.304713 C143.69208,105.183074 141.530718,104.851468 141.530718,104.851468 C139.556871,105.125833 138.846287,104.178386 138.611399,103.272391 C138.537576,102.978112 138.501101,102.675709 138.502837,102.372317 C138.501559,102.191416 138.513433,102.010662 138.538367,101.831483 L138.538367,101.651863 C138.963723,101.523566 139.425084,101.617767 139.766099,101.902541 C140.644461,102.6151 141.80903,102.068344 141.80903,102.068344 C141.80903,102.068344 142.663706,102.139403 142.993338,102.423637 C143.17888,102.583518 143.484826,102.198618 143.71774,101.831483 C143.731557,102.068344 143.753269,102.496669 143.767086,102.954602 C143.782877,103.189489 143.786825,103.426351 143.786825,103.647422 Z" id="Path" fill="#000000" fill-rule="nonzero" opacity="0.05"></path>
            <path d="M140.32075,103.596102 C140.32075,103.596102 139.728596,104.176413 138.611399,103.280286 C138.537576,102.986008 138.501101,102.683604 138.502837,102.380212 C139.073279,102.814458 140.131261,103.596102 140.32075,103.596102 Z" id="Path" fill="#000000" fill-rule="nonzero" opacity="0.05"></path>
            <path d="M143.786825,103.647422 C143.689434,103.722539 143.565351,103.754113 143.443902,103.734681 C143.322453,103.715249 143.214415,103.646536 143.145324,103.544782 C143.375604,103.369563 143.58726,103.171135 143.776955,102.952628 C143.782877,103.189489 143.786825,103.426351 143.786825,103.647422 Z" id="Path" fill="#000000" fill-rule="nonzero" opacity="0.05"></path>
            <path d="M148.419442,104.054034 C148.419442,104.298791 148.419442,104.525783 148.441155,104.711325 C148.512213,105.59166 150.673575,105.25808 150.673575,105.25808 C152.647422,105.534419 153.358006,104.586973 153.592894,103.679003 C153.709233,103.207801 153.734026,102.718645 153.665926,102.238095 L153.665926,102.058475 C153.239841,101.932383 152.778949,102.026337 152.43622,102.309154 C151.557858,103.021712 150.395263,102.474957 150.395263,102.474957 C150.395263,102.474957 149.540587,102.547989 149.210955,102.832223 C149.025413,102.992105 148.719467,102.607205 148.488527,102.240069 C148.47471,102.476931 148.451024,102.905255 148.437207,103.363188 C148.421416,103.594128 148.417469,103.830989 148.419442,104.054034 Z" id="Path" fill="#000000" fill-rule="nonzero" opacity="0.05"></path>
            <path d="M151.885517,103.998766 C151.885517,103.998766 152.477671,104.579077 153.592894,103.682951 C153.667363,103.389424 153.704501,103.087675 153.70343,102.784851 C153.131014,103.217123 152.073032,103.998766 151.885517,103.998766 Z" id="Path" fill="#000000" fill-rule="nonzero" opacity="0.05"></path>
            <path d="M148.419442,104.054034 C148.51651,104.129064 148.64029,104.160597 148.761425,104.141156 C148.882559,104.121715 148.990255,104.05303 149.058969,103.951394 C148.828471,103.776434 148.616789,103.577983 148.427338,103.35924 C148.421416,103.594128 148.417469,103.830989 148.419442,104.054034 Z" id="Path" fill="#000000" fill-rule="nonzero" opacity="0.05"></path>
            <g opacity="0.05" transform="translate(159.644708, 29.989391)" fill="#000000" fill-rule="nonzero" id="Path">
                <path d="M0.64347397,0.937577103 C0.684924747,0.846780163 0.724401678,0.755983222 0.761904762,0.667160128 C0.799407846,0.578337034 0.813224772,0.528990871 0.834937084,0.457932396 C0.762310445,0.614156842 0.698391532,0.774283602 0.64347397,0.937577103 Z"></path>
            </g>
            <path d="M53.3195164,145.269924 C52.841159,144.694101 52.6218807,143.946269 52.7135455,143.203306 L61.4261041,71.9138909 L62.148532,65.9923513 C62.3160076,64.6297642 63.4680585,63.602716 64.8408586,63.592154 L90.3607205,63.4224032 C91.094815,63.4179034 91.7961588,63.1179257 92.3064507,62.5901784 C92.8167426,62.0624311 93.0929701,61.351398 93.0727856,60.6175672 L93.0629164,60.3471503 C93.0377679,59.6070368 93.3141691,58.8884243 93.8288035,58.3559285 C94.3434378,57.8234326 95.0522055,57.5225759 95.7927461,57.5225759 L122.609425,57.5225759 C124.114759,57.5225759 125.33599,58.7411538 125.339255,60.2464841 C125.339102,60.3692394 125.331191,60.4918623 125.315569,60.6136195 C125.212754,61.3819303 125.441424,62.1577233 125.944525,62.7474364 C126.447626,63.3371494 127.177713,63.6851689 127.952628,63.7046632 L153.707377,64.3619541 C154.499807,64.3814403 155.244571,64.7446529 155.747839,65.357063 C156.251106,65.9694731 156.4631,66.7705072 156.328645,67.5516901 L143.453245,142.755243 L143.210461,144.176413 C143.15045,144.539487 143.016049,144.886241 142.815692,145.194917 L53.3195164,145.269924 Z" id="Path" fill="#007B55"></path>
            <rect id="Rectangle" fill="#F9FAFB" fill-rule="nonzero" transform="translate(122.697802, 67.760616) rotate(34.640000) translate(-122.697802, -67.760616) " x="115.157708" y="42.1687083" width="15.0801875" height="51.1838145"></rect>
            <rect id="Rectangle" fill="#FFC107" fill-rule="nonzero" transform="translate(133.267614, 51.823676) rotate(34.804012) translate(-133.267614, -51.823676) " x="127.944442" y="46.5005046" width="10.6463434" height="10.6463434"></rect>
            <rect id="Rectangle" fill="#FFC107" fill-rule="nonzero" opacity="0.5" transform="translate(126.442592, 62.364520) rotate(34.640000) translate(-126.442592, -62.364520) " x="121.112219" y="57.0341477" width="10.6607451" height="10.6607451"></rect>
            <rect id="Rectangle" fill="#FFC107" fill-rule="nonzero" opacity="0.3" transform="translate(119.124634, 72.953955) rotate(34.640000) translate(-119.124634, -72.953955) " x="113.794262" y="67.6235821" width="10.6607451" height="10.6607451"></rect>
            <rect id="Rectangle" fill="#F9FAFB" fill-rule="nonzero" transform="translate(113.597626, 66.368441) rotate(16.290000) translate(-113.597626, -66.368441) " x="106.057532" y="40.873252" width="15.0801875" height="50.9903775"></rect>
            <rect id="Rectangle" fill="#FF4842" fill-rule="nonzero" transform="translate(119.033152, 47.806161) rotate(16.290000) translate(-119.033152, -47.806161) " x="113.702779" y="42.4757884" width="10.6607451" height="10.6607451"></rect>
            <rect id="Rectangle" fill="#FF4842" fill-rule="nonzero" opacity="0.5" transform="translate(115.422556, 60.159864) rotate(16.290000) translate(-115.422556, -60.159864) " x="110.092184" y="54.8294915" width="10.6607451" height="10.6607451"></rect>
            <rect id="Rectangle" fill="#FF4842" fill-rule="nonzero" opacity="0.3" transform="translate(111.812515, 72.511673) rotate(16.290000) translate(-111.812515, -72.511673) " x="106.482142" y="67.1812999" width="10.6607451" height="10.6607451"></rect>
            <rect id="Rectangle" fill="#F9FAFB" fill-rule="nonzero" transform="translate(108.729428, 66.571326) rotate(4.600000) translate(-108.729428, -66.571326) " x="101.189334" y="41.0761377" width="15.0801875" height="50.9903775"></rect>
            <rect id="Rectangle" fill="#1890FF" fill-rule="nonzero" transform="translate(110.283377, 47.293828) rotate(4.600000) translate(-110.283377, -47.293828) " x="104.953004" y="41.9634551" width="10.6607451" height="10.6607451"></rect>
            <rect id="Rectangle" fill="#1890FF" fill-rule="nonzero" opacity="0.5" transform="translate(109.250012, 60.120123) rotate(4.600000) translate(-109.250012, -60.120123) " x="103.91964" y="54.7897505" width="10.6607451" height="10.6607451"></rect>
            <rect id="Rectangle" fill="#1890FF" fill-rule="nonzero" opacity="0.3" transform="translate(108.218457, 72.950518) rotate(4.600000) translate(-108.218457, -72.950518) " x="102.888085" y="67.6201455" width="10.6607451" height="10.6607451"></rect>
            <rect id="Rectangle" fill="#FFFFFF" fill-rule="nonzero" transform="translate(105.189058, 67.722527) rotate(-2.610000) translate(-105.189058, -67.722527) " x="97.6489645" y="42.2273379" width="15.0801875" height="50.9903775"></rect>
            <rect id="Rectangle" fill="#00AB55" fill-rule="nonzero" transform="translate(104.309112, 48.399441) rotate(-2.610000) translate(-104.309112, -48.399441) " x="98.9787392" y="43.0690682" width="10.6607451" height="10.6607451"></rect>
            <rect id="Rectangle" fill="#00AB55" fill-rule="nonzero" opacity="0.5" transform="translate(105.341969, 60.830397) rotate(-2.862405) translate(-105.341969, -60.830397) " x="100.004938" y="55.4933659" width="10.6740627" height="10.6740627"></rect>
            <rect id="Rectangle" fill="#00AB55" fill-rule="nonzero" opacity="0.3" transform="translate(105.480787, 74.113692) rotate(-2.610000) translate(-105.480787, -74.113692) " x="100.150414" y="68.7833196" width="10.6607451" height="10.6607451"></rect>
            <path d="M102.892672,109.79398 L89.4942018,114.977301 L69.9116704,122.547002 C69.1714779,121.16531 68.0819146,119.298051 66.7337774,117.069578 C62.0952381,109.38342 54.4209228,97.4278312 47.5874661,86.9210461 C39.8894646,75.0779669 33.2632618,65.0843819 33.2632618,65.0843819 L38.0597089,63.7026894 L77.2405625,52.3274118 L102.892672,109.79398 Z" id="Path" fill="#E6ECF8" fill-rule="nonzero"></path>
            <path d="M102.892672,109.79398 L89.4942018,114.977301 C82.009445,116.536664 74.3714562,117.238612 66.7278559,117.069578 C62.0893166,109.38342 54.4150012,97.4278312 47.5815445,86.9210461 L38.0616827,63.694794 L77.2405625,52.3274118 L102.892672,109.79398 Z" id="Path" fill="#000000" fill-rule="nonzero" opacity="0.1"></path>
            <path d="M112.860597,106.568715 C112.860597,106.568715 92.0463854,118.881569 60.9701456,116.096472 L36.1963977,55.6967678 L48.0690846,53.6558105 L89.1132494,46.6072045 L112.404639,105.394276 L112.860597,106.568715 Z" id="Path" fill="#007B55" fill-rule="nonzero"></path>
            <path d="M112.396743,105.402171 C107.495682,105.642981 101.824821,105.619294 96.1204046,104.938317 C89.9462127,104.211942 83.7364915,102.715766 78.4130274,99.9721194 C73.9620035,97.6804836 70.1564273,95.1875154 66.8383913,92.1971379 C58.2067604,84.4339995 52.8655317,73.3291389 48.0690846,53.6637059 L89.1132494,46.6150999 L112.396743,105.402171 Z" id="Path" fill="#000000" fill-rule="nonzero" opacity="0.1"></path>
            <path d="M127.66642,102.02492 C127.66642,102.02492 112.323711,105.029114 96.7066371,103.17962 C90.5324451,102.453245 84.3227239,100.957069 78.9992598,98.2134222 C74.5482359,95.9217863 70.7446336,93.4288182 67.4246237,90.4384407 C56.7421663,80.8277819 51.1009129,66.0989391 45.2839872,36.3550456 C45.2839872,36.3550456 70.7900321,42.511473 96.0118431,29.0261535 C96.0039477,29.0360227 104.505305,82.0890698 127.66642,102.02492 Z" id="Path" fill="#FFFFFF" fill-rule="nonzero"></path>
            <path d="M96.7066371,103.17962 C90.5324451,102.453245 84.3227239,100.957069 78.9992598,98.2134222 C74.5482359,95.9217863 70.7446336,93.4288182 67.4246237,90.4384407 C76.5201086,89.7002221 77.826795,84.7281026 77.826795,84.7281026 C84.5694547,95.4283247 96.7066371,103.17962 96.7066371,103.17962 Z" id="Path" fill="#000000" fill-rule="nonzero" opacity="0.1"></path>
            <path d="M58.4771774,47.2743647 C58.4771774,47.2743647 79.2183568,46.1018998 85.0096225,41.6311374 L85.8879842,44.453738 C85.8879842,44.453738 72.1835677,50.4996299 58.4771774,50.5726622 L58.4771774,47.2743647 Z" id="Path" fill="#00AB55" fill-rule="nonzero" opacity="0.3"></path>
            <path d="M58.4771774,61.2097212 C58.4771774,61.2097212 78.559092,60.1102887 93.7320503,52.7813965 L94.2452504,53.9538613 C94.2452504,53.9538613 82.2047866,60.9827288 58.4771774,62.8223538 L58.4771774,61.2097212 Z" id="Path" fill="#00AB55" fill-rule="nonzero" opacity="0.3"></path>
            <path d="M60.0937577,66.639773 C60.0937577,66.639773 80.1756723,65.5403405 95.3466568,58.2114483 L95.8598569,59.3839132 C95.8598569,59.3839132 83.819393,66.4108068 60.0937577,68.2524056 L60.0937577,66.639773 Z" id="Path" fill="#00AB55" fill-rule="nonzero" opacity="0.3"></path>
            <path d="M61.7083642,72.0777202 C61.7083642,72.0777202 81.7902788,70.9782877 96.9632371,63.6493955 L97.4744634,64.8218604 C97.4744634,64.8218604 85.4339995,71.8507279 61.7083642,73.6903528 L61.7083642,72.0777202 Z" id="Path" fill="#00AB55" fill-rule="nonzero" opacity="0.3"></path>
            <path d="M63.3249445,77.5156674 C63.3249445,77.5156674 83.4068591,76.4162349 98.5778436,69.0873427 L99.0910437,70.2598075 C99.0910437,70.2598075 87.0505798,77.2886751 63.3249445,79.1283 L63.3249445,77.5156674 Z" id="Path" fill="#00AB55" fill-rule="nonzero" opacity="0.3"></path>
            <path d="M64.9395509,82.9555885 C64.9395509,82.9555885 85.0214656,81.8561559 100.194424,74.5272638 L100.70565,75.6997286 C100.70565,75.6997286 88.6651863,82.7266223 64.9395509,84.5682211 L64.9395509,82.9555885 Z" id="Path" fill="#00AB55" fill-rule="nonzero" opacity="0.3"></path>
            <path d="M206.14261,150.474957 C206.14261,150.474957 197.797187,149.971626 198.780163,155.820133 C198.780163,155.820133 198.582778,156.852455 199.522329,157.32223 C199.522329,157.32223 199.536146,156.887984 200.377005,157.036023 C200.676868,157.086459 200.981667,157.101037 201.284974,157.079447 C201.694234,157.052022 202.083212,156.891161 202.392302,156.621515 L202.392302,156.621515 C202.392302,156.621515 204.739206,155.652356 205.651123,151.819146 C205.651123,151.819146 206.326178,150.982235 206.298544,150.767086 L204.891192,151.35924 C204.891192,151.35924 205.37281,152.375771 204.993832,153.218604 C204.993832,153.218604 204.948433,151.396743 204.678016,151.442142 C204.622749,151.442142 203.945719,151.793486 203.945719,151.793486 C203.945719,151.793486 204.772761,153.569948 204.143104,154.849001 C204.143104,154.849001 204.379965,152.6679 203.681224,151.921786 L202.694301,152.500123 C202.694301,152.500123 203.661485,154.327905 203.006168,155.820133 C203.006168,155.820133 203.173945,153.532445 202.485073,152.640266 L201.586973,153.340982 C201.586973,153.340982 202.496916,155.143104 201.942265,156.380706 C201.942265,156.380706 201.869233,153.716013 201.391562,153.51468 C201.391562,153.51468 200.602023,154.207501 200.48754,154.501604 C200.48754,154.501604 201.109302,155.80829 200.722428,156.499136 C200.722428,156.499136 200.485566,154.722675 200.292129,154.722675 C200.292129,154.722675 199.502591,155.906982 199.427585,156.696521 C199.427585,156.696521 199.46114,155.496422 200.10264,154.60227 C199.65071,154.688567 199.233696,154.904619 198.902541,155.224032 C198.902541,155.224032 199.02492,154.391068 200.296077,154.32001 C200.296077,154.32001 200.943499,153.427831 201.115223,153.372564 C201.115223,153.372564 199.851962,153.26795 199.086109,153.607451 C199.086109,153.607451 199.761165,152.817913 201.348137,153.179127 L202.234394,152.456699 C202.234394,152.456699 200.570442,152.227733 199.865778,152.480385 C199.865778,152.480385 200.677029,151.785591 202.47323,152.283 L203.438441,151.706637 C203.438441,151.706637 202.021219,151.400691 201.176413,151.509252 C201.176413,151.509252 202.066617,151.027634 203.722675,151.548729 L204.411547,151.238835 C204.411547,151.238835 203.373304,151.041451 203.069331,151.001974 C202.765359,150.962497 202.747594,150.887491 202.747594,150.887491 C203.405823,150.776482 204.081978,150.851686 204.699729,151.104614 C204.699729,151.104614 206.166297,150.567728 206.14261,150.474957 Z" id="Path" fill="#00AB55" fill-rule="nonzero"></path>
            <ellipse id="Oval" fill="#00AB55" fill-rule="nonzero" opacity="0.1" cx="200.394769" cy="157.831483" rx="5.90574883" ry="1"></ellipse>
            <path d="M210.029114,131.168764 C210.029114,131.168764 205.325438,130.88453 205.884037,134.182828 C205.82499,134.525474 205.993073,134.867217 206.300518,135.029608 C206.300518,135.029608 206.310387,134.784851 206.784111,134.867752 C206.953011,134.895573 207.124588,134.903523 207.295337,134.891438 C207.525741,134.876528 207.744876,134.786378 207.919072,134.634838 L207.919072,134.634838 C207.919072,134.634838 209.241549,134.088083 209.756723,131.926721 C209.756723,131.926721 210.137676,131.454972 210.121885,131.334567 L209.332346,131.672095 C209.332346,131.672095 209.602763,132.246484 209.389588,132.722181 C209.389588,132.722181 209.363928,131.693807 209.211942,131.717493 C209.18036,131.717493 208.799408,131.914878 208.799408,131.914878 C208.799408,131.914878 209.265236,132.901801 208.913891,133.638046 C208.913891,133.638046 209.048113,132.40834 208.653343,131.985936 L208.094745,132.313595 C208.094745,132.313595 208.639526,133.343943 208.270417,134.184801 C208.270417,134.184801 208.365162,132.893906 207.976314,132.392549 L207.471009,132.787318 C207.471009,132.787318 207.982235,133.803849 207.668394,134.500617 C207.668394,134.500617 207.626943,132.99852 207.3585,132.88601 C207.166783,133.048579 206.995159,133.233455 206.847274,133.436714 C206.847274,133.436714 207.198618,134.174932 206.981495,134.56378 C206.981495,134.56378 206.847274,133.56304 206.738712,133.559092 C206.738712,133.559092 206.29657,134.220331 206.251172,134.674315 C206.272597,134.25306 206.403935,133.844754 206.632124,133.490007 C206.376839,133.538086 206.141366,133.660285 205.955095,133.841352 C205.955095,133.841352 206.02418,133.371577 206.744634,133.3321 C206.744634,133.3321 207.109795,132.828769 207.206514,132.797187 C207.206514,132.797187 206.493955,132.737972 206.061683,132.929435 C206.061683,132.929435 206.442635,132.487293 207.336788,132.688626 L207.838145,132.280039 C207.838145,132.280039 206.898594,132.151739 206.50185,132.293856 C206.50185,132.293856 206.959783,131.899087 207.972366,132.187269 L208.517148,131.861584 C208.098015,131.769831 207.668675,131.733334 207.240069,131.753022 C207.240069,131.753022 207.7434,131.480632 208.675056,131.774735 L209.069825,131.601036 C209.069825,131.601036 208.477671,131.484579 208.311868,131.466815 C208.146065,131.44905 208.130274,131.401678 208.130274,131.401678 C208.501664,131.339902 208.882909,131.382263 209.23168,131.524056 C209.23168,131.524056 210.044905,131.220084 210.029114,131.168764 Z" id="Path" fill="#00AB55" fill-rule="nonzero"></path>
            <ellipse id="Oval" fill="#00AB55" fill-rule="nonzero" opacity="0.1" cx="206.792006" cy="135.315815" rx="3.3298791" ry="1"></ellipse>
            <path d="M182.261041,134.030841 C182.261041,134.030841 176.580311,133.687392 177.251419,137.668641 C177.179919,138.082518 177.383145,138.495346 177.75475,138.691093 C177.75475,138.691093 177.75475,138.395016 178.346904,138.493708 C178.550923,138.528186 178.758336,138.538126 178.964717,138.523316 C179.243429,138.504754 179.508334,138.395186 179.718727,138.211448 L179.718727,138.211448 C179.718727,138.211448 181.315569,137.552184 181.93733,134.942758 C181.93733,134.942758 182.397237,134.374291 182.377498,134.226252 L181.40834,134.636812 C181.40834,134.636812 181.735998,135.327659 181.477424,135.902048 C181.477424,135.902048 181.445843,134.662472 181.262275,134.690106 C181.224772,134.690106 180.764866,134.930915 180.764866,134.930915 C180.764866,134.930915 181.327412,136.134962 180.903035,137.01135 C180.903035,137.01135 181.06489,135.527017 180.589193,135.017765 L179.914138,135.412534 C179.914138,135.412534 180.571429,136.658031 180.125339,137.672588 C180.125339,137.672588 180.239822,136.115223 179.772021,135.501357 L179.160128,135.979028 C179.160128,135.979028 179.779916,137.204787 179.400938,138.047619 C179.400938,138.047619 179.353565,136.233654 179.027881,136.097459 C179.027881,136.097459 178.492968,136.569208 178.41204,136.762645 C178.41204,136.762645 178.834444,137.65285 178.571922,138.122625 C178.571922,138.122625 178.410067,136.914631 178.277819,136.90871 C178.277819,136.90871 177.746854,137.710091 177.685665,138.256847 C177.712268,137.749867 177.8708,137.258622 178.145571,136.83173 C177.838161,136.890357 177.554716,137.037913 177.330373,137.256107 C177.330373,137.256107 177.413274,136.689613 178.277819,136.640266 C178.277819,136.640266 178.717987,136.032322 178.836417,135.996792 C178.836417,135.996792 177.97582,135.92376 177.454725,136.1547 C177.454725,136.1547 177.912657,135.621762 178.992351,135.864545 L179.596348,135.371083 C179.596348,135.371083 178.465334,135.217123 177.983716,135.386874 C177.983716,135.386874 178.536393,134.915125 179.760178,135.260548 L180.417469,134.865778 C180.417469,134.865778 179.452258,134.658525 178.875894,134.733531 C178.875894,134.733531 179.483839,134.405872 180.608932,134.761165 L181.078707,134.549963 C181.078707,134.549963 180.37207,134.411794 180.164816,134.390081 C179.957562,134.368369 179.947693,134.311128 179.947693,134.311128 C180.395457,134.235224 180.855518,134.285811 181.276092,134.457192 C181.276092,134.457192 182.278806,134.092031 182.261041,134.030841 Z" id="Path" fill="#00AB55" fill-rule="nonzero"></path>
            <ellipse id="Oval" fill="#00AB55" fill-rule="nonzero" opacity="0.1" cx="178.348877" cy="139.03849" rx="4.02072539" ry="1"></ellipse>
            <g id="Group-2" transform="translate(132.642487, 10.606218)" fill-rule="nonzero">
                <rect id="Rectangle" fill="#FFFFFF" transform="translate(34.132039, 25.997533) rotate(-71.990000) translate(-34.132039, -25.997533) " x="17.2882194" y="-4.14507772" width="33.6876388" height="60.2852208" rx="4.73723168"></rect>
                <g id="#gr" opacity="0.2" transform="translate(10.777202, 12.305236)" fill="#00AB55">
                    <circle id="Oval" cx="6.30446583" cy="6.19195658" r="6.18998273"></circle>
                </g>
                <g id="#gr" opacity="0.2" transform="translate(31.699975, 15.660775)" fill="#00AB55">
                    <rect id="Rectangle" transform="translate(13.277478, 5.084947) rotate(-71.990000) translate(-13.277478, -5.084947) " x="12.4297106" y="-8.3993859" width="1.69553417" height="26.9686652"></rect>
                </g>
                <g id="#gr" opacity="0.2" transform="translate(30.515667, 19.805853)" fill="#00AB55">
                    <rect id="Rectangle" transform="translate(6.833840, 3.005584) rotate(-71.990000) translate(-6.833840, -3.005584) " x="5.9860731" y="-3.8634015" width="1.69553417" height="13.7379719"></rect>
                </g>
                <g id="#gr" opacity="0.2" transform="translate(29.133975, 23.950931)" fill="#00AB55">
                    <rect id="Rectangle" transform="translate(10.909664, 4.285351) rotate(-71.990000) translate(-10.909664, -4.285351) " x="10.0618971" y="-6.82444422" width="1.69553417" height="22.2195904"></rect>
                </g>
                <g id="#gr" opacity="0.2" transform="translate(27.752282, 28.096008)" fill="#00AB55">
                    <rect id="Rectangle" transform="translate(13.213243, 4.986531) rotate(-71.990000) translate(-13.213243, -4.986531) " x="12.3654762" y="-8.49780183" width="1.69553417" height="26.9686652"></rect>
                </g>
                <g id="#gr" opacity="0.5" transform="translate(43.937824, 39.939088)" fill="#00AB55">
                    <rect id="Rectangle" transform="translate(4.128140, 2.849225) rotate(-71.990000) translate(-4.128140, -2.849225) " x="2.48886094" y="-0.882332213" width="3.27855909" height="7.46311374"></rect>
                </g>
            </g>
            <rect id="Rectangle" fill="#FFFFFF" fill-rule="nonzero" transform="translate(158.363523, 101.813047) rotate(-57.264774) translate(-158.363523, -101.813047) " x="141.759135" y="75.9642881" width="33.2087762" height="51.697518"></rect>
            <rect id="Rectangle" fill="#DFE3E8" transform="translate(137.537172, 96.481570) rotate(-57.570000) translate(-137.537172, -96.481570) " x="132.839417" y="95.3762159" width="9.3955095" height="2.21070812"></rect>
            <rect id="Rectangle" fill="#DFE3E8" transform="translate(146.437573, 93.295626) rotate(-57.570000) translate(-146.437573, -93.295626) " x="136.120277" y="92.282056" width="20.6345917" height="2.02714039"></rect>
            <rect id="Rectangle" fill="#DFE3E8" transform="translate(150.092682, 95.615837) rotate(-57.570000) translate(-150.092682, -95.615837) " x="139.775386" y="94.6022664" width="20.6345917" height="2.02714039"></rect>
            <rect id="Rectangle" fill="#DFE3E8" transform="translate(153.746732, 97.939687) rotate(-57.570000) translate(-153.746732, -97.939687) " x="143.429436" y="96.9261167" width="20.6345917" height="2.02714039"></rect>
            <rect id="Rectangle" fill="#DFE3E8" transform="translate(157.562418, 101.352292) rotate(-57.264774) translate(-157.562418, -101.352292) " x="147.259576" y="100.340142" width="20.605683" height="2.0243004"></rect>
            <rect id="Rectangle" fill="#F0F0F0" transform="translate(161.055583, 102.582832) rotate(-57.570000) translate(-161.055583, -102.582832) " x="150.738287" y="101.569262" width="20.6345917" height="2.02714039"></rect>
            <rect id="Rectangle" fill="#F0F0F0" transform="translate(164.710691, 104.903043) rotate(-57.570000) translate(-164.710691, -104.903043) " x="154.393396" y="103.889473" width="20.6345917" height="2.02714039"></rect>
            <rect id="Rectangle" fill="#DFE3E8" transform="translate(177.354901, 102.351892) rotate(-57.570000) translate(-177.354901, -102.351892) " x="174.6833" y="99.6802912" width="5.34320257" height="5.34320257"></rect>
            <path d="M127.054528,72.1842017 L96.8388848,72.5099926 C95.7078706,72.5218868 94.7969724,73.441586 94.7959536,74.5726622 L94.7959536,77.0695781 C94.7952291,78.1893375 93.9020439,79.1044145 92.7826302,79.1322477 L70.9795213,79.655317 C70.0286586,79.6791653 69.1847765,79.049719 68.9365902,78.1315075 L67.9121638,74.3673822 C67.6664726,73.4593185 66.8375162,72.8325267 65.8968665,72.8435727 L36.7727609,73.1574143 C36.1688552,73.1633289 35.5978795,73.4336138 35.2105034,73.8969461 C34.8231272,74.3602784 34.6582711,74.970106 34.7594375,75.565507 L46.4761905,144.52381 C46.6441236,145.513473 47.4995289,146.238943 48.5033309,146.24303 L140.512213,146.637811 C141.128767,146.639879 141.713986,146.366301 142.107794,145.891898 C142.501602,145.417495 142.662783,144.791918 142.547249,144.186282 L129.101406,73.8601036 C128.914295,72.8799245 128.052355,72.1742477 127.054528,72.1842017 L127.054528,72.1842017 Z" id="Path" fill="url(#linearGradient-4)" fill-rule="nonzero"></path>
            <ellipse id="Oval" fill="#00AB55" fill-rule="nonzero" opacity="0.1" cx="28.231927" cy="131.539847" rx="3.19960523" ry="1"></ellipse>
            <ellipse id="Oval" fill="#00AB55" fill-rule="nonzero" opacity="0.1" cx="15.9763138" cy="132.781396" rx="3.19960523" ry="1"></ellipse>
            <ellipse id="Oval" fill="#00AB55" fill-rule="nonzero" opacity="0.1" cx="20.8813225" cy="136.320503" rx="2.27387121" ry="1"></ellipse>
            <ellipse id="Oval" fill="#00AB55" fill-rule="nonzero" opacity="0.1" cx="8.16185542" cy="136.008636" rx="2.27387121" ry="1"></ellipse>
            <path d="M15.9072292,132.684678 C15.9072292,132.684678 20.3937824,117.975574 15.2045398,112.083642 C11.3219837,107.676042 6.91438441,108.203059 4.94053787,108.747841 C3.90760825,109.023768 3.04761566,109.738745 2.58771281,110.703923 C1.89686652,112.192203 2.02121885,114.608191 6.89267209,117.428818 C15.0466321,122.150259 15.5539107,128.62645 15.5539107,128.62645 L15.9072292,132.684678 Z" id="Path" fill="#00AB55" fill-rule="nonzero"></path>
            <path d="M5.64520109,110.834197 C5.64520109,110.834197 18.8699729,114.979275 15.9092031,132.684678" id="Path" stroke="#006B28" stroke-width="0.5" stroke-linecap="round"></path>
            <path d="M13.3708364,112.316556 C13.3708364,112.316556 11.5489761,113.544288 12.1292869,115.389835" id="Path" stroke="#006B28" stroke-width="0.5" stroke-linecap="round"></path>
            <path d="M6.97162596,113.410067 C6.97162596,113.410067 8.0848754,112.277079 9.44090797,112.902788" id="Path" stroke="#006B28" stroke-width="0.5" stroke-linecap="round"></path>
            <path d="M12.2003454,119.106588 C12.2003454,119.106588 14.1564273,118.119664 14.6617321,119.357266" id="Path" stroke="#006B28" stroke-width="0.5" stroke-linecap="round"></path>
            <path d="M17.0382433,121.173205 C17.0382433,121.173205 15.5697015,121.056748 15.5440415,121.765359" id="Path" stroke="#006B28" stroke-width="0.5" stroke-linecap="round"></path>
            <path d="M16.0888231,132.801135 C16.0888231,132.801135 10.8324698,122.110782 9.38958796,122.339748 C8.70466321,122.452258 8.38884777,123.129287 8.24475697,123.804342 C8.06759226,124.680195 8.1676277,125.589483 8.53096472,126.405872 C9.27707871,128.123119 11.2805329,131.370096 16.0888231,132.801135 Z" id="Path" fill="#00AB55" fill-rule="nonzero"></path>
            <path d="M9.42906489,124.37281 C9.42906489,124.37281 14.9439921,132.370836 16.0098692,132.722181" id="Path" stroke="#006B28" stroke-width="0.5" stroke-linecap="round"></path>
            <line x1="8.92178633" y1="125.622255" x2="10.2087343" y2="125.622255" id="Path" stroke="#006B28" stroke-width="0.5" stroke-linecap="round"></line>
            <line x1="10.4633605" y1="128.547496" x2="12.4826055" y2="128.634345" id="Path" stroke="#006B28" stroke-width="0.5" stroke-linecap="round"></line>
            <line x1="11.6930669" y1="126.206514" x2="11.4739699" y2="127.258574" id="Path" stroke="#006B28" stroke-width="0.5" stroke-linecap="round"></line>
            <line x1="13.838638" y1="129.406119" x2="13.7991611" y2="130.361461" id="Path" stroke="#006B28" stroke-width="0.5" stroke-linecap="round"></line>
            <path d="M15.9328892,132.801135 C15.9328892,132.801135 21.1872687,122.110782 22.6301505,122.339748 C23.3170491,122.452258 23.6328645,123.129287 23.7749815,123.804342 C23.9521462,124.680195 23.8521108,125.589483 23.4887737,126.405872 C22.7426598,128.123119 20.7372317,131.370096 15.9328892,132.801135 Z" id="Path" fill="#00AB55" fill-rule="nonzero"></path>
            <path d="M22.5926474,124.37281 C22.5926474,124.37281 17.0658771,132.370836 16.0098692,132.722181" id="Path" stroke="#006B28" stroke-width="0.5" stroke-linecap="round"></path>
            <line x1="23.099926" y1="125.622255" x2="21.812978" y2="125.622255" id="Path" stroke="#006B28" stroke-width="0.5" stroke-linecap="round"></line>
            <line x1="21.5583518" y1="128.547496" x2="19.5391068" y2="128.634345" id="Path" stroke="#006B28" stroke-width="0.5" stroke-linecap="round"></line>
            <line x1="20.3286454" y1="126.206514" x2="20.5477424" y2="127.258574" id="Path" stroke="#006B28" stroke-width="0.5" stroke-linecap="round"></line>
            <line x1="18.1830743" y1="129.406119" x2="18.2225512" y2="130.361461" id="Path" stroke="#006B28" stroke-width="0.5" stroke-linecap="round"></line>
            <path d="M6.90846287,135.298051 C6.76545601,135.181198 6.66148188,135.023515 6.61041204,134.84604 C6.56006932,134.662337 6.64807793,134.468884 6.81963977,134.386134 C7.01702443,134.313101 7.21440908,134.445349 7.3723168,134.583518 C7.53022453,134.721688 7.70984456,134.867752 7.90722921,134.834197 C7.69413672,134.641142 7.59818868,134.3503 7.65457686,134.068344 C7.66266897,134.010957 7.68659183,133.95696 7.72366149,133.912411 C7.8302492,133.797927 8.02368616,133.847274 8.15198618,133.938071 C8.54675549,134.222304 8.67110782,134.773008 8.67308167,135.270417 C8.69284809,135.088041 8.69284809,134.904063 8.67308167,134.721688 C8.66247644,134.535001 8.74532621,134.355247 8.89415248,134.242043 C8.99024036,134.189591 9.09857309,134.1637 9.20799408,134.167037 C9.39142145,134.140794 9.57734397,134.193915 9.71922033,134.313101 C9.85746605,134.501346 9.84931754,134.759654 9.69948187,134.938811 C9.54825606,135.108459 9.36939809,135.251279 9.17049099,135.361214 C9.01951606,135.452073 8.89071819,135.575476 8.79348631,135.722428 C8.7815587,135.742186 8.77226852,135.763421 8.76585245,135.785591 L7.61707377,135.785591 C7.35991682,135.655858 7.12154111,135.49185 6.90846287,135.298051 Z" id="Path" fill="#00AB55" fill-rule="nonzero"></path>
            <path d="M26.9331359,130.991118 C26.7897968,130.875391 26.685702,130.718215 26.6350851,130.541081 C26.584441,130.357875 26.6715436,130.16459 26.842339,130.081174 C27.0397237,130.008142 27.2371083,130.14039 27.395016,130.278559 C27.5529238,130.416728 27.7305699,130.566741 27.9338761,130.537133 C27.7207375,130.344895 27.6240821,130.054928 27.6792499,129.773254 C27.6880125,129.715691 27.7126158,129.6617 27.7503084,129.617321 C27.8568961,129.502837 28.0503331,129.552184 28.1786331,129.641007 C28.5832717,129.927214 28.6977547,130.477918 28.6997286,130.975327 C28.7194839,130.792291 28.7194839,130.60766 28.6997286,130.424624 C28.6818406,130.240182 28.7556112,130.058706 28.8971132,129.939057 C28.9936218,129.887904 29.1017773,129.862736 29.2109548,129.866025 C29.3940292,129.840248 29.5795147,129.892528 29.7221811,130.010116 C29.8609075,130.199208 29.8519298,130.458745 29.7004688,130.637799 C29.5503695,130.807833 29.3720877,130.950726 29.1734518,131.060202 C29.0224432,131.150174 28.8935972,131.272949 28.7964471,131.419442 C28.7848834,131.44008 28.7756168,131.461923 28.7688132,131.484579 L27.6456945,131.484579 C27.3866251,131.353622 27.146848,131.187571 26.9331359,130.991118 L26.9331359,130.991118 Z" id="Path" fill="#00AB55" fill-rule="nonzero"></path>
            <path d="M20.2595608,135.298051 C20.1166564,135.180724 20.0121598,135.023291 19.9595361,134.84604 C19.9091934,134.662337 19.997202,134.468884 20.1687639,134.386134 C20.3661485,134.313101 20.5635332,134.445349 20.7214409,134.583518 C20.8793486,134.721688 21.055021,134.8717 21.260301,134.844066 C21.0475041,134.650767 20.9509803,134.360447 21.0056748,134.078214 C21.0144373,134.02065 21.0390407,133.96666 21.0767333,133.92228 C21.183321,133.807797 21.376758,133.857143 21.505058,133.94794 C21.9096965,134.232174 22.0222058,134.782877 22.0261535,135.280286 C22.0459045,135.09791 22.0459045,134.913933 22.0261535,134.731557 C22.0106345,134.545378 22.0882313,134.36358 22.2334074,134.245991 C22.3293905,134.193267 22.4377985,134.167358 22.547249,134.170984 C22.7306588,134.144997 22.9164789,134.198089 23.0584752,134.317049 C23.1968858,134.505519 23.1879047,134.764336 23.0367629,134.942758 C22.8862609,135.11237 22.7080568,135.2552 22.5097459,135.365162 C22.3587709,135.456021 22.2299731,135.579424 22.1327412,135.726376 C22.1208136,135.746134 22.1115234,135.767369 22.1051073,135.789539 L20.9602763,135.789539 C20.7058706,135.657627 20.4702166,135.492337 20.2595608,135.298051 L20.2595608,135.298051 Z" id="Path" fill="#00AB55" fill-rule="nonzero"></path>
            <circle id="Oval" fill="#00AB55" fill-rule="nonzero" opacity="0.1" cx="5.04120405" cy="18.2075006" r="4.26943005"></circle>
            <circle id="Oval" fill="#00AB55" fill-rule="nonzero" opacity="0.1" cx="210.339008" cy="52.3254379" r="4.26943005"></circle>
            <circle id="Oval" fill="#00AB55" fill-rule="nonzero" opacity="0.1" cx="133.591907" cy="4.64914878" r="4.26943005"></circle>
            <circle id="Oval" fill="#00AB55" fill-rule="nonzero" opacity="0.1" cx="13.5800642" cy="41.7614113" r="7.15519368"></circle>
            <path d="M85.2978041,99.3523316 C80.0324987,99.3523316 75.7641253,103.620705 75.7641253,108.88601 C75.7641253,114.151316 80.0324987,118.419689 85.2978041,118.419689 C90.5631095,118.419689 94.8314829,114.151316 94.8314829,108.88601 C94.8314829,103.620705 90.5631095,99.3523316 85.2978041,99.3523316 L85.2978041,99.3523316 Z" id="Path" fill="#007B55"></path>
            <path d="M85.2978041,100.461329 C89.9506273,100.461329 93.7224857,104.233187 93.7224857,108.88601 C93.7224857,113.538834 89.9506273,117.310692 85.2978041,117.310692 C80.6449809,117.310692 76.8731225,113.538834 76.8731225,108.88601 C76.8771988,104.234877 80.6466705,100.465405 85.2978041,100.461329" id="Path" fill="#00AB55" opacity="0.72"></path>
            <path d="M81.3554187,109.582608 L80.8943836,109.132688 C80.7947543,109.041641 80.7382186,108.914389 80.7382186,108.781188 C80.7382186,108.647986 80.7947543,108.520734 80.8943836,108.429688 L84.9392456,104.478825 C85.0325415,104.381598 85.162937,104.326425 85.2994292,104.326425 C85.4359214,104.326425 85.566317,104.381598 85.6596128,104.478825 L89.7044748,108.426173 C89.802197,108.518244 89.8573896,108.645114 89.8573896,108.777673 C89.8573896,108.910232 89.802197,109.037101 89.7044748,109.129173 L89.2434398,109.579093 C89.1490936,109.67446 89.01909,109.728322 88.8832562,109.728322 C88.7474224,109.728322 88.6174187,109.67446 88.5230726,109.579093 L86.1314534,107.118592 L86.1314534,112.957011 C86.1324132,113.086267 86.0804692,113.210552 85.9871494,113.302282 C85.8938296,113.394012 85.7668532,113.445596 85.6344,113.445596 L84.9680603,113.445596 C84.6915561,113.445596 84.4674051,113.226849 84.4674051,112.957011 L84.4674051,107.125622 L82.0757859,109.586123 C81.980952,109.681031 81.850672,109.73426 81.7148377,109.733597 C81.5790033,109.732934 81.4492753,109.678437 81.3554187,109.582608 L81.3554187,109.582608 Z" id="Path" fill="#007B55"></path>
        </g>
    </g>
</svg>