<?xml version="1.0" encoding="UTF-8" standalone="no"?>
<svg
   xmlns:dc="http://purl.org/dc/elements/1.1/"
   xmlns:cc="http://creativecommons.org/ns#"
   xmlns:rdf="http://www.w3.org/1999/02/22-rdf-syntax-ns#"
   xmlns:svg="http://www.w3.org/2000/svg"
   xmlns="http://www.w3.org/2000/svg"
   xmlns:xlink="http://www.w3.org/1999/xlink"
   xmlns:sodipodi="http://sodipodi.sourceforge.net/DTD/sodipodi-0.dtd"
   xmlns:inkscape="http://www.inkscape.org/namespaces/inkscape"
   width="355px"
   height="260px"
   viewBox="0 0 355 260"
   version="1.1"
   id="svg267"
   sodipodi:docname="illustration_500.svg"
   inkscape:version="1.0.2 (e86c870879, 2021-01-15, custom)">
  <metadata
     id="metadata271">
    <rdf:RDF>
      <cc:Work
         rdf:about="">
        <dc:format>image/svg+xml</dc:format>
        <dc:type
           rdf:resource="http://purl.org/dc/dcmitype/StillImage" />
      </cc:Work>
    </rdf:RDF>
  </metadata>
  <sodipodi:namedview
     pagecolor="#ffffff"
     bordercolor="#666666"
     borderopacity="1"
     objecttolerance="10"
     gridtolerance="10"
     guidetolerance="10"
     inkscape:pageopacity="0"
     inkscape:pageshadow="2"
     inkscape:window-width="1920"
     inkscape:window-height="1017"
     id="namedview269"
     showgrid="false"
     inkscape:zoom="2.9859155"
     inkscape:cx="142.9273"
     inkscape:cy="125.32855"
     inkscape:window-x="-8"
     inkscape:window-y="-8"
     inkscape:window-maximized="1"
     inkscape:current-layer="#gr" />
  <title
     id="title2">__平Illustrations/ illustration_500</title>
  <defs
     id="defs131">
    <linearGradient
       x1="0.19495903"
       y1="0.7080977"
       x2="0.77479035"
       y2="0.18235791"
       id="linearGradient1253"
       gradientUnits="objectBoundingBox"
       spreadMethod="pad">
      <stop
         stop-color="#00AB55"
         offset="0%"
         id="stop1249"
         style="stop-color:#8be0ff;stop-opacity:1" />
      <stop
         stop-color="#00AB55"
         stop-opacity="0"
         offset="100%"
         id="stop1251"
         style="stop-color:#8be0ff;stop-opacity:0" />
    </linearGradient>
    <linearGradient
       x1="0.19495903"
       y1="0.7080977"
       x2="0.77479035"
       y2="0.18235791"
       id="linearGradient1245"
       gradientUnits="objectBoundingBox"
       spreadMethod="pad">
      <stop
         stop-color="#00AB55"
         offset="0%"
         id="stop1241" />
      <stop
         stop-color="#00AB55"
         stop-opacity="0"
         offset="100%"
         id="stop1243"
         style="stop-color:#0ab550;stop-opacity:0" />
    </linearGradient>
    <linearGradient
       x1="0.19495903"
       y1="0.7080977"
       x2="0.77479035"
       y2="0.18235791"
       id="linearGradient1239"
       gradientUnits="objectBoundingBox"
       spreadMethod="pad">
      <stop
         stop-color="#00AB55"
         offset="0%"
         id="stop1235" />
      <stop
         stop-color="#00AB55"
         stop-opacity="0"
         offset="100%"
         id="stop1237"
         style="stop-color:#0ab550;stop-opacity:0" />
    </linearGradient>
    <linearGradient
       x1="0.19495903"
       y1="0.7080977"
       x2="0.77479035"
       y2="0.18235791"
       id="linearGradient1233"
       gradientUnits="objectBoundingBox"
       spreadMethod="pad">
      <stop
         stop-color="#00AB55"
         offset="0%"
         id="stop1229" />
      <stop
         stop-color="#00AB55"
         stop-opacity="0"
         offset="100%"
         id="stop1231"
         style="stop-color:#0ab550;stop-opacity:0" />
    </linearGradient>
    <linearGradient
       x1="0.19495903"
       y1="0.7080977"
       x2="0.77479035"
       y2="0.18235791"
       id="linearGradient1227"
       gradientUnits="objectBoundingBox"
       spreadMethod="pad">
      <stop
         stop-color="#00AB55"
         offset="0%"
         id="stop1223" />
      <stop
         stop-color="#00AB55"
         stop-opacity="0"
         offset="100%"
         id="stop1225"
         style="stop-color:#0ab550;stop-opacity:0" />
    </linearGradient>
    <linearGradient
       x1="0.19495903"
       y1="0.7080977"
       x2="0.77479035"
       y2="0.18235791"
       id="linearGradient1221"
       gradientUnits="objectBoundingBox"
       spreadMethod="pad">
      <stop
         stop-color="#00AB55"
         offset="0%"
         id="stop1217" />
      <stop
         stop-color="#00AB55"
         stop-opacity="0"
         offset="100%"
         id="stop1219"
         style="stop-color:#0ab550;stop-opacity:0" />
    </linearGradient>
    <linearGradient
       x1="0.19495903"
       y1="0.7080977"
       x2="0.77479035"
       y2="0.18235791"
       id="linearGradient1215"
       gradientUnits="objectBoundingBox"
       spreadMethod="pad">
      <stop
         stop-color="#00AB55"
         offset="0%"
         id="stop1211" />
      <stop
         stop-color="#00AB55"
         stop-opacity="0"
         offset="100%"
         id="stop1213"
         style="stop-color:#0ab550;stop-opacity:0" />
    </linearGradient>
    <linearGradient
       x1="0.19495903"
       y1="0.7080977"
       x2="0.77479035"
       y2="0.18235791"
       id="linearGradient1209"
       gradientUnits="objectBoundingBox"
       spreadMethod="pad">
      <stop
         stop-color="#00AB55"
         offset="0%"
         id="stop1205" />
      <stop
         stop-color="#00AB55"
         stop-opacity="0"
         offset="100%"
         id="stop1207"
         style="stop-color:#00ab50;stop-opacity:0" />
    </linearGradient>
    <linearGradient
       x1="0.19495903"
       y1="0.7080977"
       x2="0.77479035"
       y2="0.18235791"
       id="linearGradient1148"
       gradientUnits="objectBoundingBox"
       spreadMethod="pad">
      <stop
         stop-color="#00AB55"
         offset="0%"
         id="stop1144"
         style="stop-color:#ddffff;stop-opacity:1" />
      <stop
         stop-color="#00AB55"
         stop-opacity="0"
         offset="100%"
         id="stop1146" />
    </linearGradient>
    <linearGradient
       x1="0.19495903"
       y1="0.7080977"
       x2="0.77479035"
       y2="0.18235791"
       id="linearGradient1142"
       gradientUnits="objectBoundingBox"
       spreadMethod="pad">
      <stop
         stop-color="#00AB55"
         offset="0%"
         id="stop1138"
         style="stop-color:#ffffff;stop-opacity:1" />
      <stop
         stop-color="#00AB55"
         stop-opacity="0"
         offset="100%"
         id="stop1140" />
    </linearGradient>
    <linearGradient
       x1="0.19495903"
       y1="0.7080977"
       x2="0.77479035"
       y2="0.18235791"
       id="linearGradient1136"
       gradientUnits="objectBoundingBox"
       spreadMethod="pad">
      <stop
         stop-color="#00AB55"
         offset="0%"
         id="stop1132" />
      <stop
         stop-color="#00AB55"
         stop-opacity="0"
         offset="100%"
         id="stop1134"
         style="stop-color:#000000;stop-opacity:0" />
    </linearGradient>
    <linearGradient
       x1="0.19495903"
       y1="0.7080977"
       x2="0.77479035"
       y2="0.18235791"
       id="linearGradient1130"
       gradientUnits="objectBoundingBox"
       spreadMethod="pad">
      <stop
         stop-color="#00AB55"
         offset="0%"
         id="stop1126" />
      <stop
         stop-color="#00AB55"
         stop-opacity="0"
         offset="100%"
         id="stop1128"
         style="stop-color:#0ab550;stop-opacity:0" />
    </linearGradient>
    <linearGradient
       x1="0.19495903"
       y1="0.7080977"
       x2="0.77479035"
       y2="0.18235791"
       id="linearGradient1124"
       gradientUnits="objectBoundingBox"
       spreadMethod="pad">
      <stop
         stop-color="#00AB55"
         offset="0%"
         id="stop1120" />
      <stop
         stop-color="#00AB55"
         stop-opacity="0"
         offset="100%"
         id="stop1122"
         style="stop-color:#0ab550;stop-opacity:0" />
    </linearGradient>
    <linearGradient
       x1="0.19495903"
       y1="0.7080977"
       x2="0.77479035"
       y2="0.18235791"
       id="linearGradient1118"
       gradientUnits="objectBoundingBox"
       spreadMethod="pad">
      <stop
         stop-color="#00AB55"
         offset="0%"
         id="stop1114" />
      <stop
         stop-color="#00AB55"
         stop-opacity="0"
         offset="100%"
         id="stop1116"
         style="stop-color:#dd0000;stop-opacity:0" />
    </linearGradient>
    <linearGradient
       x1="0.19495903"
       y1="0.7080977"
       x2="0.77479035"
       y2="0.18235791"
       id="linearGradient1112"
       gradientUnits="objectBoundingBox"
       spreadMethod="pad">
      <stop
         stop-color="#00AB55"
         offset="0%"
         id="stop1108" />
      <stop
         stop-color="#00AB55"
         stop-opacity="0"
         offset="100%"
         id="stop1110"
         style="stop-color:#000000;stop-opacity:0" />
    </linearGradient>
    <linearGradient
       x1="0.19495903"
       y1="0.7080977"
       x2="0.77479035"
       y2="0.18235791"
       id="linearGradient1106"
       gradientUnits="objectBoundingBox"
       spreadMethod="pad">
      <stop
         stop-color="#00AB55"
         offset="0%"
         id="stop1102" />
      <stop
         stop-color="#00AB55"
         stop-opacity="0"
         offset="100%"
         id="stop1104"
         style="stop-color:#dd0000;stop-opacity:0" />
    </linearGradient>
    <linearGradient
       x1="19.4959033%"
       y1="70.8097699%"
       x2="77.4790349%"
       y2="18.2357903%"
       id="linearGradient1100">
      <stop
         stop-color="#00AB55"
         offset="0%"
         id="stop1096" />
      <stop
         stop-color="#00AB55"
         stop-opacity="0"
         offset="100%"
         id="stop1098"
         style="stop-color:#000000;stop-opacity:0" />
    </linearGradient>
    <linearGradient
       x1="0.19495903"
       y1="0.7080977"
       x2="0.77479035"
       y2="0.18235791"
       id="linearGradient-1"
       gradientUnits="objectBoundingBox"
       spreadMethod="pad">
      <stop
         stop-color="#00AB55"
         offset="0%"
         id="stop4" />
      <stop
         stop-color="#00AB55"
         stop-opacity="0"
         offset="100%"
         id="stop6" />
    </linearGradient>
    <filter
       x="-36.7%"
       y="-35.6%"
       width="173.4%"
       height="171.1%"
       filterUnits="objectBoundingBox"
       id="filter-2">
      <feOffset
         dx="12"
         dy="12"
         in="SourceAlpha"
         result="shadowOffsetOuter1"
         id="feOffset9" />
      <feGaussianBlur
         stdDeviation="12"
         in="shadowOffsetOuter1"
         result="shadowBlurOuter1"
         id="feGaussianBlur11" />
      <feColorMatrix
         values="0 0 0 0 0   0 0 0 0 0.321568627   0 0 0 0 0.28627451  0 0 0 0.32 0"
         type="matrix"
         in="shadowBlurOuter1"
         result="shadowMatrixOuter1"
         id="feColorMatrix13" />
      <feMerge
         id="feMerge19">
        <feMergeNode
           in="shadowMatrixOuter1"
           id="feMergeNode15" />
        <feMergeNode
           in="SourceGraphic"
           id="feMergeNode17" />
      </feMerge>
    </filter>
    <linearGradient
       x1="63.8169564%"
       y1="50.4420744%"
       x2="-75.4611564%"
       y2="45.9843628%"
       id="linearGradient-3">
      <stop
         stop-color="#000000"
         offset="1%"
         id="stop22" />
      <stop
         stop-color="#000000"
         stop-opacity="0.69"
         offset="13%"
         id="stop24" />
      <stop
         stop-color="#000000"
         stop-opacity="0.32"
         offset="25%"
         id="stop26" />
      <stop
         stop-color="#000000"
         stop-opacity="0"
         offset="100%"
         id="stop28" />
    </linearGradient>
    <linearGradient
       x1="91.6725789%"
       y1="50.121686%"
       x2="-130.542746%"
       y2="49.4716672%"
       id="linearGradient-4">
      <stop
         stop-color="#000000"
         offset="1%"
         id="stop31" />
      <stop
         stop-color="#000000"
         stop-opacity="0.69"
         offset="13%"
         id="stop33" />
      <stop
         stop-color="#000000"
         stop-opacity="0.32"
         offset="25%"
         id="stop35" />
      <stop
         stop-color="#000000"
         stop-opacity="0"
         offset="100%"
         id="stop37" />
    </linearGradient>
    <linearGradient
       x1="26.4392063%"
       y1="9.65546576%"
       x2="81.405271%"
       y2="103.658018%"
       id="linearGradient-5">
      <stop
         stop-color="#000000"
         offset="1%"
         id="stop40" />
      <stop
         stop-color="#000000"
         stop-opacity="0.69"
         offset="13%"
         id="stop42" />
      <stop
         stop-color="#000000"
         stop-opacity="0.32"
         offset="25%"
         id="stop44" />
      <stop
         stop-color="#000000"
         stop-opacity="0"
         offset="100%"
         id="stop46" />
    </linearGradient>
    <linearGradient
       x1="95.2376729%"
       y1="51.6496922%"
       x2="-128.228095%"
       y2="43.498272%"
       id="linearGradient-6">
      <stop
         stop-color="#000000"
         offset="1%"
         id="stop49" />
      <stop
         stop-color="#000000"
         stop-opacity="0.69"
         offset="13%"
         id="stop51" />
      <stop
         stop-color="#000000"
         stop-opacity="0.32"
         offset="25%"
         id="stop53" />
      <stop
         stop-color="#000000"
         stop-opacity="0"
         offset="100%"
         id="stop55" />
    </linearGradient>
    <linearGradient
       x1="92.8501999%"
       y1="-17.5759342%"
       x2="-20.123333%"
       y2="130.439858%"
       id="linearGradient-7">
      <stop
         stop-color="#000000"
         offset="1%"
         id="stop58" />
      <stop
         stop-color="#000000"
         stop-opacity="0.69"
         offset="13%"
         id="stop60" />
      <stop
         stop-color="#000000"
         stop-opacity="0.32"
         offset="25%"
         id="stop62" />
      <stop
         stop-color="#000000"
         stop-opacity="0"
         offset="100%"
         id="stop64" />
    </linearGradient>
    <linearGradient
       x1="52.6705318%"
       y1="136.608752%"
       x2="48.2055157%"
       y2="22.5666416%"
       id="linearGradient-8">
      <stop
         stop-color="#000000"
         offset="1%"
         id="stop67" />
      <stop
         stop-color="#000000"
         stop-opacity="0.69"
         offset="13%"
         id="stop69" />
      <stop
         stop-color="#000000"
         stop-opacity="0.32"
         offset="25%"
         id="stop71" />
      <stop
         stop-color="#000000"
         stop-opacity="0"
         offset="100%"
         id="stop73" />
    </linearGradient>
    <linearGradient
       x1="43.2113038%"
       y1="195.676926%"
       x2="54.5771814%"
       y2="-16.3224152%"
       id="linearGradient-9">
      <stop
         stop-color="#000000"
         offset="1%"
         id="stop76" />
      <stop
         stop-color="#000000"
         stop-opacity="0.69"
         offset="13%"
         id="stop78" />
      <stop
         stop-color="#000000"
         stop-opacity="0.32"
         offset="25%"
         id="stop80" />
      <stop
         stop-color="#000000"
         stop-opacity="0"
         offset="100%"
         id="stop82" />
    </linearGradient>
    <linearGradient
       x1="-148.602275%"
       y1="-15.7316368%"
       x2="424.908425%"
       y2="174.06979%"
       id="linearGradient-10">
      <stop
         stop-color="#000000"
         offset="1%"
         id="stop85" />
      <stop
         stop-color="#000000"
         stop-opacity="0.69"
         offset="13%"
         id="stop87" />
      <stop
         stop-color="#000000"
         stop-opacity="0.32"
         offset="25%"
         id="stop89" />
      <stop
         stop-color="#000000"
         stop-opacity="0"
         offset="100%"
         id="stop91" />
    </linearGradient>
    <linearGradient
       x1="-91.1272394%"
       y1="-6.49701176%"
       x2="316.380653%"
       y2="156.641604%"
       id="linearGradient-11">
      <stop
         stop-color="#000000"
         offset="1%"
         id="stop94" />
      <stop
         stop-color="#000000"
         stop-opacity="0.69"
         offset="13%"
         id="stop96" />
      <stop
         stop-color="#000000"
         stop-opacity="0.32"
         offset="25%"
         id="stop98" />
      <stop
         stop-color="#000000"
         stop-opacity="0"
         offset="100%"
         id="stop100" />
    </linearGradient>
    <linearGradient
       x1="-15.5297533%"
       y1="50.0165597%"
       x2="284.179971%"
       y2="50.0165597%"
       id="linearGradient-12">
      <stop
         stop-color="#000000"
         offset="1%"
         id="stop103" />
      <stop
         stop-color="#000000"
         stop-opacity="0.69"
         offset="13%"
         id="stop105" />
      <stop
         stop-color="#000000"
         stop-opacity="0.32"
         offset="25%"
         id="stop107" />
      <stop
         stop-color="#000000"
         stop-opacity="0"
         offset="100%"
         id="stop109" />
    </linearGradient>
    <linearGradient
       x1="89.934235"
       y1="109.54771"
       x2="63.367706"
       y2="97.152435"
       id="linearGradient-13"
       xlink:href="#linearGradient1100"
       gradientTransform="scale(1.4627149,0.68366023)"
       gradientUnits="userSpaceOnUse">
      <stop
         stop-color="#000000"
         offset="0.05626129"
         id="stop112" />
      <stop
         stop-color="#000000"
         stop-opacity="0.69"
         offset="13%"
         id="stop114" />
      <stop
         stop-color="#000000"
         stop-opacity="0.32"
         offset="25%"
         id="stop116"
         style="stop-color:#000000;stop-opacity:0.32156864" />
      <stop
         stop-color="#000000"
         stop-opacity="0"
         offset="100%"
         id="stop118"
         style="stop-color:#330000;stop-opacity:0" />
    </linearGradient>
    <rect
       id="path-14"
       x="12.8181818"
       y="58.0040404"
       width="24.9373737"
       height="34.0121212"
       rx="3" />
    <linearGradient
       x1="99.9490056%"
       y1="16.6056751%"
       x2="-45.826959%"
       y2="113.950265%"
       id="linearGradient-15">
      <stop
         stop-color="#000000"
         offset="1%"
         id="stop122" />
      <stop
         stop-color="#000000"
         stop-opacity="0.69"
         offset="13%"
         id="stop124" />
      <stop
         stop-color="#000000"
         stop-opacity="0.32"
         offset="25%"
         id="stop126" />
      <stop
         stop-color="#000000"
         stop-opacity="0"
         offset="100%"
         id="stop128" />
    </linearGradient>
    <filter
       inkscape:collect="always"
       style="color-interpolation-filters:sRGB"
       id="filter1201"
       x="-0.0029617529"
       width="1.0059235"
       y="-0.002672268"
       height="1.0053445">
      <feGaussianBlur
         inkscape:collect="always"
         stdDeviation="0.020712327"
         id="feGaussianBlur1203" />
    </filter>
    <linearGradient
       inkscape:collect="always"
       xlink:href="#linearGradient1253"
       id="linearGradient1247"
       gradientUnits="objectBoundingBox"
       x1="0.19495903"
       y1="0.7080977"
       x2="0.77479035"
       y2="0.18235791"
       spreadMethod="pad" />
  </defs>
  <g
     id="__平Illustrations/-illustration_500"
     stroke="none"
     stroke-width="1"
     fill="none"
     fill-rule="evenodd"
     style="display:inline"
     inkscape:label="__平Illustrations/-illustration_500"
     sodipodi:insensitive="true">
    <g
       id="Group"
       fill="url(#linearGradient-1)"
       opacity="0.24">
      <g
         id="__平Illustrations/-X弩Setup/-Shape_1">
        <path
           d="m 0,143.56385 c 0,29.94128 11.053354,57.22515 29.242418,77.84527 20.866898,23.66329 51.126038,38.54086 84.855092,38.59088 14.74091,0.0213 28.83588,-2.80724 41.78277,-7.97079 6.69419,-2.67088 14.18669,-2.36434 20.67023,0.8 7.60521,3.70692 16.12142,5.78533 25.11413,5.78533 3.71476,0 7.35258,-0.35723 10.87146,-1.03525 10.04441,-1.9287 19.1848,-6.49265 26.69129,-12.95678 4.71749,-4.06415 10.75953,-6.10691 16.93448,-6.09978 h 0.10494 c 20.4044,0 39.35756,-6.30652 55.09343,-17.11361 14.06776,-9.64907 25.55563,-22.8918 33.20981,-38.44026 C 351.24326,169.4196 355,154.11352 355,137.91397 355,82.352978 310.79203,37.305216 256.26681,37.305216 c -5.55855,0 -11.00439,0.478414 -16.3173,1.371084 C 225.88174,15.470045 200.68989,0 171.95195,0 159.81891,0 148.31627,2.7572181 138.02001,7.699775 128.22824,12.384907 119.52236,19.042309 112.40064,27.155548 88.218514,27.548418 65.858402,35.598291 47.557406,49.032699 18.749505,70.167675 0,104.63726 0,143.56385 Z"
           id="background"
           style="fill:url(#linearGradient1247);fill-opacity:1" />
      </g>
    </g>
    <g
       id="#gr"
       filter="url(#filter-2)"
       transform="translate(72,34)">
      <polygon
         id="Path"
         fill="#00ab55"
         fill-rule="nonzero"
         points="164.15556,42.246465 143.44444,42.246465 143.44444,41.688889 164.71313,41.688889 164.71313,119.07071 187.28283,119.07071 187.28283,172.53333 180.86667,172.53333 180.86667,171.97576 186.71717,171.97576 186.71717,119.62828 164.15556,119.62828 "
         style="fill:#3eb5ff;fill-opacity:1" />
      <polygon
         id="polygon137"
         fill="#00ab55"
         fill-rule="nonzero"
         points="58.240404,64.557576 72.680808,64.557576 72.680808,47.854546 73.238384,47.854546 73.238384,65.123232 58.806061,65.123232 58.806061,83.062626 58.240404,83.062626 "
         style="fill:#3eb5ff;fill-opacity:1" />
      <rect
         id="Rectangle"
         fill="#00ab55"
         fill-rule="nonzero"
         x="46.11919"
         y="160.92122"
         width="91.119194"
         height="31.652525"
         rx="8.4282827"
         style="fill:#3eb5ff;fill-opacity:1" />
      <rect
         id="rect140"
         fill="#00ab55"
         fill-rule="nonzero"
         x="46.11919"
         y="123.27273"
         width="91.119194"
         height="31.652525"
         rx="8.4282827"
         style="fill:#3eb5ff;fill-opacity:1" />
      <rect
         id="rect142"
         fill="url(#linearGradient-3)"
         fill-rule="nonzero"
         x="46.11919"
         y="160.92122"
         width="91.119194"
         height="31.652525"
         rx="8.4282827" />
      <rect
         id="rect144"
         fill="url(#linearGradient-4)"
         fill-rule="nonzero"
         x="46.11919"
         y="123.27273"
         width="91.119194"
         height="31.652525"
         rx="8.4282827" />
      <rect
         id="rect146"
         fill="#00ab55"
         fill-rule="nonzero"
         x="55.09697"
         y="160.92122"
         width="91.119194"
         height="31.652525"
         rx="8.4282827"
         style="fill:#3eb5ff;fill-opacity:1" />
      <path
         d="m 146.2162,131.70101 v 14.78788 c 0.006,2.24158 -0.88118,4.39321 -2.46622,5.97826 -1.58505,1.58504 -3.73668,2.47265 -5.97826,2.46622 H 63.533333 c -2.238122,0 -4.384342,-0.89023 -5.965417,-2.47434 -1.581075,-1.5841 -2.467157,-3.73202 -2.462881,-5.97014 v -14.78788 c 0,-4.65481 3.773486,-8.4283 8.428298,-8.4283 h 74.238387 c 2.23812,-0.004 4.38604,0.88181 5.97014,2.46288 1.58411,1.58108 2.47434,3.7273 2.47434,5.96542 z"
         id="path148"
         fill="#00ab55"
         fill-rule="nonzero"
         style="fill:#3eb5ff;fill-opacity:1" />
      <path
         d="m 146.21616,134.18182 v 12.30707 c -0.002,2.62083 -1.2201,5.09235 -3.29697,6.69091 -0.0647,-2.61818 -0.2101,-9.90707 0,-13.1394 0.18318,-2.34292 1.38929,-4.48614 3.29697,-5.85858 z"
         id="path150"
         fill="url(#linearGradient-5)"
         fill-rule="nonzero" />
      <rect
         id="rect152"
         fill="#00ab55"
         fill-rule="nonzero"
         x="46.11919"
         y="83.06263"
         width="91.119194"
         height="31.652525"
         rx="8.4282827"
         style="fill:#3eb5ff;fill-opacity:1" />
      <rect
         id="rect154"
         fill="url(#linearGradient-6)"
         fill-rule="nonzero"
         x="46.11919"
         y="83.06263"
         width="91.119194"
         height="31.652525"
         rx="8.4282827" />
      <rect
         id="rect156"
         fill="#00AB55"
         fill-rule="nonzero"
         x="55.09697"
         y="83.06263"
         width="91.119194"
         height="31.652525"
         rx="8.4282827"
         style="fill:#3eb5ff;fill-opacity:1" />
      <path
         d="m 121.69091,104.71111 c -0.68455,0.30539 -1.06928,1.04139 -0.92929,1.77778 0.0808,0.71919 0.4202,1.39798 0.53333,2.10909 0.33131,2.07677 -1.39798,4.08889 -3.42626,4.61414 -2.65859,0.67879 -5.38182,-0.66263 -7.74142,-2.0606 -0.29422,-0.15356 -0.5661,-0.34659 -0.80808,-0.57374 -0.37627,-0.50116 -0.6057,-1.09712 -0.66262,-1.72121 -0.25491,-1.1717 -0.39831,-2.36491 -0.42829,-3.56364 0,-2.7394 1.20404,-5.357576 1.26869,-8.080809 0.041,-3.822357 -2.06234,-7.34565 -5.44646,-9.123232 -1.37687,-0.607224 -2.79446,-1.117556 -4.242429,-1.527273 -1.268906,-0.440896 -2.501017,-0.981296 -3.684849,-1.616162 -0.743434,-0.387878 -1.559596,-0.937373 -1.616161,-1.769696 1.246576,-0.558672 2.614434,-0.792209 3.975757,-0.678788 h 23.434342 c 0.29419,-0.0279 0.59045,0.025 0.85657,0.153535 0.26815,0.203834 0.46592,0.486357 0.56565,0.808081 1.56768,3.757576 1.38182,7.919192 1.70505,11.90303 0.12651,1.946041 0.48736,3.869709 1.07475,5.729294 0.33132,1.0101 1.41414,2.94141 0.73536,4 -1.27677,1.97172 -3.72526,-0.76768 -5.16364,-0.3798 z"
         id="path158"
         fill="url(#linearGradient-7)"
         fill-rule="nonzero" />
      <path
         d="m 143.42828,37.260606 c 0,2.811088 -1.11725,5.506923 -3.10575,7.493905 -1.98849,1.986981 -4.68518,3.102179 -7.49627,3.100034 h -72.6303 c -3.85607,0.106489 -7.465685,-1.889861 -9.425118,-5.212697 -1.959432,-3.322836 -1.959432,-7.447728 0,-10.770565 1.959433,-3.322836 5.569048,-5.319186 9.425118,-5.212697 h 2.424242 C 60.8521,20.363486 62.133701,13.603656 66.08327,8.3925738 70.032838,3.1814918 76.194643,0.12045139 82.733333,0.12120487 h 6.181818 c 7.799283,-0.006478 14.950489,4.33911223 18.537369,11.26465413 1.76521,-0.905551 3.72113,-1.376523 5.70506,-1.373738 h 1.61616 c 3.33262,0 6.52874,1.323878 8.88526,3.680396 2.35652,2.356517 3.68039,5.552641 3.68039,8.885261 V 23.2 c 3.8e-4,1.169825 -0.16282,2.333957 -0.48484,3.458586 h 6.01212 c 5.8377,0.02668 10.55723,4.764258 10.56161,10.60202 z"
         id="path160"
         fill="#00AB55"
         fill-rule="nonzero"
         opacity="0.12"
         style="fill:#88bbff;fill-opacity:1;stroke:#d8f9ff;stroke-opacity:0" />
      <path
         d="m 170.45859,153.19596 c -1.03321,2.3e-4 -1.87701,-0.82562 -1.89899,-1.85859 V 139.0303 c 0,-4.4629 -3.61791,-8.0808 -8.08081,-8.0808 -4.46291,0 -8.08081,3.6179 -8.08081,8.0808 v 12.30707 c 0,1.04879 -0.85021,1.89899 -1.89899,1.89899 -1.04878,0 -1.89899,-0.8502 -1.89899,-1.89899 V 139.0303 c 0,-6.56047 5.31831,-11.87878 11.87879,-11.87878 6.56047,0 11.87879,5.31831 11.87879,11.87878 v 12.30707 c -0.022,1.03297 -0.86579,1.85882 -1.89899,1.85859 z"
         id="path162"
         fill="#ffffff"
         fill-rule="nonzero" />
      <path
         d="m 172.35758,139.0303 v 12.30707 c -0.004,0.66669 -0.36082,1.2814 -0.93738,1.61616 -0.29007,0.17527 -0.6227,0.26752 -0.96161,0.26668 -1.04251,0 -1.89012,-0.84037 -1.89899,-1.88284 V 139.0303 c 4.3e-4,-4.09129 -3.05698,-7.53738 -7.1192,-8.02424 -0.31937,-0.0352 -0.64032,-0.0541 -0.96161,-0.0566 -4.46291,0 -8.08081,3.6179 -8.08081,8.0808 v 12.30707 c -0.008,0.6658 -0.36319,1.27904 -0.93737,1.61616 -0.29292,0.17555 -0.62821,0.26776 -0.9697,0.26668 -1.04695,-0.004 -1.89456,-0.85205 -1.89899,-1.899 V 139.0303 c 0.009,-6.55993 5.32693,-11.87433 11.88687,-11.87879 0.32115,0 0.64211,0.016 0.96161,0.0485 6.16367,0.5006 10.91223,5.64635 10.91718,11.8303 z"
         id="path164"
         fill="url(#linearGradient-8)"
         fill-rule="nonzero" />
      <path
         d="m 172.35758,139.0303 v 12.30707 c 0.26755,0.45485 0.16826,1.03632 -0.23507,1.37662 -0.40332,0.34029 -0.99321,0.34029 -1.39654,0 -0.40332,-0.3403 -0.50261,-0.92177 -0.23506,-1.37662 V 139.0303 c 0,-4.4629 -3.6179,-8.0808 -8.08081,-8.0808 -0.32398,0.002 -0.64762,0.0214 -0.9697,0.0566 -0.31937,-0.0352 -0.64032,-0.0541 -0.96161,-0.0566 -4.46291,0 -8.08081,3.6179 -8.08081,8.0808 v 12.30707 c 0.26316,0.45507 0.16147,1.03341 -0.24115,1.37141 -0.40262,0.338 -0.98983,0.338 -1.39245,0 -0.40261,-0.338 -0.50431,-0.91634 -0.24115,-1.37141 V 139.0303 c -0.35506,-4.1216 1.64309,-8.09143 5.165,-10.26162 3.52192,-2.17019 7.96626,-2.17019 11.48818,0 3.52192,2.17019 5.52006,6.14002 5.165,10.26162 z"
         id="path166"
         fill="url(#linearGradient-9)"
         fill-rule="nonzero" />
      <rect
         id="rect168"
         fill="#00ab55"
         fill-rule="nonzero"
         x="138.94344"
         y="151.28889"
         width="41.923233"
         height="41.923233"
         rx="7.3050504"
         style="fill:#3eb5ff;fill-opacity:1" />
      <rect
         id="rect170"
         fill="url(#linearGradient-10)"
         fill-rule="nonzero"
         x="138.94344"
         y="151.29697"
         width="41.91515"
         height="41.91515"
         rx="7.2969699" />
      <rect
         id="rect172"
         fill="url(#linearGradient-11)"
         fill-rule="nonzero"
         x="146.21616"
         y="151.29697"
         width="34.650505"
         height="41.91515"
         rx="7.2969699" />
      <path
         d="m 163.50101,170.88485 v 0 c -1.25307,-0.39845 -2.02866,-1.65082 -1.82705,-2.95016 0.20161,-1.29934 1.32024,-2.25779 2.63513,-2.25779 1.31489,0 2.43352,0.95845 2.63513,2.25779 0.20161,1.29934 -0.57398,2.55171 -1.82705,2.95016 l 2.07677,6.59394 h -5.56768 z"
         id="path174"
         fill="url(#linearGradient-12)"
         fill-rule="nonzero" />
      <circle
         id="Oval"
         fill="#c8facd"
         fill-rule="nonzero"
         cx="69.375755"
         cy="99.232323"
         r="3.579798"
         style="fill:#8be0ff;fill-opacity:1" />
      <circle
         id="circle177"
         fill="#c8facd"
         fill-rule="nonzero"
         cx="80.139397"
         cy="99.232323"
         r="3.579798"
         style="fill:#8be0ff;fill-opacity:1" />
      <circle
         id="circle179"
         fill="#c8facd"
         fill-rule="nonzero"
         cx="90.91111"
         cy="99.232323"
         r="3.579798"
         style="fill:#8be0ff;fill-opacity:1" />
      <circle
         id="circle181"
         fill="#c8facd"
         fill-rule="nonzero"
         cx="69.375755"
         cy="139.10303"
         r="3.579798"
         style="fill:#8be0ff;fill-opacity:1" />
      <circle
         id="circle183"
         fill="#c8facd"
         fill-rule="nonzero"
         cx="80.139397"
         cy="139.10303"
         r="3.579798"
         style="fill:#8be0ff;fill-opacity:1" />
      <circle
         id="circle185"
         fill="#c8facd"
         fill-rule="nonzero"
         cx="90.91111"
         cy="139.10303"
         r="3.579798"
         style="fill:#8be0ff;fill-opacity:1" />
      <circle
         id="circle187"
         fill="#c8facd"
         fill-rule="nonzero"
         cx="69.375755"
         cy="178.97374"
         r="3.579798"
         style="fill:#8be0ff;fill-opacity:1" />
      <circle
         id="circle189"
         fill="#c8facd"
         fill-rule="nonzero"
         cx="80.139397"
         cy="178.97374"
         r="3.579798"
         style="fill:#8be0ff;fill-opacity:1" />
      <circle
         id="circle191"
         fill="#c8facd"
         fill-rule="nonzero"
         cx="90.91111"
         cy="178.97374"
         r="3.579798"
         style="fill:#8be0ff;fill-opacity:1" />
      <path
         d="m 124.03434,96.89697 c -0.15779,0.978018 -0.10266,1.97857 0.16162,2.933333 0.37489,0.903567 1.01434,1.672597 1.83434,2.206057 1.74669,1.22144 3.8983,1.71952 6.00404,1.3899 0.28511,-0.0142 0.55521,-0.13203 0.7596,-0.33131 0.12737,-0.17067 0.19803,-0.37698 0.20202,-0.5899 -0.006,-1.13814 -0.44216,-2.23193 -1.2202,-3.062626 -0.77371,-0.824461 -1.40458,-1.772128 -1.86667,-2.80404 -0.67879,-2.004041 0.66263,-6.925253 -2.9899,-6.585859 -3.02222,0.282828 -2.65858,4.719192 -2.88485,6.844445 z"
         id="path193"
         fill="#ba8b72" />
      <path
         d="m 110.77374,69.608081 c 2.77755,0.09967 5.54638,0.369538 8.29091,0.808081 4.84848,0.743434 7.95151,2.80404 9.14747,7.668687 1.09899,4.444444 2.19798,8.945454 2.18182,13.527272 0.1145,1.081407 -0.19551,2.165011 -0.86465,3.022222 -1.12323,1.131314 -3.15959,0.711112 -4.26666,-0.420202 -1.10707,-1.131313 -1.5596,-2.755555 -2.01212,-4.282828 -0.7596,-2.593939 -1.72122,-8.743434 -4.46869,-9.430303 -4.65455,-1.163636 -9.43839,1.769697 -13.99596,0 -1.62779,-0.569436 -3.17789,-1.340414 -4.61414,-2.294949 -1.437317,-0.967488 -2.547446,-2.348105 -3.183841,-3.959596 -0.288226,-0.858075 -0.448863,-1.753828 -0.476768,-2.658586 -0.05667,-0.743235 -0.04044,-1.490234 0.04848,-2.230303 0.145454,-0.856566 0.290909,-0.759596 1.155556,-0.751515 1.462626,0 2.917163,0.113131 4.371713,0.250505 2.89293,0.242424 5.78586,0.670707 8.68687,0.751515 z"
         id="path195"
         fill="#212b36"
         fill-rule="nonzero" />
      <path
         d="m 123.12929,100.22626 c 0,0 -0.66262,1.17172 -0.13737,1.9798 0.52525,0.80808 6.38384,5.6 11.08687,2.97374 4.70303,-2.62627 -5.3495,-4.36364 -5.3495,-4.36364 z"
         id="path197"
         fill="#b78103"
         fill-rule="nonzero" />
      <path
         d="m 123.7596,97.373737 c 0.42817,-0.146691 0.89919,0.0424 1.10707,0.444445 0.71962,1.074621 1.93943,1.705872 3.23232,1.672727 1.43838,-0.153535 2.21414,-1.688889 2.90909,-1.616162 0.69495,0.07273 3.99192,3.725253 4.0404,5.107073 0.0485,1.38182 -1.98787,2.13333 -4.10505,1.99596 -2.11717,-0.13738 -6.66666,-2.21414 -7.42626,-3.43435 -0.608,-1.34552 -0.51741,-2.903689 0.24243,-4.169693 z"
         id="path199"
         fill="#7a4f01"
         fill-rule="nonzero" />
      <path
         d="m 113.79596,101.89091 c -0.31859,0.94011 -0.42888,1.93827 -0.32323,2.92525 0.21825,0.95265 0.72304,1.81559 1.44646,2.47273 1.52075,1.49615 3.5637,2.34231 5.69697,2.35959 0.28487,0.0317 0.57163,-0.04 0.80808,-0.20201 0.15316,-0.14856 0.25744,-0.34022 0.29899,-0.5495 0.17953,-1.12749 -0.0714,-2.28126 -0.70303,-3.23232 -0.62944,-0.9389 -1.09656,-1.97693 -1.38182,-3.07071 -0.34747,-2.08485 1.78586,-6.723233 -1.87474,-6.9899 -3.06263,-0.210101 -3.42627,4.242425 -3.96768,6.28687 z"
         id="path201"
         fill="#ba8b72" />
      <path
         d="m 105.14141,72.8 c 2.73363,0.539614 5.43215,1.243928 8.08081,2.109091 4.63031,1.527273 7.37778,4.040404 7.76566,9.066667 0.34747,4.565656 0.69495,9.187878 -0.0647,13.737373 -0.0663,1.084354 -0.54992,2.100904 -1.34949,2.836359 -1.29293,0.9293 -3.23233,0.18586 -4.14546,-1.115147 -0.91313,-1.30101 -1.08282,-2.965656 -1.27676,-4.549494 -0.33132,-2.682829 -0.26667,-8.888889 -2.86869,-10.036364 -2.74748,-1.19596 -5.8101,-0.808081 -8.72727,-0.969697 -1.5192,-0.08081 -3.119196,-0.379798 -4.606065,-0.412121 -4.969697,-0.105051 -6.004041,-3.806061 -6.173737,-4.387879 -0.615412,-1.861163 -0.926481,-3.809434 -0.921278,-5.769697 0.06013,-0.958281 0.21441,-1.90832 0.460671,-2.836364 0.185859,-0.864646 0.19394,-0.961616 1.131314,-0.80808 1.446464,0.242424 2.868686,0.589899 4.274747,0.961616 2.79596,0.711111 5.567678,1.616161 8.420198,2.173737 z"
         id="path203"
         fill="#212b36"
         fill-rule="nonzero" />
      <path
         d="m 112.32525,105.02626 c 0,0 -0.80808,1.05051 -0.4606,1.93132 0.34747,0.8808 5.37373,6.56969 10.44848,4.74343 5.07475,-1.82626 -4.55757,-5.1798 -4.55757,-5.1798 z"
         id="path205"
         fill="#b78103"
         fill-rule="nonzero" />
      <path
         d="m 113.40808,102.31919 c 0.4488,-0.0745 0.88474,0.18986 1.02626,0.62222 0.53549,1.18496 1.64444,2.00979 2.93334,2.18182 1.44646,0.0808 2.42424,-1.30909 3.13535,-1.11515 0.71111,0.19394 3.32929,4.33131 3.12727,5.65657 -0.20202,1.32525 -2.31111,1.77777 -4.37171,1.29293 -2.06061,-0.48485 -6.21415,-3.27273 -6.76364,-4.59798 -0.37167,-1.41515 -0.031,-2.92263 0.91313,-4.04041 z"
         id="path207"
         fill="#7a4f01"
         fill-rule="nonzero" />
      <polygon
         id="polygon209"
         fill="#00ab55"
         fill-rule="nonzero"
         points="119.29899,77.389899 131.9697,70.238384 122.94343,67.313131 110.4101,71.886869 "
         style="fill:#8be0ff;fill-opacity:1" />
      <polygon
         id="polygon211"
         fill="url(#linearGradient-13)"
         fill-rule="nonzero"
         points="119.29899,77.389899 131.9697,70.238384 122.94343,67.313131 110.4101,71.886869 "
         style="fill-opacity:1" />
      <polygon
         id="polygon213"
         fill="#00AB55"
         fill-rule="nonzero"
         points="123.28283,66.230303 119.29899,77.389899 110.4101,71.886869 109.84444,73.155556 119.58182,79.90303 135.85657,73.155556 142.10303,60.573737 "
         style="fill:#3eb5ff;fill-opacity:1" />
      <path
         d="m 111.91313,59.377778 c -0.9697,0.581818 -1.98788,0.808081 -2.81212,0.218182 l -0.20202,-0.169697 c -1.30909,-1.284849 -1.51919,-4.040404 -1.46263,-6.052526 0.0221,-0.846396 0.0922,-1.690855 0.21011,-2.529293 l 4.94545,-6.012121 2.55353,11.49899 c -0.90737,1.182007 -1.99871,2.210596 -3.23232,3.046465 z"
         id="path215"
         fill="#007B55"
         fill-rule="nonzero"
         style="fill:#1f6ab7;fill-opacity:1" />
      <path
         d="m 111.95354,56.50101 c -0.0889,0.549495 -0.097,1.131313 -0.17778,1.69697 -0.44445,3.086869 -1.61616,6.157576 -1.17172,9.317172 0.21168,0.687122 0.19467,1.424383 -0.0485,2.10101 -0.34413,0.519349 -0.86783,0.893419 -1.47071,1.050505 -2.94142,1.090909 -6.1495,1.082828 -9.28485,1.058585 -2.351515,0 -5.729293,0.185859 -7.676768,-1.373737 -0.722401,-0.723082 -1.131622,-1.701151 -1.139394,-2.723232 -0.347452,-3.306723 -0.347452,-6.640752 0,-9.947475 l 0.09697,-1.292929 c 0.26936,-2.979125 0.646465,-5.942088 1.131313,-8.888889 0.363637,-2.133333 0.872728,-4.428283 2.513131,-5.842424 2.181819,-1.882829 5.995958,-2.771718 8.808078,-2.876768 0.91433,-0.0563 1.83197,0.02266 2.72324,0.234343 1.24713,0.39385 2.41906,0.99484 3.46666,1.777778 1.26061,0.872728 2.38384,1.616162 2.85253,3.062626 0.50674,1.658987 0.77874,3.380746 0.80808,5.115152 0.0209,1.63681 -0.18577,3.268585 -0.61414,4.848485 -0.20202,0.767677 -0.51717,1.519192 -0.71111,2.286868 -0.0566,0.113132 -0.0808,0.250506 -0.10505,0.39596 z"
         id="path217"
         fill="#007B55"
         fill-rule="nonzero"
         style="fill:#1f6ab7;fill-opacity:1" />
      <path
         d="M 96.785859,72.145454 C 95.848485,72.274748 93.909091,71.151515 93.238384,70.925252 92.842424,70.79596 92.49495,70.537374 92.107071,70.375758 90.135353,69.567677 90.741414,63.789899 90.765657,62.214141 90.846465,58.052525 90.652525,53.70505 91.210101,49.6 c 0.143781,-1.592508 0.562074,-3.148122 1.236364,-4.59798 0.689692,-1.46455 1.995979,-2.545718 3.563636,-2.949495 0.299989,-0.09326 0.621223,-0.09326 0.921212,0 1.19596,0.50101 1.155556,2.59394 1.220202,3.620202 0.02092,1.033359 0.237537,2.053386 0.638384,3.006061 0.468687,1.010101 1.220201,1.381818 1.947471,2.133333 1.70509,1.605256 3.06122,3.544547 3.98384,5.69697 0.4202,1.131313 0.63839,2.327273 1.0101,3.482828 0.96001,2.533101 2.32453,4.89372 4.04041,6.989899 0.58181,0.808081 1.20404,1.777778 0.86464,2.69899 -0.30235,0.639645 -0.86421,1.119139 -1.54343,1.317172 -0.83167,0.337329 -1.73423,0.462299 -2.62626,0.363636 -2.10909,-0.274747 -3.70101,-1.979798 -5.58384,-2.957576 -0.65455,-0.339394 -1.907072,-0.913131 -2.650507,-0.589899 -0.743434,0.323233 -1.00202,1.317172 -1.115151,1.987879 -0.06465,0.428283 0.290909,1.818182 0.08889,2.092929 -0.09721,0.140383 -0.250481,0.231756 -0.420203,0.250505 z"
         id="path219"
         fill="#020202"
         fill-rule="nonzero"
         opacity="0.1" />
      <path
         d="m 108.40606,36.880808 c -0.38082,0.307321 -0.86058,0.465327 -1.34949,0.444444 -0.41107,-0.01352 -0.81979,-0.06765 -1.22021,-0.161616 h -0.21818 c -0.0538,-0.02491 -0.11587,-0.02491 -0.16969,0 -0.0578,0.03886 -0.096,0.100672 -0.10506,0.169697 -0.20367,0.795058 -0.33884,1.606105 -0.40404,2.424243 v 0 0.444444 c 0.008,0.155167 -0.028,0.309479 -0.10505,0.444445 -0.14191,0.149499 -0.33559,0.239113 -0.54141,0.250505 -0.37197,0.06049 -0.75127,0.06049 -1.12323,0 -0.78787,-0.193268 -1.51538,-0.579238 -2.11717,-1.123233 0.25833,-1.374861 0.38818,-2.770776 0.38787,-4.169697 0,-1.810101 -0.19393,-3.644444 0.25859,-5.397979 0.13062,-0.840261 0.61754,-1.583262 1.33584,-2.038393 0.71831,-0.455131 1.59809,-0.578101 2.41366,-0.337365 1.2799,0.162918 2.48603,0.690246 3.47474,1.519192 0.29028,0.310649 0.42918,0.733272 0.3798,1.155555 0,0.719192 0.0404,1.438384 0,2.157576 -0.0404,0.719192 -0.10505,1.616162 -0.2101,2.424243 -0.0113,0.660066 -0.25444,1.29512 -0.68687,1.793939 z"
         id="path221"
         fill="#ba8b72" />
      <path
         d="m 108.03434,29.640404 c -0.92121,0 -1.89899,-0.282828 -2.80404,-0.05657 -1.2811,0.435682 -2.04372,1.750423 -1.78586,3.078788 -0.37171,0.07273 -0.33939,-0.565656 -0.56565,-0.856565 -0.22627,-0.290909 -0.88889,0 -0.99394,0.387878 -0.0408,0.438426 0.0287,0.880087 0.20202,1.284849 0.20774,0.80776 0.13655,1.662009 -0.20202,2.424242 -0.0808,0.177778 -0.25051,0.379798 -0.42828,0.307071 -0.17778,-0.07273 -0.27475,-0.420202 -0.36364,-0.581818 -0.14992,-0.228656 -0.31458,-0.447301 -0.49293,-0.654546 -0.36364,-0.428283 -0.808081,-0.80808 -1.155556,-1.244444 -0.750532,-0.69824 -1.140487,-1.701406 -1.058585,-2.723232 0.08116,-0.403531 0.274406,-0.776019 0.557575,-1.074748 0.234696,-0.264098 0.524283,-0.473703 0.848485,-0.614141 0.129293,-0.06465 0.282831,-0.129293 0.331311,-0.258586 0.0161,-0.08001 0.0161,-0.162419 0,-0.242424 -0.0354,-1.081228 0.56511,-2.083156 1.53536,-2.561617 0.95569,-0.45373 2.00508,-0.675235 3.06262,-0.646464 0.68687,0 1.37374,0 2.06061,0 0.56178,0.05314 1.12855,0.0039 1.67272,-0.145455 -0.0814,-0.385604 -0.20893,-0.760012 -0.37979,-1.115151 0.45272,0.210415 0.8742,0.482344 1.25252,0.808081 0.0132,-0.237232 -0.0142,-0.474973 -0.0808,-0.703031 0.72852,0.300056 1.36037,0.794908 1.82626,1.430303 0.45573,0.884814 0.32435,1.958279 -0.33132,2.707071 -0.63627,0.656517 -1.51,1.029311 -2.42424,1.034343 z"
         id="path223"
         fill="#b72136"
         fill-rule="nonzero" />
      <path
         d="m 105.83636,37.163636 h -0.21818 c -0.0538,-0.02491 -0.11587,-0.02491 -0.16969,0 -0.0578,0.03886 -0.096,0.100672 -0.10506,0.169697 -0.20367,0.795058 -0.33884,1.606105 -0.40404,2.424243 v 0 c -1.40375,-0.687677 -2.12739,-2.270218 -1.72929,-3.781818 0.82522,0.496419 1.69999,0.905368 2.6101,1.220202 z"
         id="path225"
         fill="#020202"
         fill-rule="nonzero"
         opacity="0.1" />
      <path
         d="m 126.86263,63.636364 c -0.54142,-0.226263 -1.00202,-0.735354 -1.61616,-0.711112 -0.61415,0.02424 -1.10708,0.743435 -1.61617,1.212122 -0.55437,0.494801 -1.27747,0.758011 -2.0202,0.735353 -0.23468,-0.01064 -0.46761,-0.04585 -0.69495,-0.10505 -0.95843,-0.281598 -1.79487,-0.876209 -2.37576,-1.688889 0,0 1.50303,-1.688889 1.69697,-1.80202 0.66263,-0.379798 1.5596,-0.347475 2.27071,-0.727273 0.72013,-0.45527 1.46468,-0.870709 2.2303,-1.244445 1.56472,-0.644758 3.34242,-0.509857 4.79192,0.363637 0.17778,0.10505 0.37172,0.29899 0.27475,0.492929 -0.0418,0.07343 -0.10734,0.130431 -0.18586,0.161616 v 0 c -0.83103,0.32957 -1.73594,0.427323 -2.61818,0.282829 0.51944,0.252969 1.00311,0.5736 1.43838,0.953535 0.19394,0.169697 0.37172,0.492929 0.16162,0.646465 -0.11355,0.04851 -0.242,0.04851 -0.35556,0 l -1.95555,-0.476768 c 0.50584,0.390189 0.92658,0.879671 1.23636,1.438384 0.0575,0.09178 0.0857,0.198883 0.0808,0.30707 -0.097,0.250506 -0.48485,0.274748 -0.74343,0.161617 z"
         id="path227"
         fill="#ffbbab"
         fill-rule="nonzero" />
      <path
         d="m 126.86263,63.636364 c -0.54142,-0.226263 -1.00202,-0.735354 -1.61616,-0.711112 -0.61415,0.02424 -1.10708,0.743435 -1.61617,1.212122 -0.55437,0.494801 -1.27747,0.758011 -2.0202,0.735353 -0.18824,-0.08625 -0.36698,-0.191869 -0.53333,-0.315151 -0.12515,-0.07924 -0.21929,-0.199053 -0.26667,-0.339394 -0.0258,-0.264107 0.1408,-0.508931 0.39596,-0.581818 0.26538,-0.06353 0.53574,-0.104087 0.80808,-0.121212 0.42896,-0.07752 0.81282,-0.314188 1.07475,-0.662627 0.21818,-0.290909 0.35555,-0.662626 0.67071,-0.808081 0.20809,-0.09482 0.43394,-0.144395 0.66262,-0.145454 l 0.88889,-0.05657 c 0.13629,0.0022 0.27142,-0.0254 0.39596,-0.08081 0.1254,-0.06043 0.19966,-0.192797 0.18586,-0.331313 0,-0.153535 -0.18586,-0.234343 -0.33131,-0.290909 -0.29091,-0.105051 -1.26869,-0.161616 -0.63839,-0.509091 0.45663,-0.194242 0.94309,-0.309025 1.43839,-0.339394 0.99158,-0.09674 1.99023,-0.09674 2.98181,0 0.10621,0.0117 0.21151,0.0306 0.31516,0.05657 v 0 c -0.83103,0.32957 -1.73595,0.427323 -2.61819,0.282828 0.51945,0.252969 1.00311,0.5736 1.43839,0.953535 0.19394,0.169697 0.37171,0.49293 0.16161,0.646465 -0.11355,0.04851 -0.242,0.04851 -0.35555,0 l -1.95556,-0.476768 c 0.50585,0.390189 0.92658,0.879672 1.23637,1.438384 0.0575,0.09178 0.0857,0.198884 0.0808,0.307071 -0.13738,0.226263 -0.52526,0.250505 -0.78384,0.137374 z"
         id="path229"
         fill="#e0a194"
         fill-rule="nonzero" />
      <path
         d="m 118.63636,63.652525 c -1.99715,-0.02529 -3.97446,-0.399973 -5.84242,-1.107071 -1.32798,-0.517848 -2.50175,-1.36619 -3.4101,-2.464646 -0.1196,-0.142717 -0.21019,-0.307415 -0.26667,-0.484848 -0.10102,-0.301528 -0.10102,-0.627765 0,-0.929293 0.25123,-0.886881 0.77058,-1.674369 1.48687,-2.254546 1.93131,-1.438384 4.55758,-0.08081 4.55758,-0.08081 0,0 4.92121,3.830303 5.05858,4.589899 0.0808,0.412121 -0.39596,1.187879 -0.85656,1.80202 -0.46061,0.614142 -0.72728,0.929293 -0.72728,0.929293 z"
         id="path231"
         fill="#007B55"
         fill-rule="nonzero"
         style="fill:#1f6ab7;fill-opacity:1" />
      <rect
         id="rect233"
         fill="#007B55"
         fill-rule="nonzero"
         transform="rotate(-11.13,97.454407,52.318517)"
         x="92.997841"
         y="41.829628"
         width="8.9131317"
         height="20.977777"
         rx="4.4525251"
         style="fill:#1f6ab7;fill-opacity:1" />
      <path
         d="m 118.63636,63.652525 c -1.99715,-0.02529 -3.97446,-0.399973 -5.84242,-1.107071 -0.23434,-0.08889 -1.43838,-0.80808 -1.61616,-0.735353 -0.0734,0.05614 -0.12486,0.136179 -0.14546,0.226263 l -0.65454,1.866666 c -0.39715,-0.260639 -0.64394,-0.697052 -0.66263,-1.171717 -0.0485,-0.468687 0,-0.937374 -0.0485,-1.39798 -0.15199,-0.714418 -0.39363,-1.40677 -0.7192,-2.060606 -0.8808,-2.246464 -0.71919,-4.751515 -0.54949,-7.159596 l 1.79394,4.69495 c 0.14688,0.44853 0.35344,0.875255 0.61414,1.268687 0.23978,0.2974 0.51068,0.568301 0.80808,0.80808 1.27774,1.140067 2.74676,2.045552 4.3394,2.674748 0.27474,0.113131 3.29697,1.39798 3.45858,1.163636 -0.4202,0.533334 -0.77576,0.929293 -0.77576,0.929293 z"
         id="path235"
         fill="#020202"
         fill-rule="nonzero"
         opacity="0.1" />
      <path
         d="m 119.53333,73.519192 c -0.48484,-0.428283 -0.80808,-1.123232 -1.4303,-1.284849 -0.62222,-0.161616 -1.26061,0.436364 -1.86667,0.808081 -0.69455,0.347696 -1.50642,0.374266 -2.22222,0.07273 -0.23516,-0.0886 -0.46003,-0.202397 -0.67071,-0.339393 -0.91122,-0.644053 -1.60687,-1.548113 -1.99595,-2.59394 0,0 1.8505,-1.325252 2.06868,-1.381818 0.74344,-0.185859 1.61616,0.137374 2.42424,0 0.81448,-0.252118 1.64278,-0.457171 2.48081,-0.614141 1.78687,-0.135443 3.53018,0.594943 4.68687,1.963636 0.15354,0.177778 0.29899,0.452525 0.1697,0.622222 -0.055,0.06497 -0.1334,0.105619 -0.21818,0.113132 v 0 c -0.92296,0.07259 -1.8476,-0.117936 -2.66667,-0.549496 0.4687,0.444356 0.87875,0.946734 1.2202,1.49495 0.16162,0.242424 0.26667,0.646465 0,0.743434 -0.11313,0 -0.24242,0 -0.35555,-0.10505 l -1.84243,-1.155556 c 0.42379,0.5902 0.736,1.252967 0.92121,1.955556 0.0359,0.11304 0.0359,0.234434 0,0.347475 -0.0808,0.210101 -0.47676,0.145454 -0.70303,-0.09697 z"
         id="path237"
         fill="#ffbbab"
         fill-rule="nonzero" />
      <path
         d="m 119.53333,73.519192 c -0.48484,-0.428283 -0.80808,-1.123232 -1.4303,-1.284849 -0.62222,-0.161616 -1.26061,0.436364 -1.86667,0.808081 -0.69455,0.347696 -1.50642,0.374266 -2.22222,0.07273 -0.17008,-0.153962 -0.32438,-0.324503 -0.46061,-0.50909 -0.11307,-0.125961 -0.18373,-0.284248 -0.20201,-0.452526 0.0169,-0.278768 0.24599,-0.49729 0.52525,-0.50101 0.27248,0.01582 0.54295,0.05639 0.80808,0.121212 0.43673,0.06639 0.88046,-0.06377 1.21212,-0.355555 0.28283,-0.242424 0.50101,-0.59798 0.80808,-0.69495 0.23014,-0.03741 0.46595,-0.01799 0.68687,0.05657 l 0.90505,0.234343 c 0.13324,0.0279 0.2708,0.0279 0.40404,0 0.14576,-0.0265 0.25338,-0.150937 0.25859,-0.298989 -0.0237,-0.169982 -0.12135,-0.320805 -0.26667,-0.412122 -0.26667,-0.210101 -1.22828,-0.59798 -0.52525,-0.759596 0.49991,-0.06431 1.00753,-0.03138 1.49495,0.09697 1.01992,0.232744 2.01357,0.568473 2.96565,1.00202 0.10633,0.04596 0.20899,0.09999 0.30707,0.161616 v 0 c -0.92296,0.07259 -1.84759,-0.117935 -2.66666,-0.549494 0.4687,0.444355 0.87875,0.946733 1.2202,1.494949 0.16161,0.242424 0.26667,0.646465 0,0.743434 -0.11313,0 -0.24242,0 -0.35556,-0.10505 l -1.84242,-1.155556 c 0.42379,0.5902 0.736,1.252967 0.92121,1.955556 0.0359,0.11304 0.0359,0.234434 0,0.347474 -0.0566,0.29091 -0.45252,0.226263 -0.67879,-0.01616 z"
         id="path239"
         fill="#e0a194"
         fill-rule="nonzero" />
      <path
         d="m 106.05455,60.024242 8.35555,7.426263 -2.76363,5.018182 c 0,0 -15.894955,-7.442424 -16.703036,-11.038384 -0.808081,-3.59596 3.39394,-3.458586 3.39394,-3.458586 0,0 3.474746,-2.69899 7.717176,2.052525 z"
         id="path241"
         fill="#007B55"
         fill-rule="nonzero"
         style="fill:#1f6ab7;fill-opacity:1" />
      <rect
         id="rect243"
         fill="#00AB55"
         fill-rule="nonzero"
         x="150.52324"
         y="68.250504"
         width="34.012119"
         height="34.012119"
         rx="8"
         style="fill:#3eb5ff;fill-opacity:1" />
      <rect
         id="rect245"
         fill="#00ab55"
         fill-rule="nonzero"
         opacity="0.18"
         x="18.894949"
         y="52.492928"
         width="24.937374"
         height="34.012119"
         rx="3"
         style="fill:#8be0ff;fill-opacity:1" />
      <g
         id="g251"
         fill-rule="nonzero">
        <use
           fill="#ffffff"
           xlink:href="#path-14"
           id="use247"
           x="0"
           y="0"
           width="100%"
           height="100%" />
        <use
           fill-opacity="0.48"
           fill="#00ab55"
           xlink:href="#path-14"
           id="use249"
           x="0"
           y="0"
           width="100%"
           height="100%"
           style="fill:#3eb5ff;fill-opacity:0.66666669" />
      </g>
      <path
         d="m 0.84242424,153.24444 c 0.18372236,1.73421 0.78544386,3.39796 1.75353536,4.84849 3.8787879,6.85252 8.2262624,13.6 14.2303034,18.68283 8.832323,7.46666 20.387878,10.69091 31.555555,13.73737 -0.993939,-0.48485 -2.19798,-5.65656 -2.642424,-6.76364 -0.864647,-2.21414 -1.672727,-4.45252 -2.49697,-6.68282 -1.317172,-3.51516 -4.040404,-6.34344 -6.755555,-8.93738 -6.076173,-5.87033 -13.460053,-10.21314 -21.543435,-12.6707 -4.572524,-1.39881 -9.3198238,-2.14423 -14.10100976,-2.21415 z"
         id="path253"
         fill="#00ab55"
         fill-rule="nonzero"
         style="fill:#3eb5ff;fill-opacity:1" />
      <path
         d="m 0.84242424,153.24444 c 0.18372236,1.73421 0.78544386,3.39796 1.75353536,4.84849 3.8787879,6.85252 8.2262624,13.6 14.2303034,18.68283 8.832323,7.46666 20.387878,10.69091 31.555555,13.73737 -0.993939,-0.48485 -2.19798,-5.65656 -2.642424,-6.76364 -0.864647,-2.21414 -1.672727,-4.45252 -2.49697,-6.68282 -1.317172,-3.51516 -4.040404,-6.34344 -6.755555,-8.93738 -6.076173,-5.87033 -13.460053,-10.21314 -21.543435,-12.6707 -4.572524,-1.39881 -9.3198238,-2.14423 -14.10100976,-2.21415 z"
         id="path255"
         fill="url(#linearGradient-15)"
         fill-rule="nonzero" />
      <path
         d="m 44.535353,157.08283 c -0.913131,-6.37576 -1.850505,-12.83233 -4.412121,-18.7394 -2.561616,-5.90707 -7.00606,-11.31313 -13.042424,-13.51919 -0.177778,9.12593 -0.352862,18.24916 -0.525252,27.3697 -0.105051,5.26869 -0.19394,10.64242 1.317171,15.69293 2.658586,8.88889 11.862627,19.2404 20.727273,22.16565 1.317172,-4.2505 -0.888889,-10.6909 -1.519192,-15.11111 z"
         id="path257"
         fill="#00ab55"
         fill-rule="nonzero"
         style="fill:#3eb5ff;fill-opacity:1" />
      <rect
         id="rect259"
         fill="#c8facd"
         fill-rule="nonzero"
         x="109.21414"
         y="137.65657"
         width="28.016161"
         height="2.8848486"
         style="fill:#8be0ff;fill-opacity:1" />
      <rect
         id="rect261"
         fill="#c8facd"
         fill-rule="nonzero"
         x="109.21414"
         y="177.52727"
         width="28.016161"
         height="2.8848486"
         style="fill:#8be0ff;fill-opacity:1" />
      <path
         d="m 158.78182,79.571717 8.56565,-4.476768 8.21819,4.452526 c 0,0 -1.52728,10.99798 -8.01617,14.149495 -0.0162,0 -8.06464,-3.078788 -8.76767,-14.125253 z"
         id="path263"
         fill="#005249"
         fill-rule="nonzero"
         style="fill:#0b357a;fill-opacity:1;stroke:#0b357a;stroke-opacity:1;filter:url(#filter1201)" />
    </g>
  </g>
</svg>
