<?xml version="1.0" encoding="UTF-8" standalone="no"?>
<svg
   xmlns:dc="http://purl.org/dc/elements/1.1/"
   xmlns:cc="http://creativecommons.org/ns#"
   xmlns:rdf="http://www.w3.org/1999/02/22-rdf-syntax-ns#"
   xmlns:svg="http://www.w3.org/2000/svg"
   xmlns="http://www.w3.org/2000/svg"
   xmlns:xlink="http://www.w3.org/1999/xlink"
   xmlns:sodipodi="http://sodipodi.sourceforge.net/DTD/sodipodi-0.dtd"
   xmlns:inkscape="http://www.inkscape.org/namespaces/inkscape"
   width="491px"
   height="360px"
   viewBox="0 0 491 360"
   version="1.1"
   id="svg91"
   sodipodi:docname="illustration_404.svg"
   inkscape:version="1.0.2 (e86c870879, 2021-01-15, custom)">
  <metadata
     id="metadata95">
    <rdf:RDF>
      <cc:Work
         rdf:about="">
        <dc:format>image/svg+xml</dc:format>
        <dc:type
           rdf:resource="http://purl.org/dc/dcmitype/StillImage" />
      </cc:Work>
    </rdf:RDF>
  </metadata>
  <sodipodi:namedview
     pagecolor="#ffffff"
     bordercolor="#666666"
     borderopacity="1"
     objecttolerance="10"
     gridtolerance="10"
     guidetolerance="10"
     inkscape:pageopacity="0"
     inkscape:pageshadow="2"
     inkscape:window-width="1920"
     inkscape:window-height="1017"
     id="namedview93"
     showgrid="false"
     inkscape:zoom="2.1588595"
     inkscape:cx="245.5"
     inkscape:cy="180"
     inkscape:window-x="-8"
     inkscape:window-y="-8"
     inkscape:window-maximized="1"
     inkscape:current-layer="__平Illustrations/-illustration_404" />
  <title
     id="title2">__平Illustrations/ illustration_404</title>
  <defs
     id="defs32">
    <linearGradient
       x1="19.4959033%"
       y1="70.8554375%"
       x2="77.4790349%"
       y2="18.1660829%"
       id="linearGradient951">
      <stop
         stop-color="#00AB55"
         offset="0%"
         id="stop947"
         style="stop-color:#8be0ff;stop-opacity:1" />
      <stop
         stop-color="#00AB55"
         stop-opacity="0"
         offset="100%"
         id="stop949"
         style="stop-color:#d8f9ff;stop-opacity:0" />
    </linearGradient>
    <linearGradient
       x1="19.4959033%"
       y1="70.8554375%"
       x2="77.4790349%"
       y2="18.1660829%"
       id="linearGradient-1">
      <stop
         stop-color="#00AB55"
         offset="0%"
         id="stop4" />
      <stop
         stop-color="#00AB55"
         stop-opacity="0"
         offset="100%"
         id="stop6" />
    </linearGradient>
    <filter
       x="-18.5%"
       y="-25.6%"
       width="137.1%"
       height="151.1%"
       filterUnits="objectBoundingBox"
       id="filter-2">
      <feOffset
         dx="12"
         dy="12"
         in="SourceAlpha"
         result="shadowOffsetOuter1"
         id="feOffset9" />
      <feGaussianBlur
         stdDeviation="12"
         in="shadowOffsetOuter1"
         result="shadowBlurOuter1"
         id="feGaussianBlur11" />
      <feColorMatrix
         values="0 0 0 0 0   0 0 0 0 0.321568627   0 0 0 0 0.28627451  0 0 0 0.32 0"
         type="matrix"
         in="shadowBlurOuter1"
         result="shadowMatrixOuter1"
         id="feColorMatrix13" />
      <feMerge
         id="feMerge19">
        <feMergeNode
           in="shadowMatrixOuter1"
           id="feMergeNode15" />
        <feMergeNode
           in="SourceGraphic"
           id="feMergeNode17" />
      </feMerge>
    </filter>
    <linearGradient
       x1="0%"
       y1="0%"
       x2="100%"
       y2="100%"
       id="linearGradient-3">
      <stop
         stop-color="#FFE16A"
         offset="0%"
         id="stop22" />
      <stop
         stop-color="#B78103"
         offset="100%"
         id="stop24" />
    </linearGradient>
    <linearGradient
       x1="49.6870153%"
       y1="25.5463845%"
       x2="52.0640993%"
       y2="100.936456%"
       id="linearGradient-4">
      <stop
         stop-color="#00AB55"
         offset="0%"
         id="stop27"
         style="stop-color:#3eb5ff;stop-opacity:1" />
      <stop
         stop-color="#007B55"
         offset="100%"
         id="stop29"
         style="stop-color:#1f6ab7;stop-opacity:1" />
    </linearGradient>
    <linearGradient
       inkscape:collect="always"
       xlink:href="#linearGradient951"
       id="linearGradient932"
       x1="0.19495903"
       y1="0.70855439"
       x2="0.77479035"
       y2="0.18166083" />
  </defs>
  <g
     id="__平Illustrations/-illustration_404"
     stroke="none"
     stroke-width="1"
     fill="none"
     fill-rule="evenodd">
    <g
       id="Group"
       fill="url(#linearGradient-1)"
       opacity="0.24">
      <g
         id="__平Illustrations/-X弩Setup/-Shape_1">
        <path
           d="M0,198.780719 C0,240.237877 15.2878786,278.015536 40.4451471,306.566479 C69.3061245,339.331025 111.157498,359.93074 157.808105,360 C178.196244,360.029445 197.690976,356.113053 215.597791,348.963528 C224.856526,345.265384 235.219385,345.689815 244.186769,350.071216 C254.705518,355.203871 266.48428,358.081668 278.922076,358.081668 C284.059965,358.081668 289.091418,357.587047 293.958382,356.648253 C307.850785,353.977737 320.49285,347.65843 330.875061,338.708088 C337.399824,333.080811 345.756553,330.252367 354.297123,330.262238 L354.442261,330.262238 C382.663556,330.262238 408.877645,321.530143 430.641907,306.566479 C450.099012,293.206222 465.98787,274.87014 476.574349,253.341502 C485.804056,234.580989 491,213.387949 491,190.957807 C491,114.027201 429.856011,51.6533755 354.442261,51.6533755 C346.754243,51.6533755 339.222114,52.3157951 331.873826,53.5517999 C312.416722,21.4200619 277.573905,0 237.826496,0 C221.045307,0 205.136023,3.81768653 190.895289,10.6612269 C177.352292,17.1483328 165.311207,26.3662746 155.461168,37.5999899 C122.014902,38.1439636 91.0886637,49.2899413 65.7765813,67.8914297 C25.9324134,97.1552417 0,144.882355 0,198.780719 Z"
           id="background"
           style="fill-rule:evenodd;fill-opacity:1.0;fill:url(#linearGradient932)" />
      </g>
    </g>
    <g
       id="#gr"
       filter="url(#filter-2)"
       transform="translate(46.000000, 38.000000)">
      <circle
         id="Oval"
         fill="#FFC107"
         fill-rule="nonzero"
         opacity="0.15"
         cx="92.1081928"
         cy="44.8312048"
         r="44.6233133" />
      <circle
         id="circle38"
         fill="url(#linearGradient-3)"
         cx="92.1081928"
         cy="44.8312048"
         r="23.4061446" />
      <circle
         id="circle40"
         fill="#005249"
         fill-rule="nonzero"
         cx="190.391988"
         cy="207.035542"
         r="62.5753614"
         style="fill:#0b357a;fill-opacity:1" />
      <circle
         id="circle42"
         fill="#FFFFFF"
         fill-rule="nonzero"
         cx="190.391988"
         cy="207.035542"
         r="39.3893373" />
      <path
         d="M114.841747,221.967048 C118.987349,221.967048 120.479277,223.458976 120.479277,227.592349 L120.479277,234.721807 C120.479277,238.86741 119.256386,240.359337 114.841747,240.359337 L103.407711,240.359337 L103.407711,262.065663 C103.407711,266.199036 101.915783,267.690964 97.7701807,267.690964 L89.6501807,267.690964 C85.5168072,267.690964 84.0248795,266.199036 84.0248795,262.065663 L84.0248795,240.359337 L29.3493976,240.359337 C25.2160241,240.359337 23.7240964,238.86741 23.7240964,234.721807 L23.7240964,228.754096 C23.6129077,226.338221 24.3005445,223.95298 25.6807229,221.967048 L80.7108434,153.693012 C82.5802656,151.182657 85.5297015,149.707939 88.6596386,149.718557 L97.8313253,149.718557 C101.976928,149.718557 103.468855,150.880361 103.468855,155.356145 L103.468855,221.967048 L114.841747,221.967048 Z M84.0248795,177.551627 L48.0596386,221.967048 L84.0248795,221.967048 L84.0248795,177.551627 Z"
         id="Shape"
         fill="#00AB55"
         fill-rule="nonzero"
         style="fill:#3eb5ff;fill-opacity:1" />
      <path
         d="M351.483494,221.967048 C355.629096,221.967048 357.121024,223.458976 357.121024,227.592349 L357.121024,234.721807 C357.121024,238.86741 355.959277,240.359337 351.483494,240.359337 L340.049458,240.359337 L340.049458,262.065663 C340.049458,266.199036 338.55753,267.690964 334.411928,267.690964 L326.291928,267.690964 C322.158554,267.690964 320.666627,266.199036 320.666627,262.065663 L320.666627,240.359337 L265.978916,240.359337 C261.845542,240.359337 260.353614,238.86741 260.353614,234.721807 L260.353614,228.754096 C260.249561,226.335437 260.945866,223.949946 262.334699,221.967048 L317.364819,153.693012 C319.234242,151.182657 322.183677,149.707939 325.313614,149.718557 L334.424157,149.718557 C338.569759,149.718557 340.061687,150.880361 340.061687,155.356145 L340.061687,221.967048 L351.483494,221.967048 Z M320.666627,177.551627 L284.701386,221.967048 L320.666627,221.967048 L320.666627,177.551627 Z"
         id="path45"
         fill="#00AB55"
         fill-rule="nonzero"
         style="fill:#3eb5ff;fill-opacity:1" />
      <path
         d="M326.94006,136.389096 C326.94006,136.389096 316.533253,133.551988 314.270904,123.854458 C314.270904,123.854458 330.400843,120.601566 330.865542,137.24512 L326.94006,136.389096 Z"
         id="Path"
         fill="#00AB55"
         fill-rule="nonzero"
         opacity="0.58"
         style="fill:#3eb5ff;fill-opacity:1" />
      <path
         d="M328.224096,135.361867 C328.224096,135.361867 320.947892,123.854458 327.343614,113.105241 C327.343614,113.105241 339.57253,120.89506 334.167349,135.386325 L328.224096,135.361867 Z"
         id="path48"
         fill="#00AB55"
         fill-rule="nonzero"
         opacity="0.73"
         style="fill:#3eb5ff;fill-opacity:1" />
      <path
         d="M330.09512,135.374096 C330.09512,135.374096 333.935,123.218554 345.564699,120.919518 C345.564699,120.919518 347.741446,128.807169 338.031687,135.398554 L330.09512,135.374096 Z"
         id="path50"
         fill="#00AB55"
         fill-rule="nonzero"
         style="fill:#3eb5ff;fill-opacity:1" />
      <polygon
         id="polygon52"
         fill="#005249"
         fill-rule="nonzero"
         points="322.54988 135.092831 324.653253 149.535181 337.946084 149.596325 339.902711 135.166205"
         style="fill:#0b357a;fill-opacity:1" />
      <path
         d="M197.961687,124.869458 C197.961687,124.869458 199.673735,133.123976 198.927771,138.847108 C198.787965,139.971198 198.203275,140.992292 197.304577,141.68183 C196.405878,142.371369 195.268224,142.671767 194.146265,142.515783 C191.27247,142.1 187.505964,140.705904 186.050723,136.401325 L182.675542,129.369699 C181.596809,126.341014 182.542169,122.961227 185.035723,120.931747 C189.364759,116.94512 197.166807,119.843373 197.961687,124.869458 Z"
         id="path54"
         fill="#F4A28C"
         fill-rule="nonzero" />
      <polygon
         id="polygon56"
         fill="#F4A28C"
         fill-rule="nonzero"
         points="183.286988 130.604819 182.186386 158.254398 197.460301 157.765241 192.128494 137.844337" />
      <path
         d="M195.919458,125.456446 C193.344592,125.869708 190.730239,125.980521 188.129639,125.786627 C189.929895,127.934807 190.28527,130.945896 189.034578,133.454157 C187.856277,135.931133 185.086241,137.223816 182.430964,136.535843 L181.293675,125.74994 C180.847179,122.618534 182.163862,119.496115 184.717771,117.62994 C185.796118,116.824534 186.927852,116.093197 188.105181,115.440964 C191.052349,113.826747 195.833855,115.355361 198.365241,112.934036 C198.88803,112.446246 199.627855,112.267392 200.315736,112.4625 C201.003617,112.657608 201.539363,113.198261 201.728193,113.887892 C202.608675,117.104096 202.633133,122.325843 198.414157,124.637108 C197.635036,125.049635 196.79145,125.326695 195.919458,125.456446 L195.919458,125.456446 Z"
         id="path58"
         fill="#24285B"
         fill-rule="nonzero" />
      <path
         d="M189.902831,133.099518 C189.902831,133.099518 189.46259,129.871084 187.065723,130.409157 C184.668855,130.947229 185.280301,135.606446 188.631024,135.643133 L189.902831,133.099518 Z"
         id="path60"
         fill="#F4A28C"
         fill-rule="nonzero" />
      <path
         d="M198.768795,130.127892 L201.495843,133.07506 C201.809921,133.41796 201.92662,133.897767 201.805109,134.346611 C201.683599,134.795454 201.340793,135.150864 200.896627,135.288494 L197.766024,136.266807 L198.768795,130.127892 Z"
         id="path62"
         fill="#F4A28C"
         fill-rule="nonzero" />
      <path
         d="M193.485904,142.161145 C191.542008,141.906691 189.714555,141.090712 188.22747,139.813193 C188.22747,139.813193 189.034578,144.814819 195.149036,149.119398 L193.485904,142.161145 Z"
         id="path64"
         fill="#CE8172"
         fill-rule="nonzero"
         opacity="0.31" />
      <path
         d="M182.210843,158.254398 L197.484759,157.765241 C197.484759,157.765241 221.477892,153.693012 229.805783,173.259277 C238.133675,192.825542 227.457831,220.47512 227.457831,220.47512 C227.457831,220.47512 218.775301,249.665542 182.210843,246.437108 C182.210843,246.437108 151.79753,244.676145 148.361205,202.987771 C148.20563,201.169424 147.927813,199.363614 147.529639,197.58259 C146.135542,191.064578 145.328434,171.290422 182.210843,158.254398 Z"
         id="path66"
         fill="url(#linearGradient-4)"
         fill-rule="nonzero" />
      <path
         d="M161.751867,184.228614 C161.751867,184.228614 169.896325,185.121325 181.208072,204.063916 C192.519819,223.006506 214.72753,216.060482 227.24994,202.046145 L204.015,232.789639 L177.991867,230.698494 L163.843012,193.033434 L161.751867,184.228614 Z"
         id="path68"
         fill="#000000"
         fill-rule="nonzero"
         opacity="0.08" />
      <rect
         id="Rectangle"
         fill="#FFD200"
         fill-rule="nonzero"
         transform="translate(249.572649, 147.192641) rotate(-7.610000) translate(-249.572649, -147.192641) "
         x="247.316414"
         y="140.625713"
         width="4.51246988"
         height="13.1338554" />
      <rect
         id="rect71"
         fill="#000000"
         fill-rule="nonzero"
         opacity="0.08"
         transform="translate(249.572649, 147.192641) rotate(-7.610000) translate(-249.572649, -147.192641) "
         x="247.316414"
         y="140.625713"
         width="4.51246988"
         height="13.1338554" />
      <rect
         id="rect73"
         fill="#24285B"
         fill-rule="nonzero"
         transform="translate(251.133673, 158.438143) rotate(-7.610000) translate(-251.133673, -158.438143) "
         x="247.666776"
         y="150.006306"
         width="6.93379518"
         height="16.8636747" />
      <path
         d="M244.578313,113.447651 C236.479123,114.532665 230.792711,121.977517 231.876877,130.076821 C232.961043,138.176125 240.405298,143.863317 248.504716,142.780001 C256.604134,141.696684 262.292106,134.253026 261.209639,126.153494 C260.689674,122.262874 258.645156,118.738269 255.526027,116.355346 C252.406899,113.972423 248.468769,112.926462 244.578313,113.447651 L244.578313,113.447651 Z M247.929036,138.468012 C243.736171,139.034812 239.614989,137.018828 237.488771,133.360881 C235.362552,129.702934 235.650446,125.124129 238.218098,121.761311 C240.78575,118.398493 245.126989,116.914586 249.215838,118.002102 C253.304687,119.089619 256.335097,122.534172 256.892831,126.728253 C257.647379,132.425144 253.668237,137.665167 247.977952,138.468012 L247.929036,138.468012 Z"
         id="path75"
         fill="#FFC107"
         fill-rule="nonzero" />
      <circle
         id="circle77"
         fill="#B78103"
         fill-rule="nonzero"
         cx="246.620542"
         cy="128.159036"
         r="10.5046386" />
      <path
         d="M147.96988,186.283072 C148.730801,183.348943 151.171201,181.153336 154.169148,180.705642 C157.167095,180.257949 160.142475,181.6448 161.72741,184.228614 C167.564,193.677202 172.478196,203.665305 176.402108,214.05494 C185.145783,237.363253 228.020361,221.991506 243.844578,167.646205 L252.869518,173.259277 C252.869518,173.259277 240.420482,243.844578 190.306386,246.437108 C190.306386,246.437108 159.024819,252.771687 149.522952,214.38512 C149.522952,214.38512 147.077169,207.157831 146.930422,203.073373 L146.27006,198.475301 C146.168702,194.392061 146.713499,190.318468 147.884277,186.405361 L147.96988,186.283072 Z"
         id="path79"
         fill="#00AB55"
         fill-rule="nonzero"
         style="fill:#3eb5ff;fill-opacity:1" />
      <path
         d="m 147.96988,186.28307 c 0.76092,-2.93413 3.20132,-5.12973 6.19927,-5.57743 2.99794,-0.44769 5.97332,0.93916 7.55826,3.52297 5.83659,9.44859 10.75079,19.43669 14.6747,29.82633 8.74367,23.30831 51.61825,7.93657 67.44247,-46.40874 l 9.02494,5.61308 c 0,0 -12.44903,70.5853 -62.56313,73.17783 0,0 -31.28157,6.33458 -40.78344,-32.05199 0,0 -2.44578,-7.22729 -2.59253,-11.31175 l -0.66036,-4.59807 c -0.10136,-4.08324 0.44344,-8.15683 1.61422,-12.06994 z"
         id="path81"
         fill="#ffffff"
         fill-rule="nonzero"
         opacity="0.39"
         sodipodi:nodetypes="cscccccccccc" />
      <path
         d="M246.131386,169.015843 C246.131386,169.015843 247.048554,157.386145 251.842289,157.410564 C256.636024,157.43506 267.898855,166.044217 250.509337,171.730663 L246.131386,169.015843 Z"
         id="path83"
         fill="#F4A28C"
         fill-rule="nonzero" />
      <path
         d="M371.135361,80.2216867 C371.135361,75.6560885 367.434213,71.9549398 362.868614,71.9549398 C362.422015,71.9546289 361.976163,71.9914424 361.535663,72.065 C359.601958,68.4584033 355.8448,66.2041086 351.75253,66.1951205 L351.348976,66.1951205 C352.67777,60.8534325 350.560728,55.2470329 346.03287,52.1168853 C341.505012,48.9867378 335.512217,48.9867378 330.984359,52.1168853 C326.4565,55.2470329 324.339459,60.8534325 325.668253,66.1951205 L325.264699,66.1951205 C321.194335,66.0602818 317.374107,68.1548389 315.299002,71.6591194 C313.223897,75.1633998 313.223897,79.5201544 315.299002,83.0244349 C317.374107,86.5287153 321.194335,88.6232724 325.264699,88.4884337 L363.944759,88.4884337 L363.944759,88.4150602 C368.055219,87.8699645 371.128474,84.3681269 371.135361,80.2216867 Z"
         id="path85"
         fill="#00AB55"
         fill-rule="nonzero"
         opacity="0.24"
         style="fill:#8be0ff;fill-opacity:1" />
      <path
         d="M49.7716867,162.045361 C49.7716867,160.164242 49.0244148,158.360168 47.6942622,157.030015 C46.3641096,155.699862 44.5600355,154.95259 42.6789157,154.95259 C42.2980648,154.95986 41.918124,154.992544 41.5416265,155.050422 C39.8739244,151.950314 36.636112,150.018905 33.1159036,150.024337 L32.773494,150.024337 C33.9261056,145.439136 32.1152796,140.619733 28.2284678,137.928027 C24.341656,135.236322 19.1932838,135.236322 15.306472,137.928027 C11.4196601,140.619733 9.60883411,145.439136 10.7614458,150.024337 L10.4190361,150.024337 C6.92315202,149.899265 3.63794067,151.69295 1.85289237,154.701347 C0.0678440778,157.709744 0.0678440778,161.452726 1.85289237,164.461123 C3.63794067,167.46952 6.92315202,169.263205 10.4190361,169.138133 L43.5960843,169.138133 L43.5960843,169.076988 C47.1255492,168.611306 49.7655107,165.60541 49.7716867,162.045361 Z"
         id="path87"
         fill="#00AB55"
         fill-rule="nonzero"
         opacity="0.24"
         style="fill:#8be0ff;fill-opacity:1" />
    </g>
  </g>
</svg>
