<?xml version="1.0" encoding="UTF-8" standalone="no"?>
<svg
   xmlns:dc="http://purl.org/dc/elements/1.1/"
   xmlns:cc="http://creativecommons.org/ns#"
   xmlns:rdf="http://www.w3.org/1999/02/22-rdf-syntax-ns#"
   xmlns:svg="http://www.w3.org/2000/svg"
   xmlns="http://www.w3.org/2000/svg"
   xmlns:xlink="http://www.w3.org/1999/xlink"
   xmlns:sodipodi="http://sodipodi.sourceforge.net/DTD/sodipodi-0.dtd"
   xmlns:inkscape="http://www.inkscape.org/namespaces/inkscape"
   width="355px"
   height="260px"
   viewBox="0 0 355 260"
   version="1.1"
   id="svg128"
   sodipodi:docname="illustration_motivation.svg"
   inkscape:version="1.0.2 (e86c870879, 2021-01-15, custom)">
  <metadata
     id="metadata132">
    <rdf:RDF>
      <cc:Work
         rdf:about="">
        <dc:format>image/svg+xml</dc:format>
        <dc:type
           rdf:resource="http://purl.org/dc/dcmitype/StillImage" />
      </cc:Work>
    </rdf:RDF>
  </metadata>
  <sodipodi:namedview
     pagecolor="#ffffff"
     bordercolor="#666666"
     borderopacity="1"
     objecttolerance="10"
     gridtolerance="10"
     guidetolerance="10"
     inkscape:pageopacity="0"
     inkscape:pageshadow="2"
     inkscape:window-width="1920"
     inkscape:window-height="1017"
     id="namedview130"
     showgrid="false"
     inkscape:zoom="2.9859155"
     inkscape:cx="177.5"
     inkscape:cy="130"
     inkscape:window-x="-8"
     inkscape:window-y="-8"
     inkscape:window-maximized="1"
     inkscape:current-layer="__🥭Illustrations/-X🩸Setup/-Shape_1" />
  <title
     id="title2">__🥭Illustrations/ illustration_motivation</title>
  <defs
     id="defs73">
    <linearGradient
       inkscape:collect="always"
       id="linearGradient1021">
      <stop
         style="stop-color:#3eb5ff;stop-opacity:1;"
         offset="0"
         id="stop1017" />
      <stop
         style="stop-color:#3eb5ff;stop-opacity:0;"
         offset="1"
         id="stop1019" />
    </linearGradient>
    <linearGradient
       x1="0.19495903"
       y1="0.7080977"
       x2="0.77479035"
       y2="0.18235791"
       id="linearGradient1015"
       gradientUnits="objectBoundingBox"
       spreadMethod="pad">
      <stop
         stop-color="#00AB55"
         offset="0%"
         id="stop1011"
         style="stop-color:#00b14e;stop-opacity:0.05098039" />
      <stop
         stop-color="#00AB55"
         stop-opacity="0"
         offset="100%"
         id="stop1013" />
    </linearGradient>
    <linearGradient
       x1="0.19495903"
       y1="0.7080977"
       x2="0.77479035"
       y2="0.18235791"
       id="linearGradient1009"
       gradientUnits="objectBoundingBox"
       spreadMethod="pad">
      <stop
         stop-color="#00AB55"
         offset="0%"
         id="stop1005"
         style="stop-color:#3eb5ff;stop-opacity:1" />
      <stop
         stop-color="#00AB55"
         stop-opacity="0"
         offset="100%"
         id="stop1007" />
    </linearGradient>
    <linearGradient
       x1="0.19495903"
       y1="0.7080977"
       x2="0.77479035"
       y2="0.18235791"
       id="linearGradient1003"
       gradientUnits="objectBoundingBox"
       spreadMethod="pad">
      <stop
         stop-color="#00AB55"
         offset="0%"
         id="stop999"
         style="stop-color:#3eb5f5;stop-opacity:1" />
      <stop
         stop-color="#00AB55"
         stop-opacity="0"
         offset="100%"
         id="stop1001" />
    </linearGradient>
    <linearGradient
       x1="0.19495903"
       y1="0.7080977"
       x2="0.77479035"
       y2="0.18235791"
       id="linearGradient997"
       gradientUnits="objectBoundingBox"
       spreadMethod="pad">
      <stop
         stop-color="#00AB55"
         offset="0%"
         id="stop993"
         style="stop-color:#3eb5ff;stop-opacity:1" />
      <stop
         stop-color="#00AB55"
         stop-opacity="0"
         offset="100%"
         id="stop995" />
    </linearGradient>
    <linearGradient
       x1="0.19495903"
       y1="0.7080977"
       x2="0.77479035"
       y2="0.18235791"
       id="linearGradient991"
       gradientUnits="objectBoundingBox"
       spreadMethod="pad">
      <stop
         stop-color="#00AB55"
         offset="0%"
         id="stop987"
         style="stop-color:#003255;stop-opacity:1" />
      <stop
         stop-color="#00AB55"
         stop-opacity="0"
         offset="100%"
         id="stop989" />
    </linearGradient>
    <linearGradient
       x1="0.19495903"
       y1="0.7080977"
       x2="0.77479035"
       y2="0.18235791"
       id="linearGradient985"
       gradientUnits="objectBoundingBox"
       spreadMethod="pad">
      <stop
         stop-color="#00AB55"
         offset="0%"
         id="stop981"
         style="stop-color:#01ab55;stop-opacity:1" />
      <stop
         stop-color="#00AB55"
         stop-opacity="0"
         offset="100%"
         id="stop983" />
    </linearGradient>
    <linearGradient
       x1="0.19495903"
       y1="0.7080977"
       x2="0.77479035"
       y2="0.18235791"
       id="linearGradient979"
       gradientUnits="objectBoundingBox"
       spreadMethod="pad">
      <stop
         stop-color="#00AB55"
         offset="0%"
         id="stop975"
         style="stop-color:#01ab55;stop-opacity:1" />
      <stop
         stop-color="#00AB55"
         stop-opacity="0"
         offset="100%"
         id="stop977" />
    </linearGradient>
    <linearGradient
       x1="0.19495903"
       y1="0.7080977"
       x2="0.77479035"
       y2="0.18235791"
       id="linearGradient973"
       gradientUnits="objectBoundingBox"
       spreadMethod="pad">
      <stop
         stop-color="#00AB55"
         offset="0%"
         id="stop969"
         style="stop-color:#01ab55;stop-opacity:1" />
      <stop
         stop-color="#00AB55"
         stop-opacity="0"
         offset="100%"
         id="stop971" />
    </linearGradient>
    <linearGradient
       x1="0.19495903"
       y1="0.7080977"
       x2="0.77479035"
       y2="0.18235791"
       id="linearGradient967"
       gradientUnits="objectBoundingBox"
       spreadMethod="pad">
      <stop
         stop-color="#00AB55"
         offset="0%"
         id="stop963"
         style="stop-color:#3eb5ff;stop-opacity:1" />
      <stop
         stop-color="#00AB55"
         stop-opacity="0"
         offset="100%"
         id="stop965" />
    </linearGradient>
    <linearGradient
       x1="19.4959033%"
       y1="70.8097699%"
       x2="77.4790349%"
       y2="18.2357903%"
       id="linearGradient961">
      <stop
         stop-color="#00AB55"
         offset="0%"
         id="stop957"
         style="stop-color:#3eb5ff;stop-opacity:1" />
      <stop
         stop-color="#00AB55"
         stop-opacity="0"
         offset="100%"
         id="stop959" />
    </linearGradient>
    <linearGradient
       x1="19.4959033%"
       y1="70.8097699%"
       x2="77.4790349%"
       y2="18.2357903%"
       id="linearGradient-1"
       xlink:href="#linearGradient1015">
      <stop
         stop-color="#00AB55"
         offset="0%"
         id="stop4" />
      <stop
         stop-color="#00AB55"
         stop-opacity="0"
         offset="100%"
         id="stop6" />
    </linearGradient>
    <filter
       x="-27.4%"
       y="-40.8%"
       width="154.8%"
       height="181.7%"
       filterUnits="objectBoundingBox"
       id="filter-2">
      <feOffset
         dx="12"
         dy="12"
         in="SourceAlpha"
         result="shadowOffsetOuter1"
         id="feOffset9" />
      <feGaussianBlur
         stdDeviation="12"
         in="shadowOffsetOuter1"
         result="shadowBlurOuter1"
         id="feGaussianBlur11" />
      <feColorMatrix
         values="0 0 0 0 0   0 0 0 0 0.321568627   0 0 0 0 0.28627451  0 0 0 0.32 0"
         type="matrix"
         in="shadowBlurOuter1"
         result="shadowMatrixOuter1"
         id="feColorMatrix13" />
      <feMerge
         id="feMerge19">
        <feMergeNode
           in="shadowMatrixOuter1"
           id="feMergeNode15" />
        <feMergeNode
           in="SourceGraphic"
           id="feMergeNode17" />
      </feMerge>
    </filter>
    <linearGradient
       x1="50%"
       y1="0%"
       x2="50%"
       y2="100%"
       id="linearGradient-3">
      <stop
         stop-color="#C8FACD"
         offset="0%"
         id="stop22"
         style="stop-color:#8be0ff;stop-opacity:1" />
      <stop
         stop-color="#007B55"
         offset="100%"
         id="stop24"
         style="stop-color:#1f6ab7;stop-opacity:1" />
    </linearGradient>
    <linearGradient
       x1="50%"
       y1="-2.48949813e-15%"
       x2="50%"
       y2="100%"
       id="linearGradient-4">
      <stop
         stop-color="#C8FACD"
         offset="0%"
         id="stop27"
         style="stop-color:#8be0ff;stop-opacity:1" />
      <stop
         stop-color="#007B55"
         offset="100%"
         id="stop29"
         style="stop-color:#1f6ab7;stop-opacity:1" />
    </linearGradient>
    <linearGradient
       x1="50%"
       y1="0%"
       x2="50%"
       y2="100%"
       id="linearGradient-5">
      <stop
         stop-color="#C8FACD"
         offset="0%"
         id="stop32"
         style="stop-color:#8be0ff;stop-opacity:1" />
      <stop
         stop-color="#007B55"
         offset="100%"
         id="stop34"
         style="stop-color:#1f6ab7;stop-opacity:1" />
    </linearGradient>
    <linearGradient
       x1="27.9331253%"
       y1="-12.0607272%"
       x2="70.1771943%"
       y2="133.539339%"
       id="linearGradient-6">
      <stop
         stop-color="#000000"
         offset="1%"
         id="stop37" />
      <stop
         stop-color="#000000"
         stop-opacity="0.69"
         offset="8%"
         id="stop39" />
      <stop
         stop-color="#000000"
         stop-opacity="0.32"
         offset="21%"
         id="stop41" />
      <stop
         stop-color="#000000"
         stop-opacity="0"
         offset="100%"
         id="stop43" />
    </linearGradient>
    <linearGradient
       x1="77.6914845%"
       y1="82.4239773%"
       x2="12.1878758%"
       y2="-9.40634961%"
       id="linearGradient-7">
      <stop
         stop-color="#000000"
         offset="1%"
         id="stop46" />
      <stop
         stop-color="#000000"
         stop-opacity="0.69"
         offset="8%"
         id="stop48" />
      <stop
         stop-color="#000000"
         stop-opacity="0.32"
         offset="21%"
         id="stop50" />
      <stop
         stop-color="#000000"
         stop-opacity="0"
         offset="100%"
         id="stop52" />
    </linearGradient>
    <linearGradient
       x1="77.9299899%"
       y1="-32.3121729%"
       x2="11.1600081%"
       y2="175.644972%"
       id="linearGradient-8">
      <stop
         stop-color="#000000"
         offset="1%"
         id="stop55" />
      <stop
         stop-color="#000000"
         stop-opacity="0.69"
         offset="8%"
         id="stop57" />
      <stop
         stop-color="#000000"
         stop-opacity="0.32"
         offset="21%"
         id="stop59" />
      <stop
         stop-color="#000000"
         stop-opacity="0"
         offset="100%"
         id="stop61" />
    </linearGradient>
    <linearGradient
       x1="82.8787478%"
       y1="82.4239773%"
       x2="5.10477973%"
       y2="-9.40634961%"
       id="linearGradient-9">
      <stop
         stop-color="#000000"
         offset="1%"
         id="stop64" />
      <stop
         stop-color="#000000"
         stop-opacity="0.69"
         offset="8%"
         id="stop66" />
      <stop
         stop-color="#000000"
         stop-opacity="0.32"
         offset="21%"
         id="stop68" />
      <stop
         stop-color="#000000"
         stop-opacity="0"
         offset="100%"
         id="stop70" />
    </linearGradient>
    <linearGradient
       inkscape:collect="always"
       xlink:href="#linearGradient1021"
       id="linearGradient1023"
       x1="45.882076"
       y1="208.98112"
       x2="270.60376"
       y2="48.896225"
       gradientUnits="userSpaceOnUse" />
  </defs>
  <g
     id="__🥭Illustrations/-illustration_motivation"
     stroke="none"
     stroke-width="1"
     fill="none"
     fill-rule="evenodd">
    <g
       id="Group"
       fill="url(#linearGradient-1)"
       opacity="0.24">
      <g
         id="__🥭Illustrations/-X🩸Setup/-Shape_1">
        <path
           d="m 0,143.56385 c 0,29.94128 11.053354,57.22515 29.242418,77.84527 20.866898,23.66329 51.126038,38.54086 84.855092,38.59088 14.74091,0.0213 28.83588,-2.80724 41.78277,-7.97079 6.69419,-2.67088 14.18669,-2.36434 20.67023,0.8 7.60521,3.70692 16.12142,5.78533 25.11413,5.78533 3.71476,0 7.35258,-0.35723 10.87146,-1.03525 10.04441,-1.9287 19.1848,-6.49265 26.69129,-12.95678 4.71749,-4.06415 10.75953,-6.10691 16.93448,-6.09978 h 0.10494 c 20.4044,0 39.35756,-6.30652 55.09343,-17.11361 14.06776,-9.64907 25.55563,-22.8918 33.20981,-38.44026 C 351.24326,169.4196 355,154.11352 355,137.91397 355,82.352978 310.79203,37.305216 256.26681,37.305216 c -5.55855,0 -11.00439,0.478414 -16.3173,1.371084 C 225.88174,15.470045 200.68989,0 171.95195,0 159.81891,0 148.31627,2.7572181 138.02001,7.699775 128.22824,12.384907 119.52236,19.042309 112.40064,27.155548 88.218514,27.548418 65.858402,35.598291 47.557406,49.032699 18.749505,70.167675 0,104.63726 0,143.56385 Z"
           id="background"
           style="stroke:none;stroke-opacity:1;fill:url(#linearGradient1023);fill-opacity:1" />
      </g>
    </g>
    <g
       id="#gr"
       filter="url(#filter-2)"
       transform="translate(53,55)">
      <path
         d="m 131.06939,48.779592 h 11.36326 c 2.20914,0 4,1.790861 4,4 v 84.999998 0 H 127.06939 V 52.779592 c 0,-2.209139 1.79086,-4 4,-4 z"
         id="Rectangle"
         fill="url(#linearGradient-3)"
         fill-rule="nonzero"
         opacity="0.5" />
      <path
         d="m 88.142857,0.06938776 h 11.363265 c 2.209138,0 3.999998,1.79086104 3.999998,4.00000004 v 137.0000022 0 H 84.142857 V 4.0693878 c 0,-2.209139 1.790861,-4.00000004 4,-4.00000004 z"
         id="path79"
         fill="url(#linearGradient-4)"
         fill-rule="nonzero"
         opacity="0.51725" />
      <path
         d="m 251.82449,140.33469 c -0.81633,2.36735 -1.74286,4.85715 -2.82857,7.4 -3.87347,0.11021 -7.7551,0.21225 -11.62449,0.32653 -2.55102,0.0694 -5.26123,0.18776 -7.34694,1.63266 -3.96735,2.72245 -0.53061,4.64081 -0.97143,7.34694 -0.51428,3.20408 -3.75918,3.8653 -6.88163,3.87755 -10.76735,0.0449 -21.18368,3.49796 -31.75102,5.57959 -10.56735,2.08163 -22.11021,2.67755 -31.51429,-2.56735 -0.64898,-0.3551 -1.32245,-0.79592 -1.56734,-1.49388 -0.4449,-1.25306 0.70204,-2.46938 1.79591,-3.22449 2.42146,-1.65612 5.13668,-2.83502 8,-3.47346 1.6898,-0.3796 3.47347,-0.58776 4.95102,-1.49796 1.47755,-0.91021 2.52245,-2.83674 1.78368,-4.40409 -24.53334,1.52653 -49.01633,3.67892 -73.44898,6.45715 -31.428573,3.57551 -62.514288,9.79592 -94.065308,12.0449 l -0.2938775,0.0286 c -2.2197699,-2.19164 -4.2399913,-4.57656 -6.0367347,-7.12653 0.13175031,-0.19038 0.27774711,-0.37049 0.43673469,-0.53878 C 2.0163265,159.04082 4.2653061,158.25306 6.4408163,157.57551 18.57551,153.82041 31.195918,151.91837 43.763265,150.02449 106.21224,140.61224 169.41225,133.9102 232.6,138.33469 c 6.42041,0.4449 12.83673,1.09388 19.22449,2 z"
         id="Path"
         fill="#005249"
         fill-rule="nonzero"
         opacity="0.42"
         style="fill:#0b357a;fill-opacity:1" />
      <path
         d="m 166.8,71.012245 h 11.36326 c 2.20914,0 4,1.790861 4,4 v 59.999995 0 H 162.8 V 75.012245 c 0,-2.209139 1.79086,-4 4,-4 z"
         id="path82"
         fill="url(#linearGradient-5)"
         fill-rule="nonzero"
         opacity="0.5" />
      <polygon
         id="polygon84"
         fill="#ffffff"
         fill-rule="nonzero"
         points="87.783674,160.27347 87.783674,158.50612 94.440816,158.50612 94.440816,120.02041 40.897959,109.66939 40.897959,147.13061 48.35102,147.13061 48.35102,148.40408 33.346939,148.40408 33.346939,146.93469 39.591837,146.93469 39.591837,102.71429 96.216326,111.1102 96.216326,157.52653 102.68163,157.52653 102.68163,160.27347 " />
      <polygon
         id="polygon86"
         fill="url(#linearGradient-6)"
         fill-rule="nonzero"
         points="86.897959,160.27347 86.897959,158.50612 93.559184,158.50612 93.559184,120.02041 40.016326,109.66939 40.016326,147.13061 47.469388,147.13061 47.469388,148.40408 32.465306,148.40408 32.465306,146.93469 38.706122,146.93469 38.706122,102.71429 95.334694,111.1102 95.334694,157.52653 101.8,157.52653 101.8,160.27347 " />
      <path
         d="m 72.081633,90.167347 c 0,0 9.95102,14.408163 11.240816,14.481633 1.289796,0.0735 22.710201,0.69388 22.710201,0.69388 l -0.12653,-4.4898 c 0,0 -9.832651,-4.657142 -14.061222,-3.265305 -2.832653,0.926531 -3.330612,0.730612 -3.330612,0.730612 0,0 -3.62449,-10.840816 -4.971429,-13 -1.346939,-2.159183 -11.461224,4.84898 -11.461224,4.84898 z"
         id="path88"
         fill="#212b36"
         fill-rule="nonzero" />
      <path
         d="m 82.040816,82.681633 c 0,0 0.559184,7.881632 -1.506122,10.693877 -2.065306,2.812245 -20.440816,10.31429 -20.440816,10.31429 0,0 -1.995919,7.68979 -3.938776,9.38775 -1.942857,1.69796 -9.685714,8.97959 -9.685714,8.97959 l -3.387755,-3.29796 10.689796,-17.8 c 0,0 0.644897,-2.379588 1.710204,-3.204078 1.065306,-0.82449 14.208163,-15.163265 14.208163,-15.163265 z"
         id="path90"
         fill="#212b36"
         fill-rule="nonzero" />
      <path
         d="m 74.983673,51.657143 3.204082,0.693877 c 1.106123,0.240817 2.318367,0.546939 2.963265,1.47347 0.608164,0.865306 0.538776,2.020408 0.408164,3.069388 -0.167347,1.404081 -0.387755,2.804081 -0.661225,4.191836 -0.363265,1.844898 -0.816326,3.67347 -1.012245,5.542857 -0.461224,4.616327 0.755102,9.216327 1.959184,13.693878 0.408163,1.440816 -1.477551,2.481633 -2.857143,3.04898 -2.633402,1.076194 -5.501088,1.450301 -8.322449,1.085714 -0.256727,-0.0152 -0.505979,-0.09221 -0.72653,-0.22449 -0.295931,-0.270934 -0.485521,-0.638536 -0.534694,-1.036735 -0.571429,-2.404081 -1.016327,-4.848979 -1.759184,-7.212245 -0.353654,-1.189234 -0.818282,-2.342604 -1.387755,-3.444898 -0.559184,-1.048979 -0.759184,-2.265306 -1.22449,-3.37551 -0.37551,-0.902041 -0.840816,-1.763265 -1.171429,-2.685714 -0.361966,-0.906247 -0.470606,-1.893884 -0.314285,-2.857143 0.220408,-1.048979 0.62449,-2.069388 0.938775,-3.093877 0.341266,-1.116693 0.605828,-2.2554 0.791837,-3.408164 0.0867,-0.787658 0.281735,-1.559573 0.579592,-2.293877 0.714286,-1.522449 2.35102,-2.420408 3.987755,-2.812245 1.636735,-0.391837 3.493877,-0.714286 5.138775,-0.355102 z"
         id="path92"
         fill="#ffbbab"
         fill-rule="nonzero" />
      <path
         d="m 54.64898,43.469388 c -1,-0.97551 -2.016327,-1.910204 -2.693878,-3.142857 -0.846277,-1.517499 -1.501593,-3.133853 -1.95102,-4.812245 -0.193767,-0.595876 -0.257785,-1.226316 -0.187755,-1.84898 0.146938,-0.853061 0.734693,-1.591837 0.816326,-2.44898 0.01776,-0.09276 2.92e-4,-0.188812 -0.04898,-0.269387 -0.08293,-0.08272 -0.197393,-0.125835 -0.314286,-0.118368 l -0.991837,-0.07755 c -0.0028,-0.75692 -0.273169,-1.488468 -0.763265,-2.065306 -0.355102,-0.408163 -0.922449,-0.75102 -1.432653,-0.563265 -0.510204,0.187755 -0.742858,0.893878 -1.155102,1.322449 -0.412245,0.428571 -0.975511,0.571429 -1.330613,1 -0.408163,0.506122 -0.408163,1.22449 -0.408163,1.902041 0.08163,1.804081 0.987755,2.971428 1.591837,4.595918 0.643843,1.725423 1.403392,3.405431 2.273469,5.028572 1.737692,3.255328 3.887342,6.273343 6.395919,8.979591 1.354299,1.457988 2.806663,2.82171 4.346938,4.081633 1.685715,1.37551 8.069388,6.853061 9.975511,4.804082 2.583673,-2.77551 -0.05714,-6.122449 -2.44898,-7.510204 -4.241821,-2.45924 -8.162808,-5.434255 -11.673469,-8.857143 z"
         id="path94"
         fill="#ba8b72" />
      <path
         d="m 69.04898,51.632653 c -0.726531,1.738776 -1.406803,3.496599 -2.040817,5.273469 -0.2,0.567347 -0.408163,1.22449 -0.0898,1.746939 0.232988,0.349032 0.588332,0.598063 0.995919,0.697959 1.632653,0.526531 3.493877,-0.163265 4.791836,-1.310204 1.29796,-1.146938 2.163266,-2.693877 3.020409,-4.195918 0.425363,-0.860044 1.006632,-1.633685 1.714285,-2.281633 0.728072,-0.649591 1.748784,-0.858409 2.67347,-0.546939 0.877551,0.371429 1.379592,1.583674 0.816326,2.359184 -0.102041,-0.722449 -1.085714,-1.016326 -1.738775,-0.693877 -0.653062,0.322449 -1.02449,1.016326 -1.326531,1.681632 -0.396377,0.873502 -0.746521,1.767255 -1.048979,2.677551 -0.248285,0.664254 -0.386162,1.364672 -0.408164,2.07347 0.02857,1.722449 1.253062,3.179592 2.518368,4.346938 0.524597,0.412594 0.971096,0.915769 1.318367,1.485715 0.44898,0.877551 0.35102,1.922449 0.302041,2.906122 -0.212245,4.081633 0.579592,8.134694 1.608163,12.081633 0.195918,0.738775 0.37551,1.595918 -0.07755,2.212245 -0.370133,0.413525 -0.874833,0.682506 -1.42449,0.759183 -2.55102,0.583674 -5.232653,0.363266 -7.791836,0.902041 -1.591837,0.338776 -3.126531,0.967347 -4.751021,1.118368 -0.217245,0.0437 -0.44298,0.0044 -0.632653,-0.110204 -0.174378,-0.183081 -0.267148,-0.428995 -0.257143,-0.681633 -0.408163,-4.526531 -0.530612,-9.163265 -2.122449,-13.420408 -0.746939,-1.995919 -1.820408,-3.902041 -2.142857,-6.008164 -0.08772,-0.45568 -0.08772,-0.923911 0,-1.379591 0.135534,-0.44657 0.331937,-0.87234 0.583673,-1.265306 1.296567,-2.331242 2.065681,-4.918641 2.253062,-7.579592"
         id="path96"
         fill="#ffffff"
         fill-rule="nonzero" />
      <path
         d="m 79.338775,71.089796 c 0.06939,0.755102 0.07755,1.632653 -0.497959,2.12653 -0.173011,0.118991 -0.333069,0.255793 -0.477551,0.408164 -0.285714,0.363265 -0.142857,0.881632 -0.138775,1.342857 0,0.897959 -0.534694,1.689796 -0.87347,2.522449 -0.338775,0.832653 -0.37551,1.963265 0.371429,2.44898 0.481633,0.318367 1.163265,0.273469 1.57551,0.673469 0.640817,0.62449 0.310204,2 1.146939,2.318367 0.496818,0.12276 1.007418,-0.143032 1.191837,-0.620408 0.164829,-0.467176 0.208365,-0.968548 0.12653,-1.457143 -0.410884,-5.129251 -0.859864,-10.257143 -1.346939,-15.383673 0.01126,-0.559543 -0.250683,-1.089514 -0.70204,-1.420408 -0.432653,-0.408164 -1.028572,-1.22449 -1.575511,-1.371429 -0.408163,0.922449 0.359184,2.644898 0.534694,3.595918 0.293878,1.591837 0.515647,3.197279 0.665306,4.816327 z"
         id="path98"
         fill="#020202"
         fill-rule="nonzero"
         opacity="0.1" />
      <path
         d="m 61.710204,43.979592 c -0.163265,0.457143 -0.408163,0.922449 -0.318367,1.395918 0.112012,0.327425 0.291375,0.627752 0.52653,0.881633 0.445217,0.634324 0.76905,1.345649 0.955102,2.097959 0.159184,0.567347 0.29796,1.187755 0.742857,1.57551 0.546939,0.485714 1.371429,0.444898 2.093878,0.342857 0.555102,-0.07755 1.102041,-0.17551 1.632653,-0.297959 0.195522,-0.05999 0.402267,-0.07396 0.604082,-0.04082 0.201544,0.06095 0.380507,0.180258 0.514285,0.342857 0.910205,0.97551 1.061225,2.420408 1.632654,3.636735 0.131977,0.428044 0.509079,0.734238 0.955102,0.77551 1.240988,0.24993 2.530584,0.01944 3.608163,-0.644898 0.282466,-0.14386 0.507169,-0.380086 0.636735,-0.669388 0.08265,-0.34114 0.04963,-0.700075 -0.09388,-1.020408 -0.290875,-0.88165 -0.648368,-1.739907 -1.069388,-2.567347 -0.567347,-1.114286 -1.257143,-2.212245 -1.383673,-3.457143 -0.114286,-1.102041 0.232653,-2.208163 0.204081,-3.314286 -0.06531,-2.310204 -1.918367,-4.387755 -4.167346,-4.897959 -1.963266,-0.457142 -3.840817,0.232653 -5.400001,1.408164 -0.55102,0.408163 -1.008163,0.673469 -1.187755,1.37551 -0.261224,1.008163 -0.12653,2.081633 -0.485714,3.077551 z"
         id="path100"
         fill="#ba8b72" />
      <path
         d="m 61.979592,36.689796 c 0.19656,-1.096845 0.863179,-2.05278 1.82449,-2.616327 2.90204,-1.824489 7.865306,-1.632653 10.363265,0.865306 0.816326,0.816327 1.379592,1.946939 2.318367,2.665307 1.22449,0.938775 2.857143,1.040816 4.387755,1.110204 -0.337333,0.499196 -0.763443,0.932223 -1.257143,1.277551 0.31226,0.544534 0.810978,0.957716 1.404082,1.163265 l -1.036735,0.673469 1.22449,1.016327 c -0.489068,0.288682 -1.013046,0.513636 -1.559183,0.669388 0.171398,1.162801 0.427868,2.311462 0.767346,3.436734 -0.50064,-0.383144 -1.096018,-0.622988 -1.722448,-0.693877 -0.281315,0.74137 -0.392894,1.536364 -0.326531,2.326531 L 76.869388,47.82449 c -0.02375,0.729598 -0.254497,1.437398 -0.665306,2.040816 0.530612,-0.779592 -1.82449,-1.885714 -2.281633,-1.938775 -0.555102,-0.06123 -0.934694,0.171428 -1.371429,-0.09388 -0.563265,-0.35102 -0.942857,-1.285714 -1.567347,-1.706122 0.338776,-0.489796 0.791837,-0.893878 1.093878,-1.408164 0.344818,-0.501614 0.367115,-1.157768 0.05714,-1.681632 -0.355102,-0.47347 -1.281633,-0.408164 -1.408163,0.163265 0.0449,-1.530612 -1.106123,-2.828571 -2.314286,-3.763265 -0.375231,-0.371047 -0.923283,-0.507277 -1.428572,-0.355102 -0.685714,0.122449 -1.365986,0.27483 -2.040816,0.457142 -0.502041,0.138776 -1.379592,0.591837 -1.910204,0.408164 C 62.110204,39.6 61.877551,37.514286 61.979592,36.689796 Z"
         id="path102"
         fill="#ff4842"
         fill-rule="nonzero" />
      <path
         d="m 111.03673,99.155102 c 0.36152,-0.131166 0.7543,-0.149667 1.12653,-0.05306 0.32313,0.14867 0.6038,0.376015 0.81633,0.661224 2.13061,2.429934 4.17823,4.927894 6.14286,7.493874 0.34644,0.3942 0.60521,0.85748 0.75918,1.35919 0.25306,1.08571 -0.48163,2.13061 -1.17143,3.00408 -0.40816,0.52653 -1.22449,1.07347 -1.63265,0.55102 -0.26122,-0.32653 -0.0898,-0.81633 -0.19184,-1.22449 -0.12244,-0.49796 -0.6204,-0.78776 -1.07346,-1.02857 l -9.58368,-5.03266 c -1.36326,-0.71428 -1.82041,-3.00408 -0.40816,-3.93061 0.60408,-0.40816 1.63265,-0.40816 2.3102,-0.67347 0.97551,-0.355098 1.91021,-0.840813 2.90612,-1.126528 z"
         id="path104"
         fill="#ba8b72" />
      <path
         d="m 69.844898,49.746939 c 0.183639,-0.03774 0.374615,-0.01333 0.542857,0.06939 0.153243,0.126931 0.254847,0.305464 0.285714,0.50204 0.260482,0.974291 0.4205,1.972697 0.477551,2.979592 0.0296,0.267038 0.0074,0.537277 -0.06531,0.795919 -0.07905,0.262056 -0.289748,0.463456 -0.555102,0.530612 -0.306122,0.05306 -0.6,-0.142857 -0.910204,-0.167347 -0.345404,-0.0056 -0.675055,0.144253 -0.897959,0.408163 -0.216964,0.26125 -0.399414,0.54933 -0.542857,0.857143 -0.376824,0.703342 -0.808071,1.376141 -1.289796,2.012245 0.146744,-1.431601 0.51007,-2.832612 1.077551,-4.155102 0.12101,-0.37111 0.356856,-0.694147 0.673469,-0.922449 0.24898,-0.146939 0.57551,-0.195919 0.730613,-0.436735 0.248979,-0.383673 -0.130613,-0.848979 -0.444898,-1.179592 -0.314286,-0.330612 -0.869388,-0.816326 -0.604082,-1.130612 0.163265,-0.2 1.269388,-0.138775 1.522449,-0.163265 z"
         id="path106"
         fill="url(#linearGradient-7)"
         fill-rule="nonzero" />
      <path
         d="m 90.408163,40.518367 c 0.725435,-0.992424 1.382725,-2.032907 1.967347,-3.114285 1.530612,-2.995919 2.338776,-6.779592 1.587755,-10.09796 -0.114036,-0.369677 -0.162387,-0.756483 -0.142857,-1.142857 0.02394,-0.396825 0.290192,-0.737754 0.669388,-0.857143 0.163106,-0.0116 0.32454,-0.04033 0.481633,-0.08571 0.232653,-0.114286 0.297959,-0.408163 0.461224,-0.612245 0.281591,-0.308559 0.720861,-0.417974 1.114286,-0.277551 0.381663,0.143822 0.72718,0.369523 1.012245,0.661225 0.460042,0.418533 0.897399,0.861341 1.310204,1.32653 0.347367,0.337915 0.601805,0.759635 0.738775,1.22449 0.159184,0.77551 -0.293877,1.530612 -0.730612,2.195918 -0.714286,0.06531 -0.897959,2.089796 -0.97551,2.571429 -0.179592,1.069388 -0.408163,2.134694 -0.665306,3.187755 -0.526293,2.11138 -1.215431,4.178795 -2.061225,6.183674 -1.673143,3.964748 -3.929349,7.657221 -6.693877,10.955102 -1.4,1.665306 -6.644898,8.244898 -8.897959,6.587755 -3.057143,-2.240816 -1.089796,-6.012245 0.983673,-7.832653 3.718387,-3.202484 7.024032,-6.855008 9.840816,-10.87347 z"
         id="path108"
         fill="#ba8b72" />
      <path
         d="m 63.510204,46.053061 c 0.401515,-0.11193 0.810811,-0.193789 1.22449,-0.244898 0.05181,-0.01629 0.107373,-0.01629 0.159184,0 0.04034,0.02686 0.07164,0.06527 0.08979,0.110204 0.310882,0.595845 0.404684,1.281317 0.265307,1.938776 -0.03711,0.259247 -0.144379,0.503419 -0.310204,0.706122 -0.173634,0.202728 -0.451112,0.282924 -0.706123,0.204082 -0.195612,-0.10304 -0.35299,-0.26614 -0.44898,-0.465306 -0.425462,-0.572825 -0.689086,-1.249505 -0.763265,-1.959184 -0.0063,-0.03098 -0.0063,-0.0629 0,-0.09388 0.02393,-0.03879 0.05971,-0.06884 0.102041,-0.08572 0.234122,-0.120888 0.491836,-0.189147 0.755102,-0.2"
         id="path110"
         fill="#ffffff"
         fill-rule="nonzero" />
      <path
         d="m 61.15102,48.053061 -0.2,-0.04898 c 0.07755,-0.05714 0.179592,-0.04082 0.2,0.04898 z"
         id="path112"
         fill="#00ab55"
         fill-rule="nonzero"
         style="fill:#3eb5ff;fill-opacity:1" />
      <path
         d="m 97.355102,35.730612 c 0.136804,1.225148 0.0087,2.465389 -0.37551,3.636735 -2.342857,8.040816 -7.07347,15.591837 -14.089796,20.163265 -0.40412,0.22697 -0.750498,0.544017 -1.012245,0.926531 -0.164313,0.357464 -0.251909,0.74539 -0.257143,1.138775 -0.502041,6.89796 1.151021,13.783674 1.163266,20.702041 0.05619,0.607231 -0.0871,1.21623 -0.408164,1.734694 -0.440816,0.587755 -1.22449,0.738776 -1.963265,0.836735 -0.481633,0.06939 -0.963265,0.138775 -1.44898,0.191836 -3.485842,0.446262 -6.992709,0.709209 -10.506122,0.787756 -0.595918,0 -1.265306,0 -1.706123,-0.408164 C 66.310204,85.032653 66.240816,84.355102 66.191837,83.742857 65.783674,79.061224 64.220408,74.6 63.102041,70.065306 c -0.576326,-2.213395 -0.962762,-4.471925 -1.155102,-6.75102 -0.08572,-1.22449 -0.03265,-2.391837 -0.64898,-3.379592 -0.189689,-0.309712 -0.429719,-0.585608 -0.710204,-0.816327 -1.053061,-0.873469 -2.408163,-1.285714 -3.55102,-2.040816 -1.889796,-1.244898 -3.065306,-3.314286 -4.155102,-5.306122 -1.595919,-2.885715 -3.232653,-5.751021 -4.787755,-8.661225 -1.151021,-2.146939 -0.183674,-3.346939 1.342857,-4.489796 0.546939,-0.408163 1.167347,-0.816326 1.787755,-1.277551 1.102041,2.265306 2.220408,4.551021 3.8,6.530612 1.530612,1.906123 3.559184,3.518368 5.92653,4.130613 -0.07229,0.02155 -0.122001,0.08783 -0.122449,0.163265 0,0.167347 0.163266,0.281633 0.310205,0.37551 1.755102,1.088435 3.511564,2.194558 5.269387,3.318367 0.336604,0.243312 0.724981,0.405368 1.134694,0.47347 0.465306,0.03265 1.910204,-0.763265 1.995918,0.05306 0,0.04898 0,0.102041 0,0.155102 -0.07498,0.278868 -0.130893,0.562517 -0.167346,0.84898 0.05629,0.364437 0.316521,0.664337 0.669387,0.771428 0.352449,0.0857 0.721232,0.07725 1.069388,-0.02449 0.383706,-0.09815 0.750897,-0.252178 1.089796,-0.457143 0.546939,-0.351021 0.971429,-0.865306 1.485714,-1.265307 0.816327,-0.657142 1.742857,-0.555102 2.742857,-0.669387 1.019199,-0.107062 2.019732,-0.348618 2.975511,-0.718368 2.734693,-1.122449 5.069387,-3.12653 6.910204,-5.408163 2.697959,-3.35102 4.510204,-7.310204 6.689796,-11.020408 0.217184,-0.43895 0.534575,-0.820658 0.92653,-1.114286 0.698464,-0.379601 1.55379,-0.319075 2.191837,0.155102 0.683031,0.495408 1.129507,1.252347 1.232653,2.089796 z"
         id="path114"
         fill="#00ab55"
         fill-rule="nonzero"
         style="fill:#3eb5ff;fill-opacity:1" />
      <path
         d="m 108.77551,100.99592 c 0.15918,0.64898 0.70612,1.11428 1.22449,1.55102 1.13469,0.97143 2.24898,2.04082 2.82041,3.42857 0.28571,0.6898 0.42857,1.4449 0.81633,2.08163 0.38775,0.63674 1.12653,1.19184 1.5551,1.8898 0.6449,1.05714 0.62857,2.51428 1.55102,3.34694 1.08571,0.97551 2.97143,0.43673 3.77551,-0.77959 0.80408,-1.21633 0.7551,-2.81633 0.40816,-4.23266 -0.74694,-2.92245 -2.64082,-5.40816 -4.6449,-7.6653 -1.22449,-1.36735 -2.85714,-2.857146 -4.84898,-2.685718 -1.33877,0.118368 -3.02449,1.620408 -2.65714,3.065308 z"
         id="path116"
         fill="#00ab55"
         fill-rule="nonzero"
         style="fill:#3eb5ff;fill-opacity:1" />
      <path
         d="m 61.273469,59.861224 c -0.204965,-0.26217 -0.434587,-0.504092 -0.685714,-0.722448 -1.053061,-0.87347 -2.408163,-1.285715 -3.55102,-2.040817 -1.889796,-1.244898 -3.065306,-3.314286 -4.155102,-5.306122 -1.595919,-2.885715 -3.232653,-5.751021 -4.787755,-8.661225 -1.151021,-2.146938 -0.183674,-3.346939 1.342857,-4.489796 0.399364,0.264175 0.743229,0.60388 1.012245,1 0.583673,0.840817 0.877551,1.844898 1.273469,2.791837 0.970543,2.175103 2.3209,4.159865 3.987755,5.861225 1.710204,1.840816 3.351021,3.763265 5.053061,5.628571 0.100069,0.09683 0.18289,0.210016 0.244898,0.334694 0.06129,0.206856 0.06971,0.425782 0.02449,0.636735 -0.102045,0.877314 -0.102045,1.763501 0,2.640816 0.05306,0.538775 0.62449,1.942857 0.240816,2.32653 z"
         id="path118"
         fill="url(#linearGradient-8)"
         fill-rule="nonzero" />
      <path
         d="m 97.355102,35.730612 c 0.136804,1.225148 0.0087,2.465389 -0.37551,3.636735 -2.342857,8.040816 -7.07347,15.591837 -14.089796,20.163265 -0.40412,0.22697 -0.750498,0.544017 -1.012245,0.926531 -0.164313,0.357464 -0.251909,0.74539 -0.257143,1.138775 -0.502041,6.89796 1.151021,13.783674 1.163266,20.702041 0.05619,0.607231 -0.0871,1.21623 -0.408164,1.734694 -0.440816,0.587755 -1.22449,0.738776 -1.963265,0.836735 -0.481633,0.06939 -0.963265,0.138775 -1.44898,0.191836 h -0.09796 c -0.41845,0.0503 -0.842623,-0.01757 -1.22449,-0.195918 -0.369261,-0.25684 -0.643327,-0.628478 -0.779591,-1.057143 -1.012245,-2.387755 -1.134694,-5.053061 -1.746939,-7.571428 -0.612245,-2.518368 -1.946939,-5.130613 -4.359184,-6.081633 -0.558761,-0.151826 -1.09035,-0.390077 -1.57551,-0.706122 -0.440816,-0.371429 -0.669388,-1.089796 -0.281633,-1.518368 0.190984,-0.175478 0.424577,-0.297903 0.677551,-0.355102 1.412245,-0.444898 2.857143,-0.759183 4.220408,-1.37551 1.363266,-0.616326 2.612245,-1.591837 3.175511,-2.963265 0.52653,-1.257143 0.408163,-2.714286 1.020408,-3.934694 0.697959,-1.42449 2.195918,-2.240816 3.555102,-3.07347 4.885229,-3.011184 8.924683,-7.214969 11.738775,-12.216326 1.261225,-2.240816 1.840817,-5.979592 3.551021,-7.8 0.152846,-0.180754 0.326886,-0.34246 0.518367,-0.481633 z"
         id="path120"
         fill="url(#linearGradient-9)"
         fill-rule="nonzero" />
      <path
         d="m 38.44898,121.23265 c -2.191837,0.29388 -4.420409,0.15511 -6.628572,0.28572 -0.380675,-0.0147 -0.756287,0.091 -1.073469,0.30204 -0.510204,0.40816 -0.408164,1.27347 0,1.77959 0.472774,0.46603 1.059727,0.79962 1.702041,0.96735 l 3.265306,1.15918 c 1.767347,0.62857 3.587755,1.26531 5.461224,1.22449 1.028572,-0.0245 2.2,-0.37551 2.595919,-1.32245 0.130612,-0.3102 0.163265,-0.65714 0.273469,-0.97959 0.330612,-0.95918 1.318367,-1.5551 1.734694,-2.48163 0.6,-1.31837 -0.408163,-3.46123 -1.97551,-3.04082 -0.816327,0.21633 -1.608164,1.0449 -2.42449,1.37143 -0.943061,0.3641 -1.927319,0.61085 -2.930612,0.73469 z"
         id="path122"
         fill="#ba8b72" />
      <path
         d="m 33.979592,121.35918 c 0.52653,0.0245 1.110204,0.0735 1.461224,0.46531 0.502041,0.55102 0.269388,1.48571 0.702041,2.09388 0.208272,0.2526 0.474259,0.45139 0.77551,0.57959 2.045811,1.0056 4.383546,1.24733 6.591837,0.68163 0.359184,-0.0939 0.893878,-0.098 0.934694,0.26939 0.0044,0.10299 -0.02116,0.20505 -0.07347,0.29388 -0.527541,0.96479 -1.494361,1.60985 -2.587756,1.72653 -1.078036,0.10684 -2.166562,10e-4 -3.204081,-0.31021 -2.801699,-0.75272 -5.552805,-1.68248 -8.236735,-2.78367 -0.509942,-0.14508 -0.970227,-0.42747 -1.330612,-0.81633 -0.294459,-0.34988 -0.377215,-0.83142 -0.216462,-1.25953 0.160754,-0.42811 0.540001,-0.73617 0.991972,-0.80577 1.38744,-0.20606 2.79403,-0.25126 4.191838,-0.1347 z"
         id="path124"
         fill="#00ab55"
         fill-rule="nonzero"
         style="fill:#3eb5ff;fill-opacity:1" />
    </g>
  </g>
</svg>
