<?xml version="1.0" encoding="UTF-8" standalone="no"?>
<svg
   xmlns:dc="http://purl.org/dc/elements/1.1/"
   xmlns:cc="http://creativecommons.org/ns#"
   xmlns:rdf="http://www.w3.org/1999/02/22-rdf-syntax-ns#"
   xmlns:svg="http://www.w3.org/2000/svg"
   xmlns="http://www.w3.org/2000/svg"
   xmlns:xlink="http://www.w3.org/1999/xlink"
   xmlns:sodipodi="http://sodipodi.sourceforge.net/DTD/sodipodi-0.dtd"
   xmlns:inkscape="http://www.inkscape.org/namespaces/inkscape"
   width="355px"
   height="260px"
   viewBox="0 0 355 260"
   version="1.1"
   id="svg213"
   sodipodi:docname="illustration_coming_soon.svg"
   inkscape:version="1.0.2 (e86c870879, 2021-01-15, custom)">
  <metadata
     id="metadata217">
    <rdf:RDF>
      <cc:Work
         rdf:about="">
        <dc:format>image/svg+xml</dc:format>
        <dc:type
           rdf:resource="http://purl.org/dc/dcmitype/StillImage" />
      </cc:Work>
    </rdf:RDF>
  </metadata>
  <sodipodi:namedview
     pagecolor="#ffffff"
     bordercolor="#666666"
     borderopacity="1"
     objecttolerance="10"
     gridtolerance="10"
     guidetolerance="10"
     inkscape:pageopacity="0"
     inkscape:pageshadow="2"
     inkscape:window-width="1920"
     inkscape:window-height="1017"
     id="namedview215"
     showgrid="false"
     inkscape:zoom="2.9859155"
     inkscape:cx="177.5"
     inkscape:cy="130"
     inkscape:window-x="-8"
     inkscape:window-y="-8"
     inkscape:window-maximized="1"
     inkscape:current-layer="g103" />
  <title
     id="title2">__🥭Illustrations/ illustration_coming_soon</title>
  <defs
     id="defs93">
    <linearGradient
       x1="0.3218011"
       y1="0.34451783"
       x2="0.65880311"
       y2="0.76444316"
       id="linearGradient1266"
       gradientUnits="objectBoundingBox"
       spreadMethod="pad">
      <stop
         stop-color="#007B55"
         offset="0%"
         id="stop1262" />
      <stop
         stop-color="#00AB55"
         offset="100%"
         id="stop1264"
         style="stop-color:#00faf5;stop-opacity:1" />
    </linearGradient>
    <linearGradient
       x1="0.3218011"
       y1="0.34451783"
       x2="0.65880311"
       y2="0.76444316"
       id="linearGradient1260"
       gradientUnits="objectBoundingBox"
       spreadMethod="pad">
      <stop
         stop-color="#007B55"
         offset="0%"
         id="stop1256" />
      <stop
         stop-color="#00AB55"
         offset="100%"
         id="stop1258"
         style="stop-color:#0000ff;stop-opacity:1" />
    </linearGradient>
    <linearGradient
       x1="0.3218011"
       y1="0.34451783"
       x2="0.65880311"
       y2="0.76444316"
       id="linearGradient1254"
       gradientUnits="objectBoundingBox"
       spreadMethod="pad">
      <stop
         stop-color="#007B55"
         offset="0%"
         id="stop1250" />
      <stop
         stop-color="#00AB55"
         offset="100%"
         id="stop1252"
         style="stop-color:#00ab56;stop-opacity:1" />
    </linearGradient>
    <linearGradient
       x1="0.3218011"
       y1="0.34451783"
       x2="0.65880311"
       y2="0.76444316"
       id="linearGradient1248"
       gradientUnits="objectBoundingBox"
       spreadMethod="pad">
      <stop
         stop-color="#007B55"
         offset="0%"
         id="stop1244" />
      <stop
         stop-color="#00AB55"
         offset="100%"
         id="stop1246"
         style="stop-color:#00ab56;stop-opacity:1" />
    </linearGradient>
    <linearGradient
       x1="0.3218011"
       y1="0.34451783"
       x2="0.65880311"
       y2="0.76444316"
       id="linearGradient1242"
       gradientUnits="objectBoundingBox"
       spreadMethod="pad">
      <stop
         stop-color="#007B55"
         offset="0%"
         id="stop1238" />
      <stop
         stop-color="#00AB55"
         offset="100%"
         id="stop1240"
         style="stop-color:#00ab56;stop-opacity:1" />
    </linearGradient>
    <linearGradient
       x1="0.3218011"
       y1="0.34451783"
       x2="0.65880311"
       y2="0.76444316"
       id="linearGradient1236"
       gradientUnits="objectBoundingBox"
       spreadMethod="pad">
      <stop
         stop-color="#007B55"
         offset="0%"
         id="stop1232" />
      <stop
         stop-color="#00AB55"
         offset="100%"
         id="stop1234"
         style="stop-color:#00ab56;stop-opacity:1" />
    </linearGradient>
    <linearGradient
       x1="0.3218011"
       y1="0.34451783"
       x2="0.65880311"
       y2="0.76444316"
       id="linearGradient1230"
       gradientUnits="objectBoundingBox"
       spreadMethod="pad">
      <stop
         stop-color="#007B55"
         offset="0%"
         id="stop1226" />
      <stop
         stop-color="#00AB55"
         offset="100%"
         id="stop1228"
         style="stop-color:#00ab56;stop-opacity:1" />
    </linearGradient>
    <linearGradient
       x1="0.3218011"
       y1="0.34451783"
       x2="0.65880311"
       y2="0.76444316"
       id="linearGradient1224"
       gradientUnits="objectBoundingBox"
       spreadMethod="pad">
      <stop
         stop-color="#007B55"
         offset="0%"
         id="stop1220" />
      <stop
         stop-color="#00AB55"
         offset="100%"
         id="stop1222"
         style="stop-color:#00ab56;stop-opacity:1" />
    </linearGradient>
    <linearGradient
       x1="0.3218011"
       y1="0.34451783"
       x2="0.65880311"
       y2="0.76444316"
       id="linearGradient1218"
       gradientUnits="objectBoundingBox"
       spreadMethod="pad">
      <stop
         stop-color="#007B55"
         offset="0%"
         id="stop1214" />
      <stop
         stop-color="#00AB55"
         offset="100%"
         id="stop1216"
         style="stop-color:#00ab56;stop-opacity:1" />
    </linearGradient>
    <linearGradient
       x1="0.3218011"
       y1="0.34451783"
       x2="0.65880311"
       y2="0.76444316"
       id="linearGradient1212"
       gradientUnits="objectBoundingBox"
       spreadMethod="pad">
      <stop
         stop-color="#007B55"
         offset="0%"
         id="stop1208" />
      <stop
         stop-color="#00AB55"
         offset="100%"
         id="stop1210"
         style="stop-color:#00ab56;stop-opacity:1" />
    </linearGradient>
    <linearGradient
       x1="0.3218011"
       y1="0.34451783"
       x2="0.65880311"
       y2="0.76444316"
       id="linearGradient1206"
       gradientUnits="objectBoundingBox"
       spreadMethod="pad">
      <stop
         stop-color="#007B55"
         offset="0%"
         id="stop1202" />
      <stop
         stop-color="#00AB55"
         offset="100%"
         id="stop1204"
         style="stop-color:#00ab56;stop-opacity:1" />
    </linearGradient>
    <linearGradient
       x1="0.3218011"
       y1="0.34451783"
       x2="0.65880311"
       y2="0.76444316"
       id="linearGradient1200"
       gradientUnits="objectBoundingBox"
       spreadMethod="pad">
      <stop
         stop-color="#007B55"
         offset="0%"
         id="stop1196" />
      <stop
         stop-color="#00AB55"
         offset="100%"
         id="stop1198"
         style="stop-color:#00ab56;stop-opacity:1" />
    </linearGradient>
    <linearGradient
       x1="0.3218011"
       y1="0.34451783"
       x2="0.65880311"
       y2="0.76444316"
       id="linearGradient1194"
       gradientUnits="objectBoundingBox"
       spreadMethod="pad">
      <stop
         stop-color="#007B55"
         offset="0%"
         id="stop1190" />
      <stop
         stop-color="#00AB55"
         offset="100%"
         id="stop1192"
         style="stop-color:#00ab56;stop-opacity:1" />
    </linearGradient>
    <linearGradient
       x1="0.3218011"
       y1="0.34451783"
       x2="0.65880311"
       y2="0.76444316"
       id="linearGradient1188"
       gradientUnits="objectBoundingBox"
       spreadMethod="pad">
      <stop
         stop-color="#007B55"
         offset="0%"
         id="stop1184" />
      <stop
         stop-color="#00AB55"
         offset="100%"
         id="stop1186"
         style="stop-color:#00ab56;stop-opacity:1" />
    </linearGradient>
    <linearGradient
       x1="0.3218011"
       y1="0.34451783"
       x2="0.65880311"
       y2="0.76444316"
       id="linearGradient1182"
       gradientUnits="objectBoundingBox"
       spreadMethod="pad">
      <stop
         stop-color="#007B55"
         offset="0%"
         id="stop1178" />
      <stop
         stop-color="#00AB55"
         offset="100%"
         id="stop1180"
         style="stop-color:#00ab56;stop-opacity:1" />
    </linearGradient>
    <linearGradient
       x1="0.3218011"
       y1="0.34451783"
       x2="0.65880311"
       y2="0.76444316"
       id="linearGradient1176"
       gradientUnits="objectBoundingBox"
       spreadMethod="pad">
      <stop
         stop-color="#007B55"
         offset="0%"
         id="stop1172" />
      <stop
         stop-color="#00AB55"
         offset="100%"
         id="stop1174"
         style="stop-color:#00ab56;stop-opacity:1" />
    </linearGradient>
    <linearGradient
       x1="0.3218011"
       y1="0.34451783"
       x2="0.65880311"
       y2="0.76444316"
       id="linearGradient1170"
       gradientUnits="objectBoundingBox"
       spreadMethod="pad">
      <stop
         stop-color="#007B55"
         offset="0%"
         id="stop1166" />
      <stop
         stop-color="#00AB55"
         offset="100%"
         id="stop1168"
         style="stop-color:#00ab56;stop-opacity:1" />
    </linearGradient>
    <linearGradient
       x1="0.3218011"
       y1="0.34451783"
       x2="0.65880311"
       y2="0.76444316"
       id="linearGradient1164"
       gradientUnits="objectBoundingBox"
       spreadMethod="pad">
      <stop
         stop-color="#007B55"
         offset="0%"
         id="stop1160" />
      <stop
         stop-color="#00AB55"
         offset="100%"
         id="stop1162"
         style="stop-color:#00ab56;stop-opacity:1" />
    </linearGradient>
    <linearGradient
       x1="0.3218011"
       y1="0.34451783"
       x2="0.65880311"
       y2="0.76444316"
       id="linearGradient1158"
       gradientUnits="objectBoundingBox"
       spreadMethod="pad">
      <stop
         stop-color="#007B55"
         offset="0%"
         id="stop1154" />
      <stop
         stop-color="#00AB55"
         offset="100%"
         id="stop1156"
         style="stop-color:#00ab56;stop-opacity:1" />
    </linearGradient>
    <linearGradient
       x1="0.3218011"
       y1="0.34451783"
       x2="0.65880311"
       y2="0.76444316"
       id="linearGradient1152"
       gradientUnits="objectBoundingBox"
       spreadMethod="pad">
      <stop
         stop-color="#007B55"
         offset="0%"
         id="stop1148" />
      <stop
         stop-color="#00AB55"
         offset="100%"
         id="stop1150"
         style="stop-color:#00ab56;stop-opacity:1" />
    </linearGradient>
    <linearGradient
       x1="0.3218011"
       y1="0.34451783"
       x2="0.65880311"
       y2="0.76444316"
       id="linearGradient1146"
       gradientUnits="objectBoundingBox"
       spreadMethod="pad">
      <stop
         stop-color="#007B55"
         offset="0%"
         id="stop1142" />
      <stop
         stop-color="#00AB55"
         offset="100%"
         id="stop1144"
         style="stop-color:#00ab54;stop-opacity:1" />
    </linearGradient>
    <linearGradient
       x1="0.3218011"
       y1="0.34451783"
       x2="0.65880311"
       y2="0.76444316"
       id="linearGradient1140"
       gradientUnits="objectBoundingBox"
       spreadMethod="pad">
      <stop
         stop-color="#007B55"
         offset="0%"
         id="stop1136" />
      <stop
         stop-color="#00AB55"
         offset="100%"
         id="stop1138"
         style="stop-color:#00ab54;stop-opacity:1" />
    </linearGradient>
    <linearGradient
       x1="0.3218011"
       y1="0.34451783"
       x2="0.65880311"
       y2="0.76444316"
       id="linearGradient1134"
       gradientUnits="objectBoundingBox"
       spreadMethod="pad">
      <stop
         stop-color="#007B55"
         offset="0%"
         id="stop1130" />
      <stop
         stop-color="#00AB55"
         offset="100%"
         id="stop1132"
         style="stop-color:#00ab54;stop-opacity:1" />
    </linearGradient>
    <linearGradient
       x1="0.3218011"
       y1="0.34451783"
       x2="0.65880311"
       y2="0.76444316"
       id="linearGradient1128"
       gradientUnits="objectBoundingBox"
       spreadMethod="pad">
      <stop
         stop-color="#007B55"
         offset="0%"
         id="stop1124" />
      <stop
         stop-color="#00AB55"
         offset="100%"
         id="stop1126"
         style="stop-color:#00ab54;stop-opacity:1" />
    </linearGradient>
    <linearGradient
       x1="0.3218011"
       y1="0.34451783"
       x2="0.65880311"
       y2="0.76444316"
       id="linearGradient1122"
       gradientUnits="objectBoundingBox"
       spreadMethod="pad">
      <stop
         stop-color="#007B55"
         offset="0%"
         id="stop1118" />
      <stop
         stop-color="#00AB55"
         offset="100%"
         id="stop1120"
         style="stop-color:#00ab54;stop-opacity:1" />
    </linearGradient>
    <linearGradient
       x1="0.3218011"
       y1="0.34451783"
       x2="0.65880311"
       y2="0.76444316"
       id="linearGradient1116"
       gradientUnits="objectBoundingBox"
       spreadMethod="pad">
      <stop
         stop-color="#007B55"
         offset="0%"
         id="stop1112" />
      <stop
         stop-color="#00AB55"
         offset="100%"
         id="stop1114"
         style="stop-color:#00ab00;stop-opacity:1" />
    </linearGradient>
    <linearGradient
       x1="0.3218011"
       y1="0.34451783"
       x2="0.65880311"
       y2="0.76444316"
       id="linearGradient1110"
       gradientUnits="objectBoundingBox"
       spreadMethod="pad">
      <stop
         stop-color="#007B55"
         offset="0%"
         id="stop1106" />
      <stop
         stop-color="#00AB55"
         offset="100%"
         id="stop1108"
         style="stop-color:#00ab54;stop-opacity:1" />
    </linearGradient>
    <linearGradient
       x1="0.3218011"
       y1="0.34451783"
       x2="0.65880311"
       y2="0.76444316"
       id="linearGradient1104"
       gradientUnits="objectBoundingBox"
       spreadMethod="pad">
      <stop
         stop-color="#007B55"
         offset="0%"
         id="stop1100" />
      <stop
         stop-color="#00AB55"
         offset="100%"
         id="stop1102"
         style="stop-color:#00ab54;stop-opacity:1" />
    </linearGradient>
    <linearGradient
       x1="0.3218011"
       y1="0.34451783"
       x2="0.65880311"
       y2="0.76444316"
       id="linearGradient1098"
       gradientUnits="objectBoundingBox"
       spreadMethod="pad">
      <stop
         stop-color="#007B55"
         offset="0%"
         id="stop1094" />
      <stop
         stop-color="#00AB55"
         offset="100%"
         id="stop1096"
         style="stop-color:#3eb5ff;stop-opacity:1" />
    </linearGradient>
    <linearGradient
       x1="32.1801117%"
       y1="34.4517814%"
       x2="65.8803112%"
       y2="76.4443131%"
       id="linearGradient1092">
      <stop
         stop-color="#007B55"
         offset="0%"
         id="stop1088" />
      <stop
         stop-color="#00AB55"
         offset="100%"
         id="stop1090"
         style="stop-color:#3eb5ff;stop-opacity:1" />
    </linearGradient>
    <linearGradient
       x1="0.19495903"
       y1="0.7080977"
       x2="0.77479035"
       y2="0.18235791"
       id="linearGradient1086"
       gradientUnits="objectBoundingBox"
       spreadMethod="pad">
      <stop
         stop-color="#00AB55"
         offset="0%"
         id="stop1082"
         style="stop-color:#3eb5ff;stop-opacity:1" />
      <stop
         stop-color="#00AB55"
         stop-opacity="0"
         offset="100%"
         id="stop1084" />
    </linearGradient>
    <linearGradient
       x1="0.19495903"
       y1="0.7080977"
       x2="0.77479035"
       y2="0.18235791"
       id="linearGradient1080"
       gradientUnits="objectBoundingBox"
       spreadMethod="pad">
      <stop
         stop-color="#00AB55"
         offset="0%"
         id="stop1076"
         style="stop-color:#3eb5ff;stop-opacity:1" />
      <stop
         stop-color="#00AB55"
         stop-opacity="0"
         offset="100%"
         id="stop1078" />
    </linearGradient>
    <linearGradient
       x1="0.19495903"
       y1="0.7080977"
       x2="0.77479035"
       y2="0.18235791"
       id="linearGradient1074"
       gradientUnits="objectBoundingBox"
       spreadMethod="pad">
      <stop
         stop-color="#00AB55"
         offset="0%"
         id="stop1070"
         style="stop-color:#3eb5ff;stop-opacity:1" />
      <stop
         stop-color="#00AB55"
         stop-opacity="0"
         offset="100%"
         id="stop1072"
         style="stop-color:#3eb5ff;stop-opacity:0" />
    </linearGradient>
    <linearGradient
       x1="0.19495903"
       y1="0.7080977"
       x2="0.77479035"
       y2="0.18235791"
       id="linearGradient1064"
       gradientUnits="objectBoundingBox"
       spreadMethod="pad">
      <stop
         stop-color="#00AB55"
         offset="0%"
         id="stop1060"
         style="stop-color:#0ab55f;stop-opacity:1" />
      <stop
         stop-color="#00AB55"
         stop-opacity="0"
         offset="100%"
         id="stop1062" />
    </linearGradient>
    <linearGradient
       x1="0.19495903"
       y1="0.7080977"
       x2="0.77479035"
       y2="0.18235791"
       id="linearGradient1058"
       gradientUnits="objectBoundingBox"
       spreadMethod="pad">
      <stop
         stop-color="#00AB55"
         offset="0%"
         id="stop1054"
         style="stop-color:#0ab55f;stop-opacity:1" />
      <stop
         stop-color="#00AB55"
         stop-opacity="0"
         offset="100%"
         id="stop1056" />
    </linearGradient>
    <linearGradient
       x1="0.19495903"
       y1="0.7080977"
       x2="0.77479035"
       y2="0.18235791"
       id="linearGradient1052"
       gradientUnits="objectBoundingBox"
       spreadMethod="pad">
      <stop
         stop-color="#00AB55"
         offset="0%"
         id="stop1048"
         style="stop-color:#3eb5ff;stop-opacity:1" />
      <stop
         stop-color="#00AB55"
         stop-opacity="0"
         offset="100%"
         id="stop1050" />
    </linearGradient>
    <linearGradient
       x1="19.4959033%"
       y1="70.8097699%"
       x2="77.4790349%"
       y2="18.2357903%"
       id="linearGradient1046">
      <stop
         stop-color="#00AB55"
         offset="0%"
         id="stop1042"
         style="stop-color:#3eb5ff;stop-opacity:1" />
      <stop
         stop-color="#00AB55"
         stop-opacity="0"
         offset="100%"
         id="stop1044" />
    </linearGradient>
    <linearGradient
       x1="0.19495903"
       y1="0.7080977"
       x2="0.77479035"
       y2="0.18235791"
       id="linearGradient-1"
       gradientUnits="objectBoundingBox"
       spreadMethod="pad"
       xlink:href="#linearGradient1086">
      <stop
         stop-color="#00AB55"
         offset="0%"
         id="stop4" />
      <stop
         stop-color="#00AB55"
         stop-opacity="0"
         offset="100%"
         id="stop6" />
    </linearGradient>
    <linearGradient
       x1="32.1801117%"
       y1="34.4517814%"
       x2="65.8803112%"
       y2="76.4443131%"
       id="linearGradient-2"
       xlink:href="#linearGradient1266">
      <stop
         stop-color="#007B55"
         offset="0%"
         id="stop9" />
      <stop
         stop-color="#00AB55"
         offset="100%"
         id="stop11" />
    </linearGradient>
    <linearGradient
       x1="109.80201"
       y1="137.62215"
       x2="106.37421"
       y2="165.31078"
       id="linearGradient-3"
       xlink:href="#linearGradient-2"
       gradientTransform="scale(1.1977543,0.83489576)"
       gradientUnits="userSpaceOnUse">
      <stop
         stop-color="#000000"
         offset="0%"
         id="stop14" />
      <stop
         stop-color="#000000"
         stop-opacity="0"
         offset="100%"
         id="stop16" />
    </linearGradient>
    <polygon
       id="path-4"
       points="160.208145 142.941176 112.117647 142.941176 102.823529 102.941176 150.914027 102.941176" />
    <linearGradient
       x1="8.63677192e-05%"
       y1="49.9999321%"
       x2="100.000086%"
       y2="49.9999321%"
       id="linearGradient-5">
      <stop
         stop-color="#007B55"
         offset="0%"
         id="stop20"
         style="stop-color:#1f6ab7;stop-opacity:1" />
      <stop
         stop-color="#00AB55"
         offset="100%"
         id="stop22"
         style="stop-color:#3eb5ff;stop-opacity:1" />
    </linearGradient>
    <filter
       x="-12.7%"
       y="-20.0%"
       width="125.4%"
       height="140.0%"
       filterUnits="objectBoundingBox"
       id="filter-6">
      <feOffset
         dx="4"
         dy="4"
         in="SourceAlpha"
         result="shadowOffsetOuter1"
         id="feOffset25" />
      <feGaussianBlur
         stdDeviation="4"
         in="shadowOffsetOuter1"
         result="shadowBlurOuter1"
         id="feGaussianBlur27" />
      <feColorMatrix
         values="0 0 0 0 0   0 0 0 0 0.321568627   0 0 0 0 0.28627451  0 0 0 0.32 0"
         type="matrix"
         in="shadowBlurOuter1"
         result="shadowMatrixOuter1"
         id="feColorMatrix29" />
      <feMerge
         id="feMerge35">
        <feMergeNode
           in="shadowMatrixOuter1"
           id="feMergeNode31" />
        <feMergeNode
           in="SourceGraphic"
           id="feMergeNode33" />
      </feMerge>
    </filter>
    <filter
       x="-46.1%"
       y="-100.0%"
       width="192.1%"
       height="300.0%"
       filterUnits="objectBoundingBox"
       id="filter-7">
      <feOffset
         dx="6"
         dy="6"
         in="SourceAlpha"
         result="shadowOffsetOuter1"
         id="feOffset38" />
      <feGaussianBlur
         stdDeviation="6"
         in="shadowOffsetOuter1"
         result="shadowBlurOuter1"
         id="feGaussianBlur40" />
      <feColorMatrix
         values="0 0 0 0 0   0 0 0 0 0.321568627   0 0 0 0 0.28627451  0 0 0 0.48 0"
         type="matrix"
         in="shadowBlurOuter1"
         result="shadowMatrixOuter1"
         id="feColorMatrix42" />
      <feMerge
         id="feMerge48">
        <feMergeNode
           in="shadowMatrixOuter1"
           id="feMergeNode44" />
        <feMergeNode
           in="SourceGraphic"
           id="feMergeNode46" />
      </feMerge>
    </filter>
    <linearGradient
       x1="49.6828465%"
       y1="25.5463845%"
       x2="52.0915921%"
       y2="100.936456%"
       id="linearGradient-8">
      <stop
         stop-color="#00AB55"
         offset="0%"
         id="stop51" />
      <stop
         stop-color="#007B55"
         offset="100%"
         id="stop53" />
    </linearGradient>
    <filter
       x="-54.7%"
       y="-77.8%"
       width="209.4%"
       height="255.6%"
       filterUnits="objectBoundingBox"
       id="filter-9">
      <feOffset
         dx="6"
         dy="6"
         in="SourceAlpha"
         result="shadowOffsetOuter1"
         id="feOffset56" />
      <feGaussianBlur
         stdDeviation="6"
         in="shadowOffsetOuter1"
         result="shadowBlurOuter1"
         id="feGaussianBlur58" />
      <feColorMatrix
         values="0 0 0 0 0   0 0 0 0 0.321568627   0 0 0 0 0.28627451  0 0 0 0.48 0"
         type="matrix"
         in="shadowBlurOuter1"
         result="shadowMatrixOuter1"
         id="feColorMatrix60" />
      <feMerge
         id="feMerge66">
        <feMergeNode
           in="shadowMatrixOuter1"
           id="feMergeNode62" />
        <feMergeNode
           in="SourceGraphic"
           id="feMergeNode64" />
      </feMerge>
    </filter>
    <linearGradient
       x1="-10.5801707%"
       y1="-50.1399239%"
       x2="138.135291%"
       y2="202.025463%"
       id="linearGradient-10">
      <stop
         stop-color="#000000"
         offset="1%"
         id="stop69" />
      <stop
         stop-color="#000000"
         stop-opacity="0.69"
         offset="8%"
         id="stop71" />
      <stop
         stop-color="#000000"
         stop-opacity="0.32"
         offset="21%"
         id="stop73" />
      <stop
         stop-color="#000000"
         stop-opacity="0"
         offset="100%"
         id="stop75" />
    </linearGradient>
    <linearGradient
       x1="49.8639585%"
       y1="25.5463845%"
       x2="50.8971784%"
       y2="100.936456%"
       id="linearGradient-11">
      <stop
         stop-color="#00AB55"
         offset="0%"
         id="stop78"
         style="stop-color:#3eb5ff;stop-opacity:1" />
      <stop
         stop-color="#007B55"
         offset="100%"
         id="stop80"
         style="stop-color:#1f6ab7;stop-opacity:1" />
    </linearGradient>
    <linearGradient
       x1="49.7587953%"
       y1="25.5463845%"
       x2="51.5907179%"
       y2="100.936456%"
       id="linearGradient-12">
      <stop
         stop-color="#00AB55"
         offset="0%"
         id="stop83"
         style="stop-color:#3eb5ff;stop-opacity:1" />
      <stop
         stop-color="#007B55"
         offset="100%"
         id="stop85"
         style="stop-color:#1f6ab7;stop-opacity:1" />
    </linearGradient>
    <linearGradient
       x1="49.7537591%"
       y1="25.5463845%"
       x2="51.623931%"
       y2="100.936456%"
       id="linearGradient-13">
      <stop
         stop-color="#00AB55"
         offset="0%"
         id="stop88"
         style="stop-color:#3eb5ff;stop-opacity:1" />
      <stop
         stop-color="#007B55"
         offset="100%"
         id="stop90"
         style="stop-color:#1f6ab7;stop-opacity:1" />
    </linearGradient>
    <linearGradient
       inkscape:collect="always"
       xlink:href="#linearGradient1074"
       id="linearGradient1068"
       gradientUnits="objectBoundingBox"
       x1="0.19495903"
       y1="0.7080977"
       x2="0.77479035"
       y2="0.18235791"
       spreadMethod="pad" />
  </defs>
  <g
     id="__🥭Illustrations/-illustration_coming_soon"
     stroke="none"
     stroke-width="1"
     fill="none"
     fill-rule="evenodd">
    <g
       id="Group"
       fill="url(#linearGradient-1)"
       opacity="0.24">
      <g
         id="__🥭Illustrations/-X🩸Setup/-Shape_1">
        <path
           d="m 0,143.56385 c 0,29.94128 11.053354,57.22515 29.242418,77.84527 20.866898,23.66329 51.126038,38.54086 84.855092,38.59088 14.74091,0.0213 28.83588,-2.80724 41.78277,-7.97079 6.69419,-2.67088 14.18669,-2.36434 20.67023,0.8 7.60521,3.70692 16.12142,5.78533 25.11413,5.78533 3.71476,0 7.35258,-0.35723 10.87146,-1.03525 10.04441,-1.9287 19.1848,-6.49265 26.69129,-12.95678 4.71749,-4.06415 10.75953,-6.10691 16.93448,-6.09978 h 0.10494 c 20.4044,0 39.35756,-6.30652 55.09343,-17.11361 14.06776,-9.64907 25.55563,-22.8918 33.20981,-38.44026 C 351.24326,169.4196 355,154.11352 355,137.91397 355,82.352978 310.79203,37.305216 256.26681,37.305216 c -5.55855,0 -11.00439,0.478414 -16.3173,1.371084 C 225.88174,15.470045 200.68989,0 171.95195,0 159.81891,0 148.31627,2.7572181 138.02001,7.699775 128.22824,12.384907 119.52236,19.042309 112.40064,27.155548 88.218514,27.548418 65.858402,35.598291 47.557406,49.032699 18.749505,70.167675 0,104.63726 0,143.56385 Z"
           id="background"
           style="fill:url(#linearGradient1068);fill-opacity:1;fill-rule:evenodd" />
      </g>
    </g>
    <g
       id="#gr"
       transform="translate(54,30)">
      <polygon
         id="Path"
         fill="#005249"
         fill-rule="nonzero"
         points="102.82353,102.94118 153.93665,102.94118 163.23077,142.52489 112.11765,142.52489 "
         style="fill:#0b357a;fill-opacity:1" />
      <g
         id="g103"
         fill-rule="nonzero">
        <use
           fill="url(#linearGradient-2)"
           xlink:href="#path-4"
           id="use99"
           x="0"
           y="0"
           width="100%"
           height="100%"
           style="fill:#1f6ab7;fill-opacity:1" />
        <use
           fill="url(#linearGradient-3)"
           xlink:href="#path-4"
           id="use101"
           x="0"
           y="0"
           width="100%"
           height="100%"
           style="fill-opacity:1;fill:url(#linearGradient-3)" />
      </g>
      <rect
         id="Rectangle"
         fill="url(#linearGradient-5)"
         fill-rule="nonzero"
         x="48.660633"
         y="141.08597"
         width="182.28055"
         height="48.561085"
         rx="24.280542" />
      <g
         id="Rectangle-4"
         filter="url(#filter-6)"
         transform="translate(36.190045,0.39819)"
         fill="#ffffff"
         fill-rule="nonzero">
        <rect
           id="rect106"
           x="-4.2632564e-14"
           y="-2.1316282e-14"
           width="180.58824"
           height="115.00452"
           rx="15.900453" />
      </g>
      <path
         d="m 216.77828,92.588235 v 6.904978 c -0.01,8.777447 -7.12301,15.890477 -15.90045,15.900457 H 52.081448 c -8.781578,0 -15.900452,-7.11888 -15.900452,-15.900457 v 0 -6.904978 z"
         id="path109"
         fill="#00ab55"
         fill-rule="nonzero"
         opacity="0.16"
         style="fill:#8be0ff;fill-opacity:1" />
      <path
         d="M 95.339366,116.41629 H 124.2172 c 0.49923,0 0.97801,0.19832 1.33102,0.55133 0.35301,0.35301 0.55133,0.83179 0.55133,1.33102 v 0 c 0,0.49923 -0.19832,0.97802 -0.55133,1.33103 -0.35301,0.35301 -0.83179,0.55132 -1.33102,0.55132 H 95.339366 c -0.49923,0 -0.978014,-0.19831 -1.331024,-0.55132 -0.35301,-0.35301 -0.551328,-0.8318 -0.551328,-1.33103 v 0 c 0,-1.03959 0.842758,-1.88235 1.882352,-1.88235 z"
         id="path111"
         fill="#005249"
         fill-rule="nonzero"
         style="fill:#0b357a;fill-opacity:1" />
      <polygon
         id="polygon113"
         fill="#fcbdba"
         fill-rule="nonzero"
         points="101.52941,112.28959 104.1267,106.28959 100.00905,106.34389 99.149321,112.0181 " />
      <path
         d="m 102.24434,111.45701 c -0.11553,-0.0928 -0.21624,-0.20264 -0.29864,-0.32579 -0.24611,0.15381 -0.54785,0.19028 -0.82353,0.0996 l -1.194568,-0.1991 c -0.20987,-0.0252 -0.414476,-0.0832 -0.606335,-0.17194 h -0.08145 l -0.253394,0.48869 c -0.43336,0.87308 -0.688693,1.82366 -0.751131,2.79638 2.260498,0.53569 4.583918,0.75798 6.904978,0.66063 0.37818,0.052 0.75507,-0.1036 0.98643,-0.40724 0.0902,-0.20467 0.0902,-0.43786 0,-0.64253 -0.22122,-0.46329 -0.61889,-0.81859 -1.10408,-0.98643 -0.61538,-0.25339 -1.23982,-0.47059 -1.80995,-0.76018 -0.3463,-0.13927 -0.67206,-0.32499 -0.96833,-0.55204 z"
         id="path115"
         fill="#7a4f01"
         fill-rule="nonzero" />
      <polygon
         id="polygon117"
         fill="#fcbdba"
         fill-rule="nonzero"
         points="117.61991,113.9819 120.0905,107.93665 115.97285,108.0724 115.23077,113.76471 " />
      <path
         d="m 197.12217,28.769231 v 17.565611 c 0,4.808126 -3.89775,8.705882 -8.70588,8.705882 H 137.43891 L 116.77828,78.80543 V 20.063348 h 71.63801 c 2.30894,0 4.52332,0.917225 6.15599,2.549894 1.63267,1.63267 2.54989,3.847045 2.54989,6.155989 z"
         id="path119"
         fill="#005249"
         fill-rule="nonzero"
         opacity="0.1"
         style="fill:#0b357a;fill-opacity:1" />
      <g
         id="Rectangle-2"
         filter="url(#filter-7)"
         transform="translate(119.9638,12.588235)"
         fill="#00ab55"
         fill-rule="nonzero"
         style="fill:#3eb5ff;fill-opacity:1">
        <rect
           id="rect121"
           x="-2.8421709e-14"
           y="9.9475983e-14"
           width="75.058823"
           height="34.977375"
           rx="8.7058821"
           style="fill:#3eb5ff;fill-opacity:1" />
      </g>
      <path
         d="m 130.08145,43.230769 c -0.29256,0.02608 -0.58714,-0.01733 -0.85973,-0.126697 -0.44079,-0.30701 -0.74311,-0.775109 -0.84163,-1.303167 -1.42081,-4.38914 -4.36199,-8.660634 -8.77828,-9.954751 -1.14932,4.678733 -1.06787,9.565611 -0.97738,14.38914 0,1.285068 0.1448,2.760181 1.17648,3.520362 0.67259,0.414967 1.45493,0.616863 2.24434,0.579186 5.00796,0.190214 9.98441,-0.87039 14.47964,-3.085973 1.34841,-0.669684 4.12669,-3.285068 1.53846,-4.135747 -0.77828,-0.262443 -2.49774,0.135747 -3.33032,0.135747 z"
         id="path124"
         fill="#020202"
         fill-rule="nonzero"
         opacity="0.1" />
      <polygon
         id="polygon126"
         fill="#212b36"
         fill-rule="nonzero"
         points="99.800905,66.850679 103.34842,86.570136 99.800905,107.7828 105.54751,108.22624 113.91855,84.334842 111.08597,65.402715 " />
      <polygon
         id="polygon128"
         fill="#212b36"
         fill-rule="nonzero"
         points="119.63801,65.402715 126.0181,91.656109 120.85973,109.72851 115.74661,109.46606 116.46154,94.045249 107.45701,69.113122 " />
      <path
         d="m 137.20362,43.628959 c 0.76748,-0.448258 1.58844,-0.797925 2.44344,-1.040724 0.27234,-0.12172 0.58718,-0.101408 0.84163,0.0543 0.13281,0.124347 0.21904,0.29042 0.24434,0.470588 0.13249,0.579514 0.0851,1.185649 -0.13575,1.737557 0.96392,0.534168 1.97591,0.976536 3.02263,1.321267 0.44149,0.07535 0.83169,0.331107 1.07692,0.705882 0.13269,0.396322 0.0109,0.833503 -0.30769,1.104073 -0.31644,0.262385 -0.69792,0.434362 -1.10407,0.497737 -2.62444,0.615385 -6.89593,0 -7.52036,-3.140272 -0.13575,-0.687782 0.11764,-0.805429 0.66063,-1.19457 0.28959,-0.190045 0.55204,-0.352941 0.77828,-0.515837 z"
         id="path130"
         fill="#fcbdba"
         fill-rule="nonzero" />
      <path
         d="m 117.48416,19.402715 c 0.59647,1.197464 0.97929,2.489868 1.13123,3.819004 0.14249,1.350175 -0.43912,2.675136 -1.52942,3.484163 -0.32665,0.150895 -0.63114,0.345763 -0.90498,0.579186 -0.95927,0.986425 0.13575,2.769231 -0.41628,4.045249 -0.4411,0.870496 -1.47207,1.262497 -2.3801,0.904977 -0.88767,-0.38826 -1.55272,-1.156392 -1.80995,-2.090498 -0.24407,-0.926728 -0.35379,-1.883707 -0.32579,-2.841629 l -0.0995,-5.701357 c -0.12698,-1.268916 0.0724,-2.549231 0.57919,-3.719457 0.70365,-1.215004 2.02757,-1.934602 3.42986,-1.864253 1.43892,0.180995 1.84616,2.262443 2.32579,3.384615 z"
         id="path132"
         fill="#fcbdba"
         fill-rule="nonzero" />
      <path
         d="m 137.37557,47.873303 c 0,0 -10.93213,9.764706 -11.71946,9.764706 -0.78733,0 -5.64706,-6.135747 -5.64706,-6.135747 l -0.37104,13.936652 c -1.34967,0.796262 -2.7562,1.491962 -4.20815,2.081448 -2.49951,1.141125 -5.22604,1.698189 -7.97285,1.628959 -5.31221,-0.479638 -7.656105,-2.262443 -7.656105,-2.262443 l 3.276015,-32.733032 c 0,0 6.19005,-4.452489 8.30769,-3.773755 1.51433,0.27143 3.06486,0.27143 4.57919,0 3.05882,-0.40724 6.181,3.773755 6.181,3.773755 l 4.06335,13.348416 9.52941,-3.384615 c 1.27013,0.792684 1.92121,2.285492 1.63801,3.755656 z"
         id="path134"
         fill="url(#linearGradient-8)"
         fill-rule="nonzero" />
      <path
         d="m 118.68778,13.257919 c 0.0703,-0.718875 -0.0983,-1.440885 -0.47963,-2.054299 -0.73304,-1.022624 -2.2353,-1.113122 -3.46607,-0.841629 -0.84624,0.232067 -1.66534,0.553641 -2.44344,0.959276 -0.57225,0.235772 -1.19644,0.316917 -1.80995,0.235294 -1.62464,-0.02884 -3.19971,0.559789 -4.40724,1.647059 -1.66516,1.57466 -2.0543,3.900452 -2.22625,6.081448 -0.18099,2.470588 0.90498,4.524887 2.54299,6.40724 1.38461,1.638009 3.9095,3.248868 5.71041,1.17647 0.8031,-1.053423 1.16935,-2.375819 1.02262,-3.692307 -0.88445,-0.09043 -1.61268,-0.734913 -1.80995,-1.60181 -0.1266,-0.541742 0.0624,-1.10863 0.48869,-1.466064 0.25918,-0.156135 0.5698,-0.202853 0.86344,-0.129866 0.29365,0.07299 0.54624,0.259694 0.70217,0.519007 0.0519,0.0812 0.0916,0.169639 0.11764,0.262443 0.26097,-0.525017 0.45262,-1.081712 0.57014,-1.656109 0.20814,-0.552036 0.90498,-1.031674 1.35746,-0.660633 0.26245,0.208145 0.41629,0.669683 0.75114,0.597285 0.11117,-0.04172 0.20838,-0.113841 0.28054,-0.208145 0.65887,-0.633706 1.2146,-1.366539 1.64706,-2.171946 0.40502,-0.950286 0.61727,-1.971551 0.62443,-3.004524 -0.0344,-0.129754 -0.0466,-0.264369 -0.0362,-0.39819 z"
         id="path136"
         fill="#7a0c2e"
         fill-rule="nonzero" />
      <path
         d="m 97.20362,12.045249 c -2.356666,-0.279672 -4.639561,0.932101 -5.728507,3.040724 -1.257918,2.579185 -0.352941,5.628959 -0.144796,8.497737 0.389302,2.050916 -0.692585,4.098237 -2.606335,4.932127 -2.027149,1.22172 -4.361991,2.045249 -5.981901,3.773756 -1.275553,1.420815 -2.028868,3.233879 -2.135746,5.140271 -0.101183,0.794675 0.03748,1.601455 0.39819,2.316742 0.353913,0.529056 0.816721,0.976437 1.357466,1.312218 3.029552,2.190024 6.813508,3.06751 10.497738,2.434389 3.713126,-0.704211 6.68546,-3.489673 7.628961,-7.149322 0.79638,-3.819004 -1.140274,-7.610859 -1.873305,-11.447963 -0.270929,-0.908196 -0.163222,-1.887344 0.298642,-2.714932 0.606335,-0.81448 1.728503,-1.004525 2.606333,-1.520363 4.75113,-2.79638 -0.83258,-8.144796 -4.31674,-8.615384 z"
         id="path138"
         fill="#7a0c2e"
         fill-rule="nonzero" />
      <rect
         id="rect140"
         fill="#00ab55"
         fill-rule="nonzero"
         x="102.0905"
         y="15.737556"
         width="3.6832578"
         height="3.6832578"
         rx="1.800905" />
      <path
         d="m 118.30769,113.14027 c -0.11343,-0.095 -0.21384,-0.20454 -0.29864,-0.32579 -0.24233,0.16179 -0.54378,0.20816 -0.82353,0.1267 l -1.19457,-0.181 c -0.21211,-0.0233 -0.41955,-0.0782 -0.61538,-0.16289 h -0.0814 l -0.24435,0.49773 c -0.40843,0.88509 -0.64197,1.84077 -0.68778,2.81448 2.27106,0.4818 4.59626,0.65832 6.91403,0.52489 0.38096,0.0465 0.7566,-0.12045 0.97737,-0.43439 0.0902,-0.20467 0.0902,-0.43786 0,-0.64253 -0.22697,-0.45989 -0.63257,-0.80661 -1.12217,-0.95928 -0.62443,-0.24434 -1.25792,-0.44344 -1.86425,-0.73303 -0.34247,-0.12981 -0.6653,-0.30645 -0.95928,-0.52489 z"
         id="path142"
         fill="#7a4f01"
         fill-rule="nonzero" />
      <path
         d="m 118.81448,120.18099 h -3.66516 l -2.92308,7.90951 H 97.122172 l 2.923078,-7.90951 h -3.66516 l -25.710407,69.46607 h 3.665159 l 2.542986,-6.86878 h 15.076923 l -2.542986,6.86878 h 3.665158 l 2.542987,-6.86878 h 0.108597 v -0.28959 l 22.868783,-61.77376 v 68.93213 h 3.66515 v -69.46607 z m -7.58371,10.60634 -3.80996,10.29864 H 92.307692 l 3.809955,-10.29864 z m -23.737557,23.33937 3.809954,-10.2896 h 15.131223 l -3.82805,10.2896 z m 14.117647,2.71493 -3.809955,10.28959 H 82.687783 l 3.837104,-10.34389 z M 77.873303,180.13575 81.683258,169.8371 H 96.79638 l -3.809955,10.29865 z"
         id="Shape"
         fill="#005249"
         fill-rule="nonzero"
         style="fill:#0b357a;fill-opacity:1" />
      <g
         id="Rectangle-3"
         filter="url(#filter-9)"
         transform="translate(152.82353,73.547511)"
         fill="#007b55"
         fill-rule="nonzero"
         style="fill:#1f6ab7;fill-opacity:1">
        <rect
           id="rect145"
           x="2.9842795e-13"
           y="-6.3948846e-14"
           width="63.194569"
           height="44.751133"
           rx="4.045249"
           style="fill:#1f6ab7;fill-opacity:1" />
      </g>
      <path
         d="m 204.03107,89.559233 c -0.003,-2.89e-4 -0.007,-5.88e-4 -0.0101,-8.97e-4 l 0.16006,0.0073 c -0.0806,0 -0.15985,-0.0055 -0.2375,-0.0161 -0.0256,-0.0035 -0.0508,-0.0075 -0.0759,-0.0121 -0.0251,-0.0046 -0.0502,-0.0097 -0.0751,-0.01542 -0.0307,-0.007 -0.0613,-0.01488 -0.0915,-0.02355 -0.0183,-0.0053 -0.036,-0.01065 -0.0536,-0.01631 -0.0319,-0.01026 -0.064,-0.02167 -0.0956,-0.03397 -0.0187,-0.0073 -0.037,-0.01474 -0.055,-0.02249 -0.0351,-0.01504 -0.0696,-0.03121 -0.1034,-0.04845 -0.01,-0.005 -0.0204,-0.0105 -0.0308,-0.01609 -0.09,-0.04822 -0.17454,-0.103554 -0.25356,-0.165584 -0.0226,-0.01775 -0.0446,-0.03592 -0.0661,-0.05461 -0.0179,-0.01552 -0.0358,-0.03168 -0.0533,-0.0482 -0.0171,-0.01612 -0.0336,-0.03232 -0.0498,-0.04883 -0.0204,-0.02076 -0.0403,-0.04221 -0.0598,-0.06415 -0.006,-0.0072 -0.0127,-0.01449 -0.019,-0.02178 l -11.21366,6.472512 0.01,0.03418 c 0.006,0.02279 0.0121,0.04577 0.0175,0.06893 l -0.0273,-0.103106 c 0.0178,0.05977 0.0325,0.120892 0.0439,0.183171 0.006,0.03189 0.0107,0.06372 0.0147,0.09582 0.002,0.01865 0.004,0.03745 0.006,0.05632 0.005,0.05311 0.007,0.107155 0.007,0.161785 0,0.959626 -0.77793,1.737556 -1.73756,1.737556 v 0 c -0.90912,0 -1.65516,-0.698198 -1.73118,-1.587633 l -0.001,-0.01897 -12.41333,-1.910967 -0.01,0.02395 c -0.0111,0.02611 -0.0228,0.0519 -0.0351,0.07734 l 0.045,-0.101285 c -0.021,0.05157 -0.0444,0.101899 -0.07,0.150858 -0.0166,0.0316 -0.0339,0.06234 -0.0521,0.09248 -0.005,0.008 -0.01,0.01623 -0.0151,0.02446 -0.0167,0.02657 -0.0338,0.0523 -0.0516,0.07753 -0.0137,0.01941 -0.0276,0.03835 -0.0419,0.05701 -0.011,0.01431 -0.0224,0.02876 -0.0341,0.04302 -0.0179,0.02182 -0.036,0.04296 -0.0547,0.06364 -0.0149,0.01655 -0.0301,0.03273 -0.0456,0.04861 -0.0188,0.01936 -0.0384,0.03853 -0.0584,0.05723 -0.007,0.0065 -0.0136,0.01263 -0.0203,0.0187 -0.029,0.02635 -0.0596,0.05221 -0.091,0.07701 -0.01,0.0079 -0.0198,0.01546 -0.0298,0.02296 -0.0246,0.0186 -0.0501,0.03676 -0.076,0.05424 -0.0219,0.01472 -0.0437,0.02872 -0.0658,0.04224 -0.0192,0.01174 -0.0388,0.02318 -0.0587,0.03425 -0.0266,0.01481 -0.0537,0.02904 -0.0813,0.04256 -0.0145,0.0071 -0.0287,0.01381 -0.043,0.02034 -0.0681,0.03111 -0.13909,0.05811 -0.21213,0.08044 -0.0631,0.01928 -0.12764,0.03506 -0.1935,0.04712 -0.10194,0.0187 -0.20737,0.0285 -0.3151,0.0285 v 0 l -0.14992,-0.0064 c -0.002,-1.73e-4 -0.004,-3.5e-4 -0.006,-5.31e-4 l 0.15601,0.0069 c -0.066,0 -0.13124,-0.0037 -0.19537,-0.01086 -0.0384,-0.0043 -0.0765,-0.0099 -0.11404,-0.01661 -0.0155,-0.0028 -0.0313,-0.0058 -0.047,-0.0091 -0.0361,-0.0075 -0.0716,-0.01613 -0.10668,-0.02581 -0.0108,-0.003 -0.0216,-0.0061 -0.0323,-0.0092 -0.035,-0.0104 -0.0694,-0.02181 -0.1033,-0.03425 -0.018,-0.0066 -0.0365,-0.01373 -0.0548,-0.02117 -0.0311,-0.01262 -0.0613,-0.02595 -0.0911,-0.04011 -0.0111,-0.0052 -0.0221,-0.01065 -0.0331,-0.01617 -0.0326,-0.01634 -0.0646,-0.03366 -0.0959,-0.05193 -0.0141,-0.0082 -0.0281,-0.01665 -0.042,-0.02528 -0.024,-0.01493 -0.0477,-0.03043 -0.0709,-0.04649 -0.0227,-0.0157 -0.0451,-0.03196 -0.0671,-0.04875 -0.0137,-0.01048 -0.0275,-0.0213 -0.041,-0.03231 -0.0248,-0.02015 -0.0488,-0.04078 -0.0723,-0.06203 -0.0146,-0.01322 -0.0294,-0.02716 -0.0441,-0.04137 -0.0179,-0.01739 -0.0354,-0.0352 -0.0526,-0.05338 -0.0167,-0.0177 -0.0329,-0.03558 -0.0487,-0.0538 -0.0165,-0.01904 -0.0325,-0.03829 -0.0481,-0.05788 -0.0125,-0.01564 -0.0249,-0.03184 -0.037,-0.04826 -0.0136,-0.0184 -0.0267,-0.03676 -0.0393,-0.05537 l -9.51374,5.841978 3.3e-4,11.00871 h 43.07692 v 0.79638 H 162.48869 V 79.737557 h 0.78733 l -3.3e-4,19.64 9.22611,-5.669787 c -0.003,-0.02143 -0.005,-0.04297 -0.007,-0.06463 l -0.006,-0.149923 c 0,-0.959626 0.77793,-1.737557 1.73755,-1.737557 0.95963,0 1.73756,0.777931 1.73756,1.737557 l -0.006,-0.133656 12.41409,1.913667 0.01,-0.02395 c 0.0139,-0.03266 0.0287,-0.0648 0.0445,-0.0964 l -0.0544,0.120343 c 0.0217,-0.05336 0.046,-0.105393 0.0727,-0.155952 0.013,-0.02456 0.0264,-0.04864 0.0405,-0.07235 0.0121,-0.02045 0.0246,-0.04073 0.0376,-0.06074 0.0122,-0.01887 0.025,-0.03771 0.038,-0.05629 0.0131,-0.01867 0.027,-0.03757 0.0413,-0.05617 0.0143,-0.01863 0.0285,-0.03645 0.0431,-0.05399 0.0158,-0.019 0.0323,-0.03798 0.0491,-0.05658 0.0138,-0.01528 0.028,-0.03037 0.0425,-0.0452 0.0188,-0.01933 0.038,-0.03814 0.0576,-0.05651 0.0157,-0.01474 0.0322,-0.0296 0.0489,-0.04415 0.0186,-0.01614 0.0371,-0.03153 0.0559,-0.04653 0.0188,-0.01503 0.0384,-0.02997 0.0582,-0.04449 0.0203,-0.01485 0.0405,-0.02897 0.061,-0.04265 0.0186,-0.01243 0.0377,-0.02467 0.0571,-0.03654 0.0208,-0.01273 0.0416,-0.02489 0.0626,-0.03662 0.0143,-0.0079 0.0288,-0.01577 0.0434,-0.02339 0.11125,-0.05784 0.22942,-0.103975 0.35299,-0.136827 0.14909,-0.0388 0.29608,-0.0582 0.4476,-0.0582 0.10564,0 0.20907,0.0094 0.30951,0.02749 0.0269,0.0048 0.0541,0.01039 0.081,0.01658 0.0216,0.005 0.0425,0.01019 0.0633,0.0158 0.0246,0.0066 0.0494,0.01392 0.074,0.02174 0.0278,0.0088 0.055,0.0183 0.082,0.0284 0.0159,0.0059 0.0316,0.01211 0.0472,0.0185 0.0312,0.01275 0.0622,0.02648 0.0926,0.04107 0.0158,0.0076 0.0312,0.01523 0.0464,0.02309 0.0284,0.01467 0.0568,0.03033 0.0846,0.04674 0.0162,0.0096 0.0319,0.01912 0.0473,0.02891 0.0296,0.01869 0.059,0.03861 0.0878,0.05939 0.01,0.0072 0.0196,0.01429 0.0291,0.02144 0.0663,0.04994 0.12911,0.104758 0.18773,0.163758 0.0116,0.01165 0.023,0.02342 0.0342,0.03535 l 11.24662,-6.487318 -0.0101,-0.04249 c -0.0273,-0.122436 -0.0418,-0.249748 -0.0418,-0.38043 l 0.006,0.144392 c -0.004,-0.04761 -0.006,-0.09577 -0.006,-0.144392 0,-0.959626 0.77793,-1.737556 1.73755,-1.737556 l 0.14993,0.0064 c 0.88943,0.07601 1.58763,0.822059 1.58763,1.731178 0,0.959626 -0.77793,1.737557 -1.73756,1.737557 v 0 z"
         id="Combined-Shape"
         fill="#005249"
         fill-rule="nonzero"
         style="fill:#0b357a;fill-opacity:1" />
      <path
         d="m 210.31674,129.52036 c 0,0 -12.57013,23.75566 -14.92308,31.22172 -2.35294,7.46606 -2.13574,29.46606 -2.13574,29.46606 h 6.84163 c 0,0 0,-22.19909 2.90497,-25.93665 2.90498,-3.73755 19.09503,-22.81448 19.09503,-22.81448 z"
         id="path149"
         fill="#212b36"
         fill-rule="nonzero" />
      <path
         d="m 208.92308,132.40724 c 0,0 7.61991,30.76923 11.56561,37.65611 3.9457,6.88688 14.73303,19.29412 14.73303,19.29412 l 5.80995,-3.11313 c 0,0 -14.94117,-19.60181 -14.10859,-25.33936 0.83258,-5.73756 2.95022,-27.69231 2.95022,-27.69231 0,0 -10.52488,-5.71041 -20.95022,-0.80543 z"
         id="path151"
         fill="#212b36"
         fill-rule="nonzero" />
      <path
         d="m 234.76018,88.190045 c 0,0 6.0724,3.104073 3.80996,10.570136 -2.26245,7.466059 -9.42082,24.280539 -8.64254,29.257919 0.77828,4.97737 -0.0543,5.14027 -0.0543,5.14027 0,0 -15.97285,5.75566 -20.95022,-0.77828 0,0 9.50226,-33.619909 11.52036,-37.819004 2.0181,-4.199095 7.7828,-8.850679 14.31674,-6.371041 z"
         id="path153"
         fill="#ffc107"
         fill-rule="nonzero" />
      <path
         d="m 231.61086,104.78733 c -0.59008,1.83731 -1.41759,3.58969 -2.46154,5.21267 -0.52654,0.97093 -1.15775,1.88133 -1.88235,2.71493 -2.0543,2.20815 -5.13122,3.04978 -7.88236,4.26245 -0.49235,0.19317 -0.94831,0.46858 -1.34841,0.81447 -0.40941,0.46474 -0.73409,0.99771 -0.95928,1.57467 -1.49321,3.26696 -3.50226,6.57918 -6.77828,8.05429 1.34842,-5.14932 2.71493,-10.29864 4.2534,-15.38461 0.36237,-1.90862 1.54321,-3.56245 3.23076,-4.52489 3.43892,-2.52489 6.85068,-5.09502 10.3258,-7.574658 1.18552,-0.850679 2.42534,-1.809955 3.42986,-0.271494 0.87783,1.348422 0.47964,3.710412 0.0724,5.122172 z"
         id="path155"
         fill="url(#linearGradient-10)"
         fill-rule="nonzero" />
      <path
         d="m 223.46606,75.067873 c -0.34389,0.352942 -0.78733,0.714932 -0.78733,1.20362 0.0582,0.367647 0.21097,0.713834 0.44344,1.004525 1.04978,1.809955 0.0905,4.343892 1.35747,5.981901 0.47216,0.560425 1.10329,0.964351 1.80995,1.158371 0.71842,0.09712 1.41394,0.320791 2.0543,0.660633 0.48539,0.478047 0.76193,1.128721 0.76923,1.809955 0.0724,0.814479 -0.0724,1.628959 0,2.443439 -0.037,0.554937 0.2165,1.08935 0.66968,1.411764 0.22494,0.09888 0.46942,0.145304 0.71494,0.135747 1.41076,0.06381 2.82401,-0.04561 4.20814,-0.325792 0.19906,-0.02595 0.38866,-0.100542 0.55204,-0.217194 0.16046,-0.18726 0.26407,-0.416466 0.29864,-0.660634 0.59729,-2.714932 1.21267,-5.429864 1.80996,-8.144796 0.35078,-0.976162 0.79001,-1.918236 1.31221,-2.81448 0.47628,-1.354615 0.63723,-2.80004 0.47059,-4.226244 -0.1543,-1.067821 -0.51714,-2.09486 -1.06787,-3.022625 -0.45155,-0.875417 -1.11017,-1.627236 -1.91855,-2.190045 -0.59616,-0.35125 -1.23904,-0.616324 -1.90951,-0.78733 -2.31674,-0.714932 -5.93665,-1.674208 -7.9457,0.316742 -1.64706,1.665158 -1.10407,4.533936 -2.84163,6.262443 z"
         id="path157"
         fill="#fcbdba"
         fill-rule="nonzero" />
      <path
         d="m 223.22172,78.108597 c 0.49774,-0.307692 2.1086,0.334842 2.71493,0.325792 1.9095,-0.0543 3.46606,0.904977 4.99548,-0.271493 1.24886,-0.904977 1.7466,-2.524887 2.18099,-4.00905 0.009,-0.0812 0.009,-0.163147 0,-0.244344 -0.0177,-0.103946 -0.0578,-0.20278 -0.11765,-0.289592 -0.70588,-1.031675 -2.14479,-1.140272 -3.35746,-1.438915 -2.16292,-0.625153 -4.10694,-1.844868 -5.61086,-3.520361 -0.39865,-0.342979 -0.66709,-0.812736 -0.76018,-1.330317 0.0457,-0.606645 0.38316,-1.153315 0.90498,-1.466064 1.54679,-0.977458 3.41764,-1.302823 5.20362,-0.904977 1.76033,0.406646 3.4974,0.908132 5.20362,1.502263 1.64705,0.461538 3.34841,0.742081 4.98642,1.266968 0.34968,0.100404 0.68222,0.252947 0.98643,0.452488 0.4001,0.316747 0.71179,0.731293 0.90497,1.20362 0.58824,1.205048 0.58824,2.613957 0,3.819005 -0.11818,0.17435 -0.20685,0.366973 -0.26244,0.570136 -0.009,0.205355 0.0183,0.410716 0.0814,0.606334 0.40724,1.809955 -0.48869,3.61991 -1.35747,5.185521 l -2.26244,4.217194 c -0.2295,0.508938 -0.56957,0.96031 -0.99548,1.321267 -0.44292,0.360235 -1.07124,0.382411 -1.53846,0.0543 -0.47059,-0.40724 -0.49774,-1.221719 -1.04977,-1.493213 -0.37861,-0.1241 -0.79272,-0.07441 -1.13122,0.135747 -0.99548,0.479638 -1.80996,1.239819 -2.78733,1.809955 -1.68976,0.941475 -3.68062,1.185056 -5.54752,0.678733 -0.54859,-0.135613 -1.06117,-0.388815 -1.50226,-0.742082 -0.96832,-0.832579 -0.90498,-1.945701 -0.70588,-3.076923 0.19909,-1.131222 -0.1991,-3.728507 0.82353,-4.361991 z"
         id="path159"
         fill="#005249"
         fill-rule="nonzero"
         style="fill:#0b357a;fill-opacity:1" />
      <path
         d="m 233.34842,99.909502 c 0,0 -6.53394,16.805428 -32.47059,20.018098 l -0.90498,-3.61991 c 0,0 17.32127,-6.85068 21.05882,-13.8009 1.07399,-1.95315 2.00259,-3.982778 2.77828,-6.072401 1.17647,-3.257918 4.95023,-5.013574 7.97285,-3.321267 1.79186,1.004525 2.90498,2.995475 1.56562,6.79638 z"
         id="path161"
         fill="#ffc107"
         fill-rule="nonzero" />
      <path
         d="m 195.58371,115.55656 c 0.0294,0.45898 0.22204,0.8923 0.54299,1.22172 -1.66234,0.62024 -3.42036,0.94489 -5.19457,0.95928 -0.32323,-0.0376 -0.64826,0.0534 -0.90498,0.25339 -0.34389,0.37104 -0.0724,0.97738 0.24434,1.36652 1.34793,1.5206 3.21147,2.48784 5.23077,2.71493 1.31552,0.25557 2.67906,0.0342 3.84616,-0.62444 0.80566,-0.60433 1.48512,-1.36066 2,-2.22624 0.10462,-0.13235 0.18435,-0.2826 0.23529,-0.44344 0.0389,-0.31797 -0.0382,-0.63931 -0.21719,-0.90498 -0.20815,-0.38914 -0.49774,-1.15837 -0.90498,-1.34841 -0.40724,-0.19005 -0.96833,0 -1.38462,-0.0724 -1.19457,-0.2715 -2.26244,-1.03168 -3.49321,-0.89593 z"
         id="path163"
         fill="#fcbdba"
         fill-rule="nonzero" />
      <path
         d="m 245.84615,189.8009 c 0.26535,0.19039 0.4227,0.49696 0.4227,0.82353 0,0.32658 -0.15735,0.63315 -0.4227,0.82353 -2.80876,3.02593 -6.17296,5.48379 -9.9095,7.23982 -1.03167,0.47964 -2.45249,0.82353 -3.15837,-0.0724 -0.70588,-0.89592 0.0453,-2.25339 0.64253,-3.28506 0.80664,-1.38476 1.30083,-2.9291 1.44797,-4.52489 9.3e-4,-0.54647 0.10852,-1.08751 0.31674,-1.59276 0.73303,-1.34842 4.33484,-2.71506 5.82805,-2.71506 1.9819,-0.018 3.61991,1.92773 4.83258,3.30329 z"
         id="path165"
         fill="#7a0c2e"
         fill-rule="nonzero" />
      <path
         d="m 202.36199,195.07692 c 0.1444,0.29446 0.13451,0.64114 -0.0264,0.92688 -0.16096,0.28575 -0.45233,0.47388 -0.77899,0.50299 -3.93851,1.23092 -8.07723,1.6918 -12.19004,1.35746 -1.14028,-0.0995 -2.54299,-0.50678 -2.71494,-1.63801 -0.17194,-1.13122 1.15837,-1.93665 2.19005,-2.52488 1.37814,-0.80458 2.56899,-1.89363 3.49321,-3.19457 0.2679,-0.47652 0.63148,-0.89248 1.06787,-1.22172 1.30317,-0.81448 5.12218,-0.24435 6.42534,0.50678 1.71946,0.98643 2.17195,3.48417 2.53394,5.28507 z"
         id="path167"
         fill="#7a0c2e"
         fill-rule="nonzero" />
      <path
         d="m 32.38914,186.86878 c -0.03869,1.15419 0.174388,2.30297 0.624435,3.36651 0.567642,0.99104 1.422877,1.78631 2.452488,2.28055 2.205895,1.14933 4.770475,1.40223 7.158371,0.70588 0.324047,-0.0651 0.615269,-0.24109 0.82353,-0.49774 0.12339,-0.21673 0.174134,-0.46727 0.144796,-0.71493 -0.181179,-1.31705 -0.849611,-2.51829 -1.873303,-3.36652 -1.020181,-0.83068 -1.89225,-1.82821 -2.579186,-2.95022 -1.095022,-2.22625 -0.280542,-8.1448 -4.452488,-7.16742 -3.484163,0.78733 -2.39819,5.88235 -2.298643,8.34389 z"
         id="path169"
         fill="#fbb9ad"
         fill-rule="nonzero" />
      <path
         d="m 31.809955,190.85973 c 0,0 -0.597285,1.46606 0.135746,2.31674 0.733032,0.85068 8.235295,5.51131 13.285068,1.75566 5.049774,-3.75566 -6.859728,-4.2353 -6.859728,-4.2353 z"
         id="path171"
         fill="#b78103"
         fill-rule="nonzero" />
      <path
         d="m 32.099547,187.47511 c 0.472271,-0.23829 1.047953,-0.0915 1.348417,0.34389 1.00131,1.1409 2.520165,1.68482 4.018099,1.43892 1.647059,-0.38914 2.298643,-2.28959 3.113122,-2.29866 0.81448,-0.009 5.176471,3.71042 5.429865,5.30318 0.253393,1.59276 -1.981901,2.76923 -4.443439,2.92308 -2.461539,0.15385 -8.054299,-1.55656 -9.113122,-2.85068 -0.906431,-1.46435 -1.038277,-3.27977 -0.352942,-4.85973 z"
         id="path173"
         fill="#7a4f01"
         fill-rule="nonzero" />
      <path
         d="m 18.081448,189.14027 c -0.04835,1.1549 0.165115,2.30578 0.624434,3.36652 0.56772,0.98875 1.423192,1.78109 2.452489,2.27149 2.202536,1.1497 4.764476,1.40265 7.149321,0.70588 0.327888,-0.0616 0.623076,-0.23809 0.832579,-0.49774 0.119219,-0.21498 0.169749,-0.46132 0.144797,-0.70588 -0.182873,-1.31648 -0.850985,-2.51714 -1.873303,-3.36651 -1.013123,-0.83447 -1.884165,-1.82776 -2.579186,-2.94118 -1.095022,-2.21719 -0.280543,-8.1448 -4.452488,-7.16742 -3.484163,0.79638 -2.398191,5.90045 -2.298643,8.33484 z"
         id="path175"
         fill="#fbb9ad"
         fill-rule="nonzero" />
      <path
         d="m 17.502262,193.14932 c 0,0 -0.597285,1.45701 0.135747,2.30769 0.733032,0.85068 8.217195,5.51132 13.266968,1.76471 5.049774,-3.74661 -6.841629,-4.2353 -6.841629,-4.2353 z"
         id="path177"
         fill="#b78103"
         fill-rule="nonzero" />
      <path
         d="m 17.791855,189.75566 c 0.474871,-0.23235 1.048274,-0.0823 1.348416,0.35294 0.9962,1.14839 2.519359,1.69384 4.0181,1.43891 1.638009,-0.39819 2.298643,-2.28959 3.104072,-2.29866 0.80543,-0.009 5.176471,3.70138 5.429865,5.29414 0.253393,1.59276 -1.981901,2.76923 -4.443439,2.92307 -2.461539,0.15385 -8.045249,-1.54751 -9.104073,-2.84163 -0.911078,-1.46615 -1.04304,-3.28655 -0.352941,-4.86877 z"
         id="path179"
         fill="#7a4f01"
         fill-rule="nonzero" />
      <path
         d="m 15.085973,127.54751 c 0,0 -0.769231,42.86878 2.39819,57.16742 l 8.063348,0.99548 2.199095,-58.58824 z"
         id="path181"
         fill="#212b36"
         fill-rule="nonzero" />
      <path
         d="m 37.357466,122.91403 c 0,0 6.41629,23.07692 1.809955,60.20814 l -8.063349,0.99548 -5.076923,-59.19457 z"
         id="path183"
         fill="#212b36"
         fill-rule="nonzero" />
      <path
         d="m 49.420814,104.44344 c -0.0905,1.55656 -0.588235,2.89593 -1.936651,3.34841 -0.115314,0.0386 -0.233268,0.0689 -0.352941,0.0905 -2.470588,0.49774 -5.719457,-1.38461 -7.972851,-3.03167 -0.944663,-0.6794 -1.851024,-1.41053 -2.714932,-2.19005 V 86.072398 L 48.515837,98.39819 c 0.625871,1.95305 0.931483,3.99454 0.904977,6.04525 z"
         id="path185"
         fill="#ffffff"
         fill-rule="nonzero" />
      <path
         d="m 39.248869,104.77828 c 0,0.77828 0.09955,1.55656 0.09955,2.33484 0,4.27149 -0.986425,8.68779 0.280543,12.88688 0.416831,0.89191 0.543436,1.89209 0.361991,2.85973 -0.370923,0.77653 -1.015434,1.38882 -1.809954,1.71946 -3.773756,2.06334 -8.144797,2.71493 -12.380091,3.29411 -3.20362,0.45249 -7.746606,1.40272 -10.705882,-0.32579 -1.257919,-0.73303 -1.683258,-2.09955 -2.090498,-3.46606 -1.13217,-4.41604 -1.799448,-8.93837 -1.99095,-13.49322 0,-0.59728 -0.0905,-1.18551 -0.117647,-1.80995 -0.247361,-4.0905 -0.331825,-8.18703 -0.253394,-12.289592 0.0543,-2.977376 0.289593,-6.190046 2.235294,-8.434389 2.579186,-2.986426 7.574661,-4.968326 11.375566,-5.665159 1.228673,-0.254062 2.48827,-0.324209 3.737556,-0.208145 1.769141,0.280402 3.47713,0.861975 5.049774,1.719457 1.882353,0.904978 3.556561,1.719458 4.524887,3.574661 1.016452,2.152844 1.726219,4.437501 2.108597,6.78733 0.355814,2.202854 0.404543,4.444398 0.144796,6.660637 -0.108597,1.08597 -0.38914,2.16289 -0.497737,3.23982 -0.04246,0.20255 -0.06669,0.4085 -0.0724,0.61538 z"
         id="path187"
         fill="url(#linearGradient-11)"
         fill-rule="nonzero" />
      <path
         d="m 21.791855,129.00452 c -1.239819,0.362 -4.099547,-0.77828 -5.049774,-0.90497 -0.570135,-0.0995 -1.085972,-0.38914 -1.656108,-0.51584 -2.832579,-0.70588 -3.167421,-8.66968 -3.438914,-10.81448 -0.733032,-5.65611 -1.8642536,-11.52036 -1.9457015,-17.194569 -0.1272724,-2.190074 0.1268832,-4.385611 0.7511315,-6.488688 0.643443,-2.126606 2.198496,-3.857391 4.244344,-4.723982 3.619909,-1.303167 4.696832,10.144796 5.19457,12.515839 0.497737,2.37104 0.561086,6.57013 2.126697,8.47059 1.56561,1.90045 4.696832,2.25339 6.742081,1.29411 2.247637,-1.12832 3.614953,-3.4794 3.484163,-5.99095 -0.123612,-0.85145 -0.193133,-1.70988 -0.208145,-2.57013 0.0018,-0.88135 0.513312,-1.6821 1.312217,-2.0543 0.752872,-0.188269 1.547577,0.0638 2.054299,0.65158 0.482195,0.59336 0.828203,1.28538 1.013575,2.02715 0.468193,1.5505 0.77153,3.14605 0.904977,4.76018 0.361991,3.82806 -0.217195,7.75566 0.696832,11.49322 0.408954,1.16204 0.605151,2.38827 0.579186,3.61991 -0.428734,2.10044 -2.272556,3.61176 -4.416289,3.61991 -2.117416,-0.0806 -4.061217,-1.19276 -5.20362,-2.97738 -0.180706,-0.31456 -0.424035,-0.58869 -0.714933,-0.80543 -0.324668,-0.16302 -0.687466,-0.23496 -1.049773,-0.20814 -1.728507,0 -4.208145,0.39819 -4.769231,2.33484 -0.39819,1.38461 0.561086,2.71493 -0.190045,4.14479 -0.110449,0.15795 -0.274433,0.27049 -0.461539,0.31674 z"
         id="path189"
         fill="#020202"
         fill-rule="nonzero"
         opacity="0.1" />
      <path
         d="m 31.58371,76.941176 c -0.300862,0.600296 -0.813507,1.067802 -1.438914,1.312218 C 29.381933,78.42572 28.655729,78.732135 28,79.158371 v 0 c -0.531602,0.576084 -0.870121,1.30374 -0.968326,2.081448 l -0.515837,2.40724 -0.271493,1.21267 c -0.03536,0.219235 -0.10887,0.430577 -0.217195,0.624434 -0.309361,0.345393 -0.758712,0.531791 -1.221719,0.506787 -0.953775,0.03941 -1.898035,-0.202951 -2.714932,-0.696832 -0.142882,-0.06224 -0.260776,-0.170571 -0.334842,-0.307693 -0.07167,-0.168394 -0.0906,-0.354561 -0.0543,-0.533936 L 22,80.986425 c 0.16591,-0.947688 0.0165,-1.923635 -0.425339,-2.77828 -0.997292,-1.813267 -1.73742,-3.756485 -2.199095,-5.773756 -0.326815,-1.133925 -0.139827,-2.354136 0.511546,-3.338162 0.651373,-0.984027 1.701576,-1.632834 2.873069,-1.77496 1.692961,-0.519846 3.50018,-0.538704 5.20362,-0.0543 0.633484,0.217195 0.823529,0.651584 1.122172,1.22172 0.443439,0.904977 0.904977,1.809954 1.239819,2.714932 0.334841,0.904977 0.78733,2.099547 1.122172,3.18552 0.346808,0.807582 0.394927,1.712221 0.135746,2.552037 z"
         id="path191"
         fill="#fbb9ad"
         fill-rule="nonzero" />
      <path
         d="m 57.20362,94.39819 c 0.108597,-0.180995 0.316742,-0.361991 0.488688,-0.253394 0.07012,0.06995 0.120136,0.15747 0.144796,0.253394 0.202118,0.353843 0.578928,0.571633 0.986425,0.570136 0.389141,0 0.79638,-0.06335 1.19457,-0.06335 1.054859,0.03321 2.033092,0.559183 2.642535,1.420815 0.598176,0.859861 0.931639,1.87598 0.959275,2.923077 0.106521,0.941102 -0.15267,1.887142 -0.723981,2.642532 -0.904978,1.05883 -2.542987,1.08598 -3.945702,1.04073 h -1.285068 c -0.630488,0.0828 -1.215289,-0.34292 -1.330316,-0.96833 -0.524887,-1.27602 -1.475113,-2.552036 -0.82353,-3.837104 0.651584,-1.285068 0.914027,-2.82353 1.692308,-3.728506 z"
         id="path193"
         fill="#fbb9ad"
         fill-rule="nonzero" />
      <path
         d="m 31.945701,107.88235 v -9.592757 c -5.14e-4,-0.768108 0.470129,-1.457906 1.185521,-1.737557 l 23.755656,-9.457013 c 1.230769,-0.488688 3.737556,0.977375 3.737556,2.298642 l -1.16742,22.199095 c 0.0012,0.7581 -0.456714,1.44146 -1.158372,1.72851 l -22.624434,10.42534 c -1.239819,0.50678 -3.764706,-0.95928 -3.764706,-2.2896 z"
         id="path195"
         fill="#00ab55"
         fill-rule="nonzero"
         style="fill:#3eb5ff;fill-opacity:1" />
      <path
         d="m 31.945701,107.88235 v -9.592757 c -0.01784,-0.770613 0.454329,-1.467977 1.176471,-1.737557 l 23.764706,-9.457013 c 1.230769,-0.488688 3.737556,0.977375 3.737556,2.298642 l -1.16742,22.199095 c -0.0012,0.75735 -0.45834,1.43947 -1.158372,1.72851 l -22.624434,10.42534 c -1.230769,0.50678 -3.755656,-0.95928 -3.755656,-2.2896 z"
         id="path197"
         fill="#005249"
         fill-rule="nonzero"
         style="fill:#0b357a;fill-opacity:1" />
      <path
         d="m 33.131213,108.44344 v -9.592761 c -0.0017,-0.770628 0.468718,-1.463672 1.185529,-1.746607 l 23.755656,-9.447963 c 0.576979,-0.231218 1.231075,-0.161182 1.746021,0.186951 0.514947,0.348133 0.823677,0.929021 0.824115,1.550605 v 22.787325 c -0.0012,0.75736 -0.45834,1.43947 -1.158371,1.72851 l -23.755656,9.86426 c -0.460683,0.19116 -0.978579,0.19071 -1.438932,-10e-4 -0.460353,-0.19196 -0.82515,-0.55957 -1.013557,-1.02139 -0.09629,-0.22601 -0.145551,-0.46926 -0.144805,-0.71493 z"
         id="path199"
         fill="#007b55"
         style="fill:#1f6ab7;fill-opacity:1" />
      <path
         d="m 33.131222,98.850679 16.289592,8.380091 10.769231,-19.004526 c 0,0 0.41629,-0.244344 0.41629,1.167421 v 22.787325 l -27.475113,8.54299 z"
         id="path201"
         fill="url(#linearGradient-12)"
         fill-rule="nonzero" />
      <path
         d="m 27.484163,68.343891 c -0.335176,0.507776 -0.860047,0.859864 -1.457014,0.977376 -1.610859,0.343891 -2.588235,-0.434389 -3.402715,1.438914 -0.262661,0.641401 -0.344054,1.342637 -0.235294,2.027149 0,0.144797 0.506788,1.746607 0.633484,1.665159 -0.416289,0.298642 -0.742081,-0.515837 -1.19457,-0.751132 -0.452488,-0.235294 -1.122172,0.452489 -1.013574,1.040724 0.18884,0.577597 0.525839,1.095577 0.977375,1.502263 0.723471,0.898031 1.122123,2.014257 1.131222,3.167421 0,0.262443 -0.09955,0.615384 -0.371041,0.624593 -0.271493,0.0089 -0.570136,-0.3712 -0.77828,-0.515996 -0.331481,-0.2222 -0.679394,-0.418846 -1.040724,-0.588235 -1.104073,-0.524887 -2.769231,-0.687783 -3.692308,-1.429865 -0.475772,-0.395904 -0.796307,-0.947225 -0.904977,-1.556561 0,-0.144796 0,-1.701357 0.271493,-1.619909 -0.553802,-0.164805 -1.018164,-0.545212 -1.288746,-1.055743 -0.270582,-0.510532 -0.324691,-1.108372 -0.150168,-1.659189 v 0 c 0.121545,-0.3832 0.343392,-0.726906 0.642534,-0.995475 -1.131222,-1.574661 -0.606335,-3.909503 0.751131,-5.294118 1.457023,-1.302122 3.30085,-2.090517 5.248869,-2.244344 2.116313,-0.333683 4.280394,-0.191472 6.334841,0.41629 0.712775,0.197156 1.371741,0.552936 1.927602,1.040724 0.551323,0.498812 0.824883,1.23506 0.733032,1.97285 -0.244251,0.09947 -0.52414,0.04633 -0.714932,-0.135746 0.249362,0.679713 -0.09891,1.432958 -0.778281,1.683258 -0.499659,0.181668 -1.059533,0.04616 -1.420814,-0.343892 -0.01815,0.224683 -0.08949,0.441824 -0.208145,0.633484 z"
         id="path203"
         fill="#005249"
         fill-rule="nonzero"
         style="fill:#0b357a;fill-opacity:1" />
      <path
         d="m 28.515837,78.760181 -0.271493,0.08145 c -0.08139,0.0083 -0.157752,0.04333 -0.217195,0.09955 -0.01785,0.06209 -0.01785,0.127955 0,0.190046 -0.531602,0.576084 -0.87012,1.30374 -0.968326,2.081448 l -0.515837,2.40724 c -0.871028,-1.53877 -1.528643,-3.188897 -1.954751,-4.904978 1.304124,0.150699 2.620353,0.165863 3.927602,0.04525 z"
         id="path205"
         fill="#dc9f95"
         fill-rule="nonzero" />
      <path
         d="m 29.891403,107.97285 c 0.309368,-0.38006 0.788173,-0.58041 1.276018,-0.53394 0.272771,0.13714 0.533169,0.29762 0.77828,0.47964 0.230924,0.10298 0.480228,0.15838 0.733032,0.1629 1.023315,0.0733 2.050534,-0.0716 3.013575,-0.42534 0.486006,-0.23694 1.016234,-0.36949 1.556561,-0.38914 0.653608,0.12732 1.218922,0.53395 1.547511,1.11312 0.983931,1.41139 1.044226,3.26989 0.153846,4.74208 -0.404288,0.58561 -0.936592,1.07149 -1.556561,1.42082 -1.374181,0.71967 -2.901273,1.09834 -4.452489,1.10407 -1.538461,0.0724 -3.104072,0 -4.633484,0.0724 -0.362307,0.0661 -0.736256,0.0154 -1.067873,-0.1448 -0.371434,-0.34537 -0.561926,-0.84332 -0.515837,-1.34842 -0.0543,-1.16742 -0.253394,-2.15384 0.425339,-3.14027 0.853069,-1.08985 1.768633,-2.1293 2.742082,-3.11312 z"
         id="path207"
         fill="#fbb9ad"
         fill-rule="nonzero" />
      <path
         d="m 12.895928,88.063348 c 0,0 -17.0045253,22.235292 -11.6289597,30.090502 5.3755656,7.8552 28.0542987,-1.29412 28.0542987,-1.29412 l -2.208145,-6.50679 c 0,0 -15.927602,2.0181 -16.045249,0.23529 -0.117647,-1.7828 10.099548,-11.990945 10.099548,-11.990945 0,0 1.828054,-14.941176 -8.271493,-10.533937 z"
         id="path209"
         fill="url(#linearGradient-13)"
         fill-rule="nonzero" />
    </g>
  </g>
</svg>
