<?xml version="1.0" encoding="utf-8"?>
<!-- Generator: Adobe Illustrator 25.4.1, SVG Export Plug-In . SVG Version: 6.00 Build 0)  -->
<svg version="1.1" id="Layer_1" xmlns="http://www.w3.org/2000/svg" xmlns:xlink="http://www.w3.org/1999/xlink" x="0px" y="0px"
	 viewBox="0 0 512 512" style="enable-background:new 0 0 512 512;" xml:space="preserve">
<style type="text/css">
	.st0{fill:url(#SVGID_1_);}
	.st1{fill:url(#SVGID_00000064329256806395196190000016906430870978334344_);}
	.st2{fill:url(#SVGID_00000154389249188604192010000005868372335148014779_);}
	.st3{fill:url(#SVGID_00000165951311471393869950000004326685367025751487_);}
	.st4{fill:url(#SVGID_00000060001047127546201460000010353148917481079727_);}
	.st5{fill:url(#SVGID_00000067233666481351687970000013407665701132027827_);}
	.st6{fill:url(#SVGID_00000036244680884169342370000008285397720258980778_);}
	.st7{fill:url(#SVGID_00000029046091687335317230000013921926024797470655_);}
	.st8{fill:url(#SVGID_00000065053855713084639170000003789111831071385232_);}
	.st9{fill:url(#SVGID_00000129913955159256884750000005814722860785061766_);}
	.st10{fill:url(#SVGID_00000000937897887682356370000000432515617616976051_);}
	.st11{fill:url(#SVGID_00000032644964490426597730000006352530665006499253_);}
	.st12{fill:url(#SVGID_00000170243499821744660940000003593156299647904156_);}
	.st13{fill:url(#SVGID_00000038382727263703628420000014819426897544330657_);}
	.st14{fill:url(#SVGID_00000127044024131392004010000002630645693559932826_);}
	.st15{fill:url(#SVGID_00000141425954697081979390000004102491290514817200_);}
	.st16{fill:url(#SVGID_00000083051646288460762450000008315139828499423134_);}
	.st17{fill:url(#SVGID_00000154403268951834834200000011913287799829230000_);}
</style>
<g>
	<linearGradient id="SVGID_1_" gradientUnits="userSpaceOnUse" x1="249.4415" y1="290.0085" x2="266.0398" y2="272.8224">
		<stop  offset="0" style="stop-color:#2BB673"/>
		<stop  offset="0.1761" style="stop-color:#2AB379"/>
		<stop  offset="0.4135" style="stop-color:#28AC8A"/>
		<stop  offset="0.6846" style="stop-color:#24A0A6"/>
		<stop  offset="0.8571" style="stop-color:#2196BC"/>
	</linearGradient>
	<path class="st0" d="M264.1,286c-2.7-7.8-4.5-14.9-6.2-21.9h-0.4c-1.8,7.1-3.7,14.4-6,21.7l-1.7,4.9h15.9L264.1,286z"/>
	
		<linearGradient id="SVGID_00000049203301751020738060000008934591922695474327_" gradientUnits="userSpaceOnUse" x1="246.4313" y1="326.1425" x2="268.9542" y2="302.8221">
		<stop  offset="0" style="stop-color:#2BB673"/>
		<stop  offset="0.1761" style="stop-color:#2AB379"/>
		<stop  offset="0.4135" style="stop-color:#28AC8A"/>
		<stop  offset="0.6846" style="stop-color:#24A0A6"/>
		<stop  offset="0.8571" style="stop-color:#2196BC"/>
	</linearGradient>
	<polygon style="fill:url(#SVGID_00000049203301751020738060000008934591922695474327_);" points="245.9,302.3 239.9,320.1 
		275.8,320.1 269.7,302.3 	"/>
	
		<linearGradient id="SVGID_00000151525545380940278030000005643169193200013187_" gradientUnits="userSpaceOnUse" x1="196.7976" y1="383.7489" x2="317.034" y2="259.255">
		<stop  offset="0" style="stop-color:#2BB673"/>
		<stop  offset="0.1761" style="stop-color:#2AB379"/>
		<stop  offset="0.4135" style="stop-color:#28AC8A"/>
		<stop  offset="0.6846" style="stop-color:#24A0A6"/>
		<stop  offset="0.8571" style="stop-color:#2196BC"/>
	</linearGradient>
	<path style="fill:url(#SVGID_00000151525545380940278030000005643169193200013187_);" d="M258.1,230.8c-49.4,0-89.5,40.1-89.5,89.5
		c0,49.4,40.1,89.5,89.5,89.5c49.4,0,89.5-40.1,89.5-89.5C347.6,270.8,307.5,230.8,258.1,230.8z M313,302.3l-27.8,0l6.1,17.8H313
		v11.7h-17.7l13.1,38.5h-16.5l-12.8-37.7h-42.5l-12.4,37.7h-16l13.1-38.5h-17.9v-11.7h21.9l6-17.8h-27.9v-11.7h31.9l13.7-40.2h18.7
		l13.7,40.2H313V302.3z"/>
</g>
<g>
	
		<linearGradient id="SVGID_00000150082809641365975770000008109561252247533213_" gradientUnits="userSpaceOnUse" x1="-40.7225" y1="183.0043" x2="536.2775" y2="184.0043">
		<stop  offset="0" style="stop-color:#D2FBFA"/>
		<stop  offset="1" style="stop-color:#062D5A"/>
	</linearGradient>
	<path style="fill:url(#SVGID_00000150082809641365975770000008109561252247533213_);" d="M510.7,209.1H5.5l25.6-51.2h454
		L510.7,209.1z M32.8,192h450.6l-8.5-17.1H41.4L32.8,192z"/>
	
		<linearGradient id="SVGID_00000017481770931052209390000014214901168896184972_" gradientUnits="userSpaceOnUse" x1="-40.6488" y1="140.5075" x2="536.3511" y2="141.5075">
		<stop  offset="0" style="stop-color:#D2FBFA"/>
		<stop  offset="1" style="stop-color:#062D5A"/>
	</linearGradient>
	<path style="fill:url(#SVGID_00000017481770931052209390000014214901168896184972_);" d="M96.8,175.8l-8.5-5.1v-6.8l19.6-58h109.2
		L96.8,175.8z M119,123.7l-8.5,23.9l41.8-23.9C152.3,123.7,119,123.7,119,123.7z"/>
	
		<linearGradient id="SVGID_00000085961764357939469200000015102770137617416107_" gradientUnits="userSpaceOnUse" x1="-40.6487" y1="140.4109" x2="536.3513" y2="141.4109">
		<stop  offset="0" style="stop-color:#D2FBFA"/>
		<stop  offset="1" style="stop-color:#062D5A"/>
	</linearGradient>
	<path style="fill:url(#SVGID_00000085961764357939469200000015102770137617416107_);" d="M420.2,175.8l-4.3-2.6l-116.1-66.6h109.3
		l19.6,58v6L420.2,175.8z M363.9,123.7l41.8,23.9l-8.5-23.9C397.2,123.7,363.9,123.7,363.9,123.7z"/>
	
		<linearGradient id="SVGID_00000171678703923787046740000004307807163907047331_" gradientUnits="userSpaceOnUse" x1="-40.5229" y1="67.8476" x2="536.4771" y2="68.8476">
		<stop  offset="0" style="stop-color:#D2FBFA"/>
		<stop  offset="1" style="stop-color:#062D5A"/>
	</linearGradient>
	<path style="fill:url(#SVGID_00000171678703923787046740000004307807163907047331_);" d="M258.1,72.5l73.4,42.7h58.9
		c0-51.2-58.9-93.9-132.3-93.9S125,64,125,115.2h59.7L258.1,72.5L258.1,72.5z"/>
	
		<linearGradient id="SVGID_00000154385349473614492630000000357289718365624765_" gradientUnits="userSpaceOnUse" x1="-40.5229" y1="67.8564" x2="536.4771" y2="68.8564">
		<stop  offset="0" style="stop-color:#D2FBFA"/>
		<stop  offset="1" style="stop-color:#062D5A"/>
	</linearGradient>
	<path style="fill:url(#SVGID_00000154385349473614492630000000357289718365624765_);" d="M398.9,123.7h-69.1l-71.7-41l-71.7,41
		h-70.8v-8.5c0-56.3,64-102.4,141.7-102.4s140.8,46.1,140.8,102.4v8.5C398,123.7,398.9,123.7,398.9,123.7z M334,106.7h46.9
		C375,64,322.1,29.9,258.1,29.9c-63.1,0-117.8,34.1-123.7,76.8h47.8l75.9-44.4L334,106.7z"/>
	
		<linearGradient id="SVGID_00000094577467539199395630000008827320368363787927_" gradientUnits="userSpaceOnUse" x1="-41.2252" y1="473.0812" x2="535.7748" y2="474.0812">
		<stop  offset="0" style="stop-color:#D2FBFA"/>
		<stop  offset="1" style="stop-color:#062D5A"/>
	</linearGradient>
	<path style="fill:url(#SVGID_00000094577467539199395630000008827320368363787927_);" d="M514.1,499.2H2.1V448h512V499.2z
		 M19.2,482.1h477.9V465H19.2V482.1z"/>
	
		<linearGradient id="SVGID_00000038399137862494418930000001493554321321989303_" gradientUnits="userSpaceOnUse" x1="-41.1965" y1="456.4828" x2="535.8035" y2="457.4828">
		<stop  offset="0" style="stop-color:#D2FBFA"/>
		<stop  offset="1" style="stop-color:#062D5A"/>
	</linearGradient>
	<path style="fill:url(#SVGID_00000038399137862494418930000001493554321321989303_);" d="M504.8,482.6H9.8v-51.2h494.9L504.8,482.6
		L504.8,482.6z M26.9,465.5h460.8v-17.1H26.9V465.5z"/>
	
		<linearGradient id="SVGID_00000005963525823203840730000010018842499374452384_" gradientUnits="userSpaceOnUse" x1="-40.9446" y1="311.1571" x2="536.0554" y2="312.1571">
		<stop  offset="0" style="stop-color:#D2FBFA"/>
		<stop  offset="1" style="stop-color:#062D5A"/>
	</linearGradient>
	<path style="fill:url(#SVGID_00000005963525823203840730000010018842499374452384_);" d="M104.5,226.1v-25.6H36.2v25.6
		c0,5.1,3.4,8.5,8.5,8.5s8.5,3.4,8.5,8.5v136.5c0,5.1-3.4,8.5-8.5,8.5s-8.5,3.4-8.5,8.5v25.6h68.3v-25.6c0-5.1-3.4-8.5-8.5-8.5
		s-8.5-3.4-8.5-8.5V243.2c0-5.1,3.4-8.5,8.5-8.5S104.5,231.3,104.5,226.1L104.5,226.1z"/>
	
		<linearGradient id="SVGID_00000003076947245339206150000005960392809214195081_" gradientUnits="userSpaceOnUse" x1="-40.9448" y1="311.2571" x2="536.0552" y2="312.2571">
		<stop  offset="0" style="stop-color:#D2FBFA"/>
		<stop  offset="1" style="stop-color:#062D5A"/>
	</linearGradient>
	<path style="fill:url(#SVGID_00000003076947245339206150000005960392809214195081_);" d="M113,430.9H27.7v-34.1
		c0-9.4,7.7-17.1,17.1-17.1V243.2c-9.4,0-17.1-7.7-17.1-17.1V192H113v34.1c0,9.4-7.7,17.1-17.1,17.1v136.5c9.4,0,17.1,7.7,17.1,17.1
		V430.9z M44.8,413.9H96v-17.1c-9.4,0-17.1-7.7-17.1-17.1V243.2c0-9.4,7.7-17.1,17.1-17.1V209H44.8v17.1c9.4,0,17.1,7.7,17.1,17.1
		v136.5c0,9.4-7.7,17.1-17.1,17.1C44.8,396.8,44.8,413.9,44.8,413.9z"/>
	
		<linearGradient id="SVGID_00000097484209621801618710000018065303248046833322_" gradientUnits="userSpaceOnUse" x1="-40.93" y1="302.7451" x2="536.07" y2="303.7451">
		<stop  offset="0" style="stop-color:#D2FBFA"/>
		<stop  offset="1" style="stop-color:#062D5A"/>
	</linearGradient>
	<path style="fill:url(#SVGID_00000097484209621801618710000018065303248046833322_);" d="M198,217.8v-25.6h-68.3v25.6
		c0,5.1,3.4,8.5,8.5,8.5s8.5,3.4,8.5,8.5v136.5c0,5.1-3.4,8.5-8.5,8.5s-8.5,3.4-8.5,8.5V414H198v-25.6c0-5.1-3.4-8.5-8.5-8.5
		s-8.5-3.4-8.5-8.5V234.8c0-5.1,3.4-8.5,8.5-8.5S198,222.9,198,217.8L198,217.8z"/>
	
		<linearGradient id="SVGID_00000031208333235685412120000007040123655839046822_" gradientUnits="userSpaceOnUse" x1="-40.9445" y1="311.0943" x2="536.0555" y2="312.0943">
		<stop  offset="0" style="stop-color:#D2FBFA"/>
		<stop  offset="1" style="stop-color:#062D5A"/>
	</linearGradient>
	<path style="fill:url(#SVGID_00000031208333235685412120000007040123655839046822_);" d="M206.9,430.9h-85.3v-34.1
		c0-9.4,7.7-17.1,17.1-17.1V243.2c-9.4,0-17.1-7.7-17.1-17.1V192h85.3v34.1c0,9.4-7.7,17.1-17.1,17.1v136.5
		c9.4,0,17.1,7.7,17.1,17.1L206.9,430.9L206.9,430.9z M138.6,413.9h51.2v-17.1c-9.4,0-17.1-7.7-17.1-17.1V243.2
		c0-9.4,7.7-17.1,17.1-17.1V209h-51.2v17.1c9.4,0,17.1,7.7,17.1,17.1v136.5c0,9.4-7.7,17.1-17.1,17.1V413.9z"/>
	
		<linearGradient id="SVGID_00000043459718052349304520000018263379616842603136_" gradientUnits="userSpaceOnUse" x1="-40.9438" y1="310.669" x2="536.0562" y2="311.669">
		<stop  offset="0" style="stop-color:#D2FBFA"/>
		<stop  offset="1" style="stop-color:#062D5A"/>
	</linearGradient>
	<path style="fill:url(#SVGID_00000043459718052349304520000018263379616842603136_);" d="M386.1,226.1v-25.6h-68.3v25.6
		c0,5.1,3.4,8.5,8.5,8.5s8.5,3.4,8.5,8.5v136.5c0,5.1-3.4,8.5-8.5,8.5s-8.5,3.4-8.5,8.5v25.6h68.3v-25.6c0-5.1-3.4-8.5-8.5-8.5
		s-8.5-3.4-8.5-8.5V243.2c0-5.1,3.4-8.5,8.5-8.5S386.1,231.3,386.1,226.1L386.1,226.1z"/>
	
		<linearGradient id="SVGID_00000106110511490248130720000012395585808979109788_" gradientUnits="userSpaceOnUse" x1="-40.9439" y1="310.769" x2="536.0561" y2="311.769">
		<stop  offset="0" style="stop-color:#D2FBFA"/>
		<stop  offset="1" style="stop-color:#062D5A"/>
	</linearGradient>
	<path style="fill:url(#SVGID_00000106110511490248130720000012395585808979109788_);" d="M394.6,430.9h-85.3v-34.1
		c0-9.4,7.7-17.1,17.1-17.1V243.2c-9.4,0-17.1-7.7-17.1-17.1V192h85.3v34.1c0,9.4-7.7,17.1-17.1,17.1v136.5
		c9.4,0,17.1,7.7,17.1,17.1V430.9L394.6,430.9z M326.4,413.9h51.2v-17.1c-9.4,0-17.1-7.7-17.1-17.1V243.2c0-9.4,7.7-17.1,17.1-17.1
		V209h-51.2v17.1c9.4,0,17.1,7.7,17.1,17.1v136.5c0,9.4-7.7,17.1-17.1,17.1V413.9z"/>
	
		<linearGradient id="SVGID_00000004533479142553617420000005661363813383367592_" gradientUnits="userSpaceOnUse" x1="-40.9435" y1="310.5063" x2="536.0565" y2="311.5063">
		<stop  offset="0" style="stop-color:#D2FBFA"/>
		<stop  offset="1" style="stop-color:#062D5A"/>
	</linearGradient>
	<path style="fill:url(#SVGID_00000004533479142553617420000005661363813383367592_);" d="M480,226.1v-25.6h-68.3v25.6
		c0,5.1,3.4,8.5,8.5,8.5s8.5,3.4,8.5,8.5v136.5c0,5.1-3.4,8.5-8.5,8.5s-8.5,3.4-8.5,8.5v25.6H480v-25.6c0-5.1-3.4-8.5-8.5-8.5
		s-8.5-3.4-8.5-8.5V243.2c0-5.1,3.4-8.5,8.5-8.5C476.6,234.7,480,231.3,480,226.1L480,226.1z"/>
	
		<linearGradient id="SVGID_00000119799295151328354450000009240102198457691832_" gradientUnits="userSpaceOnUse" x1="-40.9436" y1="310.6063" x2="536.0563" y2="311.6063">
		<stop  offset="0" style="stop-color:#D2FBFA"/>
		<stop  offset="1" style="stop-color:#062D5A"/>
	</linearGradient>
	<path style="fill:url(#SVGID_00000119799295151328354450000009240102198457691832_);" d="M488.5,430.9h-85.3v-34.1
		c0-9.4,7.7-17.1,17.1-17.1V243.2c-9.4,0-17.1-7.7-17.1-17.1V192h85.3v34.1c0,9.4-7.7,17.1-17.1,17.1v136.5
		c9.4,0,17.1,7.7,17.1,17.1L488.5,430.9L488.5,430.9z M420.2,413.9h51.2v-17.1c-9.4,0-17.1-7.7-17.1-17.1V243.2
		c0-9.4,7.7-17.1,17.1-17.1V209h-51.2v17.1c9.4,0,17.1,7.7,17.1,17.1v136.5c0,9.4-7.7,17.1-17.1,17.1V413.9z"/>
</g>
</svg>
