<?xml version="1.0" encoding="utf-8"?>
<!-- Generator: Adobe Illustrator 25.4.1, SVG Export Plug-In . SVG Version: 6.00 Build 0)  -->
<svg version="1.1" id="Capa_1" xmlns="http://www.w3.org/2000/svg" xmlns:xlink="http://www.w3.org/1999/xlink" x="0px" y="0px"
	 viewBox="0 0 488.5 488.5" style="enable-background:new 0 0 488.5 488.5;" xml:space="preserve">
<style type="text/css">
	.st0{fill:url(#SVGID_1_);}
	.st1{fill:#FFFFFF;}
</style>
<g>
	<g id="Layer_8_1_">
		<linearGradient id="SVGID_1_" gradientUnits="userSpaceOnUse" x1="12.4788" y1="244.263" x2="476.0462" y2="244.263">
			<stop  offset="0" style="stop-color:#2196BC"/>
			<stop  offset="1" style="stop-color:#2BB673"/>
		</linearGradient>
		<path class="st0" d="M461.6,181.6c6.3,0,11.9-4.1,13.8-10.1c1.9-6-0.3-12.6-5.4-16.2L254.6,2.7c-5-3.5-11.6-3.6-16.6-0.1
			L18.7,154.8c-5.2,3.6-7.4,10.2-5.6,16.2c1.9,6,7.5,10.2,13.8,10.2l63.6,0c-1.7,3.3-2.7,7.1-2.7,11.1v64.8
			c-4.5,4.8-7.3,11.3-7.3,18.5v123.9c-9.5,0.6-17.8,6.2-22.1,14.2h-14c-15.9,0-28.8,12.9-28.8,28.8v17.1c0,15.9,12.9,28.8,28.8,28.8
			H444c15.9,0,28.8-12.9,28.8-28.8v-17.1c0-15.9-12.9-28.8-28.8-28.8h-9.5c-3.8-7-10.5-12.1-18.5-13.7V275.7
			c0-7.1-2.8-13.6-7.3-18.5v-64.8c0-3.9-0.9-7.6-2.5-10.9L461.6,181.6C461.5,181.6,461.5,181.6,461.6,181.6z M330.3,399.5h-164
			v-69.1c14.6,31.2,46.2,52.9,83,52.9c35.2,0,65.7-19.9,81-49V399.5z M337.6,192.4v64.8c-0.9,0.9-1.7,2-2.4,3
			c-12.9-34.9-46.5-59.9-85.9-59.9c-40.2,0-74.3,25.9-86.6,61.9c-1-1.8-2.2-3.5-3.7-5v-64.8c0-4-1-7.7-2.6-11.1l183.7,0.1
			C338.5,184.8,337.6,188.5,337.6,192.4z"/>
		<path id="path19" class="st1" d="M301.4,278.8v-11.3h-30.7l-13.3-38.9h-18.1l-13.2,38.9h-30.8v11.3h27l-5.8,17.2h-21.2v11.3h17.3
			L200,344.5h15.5l12-36.5h41.1l12.4,36.5h16l-12.7-37.2h17.1V296h-21l-5.9-17.2L301.4,278.8z M241.9,262.8c2.2-7,4.1-14.1,5.8-21
			h0.4c1.7,6.7,3.4,13.6,6,21.1l1.5,4.5h-15.3L241.9,262.8z M265.4,296h-34.7l5.8-17.2h23L265.4,296z"/>
	</g>
</g>
</svg>
