<svg xmlns="http://www.w3.org/2000/svg" width="24" height="24" viewBox="0 0 24 24">
  <g fill="none">
    <path fill="#EA4335" d="M2.89770175,4.18065217 C8.4761391,-2.31175763 18.8195755,-1.03018994 22.6863787,6.55360405 C19.9644125,6.55459485 15.7020164,6.55278805 13.3934685,6.55360405 C11.7191159,6.5541869 10.6380654,6.51612685 9.46736425,7.13243105 C8.0910316,7.85691195 7.0525637,9.19985365 6.6900582,10.777217 L2.89770175,4.18065217 L2.89770175,4.18065217 Z"/>
    <path fill="#4285F4" d="M8.0077305,11.9995673 C8.0077305,14.1999377 9.79684055,15.9900408 11.9959902,15.9900408 C14.1950816,15.9900408 15.9841917,14.1999377 15.9841917,11.9995673 C15.9841917,9.7992552 14.1950816,8.00909375 11.9959902,8.00909375 C9.79684055,8.00909375 8.0077305,9.7992552 8.0077305,11.9995673 L8.0077305,11.9995673 Z"/>
    <path fill="#34A853" d="M13.5438183,17.2228241 C11.3052899,17.8880876 8.6856735,17.1503177 7.25073885,14.6734439 C6.15541645,12.7827993 3.26143057,7.7411582 1.9460301,5.44869775 C-2.66092977,12.5097347 1.30962117,22.1321003 9.6732287,23.7744513 L13.5438183,17.2228241 L13.5438183,17.2228241 Z"/>
    <path fill="#FBBC05" d="M15.7007348,8.00909375 C17.5651654,9.7431852 17.9713603,12.551117 16.7084454,14.7283483 C15.7569485,16.3687176 12.7201274,21.4942307 11.2483189,23.9761752 C19.8654415,24.5073836 26.1472199,16.061906 23.3097973,8.00909375 L15.7007348,8.00909375 L15.7007348,8.00909375 Z"/>
  </g>
</svg>
