<svg xmlns="http://www.w3.org/2000/svg" width="24" height="24" viewBox="0 0 24 24">
  <g fill="none" fill-rule="evenodd">
    <rect width="24" height="24"/>
    <path fill="#FF4842" fill-rule="nonzero" d="M14.2898151,2.70978564 L14.2956094,2.71123537 L14.3021478,2.71289166 C14.8474058,2.85101574 15.1787779,3.40353537 15.043857,3.94959478 L10.9430776,20.5465051 C10.8082878,21.0920342 10.2567804,21.4250042 9.71125128,21.2902144 L9.70545694,21.2887646 L9.69891859,21.2871083 C9.15366061,21.1489843 8.82228852,20.5964646 8.95720937,20.0504052 L13.0579888,3.45349487 C13.1927786,2.90796579 13.744286,2.57499583 14.2898151,2.70978564 Z M6.57786963,7.11646056 C6.5808742,7.1194279 6.58386023,7.12241393 6.58682757,7.1254185 L6.60014317,7.13890113 C6.99354269,7.53723565 6.99354269,8.17784547 6.60014317,8.57617998 L3.2190632,11.9996739 L6.60014317,15.4231677 C6.99354269,15.8215023 6.99354269,16.4621121 6.60014317,16.8604466 L6.58682757,16.8739292 C6.19244445,17.2732597 5.54901247,17.2772703 5.14968201,16.8828872 L5.14072407,16.8739292 L5.14072407,16.8739292 L1.04990796,12.7317959 C0.650030681,12.3269024 0.650030681,11.6724453 1.04990796,11.2675518 L5.14072407,7.1254185 C5.5351072,6.72608804 6.17853918,6.72207744 6.57786963,7.11646056 Z M18.850318,7.11646056 L18.8592759,7.1254185 L18.8592759,7.1254185 L22.950092,11.2675518 C23.3499693,11.6724453 23.3499693,12.3269024 22.950092,12.7317959 L18.8592759,16.8739292 C18.4648928,17.2732597 17.8214608,17.2772703 17.4221304,16.8828872 C17.4191258,16.8799198 17.4161398,16.8769338 17.4131724,16.8739292 L17.3998568,16.8604466 C17.0064573,16.4621121 17.0064573,15.8215023 17.3998568,15.4231677 L20.7809368,11.9996739 L17.3998568,8.57617998 C17.0064573,8.17784547 17.0064573,7.53723565 17.3998568,7.13890113 L17.4131724,7.1254185 C17.8075555,6.72608804 18.4509875,6.72207744 18.850318,7.11646056 Z"/>
  </g>
</svg>
