<svg xmlns="http://www.w3.org/2000/svg" width="24" height="24" viewBox="0 0 24 24">
  <path fill="#1890FF" d="M22,17.5 C22.5522847,17.5 23,17.9477153 23,18.5 L23,22 C23,22.5522847 22.5522847,23 22,23 L18.5,23 C17.9477153,23 17.5,22.5522847 17.5,22 L17.5,18.5 C17.5,17.9477153 17.9477153,17.5 18.5,17.5 L22,17.5 Z M3.75,8.33333333 C4.25626102,8.33333333 4.66666667,8.74373898 4.66666667,9.25 L4.66666667,9.25 L4.66666667,16.5833333 C4.66666667,18.1021164 5.8978836,19.3333333 7.41666667,19.3333333 L7.41666667,19.3333333 L14.75,19.3333333 C15.256261,19.3333333 15.6666667,19.743739 15.6666667,20.25 C15.6666667,20.756261 15.256261,21.1666667 14.75,21.1666667 L14.75,21.1666667 L7.41666667,21.1666667 C4.88661794,21.1636361 2.83636394,19.1133821 2.83333333,16.5833333 L2.83333333,16.5833333 L2.83333333,9.25 C2.83333333,8.74373898 3.24373898,8.33333333 3.75,8.33333333 Z M16.5833333,2.83333333 C19.1133821,2.83636394 21.1636361,4.88661794 21.1666667,7.41666667 L21.1666667,7.41666667 L21.1666667,14.75 C21.1666667,15.256261 20.756261,15.6666667 20.25,15.6666667 C19.743739,15.6666667 19.3333333,15.256261 19.3333333,14.75 L19.3333333,14.75 L19.3333333,7.41666667 C19.3333333,5.8978836 18.1021164,4.66666667 16.5833333,4.66666667 L16.5833333,4.66666667 L9.25,4.66666667 C8.74373898,4.66666667 8.33333333,4.25626102 8.33333333,3.75 C8.33333333,3.24373898 8.74373898,2.83333333 9.25,2.83333333 L9.25,2.83333333 Z M5.5,1 C6.05228475,1 6.5,1.44771525 6.5,2 L6.5,5.5 C6.5,6.05228475 6.05228475,6.5 5.5,6.5 L2,6.5 C1.44771525,6.5 1,6.05228475 1,5.5 L1,2 C1,1.44771525 1.44771525,1 2,1 L5.5,1 Z"/>
</svg>
