<svg id="Layer_1" data-name="Layer 1" xmlns="http://www.w3.org/2000/svg" xmlns:xlink="http://www.w3.org/1999/xlink" viewBox="0 0 457 386.7805"><defs><style>.cls-1{fill:url(#linear-gradient);}.cls-2{fill:none;}.cls-10,.cls-11,.cls-12,.cls-2,.cls-3,.cls-6,.cls-7,.cls-9{stroke:#000;stroke-miterlimit:10;}.cls-10,.cls-11,.cls-12,.cls-2,.cls-7,.cls-9{stroke-width:5px;}.cls-3{stroke-width:4px;fill:url(#linear-gradient-2);}.cls-4{fill:#fff;}.cls-5{fill:url(#linear-gradient-3);}.cls-6{stroke-width:7px;fill:url(#linear-gradient-4);}.cls-7{fill:url(#linear-gradient-5);}.cls-8{fill:url(#linear-gradient-6);}.cls-9{fill:url(#linear-gradient-7);}.cls-10{fill:url(#linear-gradient-8);}.cls-11{fill:url(#linear-gradient-9);}</style><linearGradient id="linear-gradient" x1="679.5257" y1="413.0522" x2="1027.7822" y2="422.1371" gradientUnits="userSpaceOnUse"><stop offset="0" stop-color="#76deea"/><stop offset="1" stop-color="#062d5a"/></linearGradient><linearGradient id="linear-gradient-2" x1="732.8934" y1="762.9028" x2="834.2203" y2="657.9879" gradientTransform="matrix(1, 0, 0, -1, -540, 786.7805)" gradientUnits="userSpaceOnUse"><stop offset="0" stop-color="#2bb673"/><stop offset="0.1761" stop-color="#2ab379"/><stop offset="0.4135" stop-color="#28ac8a"/><stop offset="0.6846" stop-color="#24a0a6"/><stop offset="0.8571" stop-color="#2196bc"/></linearGradient><linearGradient id="linear-gradient-3" x1="683.448" y1="393.0602" x2="1026.0007" y2="401.9963" xlink:href="#linear-gradient"/><linearGradient id="linear-gradient-4" x1="896.5" y1="466.5" x2="896.5" y2="466.5" xlink:href="#linear-gradient"/><linearGradient id="linear-gradient-5" x1="704.7354" y1="606.8172" x2="864.8207" y2="610.9933" xlink:href="#linear-gradient"/><linearGradient id="linear-gradient-6" x1="384.8415" y1="598.6025" x2="944.4554" y2="613.2011" xlink:href="#linear-gradient"/><linearGradient id="linear-gradient-7" x1="550.5" y1="596.5" x2="550.5" y2="596.5" xlink:href="#linear-gradient"/><linearGradient id="linear-gradient-8" x1="769.2049" y1="459.8634" x2="769.2049" y2="459.8634" xlink:href="#linear-gradient"/><linearGradient id="linear-gradient-9" x1="227.9916" y1="190.8098" x2="230.0234" y2="190.8628" xlink:href="#linear-gradient"/></defs><path class="cls-1" d="M777.5,424.5a121.0609,121.0609,0,0,0,25,23,140.15,140.15,0,0,0,30,15c37.6011,12.9328,84.1446.0658,84.1446.0658,2.12-.5862,2.0828-.753-.0837-.3707l-26.1218,4.61c-2.1665.3823-2.3812,1.5967-.477,2.6986l101.0758,58.493C992.9421,529.0984,994.5,528.2,994.5,526V412.5a9.0269,9.0269,0,0,0-3.2029-6.3961L866.7029,312.8961A14.09,14.09,0,0,0,859.5,310.5H801.6835" transform="translate(-540 -295.2195)"/><path class="cls-2" d="M777.5,424.5a121.0609,121.0609,0,0,0,25,23,140.15,140.15,0,0,0,30,15c37.6011,12.9328,84.1446.0658,84.1446.0658,2.12-.5862,2.0828-.753-.0837-.3707l-26.1218,4.61c-2.1665.3823-2.3812,1.5967-.477,2.6986l101.0758,58.493C992.9421,529.0984,994.5,528.2,994.5,526V412.5a9.0269,9.0269,0,0,0-3.2029-6.3961L866.7029,312.8961A14.09,14.09,0,0,0,859.5,310.5H801.6835" transform="translate(-540 -295.2195)"/><circle id="circle17" class="cls-3" cx="244.5759" cy="77.3902" r="75.3902"/><path id="path19" class="cls-4" d="M830.811,357.51v-9.8475H804.0637l-11.5729-33.9171h-15.736L765.231,347.6624h-26.89v9.849h23.5422l-5.0958,14.997H738.3407v9.849H753.445l-11.0112,32.4049h13.4906l10.4882-31.7761H802.23l10.7922,31.7761h13.9361l-11.0559-32.4049H830.811v-9.849H812.54l-5.1167-14.997Zm-51.8033-13.9405c1.9534-6.1448,3.6-12.29,5.0943-18.287h.3055c1.49,5.8454,2.9964,11.8427,5.2418,18.433l1.3411,3.9456H777.616Zm20.4281,28.9375H769.2049l5.0764-14.997H794.334Z" transform="translate(-540 -295.2195)"/><path class="cls-5" d="M884,419.94a50.5526,50.5526,0,0,1-21.3158-3.5221c-14.6394-5.9886-19.591-16.35-19.591-16.35a6.2343,6.2343,0,0,0-5.71-3.2684,33.7262,33.7262,0,0,1-6.106-.3407c-2.8347-.3435-13.1711-1.895-21.1716-9.3924a24.7575,24.7575,0,0,1-5.4551-6.9227c-.9076-2.0041.15-3.6438,2.35-3.6438h77" transform="translate(-540 -295.2195)"/><path class="cls-2" d="M884,419.94a50.5526,50.5526,0,0,1-21.3158-3.5221c-14.6394-5.9886-19.591-16.35-19.591-16.35a6.2343,6.2343,0,0,0-5.71-3.2684,33.7262,33.7262,0,0,1-6.106-.3407c-2.8347-.3435-13.1711-1.895-21.1716-9.3924a24.7575,24.7575,0,0,1-5.4551-6.9227c-.9076-2.0041.15-3.6438,2.35-3.6438h77" transform="translate(-540 -295.2195)"/><path class="cls-6" d="M896.5,466.5" transform="translate(-540 -295.2195)"/><path class="cls-7" d="M749.5,622.5c32.3919-33.6744,45.6835-50.7731,51-60a25.855,25.855,0,0,1,7-8c8.088-6.0256,20.27-7.27,30-3a30.0169,30.0169,0,0,1,13,11c12.7209,22.1249-66.3538,93.858-81,107" transform="translate(-540 -295.2195)"/><path class="cls-8" d="M580.5,679.5H798.4734a11.734,11.734,0,0,0,8.1053-3.9188S878.8836,584.3367,889.5,576.5c1.5994-1.1807,7.5172-5.34,7-10-.8853-7.977-19.9467-11.7894-21-12-32.1122-6.4193-72.7414,50.1743-83,65-12.6683,1.3837-81.0089-2.7016-81.0089-2.7016a38.3768,38.3768,0,0,1-9.6518-2.1089s-8.8561-3.44-12.3393-8.1895c-6.0093-8.1937-4.6726-18.3215-4-22,7.3722-10.8844,14.7137-14.6,20-16,7.1757-1.9011,16.0106-1.3252,16.0106-1.3252a35.8845,35.8845,0,0,0,9.8128-.992A133.9755,133.9755,0,0,0,747.5,560.5c23.2074-10.2354,28.7169-20.4232,30-23,.8885-1.7844.9758-2.3878.9318-2.714,0,0-.0132-.0754-.0318-.1509-.4975-2.0283-68.3714-7.0445-100.9-.1351a72.6821,72.6821,0,0,0-13,4,76.1,76.1,0,0,0-17,10,86.5376,86.5376,0,0,0-21,24,112.7369,112.7369,0,0,0-10,21,56.779,56.779,0,0,0-3,10,47.6156,47.6156,0,0,0-1,11c.062.0042.28-1.9224,1-11l-14.3988.1611L547.5,603.5142a4.9975,4.9975,0,0,0-5,4.9858v66a5.0147,5.0147,0,0,0,5,5Z" transform="translate(-540 -295.2195)"/><path class="cls-2" d="M580.5,679.5H798.4734a11.734,11.734,0,0,0,8.1053-3.9188S878.8836,584.3367,889.5,576.5c1.5994-1.1807,7.5172-5.34,7-10-.8853-7.977-19.9467-11.7894-21-12-32.1122-6.4193-72.7414,50.1743-83,65-12.6683,1.3837-81.0089-2.7016-81.0089-2.7016a38.3768,38.3768,0,0,1-9.6518-2.1089s-8.8561-3.44-12.3393-8.1895c-6.0093-8.1937-4.6726-18.3215-4-22,7.3722-10.8844,14.7137-14.6,20-16,7.1757-1.9011,16.0106-1.3252,16.0106-1.3252a35.8845,35.8845,0,0,0,9.8128-.992A133.9755,133.9755,0,0,0,747.5,560.5c23.2074-10.2354,28.7169-20.4232,30-23,.8885-1.7844.9758-2.3878.9318-2.714,0,0-.0132-.0754-.0318-.1509-.4975-2.0283-68.3714-7.0445-100.9-.1351a72.6821,72.6821,0,0,0-13,4,76.1,76.1,0,0,0-17,10,86.5376,86.5376,0,0,0-21,24,112.7369,112.7369,0,0,0-10,21,56.779,56.779,0,0,0-3,10,47.6156,47.6156,0,0,0-1,11c.062.0042.28-1.9224,1-11l-14.3988.1611L547.5,603.5142a4.9975,4.9975,0,0,0-5,4.9858v66a5.0147,5.0147,0,0,0,5,5Z" transform="translate(-540 -295.2195)"/><path class="cls-9" d="M550.5,596.5" transform="translate(-540 -295.2195)"/><path class="cls-10" d="M769.2049,459.8634" transform="translate(-540 -295.2195)"/><line class="cls-11" x1="229.2049" y1="166.2805" x2="229.2049" y2="215.4024"/><polygon class="cls-12" points="228.363 223.28 216.74 203.148 239.987 203.148 228.363 223.28"/></svg>