<?xml version="1.0" encoding="UTF-8" standalone="no"?>
<svg
   xmlns:dc="http://purl.org/dc/elements/1.1/"
   xmlns:cc="http://creativecommons.org/ns#"
   xmlns:rdf="http://www.w3.org/1999/02/22-rdf-syntax-ns#"
   xmlns:svg="http://www.w3.org/2000/svg"
   xmlns="http://www.w3.org/2000/svg"
   xmlns:sodipodi="http://sodipodi.sourceforge.net/DTD/sodipodi-0.dtd"
   xmlns:inkscape="http://www.inkscape.org/namespaces/inkscape"
   width="120"
   height="139"
   viewBox="0 0 120 139"
   version="1.1"
   id="svg17"
   sodipodi:docname="ic_email_sent.svg"
   inkscape:version="1.0.2 (e86c870879, 2021-01-15, custom)">
  <metadata
     id="metadata21">
    <rdf:RDF>
      <cc:Work
         rdf:about="">
        <dc:format>image/svg+xml</dc:format>
        <dc:type
           rdf:resource="http://purl.org/dc/dcmitype/StillImage" />
      </cc:Work>
    </rdf:RDF>
  </metadata>
  <sodipodi:namedview
     pagecolor="#ffffff"
     bordercolor="#666666"
     borderopacity="1"
     objecttolerance="10"
     gridtolerance="10"
     guidetolerance="10"
     inkscape:pageopacity="0"
     inkscape:pageshadow="2"
     inkscape:window-width="1920"
     inkscape:window-height="1017"
     id="namedview19"
     showgrid="false"
     inkscape:zoom="6.2446043"
     inkscape:cx="60"
     inkscape:cy="69.5"
     inkscape:window-x="-8"
     inkscape:window-y="-8"
     inkscape:window-maximized="1"
     inkscape:current-layer="g15" />
  <defs
     id="defs7">
    <linearGradient
       id="ic_email_sent-a"
       x1="49.662%"
       x2="52.228%"
       y1="37.111%"
       y2="76.847%">
      <stop
         offset="0%"
         stop-color="#00AB55"
         id="stop2"
         style="stop-color:#3eb5ff;stop-opacity:1" />
      <stop
         offset="100%"
         stop-color="#007B55"
         id="stop4"
         style="stop-color:#1f6ab7;stop-opacity:1" />
    </linearGradient>
  </defs>
  <g
     fill="none"
     fill-rule="evenodd"
     id="g15">
    <path
       fill="#00ab55"
       d="m 39.258751,65.386842 c -0.399951,0.107759 -0.811531,-0.12911 -0.91929,-0.529061 -0.107759,-0.399951 0.12911,-0.811531 0.529061,-0.91929 0.583801,-0.157293 1.192173,-0.320921 1.930958,-0.519407 0.400028,-0.107474 0.811439,0.129688 0.918912,0.529716 0.107474,0.400028 -0.129688,0.811439 -0.529716,0.918913 -0.738469,0.198401 -1.346515,0.361941 -1.929925,0.519129 z m 7.726344,-2.07887 c -0.399838,0.108178 -0.811667,-0.12826 -0.919844,-0.528098 -0.108178,-0.399837 0.128259,-0.811666 0.528097,-0.919844 0.673278,-0.182158 1.31132,-0.355373 1.928488,-0.5236 0.399633,-0.108931 0.811907,0.126729 0.920838,0.526363 0.108931,0.399633 -0.126729,0.811906 -0.526363,0.920838 -0.618119,0.168486 -1.257064,0.341946 -1.931216,0.524341 z m 7.72041,-2.129057 c -0.398574,0.112743 -0.81308,-0.118969 -0.925823,-0.517543 -0.112744,-0.398575 0.118968,-0.81308 0.517543,-0.925824 0.652348,-0.184528 1.291367,-0.366777 1.919553,-0.547515 0.398066,-0.114529 0.813605,0.115322 0.928135,0.513387 0.114529,0.398065 -0.115322,0.813605 -0.513388,0.928134 -0.630381,0.18137 -1.271553,0.364234 -1.92602,0.549361 z m 7.692006,-2.259611 c -0.396016,0.121426 -0.815485,-0.101173 -0.936911,-0.49719 -0.121425,-0.396015 0.101174,-0.815485 0.49719,-0.936911 0.643118,-0.197191 1.277682,-0.394168 1.904673,-0.591292 0.395145,-0.124232 0.816182,0.09539 0.940414,0.49053 0.124232,0.395145 -0.09538,0.816183 -0.49053,0.940415 -0.630415,0.1982 -1.268364,0.396229 -1.914836,0.594448 z m 7.639693,-2.470913 c -0.391884,0.134162 -0.818329,-0.07476 -0.952492,-0.466646 -0.134163,-0.391884 0.07476,-0.81833 0.466645,-0.952493 0.633781,-0.216977 1.260968,-0.435046 1.882069,-0.654441 0.390564,-0.137961 0.819017,0.06681 0.956978,0.457376 0.137961,0.390564 -0.06681,0.819017 -0.457377,0.956978 -0.625717,0.221026 -1.257487,0.440689 -1.895823,0.659226 z m 7.543931,-2.756709 c -0.385798,0.150773 -0.820775,-0.03975 -0.971547,-0.425552 -0.150773,-0.385799 0.03975,-0.820775 0.425552,-0.971548 0.531361,-0.207659 1.058642,-0.416871 1.578746,-0.626414 0.134457,-0.05499 0.134457,-0.05499 0.26748,-0.109703 0.382996,-0.157755 0.821362,0.02484 0.979117,0.407835 0.157755,0.382997 -0.02484,0.821362 -0.407836,0.979117 -0.135126,0.05558 -0.135126,0.05558 -0.274904,0.112734 -0.528267,0.212841 -1.060405,0.423981 -1.596608,0.633531 z m 7.37926,-3.342822 c -0.361745,0.201776 -0.818569,0.07209 -1.020345,-0.289649 -0.201775,-0.361745 -0.0721,-0.818569 0.28965,-1.020345 0.584491,-0.326021 1.141272,-0.659562 1.673077,-1.003442 0.347829,-0.224917 0.812132,-0.125276 1.037048,0.222554 0.224917,0.347829 0.125276,0.812132 -0.222554,1.037048 -0.559922,0.362062 -1.144605,0.712318 -1.756876,1.053834 z m 6.488218,-5.142056 c -0.250656,0.329764 -0.72118,0.393894 -1.050943,0.143237 -0.329764,-0.250656 -0.393894,-0.72118 -0.143237,-1.050944 0.38404,-0.505243 0.700106,-1.033012 0.932741,-1.565212 0.165903,-0.379538 0.608071,-0.552723 0.987609,-0.386819 0.379537,0.165903 0.552722,0.608071 0.386819,0.987608 -0.282169,0.645518 -0.659309,1.275269 -1.112989,1.87213 z m 0.387331,-8.35675 c 0.225886,0.347201 0.127541,0.811779 -0.21966,1.037665 -0.347201,0.225886 -0.81178,0.12754 -1.037666,-0.219661 -0.325988,-0.501064 -0.714446,-0.980814 -1.164275,-1.442755 -0.288977,-0.296758 -0.282669,-0.77159 0.01409,-1.060567 0.296758,-0.288977 0.77159,-0.282669 1.060567,0.01409 0.515996,0.529891 0.965862,1.085479 1.346945,1.671229 z m -6.47908,-5.277786 c 0.366596,0.192821 0.507469,0.646318 0.314649,1.012915 -0.192821,0.366596 -0.646318,0.507469 -1.012915,0.314649 -0.10695,-0.05625 -0.215659,-0.112807 -0.311173,-0.162205 -0.476957,-0.231975 -0.958256,-0.45042 -1.449362,-0.658145 -0.381491,-0.161361 -0.559942,-0.60143 -0.398581,-0.982921 0.161361,-0.381491 0.60143,-0.559942 0.982921,-0.398581 0.515135,0.217889 1.02035,0.447188 1.536381,0.698385 0.114624,0.05902 0.2272,0.117583 0.33808,0.175903 z m -7.708929,-2.763977 c 0.40292,0.09606 0.651678,0.500568 0.555616,0.903488 -0.09606,0.402921 -0.500568,0.651678 -0.903488,0.555616 -0.627435,-0.149589 -1.268069,-0.286969 -1.92342,-0.412913 -0.406771,-0.07817 -0.673152,-0.471295 -0.59498,-0.878065 0.07817,-0.40677 0.471295,-0.673152 0.878065,-0.59498 0.67671,0.130048 1.338926,0.272056 1.988207,0.426854 z m -8.010232,-1.253524 c 0.41249,0.03775 0.716279,0.402738 0.67853,0.815228 -0.03775,0.41249 -0.402738,0.716278 -0.815228,0.67853 -0.639336,-0.05851 -1.296227,-0.110932 -1.977212,-0.158223 -0.413218,-0.0287 -0.724935,-0.386939 -0.696239,-0.800157 0.0287,-0.413218 0.386939,-0.724935 0.800157,-0.696239 0.691613,0.04803 1.359393,0.101322 2.009992,0.160861 z M 61.57985,27.102833 c 0.413966,0.01434 0.737929,0.361545 0.723591,0.775511 -0.01434,0.413965 -0.361545,0.737928 -0.77551,0.72359 -0.297942,-0.01032 -0.603998,-0.02068 -0.988199,-0.03365 -0.317088,-0.0048 -0.636887,-0.0088 -0.959699,-0.01202 -0.414193,-0.0041 -0.746635,-0.343204 -0.742529,-0.757397 0.0041,-0.414193 0.343203,-0.746635 0.757397,-0.742529 0.325436,0.0032 0.647881,0.0073 0.981293,0.01245 0.398403,0.01332 0.705012,0.0237 1.003656,0.03404 z m -8.003355,-0.0251 c 0.414169,-0.006 0.754821,0.324804 0.760867,0.738973 0.006,0.41417 -0.324803,0.754822 -0.738973,0.760868 -0.639931,0.0093 -1.300724,0.02075 -1.996009,0.03432 -0.414134,0.0081 -0.756411,-0.321082 -0.764497,-0.735217 -0.0081,-0.414135 0.321083,-0.756412 0.735218,-0.764497 0.697654,-0.01362 1.360891,-0.02507 2.003394,-0.03445 z m -8.00629,0.17408 c 0.414089,-0.01017 0.758021,0.317267 0.768192,0.731356 0.01017,0.414088 -0.317266,0.75802 -0.731355,0.768192 -0.78339,0.01924 -1.402186,0.03409 -2.000489,0.04785 -0.414104,0.0095 -0.757523,-0.318451 -0.767047,-0.732555 -0.0095,-0.414104 0.318451,-0.757523 0.732555,-0.767048 0.597399,-0.01374 1.21547,-0.02857 1.998144,-0.04779 z m -7.985886,0.149627 c 0.414199,-0.0036 0.752853,0.329341 0.756434,0.74354 0.0035,0.414198 -0.329369,0.752852 -0.743567,0.756405 -0.419127,0.0036 -0.830987,0.0062 -1.234117,0.0077 -0.25111,0.0019 -0.504497,0.0046 -0.762233,0.0082 -0.414174,0.0057 -0.754563,-0.325405 -0.760279,-0.739579 -0.0057,-0.414174 0.325405,-0.754562 0.739579,-0.760278 0.260842,-0.0036 0.517385,-0.0064 0.774469,-0.0083 0.403461,-0.0015 0.812937,-0.0041 1.229714,-0.0077 z m -8.011059,0.171074 c 0.414087,-0.01023 0.758064,0.317161 0.768295,0.731248 0.01023,0.414087 -0.317161,0.758064 -0.731248,0.768295 -0.734523,0.01815 -1.385738,0.02998 -2.011436,0.0357 -0.414196,0.0038 -0.75304,-0.328911 -0.756862,-0.743108 -0.0038,-0.414196 0.328944,-0.75304 0.74314,-0.756829 0.617214,-0.0056 1.260858,-0.01734 1.988111,-0.03531 z m -7.920806,-0.16042 c 0.412765,0.03462 0.719315,0.39729 0.684698,0.810054 -0.03462,0.412765 -0.39729,0.719315 -0.810055,0.684698 -0.670928,-0.05627 -1.341923,-0.125056 -2.017766,-0.207354 -0.411177,-0.05007 -0.703912,-0.423983 -0.653842,-0.83516 0.05007,-0.411176 0.423983,-0.703911 0.835159,-0.653841 0.657096,0.08001 1.309438,0.146892 1.961806,0.201603 z m -7.788921,-1.229355 c 0.40385,0.09208 0.656594,0.494102 0.564519,0.897952 -0.09207,0.403851 -0.494102,0.656595 -0.897952,0.56452 -0.611551,-0.139429 -1.23286,-0.290104 -1.865201,-0.452485 -0.05419,-0.01399 -0.05419,-0.01399 -0.10585,-0.0276 -0.400401,-0.106075 -0.639,-0.516654 -0.532924,-0.917055 0.106075,-0.400402 0.516654,-0.639 0.917055,-0.532925 0.04603,0.01213 0.04603,0.01213 0.09483,0.02473 0.619217,0.159011 1.227308,0.30648 1.825522,0.442868 z M 6.8762634,23.123767 c 0.322821,0.259537 0.3741227,0.731631 0.1145856,1.054452 C 6.7313119,24.50104 6.2592174,24.552342 5.9363964,24.292805 5.389401,23.853039 4.8724084,23.377598 4.3908274,22.871319 4.1053462,22.571197 4.1172152,22.096471 4.4173374,21.81099 4.7174596,21.525509 5.192185,21.537378 5.4776662,21.8375 c 0.4355722,0.457911 0.9034559,0.88819 1.3985972,1.286267 z M 2.5167727,16.947133 C 2.6440558,17.341306 2.4276994,17.764029 2.033527,17.891312 1.6393546,18.018595 1.2166313,17.802239 1.0893482,17.408066 0.86942754,16.727013 0.70810025,16.034619 0.60793512,15.33612 c -0.058797,-0.410019 0.22592499,-0.79007 0.63594428,-0.848867 0.4100192,-0.0588 0.7900699,0.225925 0.8488668,0.635944 0.087988,0.61358 0.2299962,1.22306 0.4240265,1.823936 z M 2.713292,9.611106 C 2.5751915,10.00162 2.1466649,10.206242 1.7561509,10.068141 1.365637,9.9300406 1.1610154,9.501514 1.2991159,9.111 1.529132,8.4605713 1.8062146,7.8187658 2.1289066,7.1843898 2.3167067,6.815196 2.7682394,6.6681474 3.1374331,6.8559475 3.5066269,7.0437476 3.6536755,7.4952803 3.4658754,7.864474 3.1723058,8.4415986 2.9211206,9.0234181 2.713292,9.611106 Z M 6.8631529,3.1497741 C 6.58107,3.4530926 6.1065084,3.4703075 5.8031899,3.1882246 5.4998714,2.9061417 5.4826565,2.4315801 5.7647394,2.1282616 6.2161095,1.6429117 6.6944999,1.1595906 7.2017901,0.67452917 7.501169,0.38826858 7.9759237,0.39890311 8.2621843,0.69828206 8.5484448,0.997661 8.5378103,1.4724156 8.2384314,1.7586762 7.7517302,2.2240508 7.2938987,2.6866012 6.8631529,3.1497741 Z"
       opacity="0.481"
       transform="translate(25,73)"
       id="path9"
       style="fill:#3eb5ff;fill-opacity:1" />
    <path
       fill="url(#ic_email_sent-a)"
       fill-rule="nonzero"
       d="m 118.93296,0.28622222 c 0.76022,0.19081482 0.9375,1.11081478 0.74318,1.77185188 -0.43637,1.9422222 -1.19318,3.7958518 -1.78978,5.6937778 C 109.58523,33.665185 101.28409,59.578519 92.982955,85.491852 92.798864,86.514074 91.725,87.273926 90.7125,87.052444 80.154545,78.421481 69.569318,69.81437 58.990909,61.207259 54.197727,66.22637 49.476136,71.334074 44.273864,75.934074 c -1.329546,1.09037 -2.652273,2.242074 -4.230682,2.950815 -0.422728,0.129481 -1.179546,0.378222 -1.373864,-0.194222 -0.05795,-1.035852 0.204546,-2.054667 0.310227,-3.076889 1.271591,-9.915556 2.560228,-19.831111 3.913637,-29.736445 C 29.273864,43.863556 15.657955,41.853185 2.0386364,39.853037 1.3125,39.73037 0.34772727,39.597481 0.08522727,38.783111 -0.05795455,37.754074 0.95113636,37.127111 1.7965909,36.861333 7.3636364,35.270074 12.845455,33.402815 18.375,31.685482 51,21.323556 83.628409,10.968444 116.25341,0.60651852 c 0.8625,-0.24874074 1.77614,-0.54518519 2.67955,-0.3202963 z"
       id="path11" />
    <path
       fill="#007b55"
       d="m 51.623864,55.217037 c 2.120454,1.73437 4.223863,3.492593 6.381818,5.179259 -4.973864,5.704 -10.285227,11.162667 -16.029546,16.103408 3.576137,-6.923852 6.668182,-14.086222 9.647728,-21.282667 z M 111.70909,5.9834074 C 103.18636,12.839111 94.5,19.500593 85.9125,26.281333 75.095455,34.76237 64.281818,43.246815 53.461364,51.724444 52.513636,52.484296 51.45,53.114667 50.614773,54.007407 c -0.882955,0.967704 -1.189773,2.276149 -1.667046,3.461926 -1.292045,3.298371 -2.730682,6.542223 -4.084091,9.820148 -1.302272,3.131408 -2.682954,6.249186 -4.49659,9.128445 0.479999,-3.967585 0.990545,-7.930809 1.511563,-11.892506 l 1.5744,-11.883347 v 0 l 0.773127,-5.943555 c 0.08523,-0.463407 0.0375,-1.056296 0.542046,-1.294814 C 55.476136,39.243111 66.071591,32.867852 76.731818,26.618667 88.390909,19.742518 100.05,12.862963 111.70909,5.9834074 Z"
       id="path13"
       style="fill:#1f6ab7;fill-opacity:1" />
  </g>
</svg>
