<?xml version="1.0" encoding="UTF-8"?>
<svg width="40px" height="40px" viewBox="0 0 40 40" version="1.1" xmlns="http://www.w3.org/2000/svg" xmlns:xlink="http://www.w3.org/1999/xlink">
    <title>__🥬Icons/ color/ ic_m_redux</title>
    <defs>
        <linearGradient x1="50%" y1="0%" x2="50%" y2="100%" id="linearGradient-1">
            <stop stop-color="#FFFFFF" stop-opacity="0.5" offset="0%"></stop>
            <stop stop-color="#000000" stop-opacity="0.5" offset="100%"></stop>
        </linearGradient>
        <rect id="path-2" x="0" y="0" width="40" height="40" rx="12"></rect>
        <filter x="-32.5%" y="-34.2%" width="165.0%" height="168.4%" filterUnits="objectBoundingBox" id="filter-4">
            <feOffset dx="0" dy="1" in="SourceAlpha" result="shadowOffsetOuter1"></feOffset>
            <feGaussianBlur stdDeviation="1" in="shadowOffsetOuter1" result="shadowBlurOuter1"></feGaussianBlur>
            <feColorMatrix values="0 0 0 0 0   0 0 0 0 0   0 0 0 0 0  0 0 0 0.48 0" type="matrix" in="shadowBlurOuter1" result="shadowMatrixOuter1"></feColorMatrix>
            <feMerge>
                <feMergeNode in="shadowMatrixOuter1"></feMergeNode>
                <feMergeNode in="SourceGraphic"></feMergeNode>
            </feMerge>
        </filter>
    </defs>
    <g id="__🥬Icons/-color/-ic_m_redux" stroke="none" stroke-width="1" fill="none" fill-rule="evenodd">
        <mask id="mask-3" fill="white">
            <use xlink:href="#path-2"></use>
        </mask>
        <g id="background">
            <use fill-opacity="0.2" fill="#764ABC" xlink:href="#path-2"></use>
            <use fill-opacity="0.16" fill="url(#linearGradient-1)" xlink:href="#path-2"></use>
        </g>
        <g id="#gr" filter="url(#filter-4)" mask="url(#mask-3)" fill="#764ABC" fill-rule="nonzero">
            <g transform="translate(11.000000, 11.000000)" id="Shape">
                <path d="M13.7718168,13.178028 C14.5052795,13.1020963 15.0617236,12.4697981 15.036413,11.7109472 C15.0111801,10.9521739 14.3788043,10.3451087 13.6200311,10.3451087 L13.5694876,10.3451087 C12.7853261,10.3704193 12.1783385,11.028028 12.2036491,11.8121118 C12.2289596,12.1915373 12.3806677,12.5203416 12.6083075,12.7479814 C11.7483696,14.4427019 10.4331522,15.6820652 8.46032609,16.7190994 C7.11979814,17.4273292 5.72872671,17.6802795 4.33765528,17.5032609 C3.19945652,17.3514752 2.31420807,16.8456522 1.75768634,16.0108696 C0.948369565,14.7715062 0.872515528,13.4309006 1.55543478,12.0903727 C2.03602484,11.1291925 2.7947205,10.4209627 3.27531056,10.0668478 C3.17414596,9.73804348 3.02236025,9.18159938 2.94650621,8.77694099 C-0.720962733,11.432764 -0.341537267,15.0244565 0.771350932,16.7190994 C1.60597826,17.9838509 3.30062112,18.7679348 5.17228261,18.7679348 C5.67810559,18.7679348 6.18392857,18.7173137 6.68982919,18.5909161 C9.92732919,17.9585404 12.3807453,16.0361801 13.7718168,13.178028 Z M18.2233696,10.0416149 C16.301087,7.79045031 13.468323,6.55108696 10.230823,6.55108696 L9.8261646,6.55108696 C9.59852484,6.09580745 9.11793478,5.79223602 8.58680124,5.79223602 L8.53618012,5.79223602 C7.75217391,5.81754658 7.14518634,6.47515528 7.17041925,7.25931677 C7.19572981,8.01809006 7.82802795,8.62515528 8.58680124,8.62515528 L8.63734472,8.62515528 C9.19378882,8.59984472 9.67437888,8.24572981 9.87670807,7.76513975 L10.3319876,7.76513975 C12.2542702,7.76513975 14.0753106,8.32158385 15.7194099,9.40923913 C16.9840062,10.2439441 17.8945652,11.3315994 18.4003882,12.6468168 C18.8303571,13.7091615 18.8050466,14.7461957 18.3497671,15.6315217 C17.6416149,16.9720497 16.4528727,17.7055901 14.884705,17.7055901 C13.8729814,17.7055901 12.9118789,17.4020186 12.4059783,17.1743789 C12.127795,17.4273292 11.6218944,17.8319876 11.2677795,18.0850155 C12.3554348,18.5908385 13.468323,18.8690994 14.5305901,18.8690994 C16.9586957,18.8690994 18.7545031,17.5284938 19.4374224,16.1879658 C20.1708851,14.7208851 20.120264,12.1915373 18.2233696,10.0416149 L18.2233696,10.0416149 Z M5.3746118,13.6079193 C5.39992236,14.3667702 6.0322205,14.9737578 6.79099379,14.9737578 L6.84161491,14.9737578 C7.62569876,14.9485248 8.23268634,14.2908385 8.20737578,13.5067547 C8.18214286,12.7479037 7.54976708,12.1409161 6.79099379,12.1409161 L6.74045031,12.1409161 C6.68982919,12.1409161 6.61389752,12.1409161 6.56343168,12.1661491 C5.52639752,10.4461957 5.09642857,8.57453416 5.24821429,6.55100932 C5.34930124,5.03338509 5.85520186,3.71809006 6.74045031,2.63043478 C7.47391304,1.69456522 8.89029503,1.23928571 9.85147516,1.2140528 C12.5324534,1.16343168 13.6705745,4.50217391 13.7465062,5.8427795 C14.0753106,5.91863354 14.6317547,6.09572981 15.0111801,6.22220497 C14.7076087,2.12468944 12.1783385,0 9.75031056,0 C7.47391304,0 5.3746118,1.64409938 4.53990683,4.07228261 C3.37647516,7.30986025 4.13524845,10.4209627 5.55163043,12.8744565 C5.42523292,13.0514752 5.34930124,13.329736 5.3746118,13.6079969 L5.3746118,13.6079193 Z"></path>
            </g>
        </g>
    </g>
</svg>