<svg xmlns="http://www.w3.org/2000/svg" width="24" height="24" viewBox="0 0 24 24">
  <defs>
    <linearGradient id="ic_notification_chat-a" x1="39.907%" x2="113.315%" y1="39.91%" y2="113.318%">
      <stop offset="0%" stop-color="#A7F3CE"/>
      <stop offset="100%" stop-color="#61DB99"/>
    </linearGradient>
    <linearGradient id="ic_notification_chat-b" x1="0%" x2="100%" y1="0%" y2="100%">
      <stop offset="0%" stop-color="#5BE584"/>
      <stop offset="100%" stop-color="#00AB55"/>
    </linearGradient>
    <linearGradient id="ic_notification_chat-c" x1="0%" x2="100%" y1="0%" y2="100%">
      <stop offset="0%" stop-color="#74CAFF"/>
      <stop offset="100%" stop-color="#0C53B7"/>
    </linearGradient>
  </defs>
  <g fill="none" fill-rule="evenodd">
    <path fill="url(#ic_notification_chat-a)" fill-rule="nonzero" d="M15.9546562,7.27185938 C20.3369062,7.20492188 23.9136563,10.6540313 23.9985,15.0359531 C24.0109687,15.6793125 23.9466562,16.3055156 23.8141875,16.9061719 C23.5898438,17.9232188 23.4564844,18.9581719 23.4564844,19.9996875 L23.4564844,22.012875 C23.4564844,22.3213125 23.2064531,22.5713438 22.8980156,22.5713438 L20.8848281,22.5713438 C19.8433125,22.5713438 18.8083594,22.7047031 17.7913125,22.9290469 C17.1907031,23.0615156 16.5645,23.1258281 15.9211406,23.1133594 C11.5392656,23.0285625 8.09015625,19.4519063 8.157,15.06975 C8.22220313,10.7924063 11.6773594,7.33720312 15.9546562,7.27185938 Z"/>
    <path fill="url(#ic_notification_chat-b)" d="M15.9546562,7.27185938 C20.3369062,7.20492188 23.9136563,10.6540313 23.9985,15.0359531 C24.0109687,15.6793125 23.9466562,16.3055156 23.8141875,16.9061719 C23.5898438,17.9232188 23.4564844,18.9581719 23.4564844,19.9996875 L23.4564844,22.012875 C23.4564844,22.3213125 23.2064531,22.5713438 22.8980156,22.5713438 L20.8848281,22.5713438 C19.8433125,22.5713438 18.8083594,22.7047031 17.7913125,22.9290469 C17.1907031,23.0615156 16.5645,23.1258281 15.9211406,23.1133594 C11.5392656,23.0285625 8.09015625,19.4519063 8.157,15.06975 C8.22220313,10.7924063 11.6773594,7.33720312 15.9546562,7.27185938 Z"/>
    <path fill="url(#ic_notification_chat-c)" d="M9.80146875,0.042609375 C4.4626875,-0.038953125 0.105234375,4.16296875 0.001828125,9.501375 C-0.0133125,10.2850781 0.065015625,11.0480625 0.226453125,11.7797813 C0.499734375,13.0187813 0.662203125,14.2796719 0.662203125,15.5485312 L0.662203125,18.001125 C0.662203125,18.376875 0.966796875,18.6815156 1.34259375,18.6815156 L3.7951875,18.6815156 C5.064,18.6815156 6.32489062,18.8439844 7.5639375,19.1172656 C8.29565625,19.2786563 9.05859375,19.3570312 9.84229687,19.3418438 C15.1806094,19.2384844 19.3825312,14.8811719 19.3011562,9.54248438 C19.2216563,4.33153125 15.012375,0.12215625 9.80146875,0.042609375 Z"/>
    <path fill="#0C53B7" d="M6.19654688,9.17526562 C5.92392188,8.88557813 5.53804688,8.70365625 5.10876563,8.70365625 C4.28315625,8.70365625 3.613875,9.3729375 3.613875,10.1985469 C3.613875,10.6277812 3.79575,11.0136563 4.08548438,11.2863281 L7.31020313,14.5110469 C7.582875,14.8007344 7.96875,14.9826562 8.39798438,14.9826562 C9.22359375,14.9826562 9.892875,14.313375 9.892875,13.4877656 C9.892875,13.0585312 9.71095312,12.6726562 9.42126563,12.3999844 L6.19654688,9.17526562 Z"/>
    <path fill="#0C53B7" d="M10.4242031,9.17526562 C10.1515781,8.88557813 9.76570313,8.70365625 9.33642188,8.70365625 C8.5108125,8.70365625 7.84153125,9.3729375 7.84153125,10.1985469 C7.84153125,10.6277812 8.02340625,11.0136563 8.31314063,11.2863281 L11.5378594,14.5110469 C11.8105313,14.8007344 12.1964063,14.9826562 12.6256406,14.9826562 C13.45125,14.9826562 14.1205313,14.313375 14.1205313,13.4877656 C14.1205313,13.0585312 13.9386094,12.6726562 13.6489219,12.3999844 L10.4242031,9.17526562 Z"/>
    <path fill="#0C53B7" d="M14.6518125,9.17526562 C14.3791875,8.88557813 13.9933125,8.70365625 13.5640312,8.70365625 C12.7384219,8.70365625 12.0691406,9.3729375 12.0691406,10.1985469 C12.0691406,10.6277812 12.2510625,11.0136563 12.54075,11.2863281 L15.7654687,14.5110469 C16.0381406,14.8007344 16.4240156,14.9826562 16.85325,14.9826562 C17.6788594,14.9826562 18.3481406,14.313375 18.3481406,13.4877656 C18.3481406,13.0585312 18.1662187,12.6726562 17.8765312,12.3999844 L14.6518125,9.17526562 Z"/>
    <circle cx="5.109" cy="10.198" r="1.495" fill="#FFF" fill-rule="nonzero"/>
    <circle cx="9.336" cy="10.198" r="1.495" fill="#FFF" fill-rule="nonzero"/>
    <circle cx="13.564" cy="10.198" r="1.495" fill="#FFF" fill-rule="nonzero"/>
  </g>
</svg>
