<svg xmlns="http://www.w3.org/2000/svg" xmlns:xlink="http://www.w3.org/1999/xlink" width="80" height="80" viewBox="0 0 80 80">
  <defs>
    <rect id="ic_plan_starter-a" width="80" height="80" x="0" y="0"/>
    <rect id="ic_plan_starter-c" width="80" height="79.85" x="0" y="0"/>
    <rect id="ic_plan_starter-e" width="80" height="79.85" x="0" y="0"/>
  </defs>
  <g fill="none" fill-rule="evenodd">
    <mask id="ic_plan_starter-b" fill="#fff">
      <use xlink:href="#ic_plan_starter-a"/>
    </mask>
    <g mask="url(#ic_plan_starter-b)">
      <g transform="translate(0 -5)">
        <g transform="translate(0 9.15)">
          <mask id="ic_plan_starter-d" fill="#fff">
            <use xlink:href="#ic_plan_starter-c"/>
          </mask>
          <g mask="url(#ic_plan_starter-d)">
            <g transform="translate(9.167 19.963)">
              <rect width="8.333" height="7.486" x="53.333" y="17.467" fill="#007B55"/>
              <path fill="#005249" d="M0.935161949,20.4505445 L25.96332,8.013773 C27.3880624,7.30580256 29.0629899,7.31030073 30.4839103,8.02591345 L60.7395623,23.2634523 C61.5703446,23.6818561 61.904693,24.6946198 61.4863504,25.5255234 C61.326648,25.842721 61.0707914,26.1013198 60.7553368,26.2643718 L35.4171622,39.3611552 C33.9425662,40.1233437 32.1877226,40.1125478 30.7226132,39.3322741 L0.892950307,23.4458838 C0.0719286025,23.0086321 -0.239230189,21.9885028 0.197957694,21.1673612 C0.362979937,20.8574106 0.620728863,20.6067898 0.935161949,20.4505445 Z"/>
              <path fill="#007B55" d="M32.5,34.2035394 L32.5,38.3889909 C32.5,39.0142798 31.992154,39.5211766 31.3656941,39.5211766 C31.217184,39.5211766 31.0704896,39.4920718 30.9338239,39.4359053 L30.8333333,39.3887383 L30.833159,31.8521182 C31.8320172,32.2039596 32.5,33.1462865 32.5,34.2035394 Z M0.833333333,15.9318318 L30.8333333,31.8521182 L30.8333333,39.3887383 L0.833158981,23.4661556 L0.8325,23.4469252 L0.718456996,23.3803909 C0.273076963,23.0932265 0,22.5983126 0,22.0630946 L0,14.1401869 L0.833333333,15.9318318 Z"/>
              <path fill="#00AB55" fill-rule="nonzero" d="M0.935161949,12.9645632 L25.96332,0.527791688 C27.3880624,-0.180178748 29.0629899,-0.175680578 30.4839103,0.539932142 L60.7395623,15.777471 C61.5703446,16.1958747 61.904693,17.2086385 61.4863504,18.0395421 C61.326648,18.3567397 61.0707914,18.6153385 60.7553368,18.7783905 L35.4171622,31.8751739 C33.9425662,32.6373624 32.1877226,32.6265665 30.7226132,31.8462928 L0.892950307,15.9599025 C0.0719286025,15.5226508 -0.239230189,14.5025215 0.197957694,13.6813799 C0.362979937,13.3714293 0.620728863,13.1208085 0.935161949,12.9645632 Z"/>
            </g>
          </g>
        </g>
        <mask id="ic_plan_starter-f" fill="#fff">
          <use xlink:href="#ic_plan_starter-e"/>
        </mask>
        <g mask="url(#ic_plan_starter-f)">
          <g transform="translate(9.167 19.963)">
            <rect width="8.333" height="7.486" x="53.333" y="17.467" fill="#007B55"/>
            <path fill="#005249" d="M0.935161949,20.4505445 L25.96332,8.013773 C27.3880624,7.30580256 29.0629899,7.31030073 30.4839103,8.02591345 L60.7395623,23.2634523 C61.5703446,23.6818561 61.904693,24.6946198 61.4863504,25.5255234 C61.326648,25.842721 61.0707914,26.1013198 60.7553368,26.2643718 L35.4171622,39.3611552 C33.9425662,40.1233437 32.1877226,40.1125478 30.7226132,39.3322741 L0.892950307,23.4458838 C0.0719286025,23.0086321 -0.239230189,21.9885028 0.197957694,21.1673612 C0.362979937,20.8574106 0.620728863,20.6067898 0.935161949,20.4505445 Z"/>
            <path fill="#007B55" d="M32.5,34.2035394 L32.5,38.3889909 C32.5,39.0142798 31.992154,39.5211766 31.3656941,39.5211766 C31.217184,39.5211766 31.0704896,39.4920718 30.9338239,39.4359053 L30.8333333,39.3887383 L30.833159,31.8521182 C31.8320172,32.2039596 32.5,33.1462865 32.5,34.2035394 Z M0.833333333,15.9318318 L30.8333333,31.8521182 L30.8333333,39.3887383 L0.833158981,23.4661556 L0.8325,23.4469252 L0.718456996,23.3803909 C0.273076963,23.0932265 0,22.5983126 0,22.0630946 L0,14.1401869 L0.833333333,15.9318318 Z"/>
            <path fill="#00AB55" fill-rule="nonzero" d="M0.935161949,12.9645632 L25.96332,0.527791688 C27.3880624,-0.180178748 29.0629899,-0.175680578 30.4839103,0.539932142 L60.7395623,15.777471 C61.5703446,16.1958747 61.904693,17.2086385 61.4863504,18.0395421 C61.326648,18.3567397 61.0707914,18.6153385 60.7553368,18.7783905 L35.4171622,31.8751739 C33.9425662,32.6373624 32.1877226,32.6265665 30.7226132,31.8462928 L0.892950307,15.9599025 C0.0719286025,15.5226508 -0.239230189,14.5025215 0.197957694,13.6813799 C0.362979937,13.3714293 0.620728863,13.1208085 0.935161949,12.9645632 Z"/>
          </g>
        </g>
      </g>
    </g>
  </g>
</svg>
