<?xml version="1.0" encoding="utf-8"?>
<!-- Uploaded to SVGRepo https://www.svgrepo.com -->
<svg version="1.1" id="Layer_1" xmlns="http://www.w3.org/2000/svg" xmlns:xlink="http://www.w3.org/1999/xlink" x="0px" y="0px"
	 viewBox="0 0 256 173" style="enable-background:new 0 0 256 173;" xml:space="preserve">
<path d="M128.3,56.9c15.2,0,27.4-12.2,27.4-27.4S143.5,2,128.3,2c-15.2,0-27.4,12.2-27.4,27.4C100.9,44.7,113.2,56.9,128.3,56.9z
	 M64.6,136.3H15.3c-16,0-16.9-24.4,0.3-24.4h42.7l24.5-36.1C90,66,98.3,61.3,109.9,61.3h36.5c11.7,0,19.9,4.3,27.1,14.6l24.6,36.1
	h43c17.2,0,16.2,24.4,0.6,24.4h-49.3c-3.9,0-8.6-1.4-11.4-5.6l-18.8-26.8l-0.1,67.2H94.8l-0.1-67.2l-18.8,26.8
	C73.2,134.9,68.5,136.3,64.6,136.3z M31,98.5c16,0,29-13,29-29s-13-29-29-29S2,53.5,2,69.6C2,85.6,15,98.5,31,98.5z M29.4,72
	c-5.3-1.9-8.6-4.6-8.6-9.3c0-4.4,2.9-7.9,8.3-9v-4.8h4v4.6c3.3,0,5.7,0.7,7.5,1.6l-1.6,5.7c-1.3-0.5-3.5-1.5-6.4-1.5
	s-4.6,1.5-4.6,2.9c0,2,1.9,2.8,5.9,4.4c5.5,2,8,4.8,8,9.3s-2.8,8-8.7,9.3v4.6h-4v-4.4c-3.5,0-7-0.9-8.6-1.9l1.5-5.9
	c1.9,0.9,4.8,2,7.9,2c3.3,0,5-1.5,5-3.5S33.2,73.5,29.4,72z M225,40.5c-16,0-29,13-29,29s13,29,29,29c16,0,29-13,29-29
	S241,40.5,225,40.5z M236.5,86.2l-11.5-6l-11.4,6l2.2-12.7l-9.3-9l12.8-1.9L225,51l5.7,11.6l12.8,1.8l-9.2,9L236.5,86.2z"/>
</svg>
