<svg xmlns="http://www.w3.org/2000/svg" xmlns:xlink="http://www.w3.org/1999/xlink" width="80" height="80" viewBox="0 0 80 80">
  <defs>
    <rect id="ic_plan_premium-a" width="80" height="80" x="0" y="0"/>
    <rect id="ic_plan_premium-c" width="80" height="79.729" x="0" y="0"/>
    <rect id="ic_plan_premium-e" width="80" height="79.729" x="0" y="0"/>
    <rect id="ic_plan_premium-g" width="80" height="79.729" x="0" y="0"/>
  </defs>
  <g fill="none" fill-rule="evenodd">
    <mask id="ic_plan_premium-b" fill="#fff">
      <use xlink:href="#ic_plan_premium-a"/>
    </mask>
    <g mask="url(#ic_plan_premium-b)">
      <g transform="translate(0 -9)">
        <g transform="translate(0 18.271)">
          <mask id="ic_plan_premium-d" fill="#fff">
            <use xlink:href="#ic_plan_premium-c"/>
          </mask>
          <g mask="url(#ic_plan_premium-d)">
            <g transform="translate(9.167 19.932)">
              <rect width="8.333" height="7.475" x="53.333" y="17.441" fill="#007B55"/>
              <path fill="#005249" d="M0.935161949,20.4193877 L25.96332,8.00156386 C27.3880624,7.29467203 29.0629899,7.29916335 30.4839103,8.01368582 L60.7395623,23.22801 C61.5703446,23.6457763 61.904693,24.6569971 61.4863504,25.4866348 C61.326648,25.8033491 61.0707914,26.061554 60.7553368,26.2243575 L35.4171622,39.3011877 C33.9425662,40.062215 32.1877226,40.0514355 30.7226132,39.2723506 L0.892950307,23.4101636 C0.0719286025,22.973578 -0.239230189,21.9550029 0.197957694,21.1351123 C0.362979937,20.825634 0.620728863,20.575395 0.935161949,20.4193877 Z"/>
              <path fill="#007B55" d="M32.5,34.1514296 L32.5,38.3305046 C32.5,38.9548408 31.992154,39.4609653 31.3656941,39.4609653 C31.217184,39.4609653 31.0704896,39.4319048 30.9338239,39.3758239 L30.8333333,39.3287288 L30.833159,31.8035909 C31.8320172,32.1548963 32.5,33.0957875 32.5,34.1514296 Z M0.833333333,15.9075593 L30.8333333,31.8035909 L30.8333333,39.3287288 L0.833158981,23.4304044 L0.8325,23.4112034 L0.718456996,23.3447704 C0.273076963,23.0580435 0,22.5638837 0,22.029481 L0,14.1186441 L0.833333333,15.9075593 Z"/>
              <path fill="#00AB55" fill-rule="nonzero" d="M0.935161949,12.9448114 L25.96332,0.526987588 C27.3880624,-0.179904242 29.0629899,-0.175412926 30.4839103,0.539109545 L60.7395623,15.7534337 C61.5703446,16.1712 61.904693,17.1824208 61.4863504,18.0120585 C61.326648,18.3287728 61.0707914,18.5869777 60.7553368,18.7497813 L35.4171622,31.8266115 C33.9425662,32.5876387 32.1877226,32.5768593 30.7226132,31.7977744 L0.892950307,15.9355873 C0.0719286025,15.4990017 -0.239230189,14.4804266 0.197957694,13.660536 C0.362979937,13.3510577 0.620728863,13.1008187 0.935161949,12.9448114 Z"/>
            </g>
          </g>
        </g>
        <g transform="translate(0 9.136)">
          <mask id="ic_plan_premium-f" fill="#fff">
            <use xlink:href="#ic_plan_premium-e"/>
          </mask>
          <g mask="url(#ic_plan_premium-f)">
            <g transform="translate(9.167 19.932)">
              <rect width="8.333" height="7.475" x="53.333" y="17.441" fill="#007B55"/>
              <path fill="#005249" d="M0.935161949,20.4193877 L25.96332,8.00156386 C27.3880624,7.29467203 29.0629899,7.29916335 30.4839103,8.01368582 L60.7395623,23.22801 C61.5703446,23.6457763 61.904693,24.6569971 61.4863504,25.4866348 C61.326648,25.8033491 61.0707914,26.061554 60.7553368,26.2243575 L35.4171622,39.3011877 C33.9425662,40.062215 32.1877226,40.0514355 30.7226132,39.2723506 L0.892950307,23.4101636 C0.0719286025,22.973578 -0.239230189,21.9550029 0.197957694,21.1351123 C0.362979937,20.825634 0.620728863,20.575395 0.935161949,20.4193877 Z"/>
              <path fill="#007B55" d="M32.5,34.1514296 L32.5,38.3305046 C32.5,38.9548408 31.992154,39.4609653 31.3656941,39.4609653 C31.217184,39.4609653 31.0704896,39.4319048 30.9338239,39.3758239 L30.8333333,39.3287288 L30.833159,31.8035909 C31.8320172,32.1548963 32.5,33.0957875 32.5,34.1514296 Z M0.833333333,15.9075593 L30.8333333,31.8035909 L30.8333333,39.3287288 L0.833158981,23.4304044 L0.8325,23.4112034 L0.718456996,23.3447704 C0.273076963,23.0580435 0,22.5638837 0,22.029481 L0,14.1186441 L0.833333333,15.9075593 Z"/>
              <path fill="#00AB55" fill-rule="nonzero" d="M0.935161949,12.9448114 L25.96332,0.526987588 C27.3880624,-0.179904242 29.0629899,-0.175412926 30.4839103,0.539109545 L60.7395623,15.7534337 C61.5703446,16.1712 61.904693,17.1824208 61.4863504,18.0120585 C61.326648,18.3287728 61.0707914,18.5869777 60.7553368,18.7497813 L35.4171622,31.8266115 C33.9425662,32.5876387 32.1877226,32.5768593 30.7226132,31.7977744 L0.892950307,15.9355873 C0.0719286025,15.4990017 -0.239230189,14.4804266 0.197957694,13.660536 C0.362979937,13.3510577 0.620728863,13.1008187 0.935161949,12.9448114 Z"/>
            </g>
          </g>
        </g>
        <mask id="ic_plan_premium-h" fill="#fff">
          <use xlink:href="#ic_plan_premium-g"/>
        </mask>
        <g mask="url(#ic_plan_premium-h)">
          <g transform="translate(9.167 19.932)">
            <rect width="8.333" height="7.475" x="53.333" y="17.441" fill="#007B55"/>
            <path fill="#005249" d="M0.935161949,20.4193877 L25.96332,8.00156386 C27.3880624,7.29467203 29.0629899,7.29916335 30.4839103,8.01368582 L60.7395623,23.22801 C61.5703446,23.6457763 61.904693,24.6569971 61.4863504,25.4866348 C61.326648,25.8033491 61.0707914,26.061554 60.7553368,26.2243575 L35.4171622,39.3011877 C33.9425662,40.062215 32.1877226,40.0514355 30.7226132,39.2723506 L0.892950307,23.4101636 C0.0719286025,22.973578 -0.239230189,21.9550029 0.197957694,21.1351123 C0.362979937,20.825634 0.620728863,20.575395 0.935161949,20.4193877 Z"/>
            <path fill="#007B55" d="M32.5,34.1514296 L32.5,38.3305046 C32.5,38.9548408 31.992154,39.4609653 31.3656941,39.4609653 C31.217184,39.4609653 31.0704896,39.4319048 30.9338239,39.3758239 L30.8333333,39.3287288 L30.833159,31.8035909 C31.8320172,32.1548963 32.5,33.0957875 32.5,34.1514296 Z M0.833333333,15.9075593 L30.8333333,31.8035909 L30.8333333,39.3287288 L0.833158981,23.4304044 L0.8325,23.4112034 L0.718456996,23.3447704 C0.273076963,23.0580435 0,22.5638837 0,22.029481 L0,14.1186441 L0.833333333,15.9075593 Z"/>
            <path fill="#00AB55" fill-rule="nonzero" d="M0.935161949,12.9448114 L25.96332,0.526987588 C27.3880624,-0.179904242 29.0629899,-0.175412926 30.4839103,0.539109545 L60.7395623,15.7534337 C61.5703446,16.1712 61.904693,17.1824208 61.4863504,18.0120585 C61.326648,18.3287728 61.0707914,18.5869777 60.7553368,18.7497813 L35.4171622,31.8266115 C33.9425662,32.5876387 32.1877226,32.5768593 30.7226132,31.7977744 L0.892950307,15.9355873 C0.0719286025,15.4990017 -0.239230189,14.4804266 0.197957694,13.660536 C0.362979937,13.3510577 0.620728863,13.1008187 0.935161949,12.9448114 Z"/>
          </g>
        </g>
      </g>
    </g>
  </g>
</svg>
