<svg xmlns="http://www.w3.org/2000/svg" width="24" height="24" viewBox="0 0 24 24">
  <g transform="translate(2.5 1.5)">
    <path d="M7.29171754,17.25 C5.33920289,17.25 3.75,15.6607971 3.75,13.7082825 L3.75,5.16671754 L2.29171754,5.16671754 C1.02752687,5.16671754 0,6.1940918 0,7.45828246 L0,18.7082825 C0,19.9724731 1.02752687,21 2.29171754,21 L12.7082825,21 C13.9724731,21 15,19.9724731 15,18.7082825 L15,17.25 L7.29171754,17.25 Z" opacity=".48"/>
    <path d="M18.3332825,2.44449871 C18.3332825,1.09423829 17.3074341,0 16.0417175,0 L7.29171754,0 C6.0258484,0 5,1.09423829 5,2.44449871 L5,13.5555013 C5,14.9057617 6.0258484,16 7.29171754,16 L16.0417175,16 C17.3074341,16 18.3332825,14.9057617 18.3332825,13.5555013 L18.3332825,2.44449871 Z"/>
  </g>
</svg>
