<?xml version="1.0" standalone="no"?>
<!DOCTYPE svg PUBLIC "-//W3C//DTD SVG 20010904//EN"
 "http://www.w3.org/TR/2001/REC-SVG-20010904/DTD/svg10.dtd">
<svg version="1.0" xmlns="http://www.w3.org/2000/svg"
 width="512.000000pt" height="512.000000pt" viewBox="0 0 512.000000 512.000000"
 preserveAspectRatio="xMidYMid meet">
<metadata>
Created by potrace 1.11, written by Peter Selinger 2001-2013
</metadata>
<g transform="translate(0.000000,512.000000) scale(0.100000,-0.100000)"
fill="#000000" stroke="none">
<path d="M2720 5099 c-1082 -119 -1957 -869 -2220 -1902 -63 -249 -74 -346
-75 -637 0 -281 11 -383 66 -607 124 -511 414 -988 805 -1323 548 -471 1240
-690 1945 -615 335 35 594 113 907 271 206 104 244 131 295 206 169 249 4 589
-293 606 -105 6 -161 -9 -272 -75 -506 -301 -1144 -327 -1673 -69 -644 315
-1032 964 -1001 1676 14 335 129 674 324 950 89 127 320 358 437 437 246 166
525 271 804 303 148 18 407 8 545 -19 216 -44 449 -138 641 -261 96 -61 155
-80 247 -80 337 0 513 404 282 650 -71 76 -294 208 -495 293 -199 85 -413 145
-646 183 -118 18 -500 27 -623 13z"/>
</g>
</svg>
