<?xml version="1.0" encoding="utf-8"?>
<!-- Generator: Adobe Illustrator 25.4.1, SVG Export Plug-In . SVG Version: 6.00 Build 0)  -->
<svg version="1.1" id="Icon_Name" xmlns="http://www.w3.org/2000/svg" xmlns:xlink="http://www.w3.org/1999/xlink" x="0px" y="0px"
	 viewBox="0 0 10.1 10.1" style="enable-background:new 0 0 10.1 10.1;" xml:space="preserve">
<style type="text/css">
	.st0{fill:url(#SVGID_1_);}
	.st1{fill:#FFFFFF;}
	.st2{fill:url(#circle17_00000082354383162002896250000007677764762955471796_);}
	.st3{fill:none;stroke:#FFFFFF;stroke-width:8.000000e-02;stroke-miterlimit:10;}
</style>
<g>
	
		<linearGradient id="SVGID_1_" gradientUnits="userSpaceOnUse" x1="1.0633" y1="-1057.0472" x2="5.6976" y2="-1061.8457" gradientTransform="matrix(1 0 0 -1 0 -1056)">
		<stop  offset="0" style="stop-color:#2BB673"/>
		<stop  offset="0.1761" style="stop-color:#2AB379"/>
		<stop  offset="0.4135" style="stop-color:#28AC8A"/>
		<stop  offset="0.6846" style="stop-color:#24A0A6"/>
		<stop  offset="0.8571" style="stop-color:#2196BC"/>
	</linearGradient>
	<circle class="st0" cx="3.5" cy="3.6" r="3.5"/>
	<path class="st1" d="M5.6,2.8V2.3H4.4L3.8,0.8H3L2.6,2.3H1.4v0.4h1.1L2.3,3.5H1.4v0.4h0.7L1.5,5.4h0.6L2.5,4h1.7l0.5,1.4h0.6
		L4.9,3.9h0.7V3.6H4.7L4.5,2.8H5.6z M3.2,2.2c0.1-0.3,0.2-0.5,0.2-0.8l0,0c0.1,0.3,0.2,0.5,0.3,0.8l0.1,0.2H3.1L3.2,2.2z M4.2,3.6
		H2.7L3,2.9h0.9L4.2,3.6z"/>
</g>
<g>
	
		<linearGradient id="circle17_00000013182113856055062840000004399097263646439073_" gradientUnits="userSpaceOnUse" x1="8.9749" y1="1076.2966" x2="2.8499" y2="1071.6675" gradientTransform="matrix(1 0 0 1 0 -1068)">
		<stop  offset="0" style="stop-color:#2BB673"/>
		<stop  offset="0.1754" style="stop-color:#2AB37A"/>
		<stop  offset="0.428" style="stop-color:#27AB8D"/>
		<stop  offset="0.7258" style="stop-color:#239DAC"/>
		<stop  offset="0.8571" style="stop-color:#2196BC"/>
	</linearGradient>
	
		<circle id="circle17" style="fill:url(#circle17_00000013182113856055062840000004399097263646439073_);" cx="6.3" cy="6.3" r="3.8"/>
	<path id="path19" class="st1" d="M3.9,8.9c0.2-0.2,0.3-0.4,0.5-0.6C4.6,8,4.7,7.7,4.8,7.5c0.1-0.5,0.2-1,0.3-1.7
		c0.3-1.2,1.2-2.1,2.4-2.4c0.3,0,0.6,0,0.9,0.1c0.1,0,0.2,0.1,0.3,0.1s0.1,0.1,0.2,0.2c0,0.1,0,0.2,0,0.2L8.7,4.1
		C8.6,4.2,8.5,4.2,8.4,4.3c-0.3,0.5-0.5,1-0.6,1.6c-0.1,0.5-0.1,1,0.1,1.6C8,8,8.3,8.5,8.7,8.9l0,0c-0.5-0.3-1-0.8-1-1.3
		C7.5,7,7.5,6.4,7.6,5.8c0.1-0.3,0.1-0.5,0.2-0.9C7.8,4.7,8,4.3,8.2,4.2c0.1-0.1,0.2-0.3,0.3-0.3l0,0v0.1l0,0c0,0-0.1-0.1-0.2-0.1
		C8,3.9,7.7,3.9,7.5,3.9c-1,0.2-1.9,1-2.2,2C5.2,6.4,5.1,7,5,7.6C4.9,7.8,4.7,8.1,4.5,8.3C4.4,8.5,4.2,8.7,3.9,8.9L3.9,8.9z"/>
	<path id="path21" class="st1" d="M5.4,6.9c0-1.2,0.7-2.3,1.8-2.8C6.8,4.4,6.4,4.8,6,5.3C5.8,5.7,5.6,6.3,5.4,6.9L5.4,6.9z"/>
	<path id="path23" class="st3" d="M7.3,7.6V7.5H6.7L6.5,6.8H6.2L6,7.5H5.4v0.2h0.4L5.7,7.9H5.4v0.2h0.3L5.4,8.7h0.3l0.2-0.6h0.7
		l0.2,0.6H7L6.7,8.1h0.6V7.9H6.9L6.8,7.6H7.3z M6.3,7.4c0-0.1,0.1-0.3,0.1-0.3l0,0c0,0.1,0.1,0.3,0.1,0.3v0.1L6.3,7.4L6.3,7.4z
		 M6.6,8H6.1l0.1-0.3h0.4V8z"/>
</g>
</svg>
