<?xml version="1.0" encoding="utf-8"?>
<!-- Generator: Adobe Illustrator 25.4.1, SVG Export Plug-In . SVG Version: 6.00 Build 0)  -->
<svg version="1.1" id="Layer_1" xmlns="http://www.w3.org/2000/svg" xmlns:xlink="http://www.w3.org/1999/xlink" x="0px" y="0px"
	 viewBox="0 0 254 254" style="enable-background:new 0 0 254 254;" xml:space="preserve">
<style type="text/css">
	.st0{fill:url(#SVGID_1_);}
	.st1{fill:#FFFFFF;}
</style>
<image style="overflow:visible;" width="512" height="512" xlink:href="C:\Users\Kyle\Downloads\avaware.png"  transform="matrix(0.3519 0 0 0.3519 0 0)">
</image>
<g id="Layer_2_00000058582987011823929040000016561715692950224273_">
	<g id="Icon_Name">
		
			<linearGradient id="SVGID_1_" gradientUnits="userSpaceOnUse" x1="227.8025" y1="1036.5559" x2="87.8642" y2="930.7927" gradientTransform="matrix(1 0 0 1 0 -824)">
			<stop  offset="0" style="stop-color:#2BB673"/>
			<stop  offset="0.1754" style="stop-color:#2AB37A"/>
			<stop  offset="0.428" style="stop-color:#27AB8D"/>
			<stop  offset="0.7258" style="stop-color:#239DAC"/>
			<stop  offset="0.8571" style="stop-color:#2196BC"/>
		</linearGradient>
		<circle class="st0" cx="166.6" cy="166.3" r="87.7"/>
		<path class="st1" d="M113,225.1c4.6-4.2,8.6-9,12-14.2c2.9-5.5,5.2-11.3,6.7-17.4c3-12.4,4.6-24.4,7.8-37.2
			c5.8-27,27.2-47.8,54.3-53.1c6.9-0.8,14-0.2,20.7,1.9c1.9,0.6,3.8,1.4,5.5,2.5c1.5,0.9,2.6,2.3,3.3,4c0.6,1.6,0.4,3.4-0.4,4.9
			c-0.5,0.8-1.1,1.5-1.7,2c-2.3,1.8-4.4,3.9-6.2,6.2c-6.6,9.9-10.7,21.2-12.1,33c-2.2,11.9-2,24.1,0.4,36c1.9,12.1,7.9,23.3,17,31.5
			l-0.4,0.6c-12.1-6-20.9-17-24.1-30.2c-3.8-12.8-4.4-26.4-2-39.5c1.1-6.4,2.7-12.8,4.6-19.1c1.8-6.8,5-13.1,9.5-18.4
			c2.2-2.6,4.6-5,7.3-7c0.2-0.1,0.3-0.4-0.1,0.3c-0.5,0.8-0.6,1.8-0.3,2.6c0.4,1,0.6,0.7,0.1,0.5c-1-0.6-2-1.1-3.1-1.4
			c-5.5-1.7-11.2-2.4-16.9-1.8c-24.2,4.2-43.7,22.3-49.6,46.1c-3.2,11.7-5.9,24.8-9.7,36.8c-1.9,6.2-4.6,12.1-8,17.6
			c-3.9,5.1-8.6,9.6-13.9,13.4L113,225.1z"/>
		<path class="st1" d="M147.2,179.3c-0.1-27.7,16.3-52.7,41.8-63.5c-10.7,7.4-19.9,16.8-26.9,27.7c-6.8,11-11.8,23.1-14.6,35.8
			H147.2z"/>
		<path class="st1" d="M188.3,224.3h-7.8l-4.9-14.4h-15.2l-4.8,14.4H148l5-14.7h-6.6v-5.8h8.6l1.8-5.4h-10.4v-5.9h12.4l5.2-15.4h8.1
			l5.2,15.4h12.3v5.9h-10.3l1.9,5.4h8.5v5.8h-6.5L188.3,224.3z M181.6,223h4.9l-5-14.7h7v-3.1h-8.1l-2.8-8.2h10.9v-3.1h-11.9
			l-5.2-15.4h-6.1l-5.2,15.4h-12v3.1H159l-2.8,8.2H148v3.1h7.1l-5,14.7h4.6l4.8-14.4h17.2L181.6,223z M175.9,205.2h-15.6l2.8-8.2
			h10.1L175.9,205.2z M162.2,203.8H174l-1.8-5.4H164L162.2,203.8z M172,193.9h-8l0.9-2.8c0.8-2.4,1.5-5,2.3-8.2l0.1-0.5h1.1l0.3,0.5
			c0.7,2.7,1.4,5.4,2.4,8.3L172,193.9z M166,192.5h4.1l-0.3-0.9c-0.7-2.1-1.3-4.1-1.8-6.1c-0.6,2.2-1.1,4.1-1.7,6l0,0L166,192.5z"/>
	</g>
</g>
</svg>
