<?xml version="1.0" encoding="utf-8"?>
<!-- Generator: Adobe Illustrator 25.4.1, SVG Export Plug-In . SVG Version: 6.00 Build 0)  -->
<svg version="1.1" id="Layer_1" xmlns="http://www.w3.org/2000/svg" xmlns:xlink="http://www.w3.org/1999/xlink" x="0px" y="0px"
	 viewBox="0 0 2000 2000" style="enable-background:new 0 0 2000 2000;" xml:space="preserve">
<style type="text/css">
	.st0{fill:#2775CA;}
	.st1{fill:#FFFFFF;}
	.st2{fill:url(#SVGID_1_);}
</style>
<g>
	<path class="st0" d="M620.5,1360.3c343.9,0,620.5-276.6,620.5-620.5S964.4,119.3,620.5,119.3S0,395.9,0,739.8
		S276.6,1360.3,620.5,1360.3z"/>
	<path class="st1" d="M791.2,838c0-90.4-54.3-121.5-162.9-134.5c-77.6-10.4-93.1-31-93.1-67.2s25.9-59.5,77.6-59.5
		c46.5,0,72.4,15.5,85.4,54.3c2.6,7.8,10.4,12.9,18.1,12.9h41.4c10.4,0,18.1-7.8,18.1-18.1v-2.6c-10.4-56.9-56.9-100.8-116.3-106
		v-62c0-10.4-7.8-18.1-20.6-20.6h-38.8c-10.4,0-18.1,7.8-20.6,20.6v59.5c-77.7,10.3-126.9,62-126.9,126.7
		c0,85.4,51.7,118.9,160.3,131.9c72.4,12.9,95.7,28.4,95.7,69.8S672.3,913,623.2,913c-67.2,0-90.4-28.4-98.2-67.2
		c-2.6-10.4-10.4-15.5-18.1-15.5h-43.9c-10.4,0-18.1,7.8-18.1,18.1v2.6c10.4,64.6,51.7,111.2,137.1,124.1v62
		c0,10.4,7.8,18.1,20.6,20.6h38.8c10.4,0,18.1-7.8,20.6-20.6v-62C739.5,962.1,791.2,907.8,791.2,838L791.2,838z"/>
	<path class="st1" d="M488.7,1109.5C287,1037.1,183.5,812.1,258.5,613.1C297.3,504.4,382.7,421.8,488.7,383
		c10.4-5.2,15.5-12.9,15.5-25.9v-36.2c0-10.4-5.2-18.1-15.5-20.6c-2.6,0-7.8,0-10.4,2.6c-245.6,77.7-380,338.7-302.5,584.4
		c46.5,144.8,157.8,256,302.5,302.5c10.4,5.2,20.6,0,23.3-10.4c2.6-2.6,2.6-5.2,2.6-10.4v-36.2
		C504.1,1125.1,496.4,1114.7,488.7,1109.5z M762.8,302.8c-10.4-5.2-20.6,0-23.3,10.4c-2.6,2.6-2.6,5.2-2.6,10.4v36.2
		c0,10.4,7.8,20.6,15.5,25.9c201.7,72.4,305.2,297.4,230.1,496.4c-38.8,108.6-124.1,191.3-230.1,230.1
		c-10.4,5.2-15.5,12.9-15.5,25.9v36.2c0,10.4,5.2,18.1,15.5,20.6c2.6,0,7.8,0,10.4-2.6c245.6-77.6,380.1-338.7,302.5-584.3
		C1018.8,460.5,904.9,349.4,762.8,302.8L762.8,302.8z"/>
</g>
<g>
	
		<linearGradient id="SVGID_1_" gradientUnits="userSpaceOnUse" x1="858.8832" y1="2077.5505" x2="1768.8107" y2="1135.403" gradientTransform="matrix(1 0 0 -1 0 2920)">
		<stop  offset="0" style="stop-color:#2BB673"/>
		<stop  offset="0.1761" style="stop-color:#2AB379"/>
		<stop  offset="0.4135" style="stop-color:#28AC8A"/>
		<stop  offset="0.6846" style="stop-color:#24A0A6"/>
		<stop  offset="0.8571" style="stop-color:#2196BC"/>
	</linearGradient>
	<circle class="st2" cx="1323" cy="1323" r="677"/>
	<path class="st1" d="M1738.1,1187.4V1099h-240.2L1394,794.3h-141.3L1149.3,1099H907.7v88.4h211.4l-45.8,134.7H907.7v88.4h135.7
		l-98.9,291h121.2l94.2-285.4h321.6l96.9,285.4h125.1l-99.3-291h133.9v-88.4h-164.1l-45.9-134.7H1738.1z M1273,1062.2
		c17.6-55.2,32.4-110.4,45.8-164.2h2.8c13.4,52.5,26.9,106.3,47.1,165.6l12,35.4h-120.1L1273,1062.2z M1456.4,1322.1h-271.5
		l45.6-134.7h180L1456.4,1322.1z"/>
</g>
</svg>
