<svg xmlns="http://www.w3.org/2000/svg" width="24" height="24" viewBox="0 0 24 24">
  <g transform="translate(1.5 4)">
    <path d="M11.0988387,10.3846452 C10.9006452,10.5085161 10.6776774,10.5580645 10.4794839,10.5580645 C10.2812903,10.5580645 10.0583226,10.5085161 9.86012903,10.3846452 L0,4.36451613 L0,12.3665806 C0,14.076 1.38735484,15.4633548 3.09677419,15.4633548 L17.8869677,15.4633548 C19.5963871,15.4633548 20.9837419,14.076 20.9837419,12.3665806 L20.9837419,4.36451613 L11.0988387,10.3846452 Z"/>
    <path d="M17.8869677,0.00425806452 L3.09677419,0.00425806452 C1.63509677,0.00425806452 0.396387097,1.04477419 0.0990967742,2.43212903 L10.5042581,8.77432258 L20.8846452,2.43212903 C20.5873548,1.04477419 19.3486452,0.00425806452 17.8869677,0.00425806452 Z" opacity=".48"/>
  </g>
</svg>
