<svg xmlns="http://www.w3.org/2000/svg" width="24" height="24" viewBox="0 0 24 24"><g class="nc-icon-wrapper" fill="#283440"><path d="M22.035,17.866a.376.376,0,0,0-.383-.012,8.715,8.715,0,0,1-.987.442A9.566,9.566,0,0,1,17.3,18.9c-3.887,0-7.334-2.344-8.126-5.559a6.573,6.573,0,0,0,.158,7.5,6.377,6.377,0,0,0,1.8,1.707,7.66,7.66,0,0,0,4.848.746,12.264,12.264,0,0,0,6.172-4.915A.374.374,0,0,0,22.035,17.866Z" fill="#283440"/><path d="M7.711,22.015A8.569,8.569,0,0,1,9.588,10.053a5.54,5.54,0,0,1,2.14-1.03A6.144,6.144,0,0,0,9.95,7.664a8.072,8.072,0,0,0-3.477-.831C3.183,6.833.441,8.84.032,11.417c-.005.141-.022.28-.022.423a12.442,12.442,0,0,0,1.135,5.247A11.963,11.963,0,0,0,9.31,23.7,8.4,8.4,0,0,1,7.711,22.015Z" data-color="color-2"/><path d="M22.927,6.118C20.941,2.234,16.655,0,11.994,0A12.058,12.058,0,0,0,1.441,6.261,9.433,9.433,0,0,1,6.473,4.833a10.023,10.023,0,0,1,4.406,1.06,7.6,7.6,0,0,1,3.3,3.126,5,5,0,0,1,.1,4.93c-.076.1-.309.234-.309.53a.872.872,0,0,0,.442.678,7.685,7.685,0,0,0,3.894.813,5.587,5.587,0,0,0,2.837-.782,5.752,5.752,0,0,0,2.851-4.955A8.286,8.286,0,0,0,22.927,6.118Z" fill="#283440"/></g></svg>