<?xml version="1.0" encoding="UTF-8"?>
<svg width="40px" height="40px" viewBox="0 0 40 40" version="1.1" xmlns="http://www.w3.org/2000/svg" xmlns:xlink="http://www.w3.org/1999/xlink">
    <title>__🥬Icons/ color/ ic_m_react</title>
    <defs>
        <linearGradient x1="50%" y1="0%" x2="50%" y2="100%" id="linearGradient-1">
            <stop stop-color="#FFFFFF" stop-opacity="0.5" offset="0%"></stop>
            <stop stop-color="#000000" stop-opacity="0.5" offset="100%"></stop>
        </linearGradient>
        <rect id="path-2" x="0" y="0" width="40" height="40" rx="12"></rect>
        <filter x="-32.5%" y="-36.1%" width="165.0%" height="172.2%" filterUnits="objectBoundingBox" id="filter-4">
            <feOffset dx="0" dy="1" in="SourceAlpha" result="shadowOffsetOuter1"></feOffset>
            <feGaussianBlur stdDeviation="1" in="shadowOffsetOuter1" result="shadowBlurOuter1"></feGaussianBlur>
            <feColorMatrix values="0 0 0 0 0   0 0 0 0 0   0 0 0 0 0  0 0 0 0.48 0" type="matrix" in="shadowBlurOuter1" result="shadowMatrixOuter1"></feColorMatrix>
            <feMerge>
                <feMergeNode in="shadowMatrixOuter1"></feMergeNode>
                <feMergeNode in="SourceGraphic"></feMergeNode>
            </feMerge>
        </filter>
    </defs>
    <g id="__🥬Icons/-color/-ic_m_react" stroke="none" stroke-width="1" fill="none" fill-rule="evenodd">
        <mask id="mask-3" fill="white">
            <use xlink:href="#path-2"></use>
        </mask>
        <g id="background">
            <use fill-opacity="0.2" fill="#61DAFB" xlink:href="#path-2"></use>
            <use fill-opacity="0.16" fill="url(#linearGradient-1)" xlink:href="#path-2"></use>
        </g>
        <g id="#gr" filter="url(#filter-4)" mask="url(#mask-3)" fill="#61DAFB" fill-rule="nonzero">
            <g transform="translate(10.000000, 11.000000)">
                <path d="M19.8064906,8.80870792 C19.8064906,7.49848821 18.1656924,6.25680306 15.6500706,5.48679702 C16.2305987,2.92279782 15.9725862,0.882886515 14.8357186,0.229792381 C14.5736747,0.0765974602 14.2672848,0.00403144527 13.9326749,0.00403144527 L13.9326749,0.903043741 C14.1181213,0.903043741 14.2672848,0.939326749 14.3922596,1.00786132 C14.9405362,1.32231405 15.1783915,2.5196533 14.992945,4.05966539 C14.9485991,4.43862125 14.8760331,4.83773433 14.7873413,5.2449103 C13.997178,5.05140093 13.1344487,4.90223745 12.2273735,4.80548277 C11.6831284,4.05966539 11.1187261,3.38238258 10.5502923,2.78976013 C11.8645434,1.56823221 13.0981657,0.899012296 13.9367063,0.899012296 L13.9367063,0 C13.9367063,0 13.9367063,0 13.9367063,0 C12.8280589,0 11.3767386,0.790163274 9.90929248,2.16085467 C8.4418464,0.798226164 6.9905261,0.0161257811 5.88187865,0.0161257811 L5.88187865,0.915138077 C6.71638783,0.915138077 7.95404152,1.58032655 9.26829268,2.79379157 C8.70389034,3.38641403 8.13948801,4.05966539 7.60330579,4.80548277 C6.69219915,4.90223745 5.82946986,5.05140093 5.03930659,5.24894175 C4.94658335,4.84579722 4.87804878,4.45474703 4.82967144,4.07982262 C4.64019351,2.53981052 4.87401734,1.34247128 5.41826245,1.0239871 C5.53920581,0.951421084 5.69643217,0.919169522 5.88187865,0.919169522 L5.88187865,0.0201572264 C5.88187865,0.0201572264 5.88187865,0.0201572264 5.88187865,0.0201572264 C5.54323725,0.0201572264 5.23684741,0.0927232413 4.97077202,0.245918162 C3.8379359,0.899012296 3.58395485,2.93489216 4.16851441,5.49082846 C1.66095545,6.26486595 0.0282201169,7.50251965 0.0282201169,8.80870792 C0.0282201169,10.1189276 1.66901834,11.3606128 4.18464019,12.1306188 C3.60411207,14.694618 3.86212457,16.7345293 4.99899214,17.3876235 C5.26103608,17.5408184 5.56742592,17.6133844 5.90606733,17.6133844 C7.01471478,17.6133844 8.46603507,16.8232211 9.93348115,15.4525297 C11.4009272,16.8151582 12.8522475,17.5972586 13.960895,17.5972586 C14.2995364,17.5972586 14.6059262,17.5246926 14.8720016,17.3714977 C16.0048377,16.7184035 16.2588188,14.6825237 15.6742592,12.1265874 C18.1737553,11.3565813 19.8064906,10.1148962 19.8064906,8.80870792 Z M14.5575489,6.11973392 C14.4083854,6.63979036 14.2229389,7.17597259 14.0133038,7.71215481 C13.8480145,7.38963919 13.6746624,7.06712356 13.4851844,6.74460794 C13.299738,6.42209232 13.1021971,6.10763959 12.9046563,5.80124975 C13.4771215,5.8859101 14.0294296,5.99072768 14.5575489,6.11973392 Z M12.7111469,10.4132231 C12.3966942,10.9574683 12.0741786,11.4734932 11.7395686,11.9532352 C11.1388833,12.005644 10.5301351,12.0338641 9.91735537,12.0338641 C9.30860714,12.0338641 8.6998589,12.005644 8.103205,11.9572667 C7.76859504,11.4775247 7.44204797,10.9655311 7.12759524,10.4253175 C6.8212054,9.89719815 6.54303568,9.36101592 6.28905463,8.82080226 C6.53900423,8.28058859 6.8212054,7.74037492 7.1235638,7.21225559 C7.43801653,6.66801048 7.76053215,6.15198549 8.09514211,5.6722435 C8.69582745,5.61983471 9.30457569,5.59161459 9.91735537,5.59161459 C10.5261036,5.59161459 11.1348518,5.61983471 11.7315057,5.66821205 C12.0661157,6.14795404 12.3926628,6.65994759 12.7071155,7.20016126 C13.0135053,7.72828059 13.2916751,8.26446281 13.5456561,8.80467648 C13.2916751,9.34489014 13.0135053,9.88510381 12.7111469,10.4132231 Z M14.0133038,9.88913525 C14.2310018,10.4293489 14.4164483,10.9695626 14.5696432,11.4936505 C14.0415239,11.6226567 13.4851844,11.7315057 12.9086878,11.8161661 C13.1062286,11.5057448 13.3037694,11.1872606 13.4892159,10.8607136 C13.6746624,10.5381979 13.8480145,10.2116509 14.0133038,9.88913525 Z M9.92541826,14.1906874 C9.55049385,13.8036686 9.17556944,13.372304 8.80467648,12.9006249 C9.16750655,12.9167507 9.53839952,12.928845 9.91332393,12.928845 C10.2922798,12.928845 10.6672042,12.9207821 11.0340657,12.9006249 C10.6712356,13.372304 10.2963112,13.8036686 9.92541826,14.1906874 Z M6.92602298,11.8161661 C6.35355775,11.7315057 5.80124975,11.6266882 5.27313042,11.4976819 C5.42229389,10.9776255 5.60774037,10.4414433 5.81737553,9.90526104 C5.98266479,10.2277767 6.15601693,10.5502923 6.34549486,10.8728079 C6.53497279,11.1953235 6.72848216,11.5097763 6.92602298,11.8161661 Z M9.90526104,3.42672848 C10.2801854,3.81374723 10.6551099,4.24511187 11.0260028,4.71679097 C10.6631727,4.70066519 10.2922798,4.68857085 9.91735537,4.68857085 C9.53839952,4.68857085 9.16347511,4.69663374 8.79661359,4.71679097 C9.15944366,4.24511187 9.53436807,3.81374723 9.90526104,3.42672848 Z M6.92199153,5.80124975 C6.72445072,6.11167103 6.5269099,6.43015521 6.34146341,6.75670228 C6.15601693,7.0792179 5.98266479,7.40173352 5.81737553,7.72424914 C5.59967748,7.18403548 5.414231,6.64382181 5.26103608,6.11973392 C5.78915541,5.99475912 6.34549486,5.8859101 6.92199153,5.80124975 Z M3.27353356,10.8486192 C1.84640194,10.239871 0.923200968,9.44164483 0.923200968,8.80870792 C0.923200968,8.17577101 1.84640194,7.3735134 3.27353356,6.76879661 C3.62023786,6.61963314 3.99919371,6.48659544 4.3902439,6.36162064 C4.62003628,7.15178391 4.92239468,7.97419875 5.29731909,8.81677081 C4.92642612,9.65531143 4.62809917,10.4736948 4.40233824,11.2598266 C4.00322516,11.1348518 3.6242693,10.9977827 3.27353356,10.8486192 Z M5.44245112,16.6095545 C4.89417456,16.2951018 4.65631929,15.0977625 4.84176577,13.5577505 C4.88611167,13.1787946 4.95867769,12.7796815 5.04736948,12.3725055 C5.83753276,12.5660149 6.70026204,12.7151784 7.60733723,12.8119331 C8.15158234,13.5577505 8.71598468,14.2350333 9.28441846,14.8276557 C7.9701673,16.0491836 6.73654505,16.7184035 5.89800443,16.7184035 C5.7165894,16.7143721 5.56339448,16.6780891 5.44245112,16.6095545 Z M15.0050393,13.5375932 C15.1945172,15.0776053 14.9606934,16.2749446 14.4164483,16.5934287 C14.2955049,16.6659948 14.1382786,16.6982463 13.9528321,16.6982463 C13.1183229,16.6982463 11.8806692,16.0330579 10.5664181,14.8195928 C11.1308204,14.2269704 11.6952227,13.553719 12.231405,12.8079016 C13.1425116,12.7111469 14.0052409,12.5619835 14.7954042,12.3644427 C14.8881274,12.7716186 14.9606934,13.1626688 15.0050393,13.5375932 Z M16.5571457,10.8486192 C16.2104414,10.9977827 15.8314856,11.1308204 15.4404354,11.2557952 C15.210643,10.4656319 14.9082846,9.64321709 14.5333602,8.80064503 C14.9042532,7.96210441 15.2025801,7.14372102 15.4283411,6.3575892 C15.8274541,6.482564 16.20641,6.61963314 16.5611772,6.76879661 C17.9883088,7.37754485 18.9115098,8.17577101 18.9115098,8.80870792 C18.9074783,9.44164483 17.9842774,10.2439024 16.5571457,10.8486192 Z" id="Shape"></path>
                <circle id="Oval" cx="9.91332393" cy="8.80870792" r="1.84237049"></circle>
            </g>
        </g>
    </g>
</svg>