<?xml version="1.0" standalone="no"?>
<!DOCTYPE svg PUBLIC "-//W3C//DTD SVG 20010904//EN"
 "http://www.w3.org/TR/2001/REC-SVG-20010904/DTD/svg10.dtd">
<svg version="1.0" xmlns="http://www.w3.org/2000/svg"
 width="700.000000pt" height="700.000000pt" viewBox="0 0 700.000000 700.000000"
 preserveAspectRatio="xMidYMid meet">
<metadata>
Created by potrace 1.14, written by Peter Selinger 2001-2017
</metadata>
<g transform="translate(0.000000,700.000000) scale(0.100000,-0.100000)"
fill="#000000" stroke="none">
<path d="M3280 6994 c-19 -2 -84 -9 -145 -14 -639 -62 -1264 -315 -1795 -726
-149 -115 -481 -446 -595 -594 -410 -532 -653 -1132 -727 -1795 -17 -154 -17
-585 0 -730 85 -721 352 -1348 803 -1885 122 -145 351 -369 494 -483 1139
-907 2724 -1018 3969 -277 261 155 450 303 682 535 296 295 490 562 670 925
458 922 483 2014 67 2960 -137 311 -328 612 -553 875 -108 126 -334 344 -465
448 -504 404 -1122 663 -1770 743 -122 15 -556 27 -635 18z m1436 -684 c97
-37 162 -130 151 -220 -12 -100 -75 -182 -260 -343 -203 -175 -328 -334 -457
-580 -79 -151 -116 -239 -188 -452 -69 -203 -105 -357 -127 -543 -39 -329 2
-726 101 -986 196 -514 582 -976 1055 -1267 325 -199 756 -340 1117 -365 50
-4 92 -10 92 -15 0 -12 -166 -23 -345 -22 -631 4 -1232 261 -1668 712 -178
184 -304 367 -417 604 -72 151 -108 254 -154 435 -62 246 -71 332 -71 652 1
249 3 301 23 415 53 306 177 678 319 953 126 243 287 463 445 604 45 40 100
89 121 109 l40 35 -74 -7 c-333 -36 -633 -167 -861 -378 -187 -174 -501 -596
-717 -966 -250 -427 -519 -1059 -791 -1860 -81 -237 -165 -418 -270 -579 -134
-205 -238 -316 -470 -503 -116 -93 -369 -267 -377 -259 -3 3 35 56 84 118 240
304 442 620 619 972 113 222 185 391 349 823 282 738 405 1017 603 1373 197
354 505 792 712 1014 278 297 671 485 1121 535 99 11 253 6 295 -9z m-1137
-1007 c-83 -146 -202 -342 -299 -493 -59 -91 -138 -219 -176 -285 -110 -194
-320 -634 -484 -1013 -84 -194 -155 -350 -158 -347 -8 8 18 180 49 329 60 289
154 550 293 821 137 266 230 405 421 630 105 124 373 415 382 415 2 0 -10 -26
-28 -57z m-463 -2344 c155 -58 254 -205 254 -378 0 -96 -23 -167 -80 -243 -26
-34 -38 -59 -35 -72 8 -37 115 -698 115 -712 0 -12 -65 -14 -400 -14 -336 0
-400 2 -400 14 0 8 27 177 60 377 l59 362 -31 36 c-17 19 -43 60 -57 91 -23
49 -26 67 -26 165 0 101 2 115 29 170 54 109 170 200 286 225 62 12 160 3 226
-21z"/>
<path d="M2906 2765 c-152 -54 -168 -274 -24 -344 120 -58 257 13 274 142 13
90 -47 182 -133 206 -49 14 -69 13 -117 -4z"/>
</g>
</svg>
