<?xml version="1.0" standalone="no"?>
<!DOCTYPE svg PUBLIC "-//W3C//DTD SVG 20010904//EN"
 "http://www.w3.org/TR/2001/REC-SVG-20010904/DTD/svg10.dtd">
<svg version="1.0" xmlns="http://www.w3.org/2000/svg"
 width="1024.000000pt" height="1024.000000pt" viewBox="0 0 1024.000000 1024.000000"
 preserveAspectRatio="xMidYMid meet">
<metadata>
Created by potrace 1.14, written by Peter Selinger 2001-2017
</metadata>
<g transform="translate(0.000000,1024.000000) scale(0.100000,-0.100000)"
fill="#000000" stroke="none">
<path d="M6587 9694 c-1 -1 -22 -5 -47 -8 -25 -3 -56 -7 -70 -10 -14 -2 -47
-7 -75 -11 -27 -4 -53 -9 -56 -11 -4 -2 -24 -6 -45 -10 -34 -5 -88 -16 -134
-29 -8 -2 -42 -10 -75 -19 -115 -29 -180 -47 -200 -55 -11 -5 -58 -21 -105
-36 -79 -26 -209 -74 -255 -94 -11 -5 -45 -20 -75 -32 -145 -60 -562 -284
-581 -312 -3 -5 -8 -7 -10 -6 -4 2 -49 -24 -74 -44 -5 -4 -26 -18 -45 -30 -59
-39 -142 -98 -195 -138 -27 -22 -55 -42 -60 -46 -40 -30 -159 -128 -180 -147
-14 -13 -45 -39 -68 -58 -48 -38 -381 -368 -447 -444 -25 -27 -67 -77 -95
-110 -27 -32 -52 -61 -55 -64 -3 -3 -32 -39 -65 -80 -66 -82 -63 -78 -105
-135 -16 -22 -33 -44 -38 -50 -60 -76 -312 -457 -312 -474 0 -4 -9 -16 -20
-26 -11 -10 -20 -22 -20 -27 0 -5 -17 -40 -39 -76 -61 -106 -95 -169 -159
-297 -69 -137 -162 -333 -162 -341 0 -3 -9 -26 -21 -51 -11 -24 -34 -79 -50
-121 -17 -43 -34 -86 -39 -97 -19 -45 -93 -251 -95 -265 0 -3 -3 -9 -6 -15 -4
-5 -12 -34 -20 -62 -7 -29 -17 -53 -21 -53 -5 0 -7 -4 -4 -9 3 -5 -1 -28 -10
-52 -8 -24 -17 -52 -19 -62 -2 -10 -6 -26 -9 -35 -3 -9 -7 -35 -10 -57 -15
-113 -18 -132 -20 -155 -2 -14 -6 -38 -9 -55 -4 -16 -9 -50 -12 -75 -3 -25 -7
-56 -9 -70 -9 -51 -18 -106 -21 -130 -8 -74 -17 -136 -21 -141 -1 -3 -6 -30
-9 -60 -3 -30 -8 -61 -10 -69 -4 -16 -14 -83 -21 -135 -2 -16 -6 -43 -9 -60
-4 -16 -8 -43 -10 -60 -2 -16 -4 -30 -5 -30 -1 0 -4 -16 -6 -35 -9 -65 -13
-85 -14 -85 -1 0 -3 -9 -4 -20 -3 -23 -18 -115 -22 -130 -1 -5 -4 -26 -8 -45
-3 -19 -7 -44 -10 -55 -7 -33 -38 -198 -42 -225 -2 -14 -7 -36 -10 -50 -3 -14
-7 -37 -9 -52 -2 -15 -8 -44 -14 -65 -5 -21 -12 -54 -15 -74 -3 -20 -8 -42
-10 -50 -3 -8 -7 -25 -10 -39 -2 -14 -14 -65 -26 -115 -12 -49 -23 -101 -25
-115 -3 -14 -11 -48 -19 -77 -7 -28 -11 -54 -8 -57 3 -3 0 -6 -7 -6 -7 0 -10
-4 -7 -9 3 -4 -4 -41 -15 -82 -12 -41 -22 -81 -24 -89 -5 -24 -66 -253 -72
-270 -3 -8 -7 -22 -9 -30 -5 -26 -36 -144 -41 -160 -4 -8 -7 -21 -9 -29 -1 -8
-5 -25 -9 -38 -3 -13 -6 -26 -6 -30 0 -5 -5 -14 -11 -20 -6 -7 -8 -13 -5 -13
3 0 -5 -30 -17 -68 -13 -37 -23 -69 -24 -72 0 -3 -3 -12 -6 -20 -13 -41 -26
-86 -26 -92 -1 -4 -7 -20 -15 -35 -8 -14 -12 -30 -9 -35 3 -4 0 -8 -6 -8 -6 0
-9 -4 -5 -9 3 -5 1 -12 -5 -16 -6 -4 -8 -11 -5 -16 4 -5 1 -9 -4 -9 -6 0 -10
-3 -9 -7 6 -17 -147 -352 -194 -428 -7 -11 -30 -49 -52 -85 -21 -36 -42 -67
-45 -70 -3 -3 -7 -12 -9 -20 -2 -8 -8 -17 -13 -18 -5 -2 -7 -8 -3 -13 3 -5 1
-9 -4 -9 -5 0 -9 -6 -9 -12 0 -35 -92 -202 -150 -275 -19 -24 -32 -43 -29 -43
3 0 -2 -8 -12 -18 -9 -10 -28 -32 -41 -48 -62 -75 -162 -186 -280 -312 -46
-50 -189 -223 -234 -285 -36 -48 -23 -47 28 1 22 21 110 92 195 158 85 65 156
122 158 126 2 5 8 8 13 8 5 0 17 8 27 18 10 9 33 28 51 42 51 38 189 167 242
226 44 50 109 140 109 152 0 7 4 12 9 12 5 0 19 26 32 57 12 32 62 121 109
198 48 77 104 171 126 210 21 38 44 79 51 90 32 57 186 353 188 365 1 3 13 30
27 60 75 164 87 192 141 330 44 112 57 149 64 180 8 32 9 35 14 45 6 9 16 48
24 86 2 9 13 47 25 85 12 38 24 83 27 99 3 17 9 35 14 41 5 6 6 13 3 17 -3 3
-1 14 5 25 5 10 12 30 15 43 8 40 14 61 38 144 14 44 25 83 26 88 1 4 2 8 3
10 0 1 2 9 4 17 1 8 9 35 16 60 7 25 13 48 15 53 1 4 2 8 4 10 1 1 3 11 4 22
2 11 25 97 51 190 27 94 49 178 49 188 0 9 4 17 9 17 4 0 6 4 3 8 -3 5 1 20 9
35 7 14 11 27 9 29 -2 3 1 20 7 39 11 37 17 58 23 89 3 11 7 24 10 28 3 5 7
19 10 33 3 13 12 49 21 79 9 30 17 62 17 70 0 8 4 20 8 25 7 9 11 24 24 90 3
11 11 39 20 63 8 23 13 42 9 42 -3 0 -1 6 4 13 9 10 17 38 38 127 2 8 31 105
65 215 33 110 63 209 65 219 9 37 28 91 36 102 5 6 7 13 4 15 -2 3 7 39 21 80
14 40 27 79 28 84 2 6 6 17 9 25 6 14 24 82 33 122 2 10 7 28 10 41 3 12 7 31
9 42 2 11 4 20 5 20 1 0 3 7 5 15 22 103 126 425 171 527 8 17 14 33 14 36 0
2 8 22 17 43 9 22 17 41 18 44 3 16 70 156 138 290 44 85 85 165 91 177 6 13
14 23 19 23 4 0 7 5 7 12 0 13 61 111 72 116 5 2 6 7 3 12 -3 5 1 14 8 22 7 7
28 38 47 68 19 30 38 57 42 58 5 2 8 8 8 13 0 8 51 83 87 129 6 8 42 56 80
105 65 87 87 115 108 139 6 6 23 27 39 46 96 119 309 338 461 475 49 44 99 90
112 103 13 12 28 22 33 22 4 0 10 3 12 8 2 4 26 25 53 47 28 22 52 42 55 45
17 17 228 171 268 195 9 6 55 35 102 66 78 51 165 103 265 159 79 45 360 183
375 185 3 0 10 4 17 8 6 4 62 27 125 50 62 24 122 47 133 52 11 4 25 9 30 11
6 1 46 14 90 29 84 28 243 73 285 81 14 2 32 7 40 10 8 4 24 8 35 10 11 2 76
14 145 27 114 22 147 24 370 21 223 -2 388 -9 480 -19 19 -2 64 -6 100 -10 36
-3 76 -7 90 -10 14 -3 43 -7 65 -10 22 -3 51 -7 65 -9 14 -3 41 -7 60 -10 19
-3 60 -13 90 -21 30 -9 64 -18 74 -20 10 -2 33 -9 50 -15 17 -5 46 -11 63 -12
l33 -2 -29 -31 c-76 -82 -96 -104 -149 -170 -31 -38 -60 -72 -63 -75 -3 -3
-32 -36 -65 -75 -32 -38 -68 -79 -79 -91 -86 -90 -138 -148 -178 -201 -53 -70
-147 -218 -147 -232 0 -5 -4 -11 -8 -13 -9 -3 -175 -333 -172 -343 0 -3 -6
-18 -13 -33 -8 -15 -19 -38 -25 -52 -6 -14 -23 -52 -37 -85 -15 -33 -28 -67
-30 -75 -2 -8 -22 -60 -44 -115 -23 -55 -43 -107 -44 -115 -1 -8 -5 -19 -8
-25 -7 -12 -102 -294 -105 -312 -2 -14 -23 -81 -31 -103 -3 -8 -7 -19 -8 -25
-2 -5 -9 -30 -16 -55 -7 -25 -13 -47 -13 -50 -3 -12 -49 -177 -54 -190 -7 -19
-6 -18 -16 -65 -4 -22 -11 -44 -14 -50 -4 -5 -7 -16 -9 -24 -1 -7 -7 -36 -14
-65 -7 -28 -14 -54 -15 -58 -1 -5 -2 -9 -4 -10 -1 -2 -3 -10 -5 -18 -1 -8 -8
-35 -15 -60 -7 -25 -13 -52 -15 -60 -2 -8 -9 -35 -16 -60 -7 -25 -14 -53 -16
-62 -1 -9 -23 -95 -47 -190 -41 -160 -58 -249 -59 -305 -1 -13 -3 -23 -6 -23
-4 0 -7 -19 -7 -43 -2 -57 -9 -112 -18 -125 -4 -7 -2 -12 4 -12 6 0 8 -4 5
-10 -6 -10 -10 -41 -20 -166 -3 -45 -8 -95 -10 -111 -24 -189 -24 -925 0
-1163 2 -19 6 -73 10 -120 4 -47 8 -98 10 -115 2 -16 6 -50 9 -75 3 -25 8 -61
11 -80 3 -19 8 -55 11 -80 7 -58 11 -86 18 -108 3 -9 7 -35 10 -57 2 -22 7
-51 10 -65 3 -14 8 -36 10 -50 3 -14 10 -47 16 -75 5 -27 13 -61 15 -75 3 -14
8 -36 12 -50 3 -14 7 -29 9 -35 9 -39 36 -145 43 -170 5 -16 19 -52 32 -80 13
-27 24 -56 25 -64 2 -7 7 -18 13 -24 6 -6 11 -19 11 -29 0 -10 5 -18 10 -18 6
0 10 -11 10 -25 0 -14 4 -25 8 -25 5 0 19 -26 32 -57 24 -62 241 -505 250
-513 3 -3 17 -26 30 -52 14 -27 28 -48 31 -48 3 0 6 -6 6 -12 1 -14 71 -132
141 -236 23 -35 42 -67 42 -72 0 -5 3 -10 8 -12 4 -2 36 -43 71 -93 36 -49 68
-92 71 -95 3 -3 21 -25 40 -50 76 -99 249 -277 360 -372 71 -60 215 -168 225
-168 4 0 21 -11 38 -24 65 -49 348 -184 422 -201 6 -1 17 -5 25 -8 8 -3 40
-12 70 -21 l55 -15 -35 31 c-243 215 -384 360 -531 545 -34 43 -64 80 -68 83
-13 11 -180 260 -207 310 -10 19 -22 37 -25 40 -16 12 -180 345 -222 450 -83
208 -178 517 -202 658 -3 18 -12 63 -19 100 -8 37 -19 103 -26 147 -6 44 -13
91 -16 105 -2 14 -7 43 -10 65 -3 22 -8 51 -10 65 -3 14 -7 41 -9 60 -3 37
-15 137 -20 180 -1 14 -6 59 -10 100 -4 41 -8 91 -10 111 -26 261 -26 1183 0
1365 4 28 11 106 20 234 1 19 5 58 9 85 3 28 8 75 11 105 6 63 12 110 20 160
3 19 7 53 10 75 6 54 25 184 31 215 3 14 7 41 10 60 2 19 7 46 10 60 3 14 6
34 8 45 3 19 10 57 21 118 3 15 7 39 10 55 3 15 7 41 10 57 3 17 8 41 11 55 3
14 7 34 9 45 24 117 65 300 71 315 3 8 7 26 9 40 7 42 66 262 110 410 9 30 18
62 19 70 2 8 6 22 9 30 4 8 25 71 48 140 43 131 115 316 169 435 17 39 31 71
31 72 0 2 9 20 20 40 11 20 33 60 47 87 14 28 28 53 31 56 4 3 11 14 17 25 27
50 40 70 57 89 9 11 17 26 17 33 0 7 3 13 8 13 4 0 27 33 51 74 24 41 57 89
72 106 16 17 29 33 29 35 0 4 23 26 145 143 13 12 29 22 35 22 5 0 10 4 10 9
0 5 15 18 33 30 17 11 41 28 52 38 11 10 40 34 65 53 24 19 53 43 62 53 10 9
29 17 43 17 14 0 25 5 25 11 0 5 4 8 9 5 11 -7 63 46 68 70 2 10 5 116 5 235
1 212 1 217 -21 240 -25 26 -101 134 -101 143 0 21 -81 96 -105 97 -83 3 -135
19 -270 85 -39 19 -81 37 -93 39 -12 3 -32 7 -44 11 -13 3 -34 7 -48 9 -14 1
-36 6 -50 9 -44 12 -124 28 -145 31 -11 1 -31 5 -45 8 -26 7 -88 17 -130 22
-14 2 -25 4 -25 5 0 0 -20 3 -45 5 -25 2 -63 6 -85 9 -163 23 -450 36 -828 40
-147 1 -269 1 -270 0z"/>
<path d="M6115 8586 c-27 -12 -54 -24 -60 -26 -33 -9 -44 -14 -77 -32 -21 -10
-38 -17 -38 -14 0 5 -308 -148 -350 -174 -8 -5 -67 -39 -130 -77 -63 -37 -117
-70 -120 -73 -11 -11 -70 -50 -75 -50 -6 0 -23 -13 -56 -42 -10 -10 -19 -16
-19 -13 0 4 -102 -72 -205 -152 -17 -13 -129 -107 -141 -118 -6 -5 -44 -39
-84 -75 -93 -82 -261 -251 -354 -355 -39 -44 -83 -92 -98 -108 -16 -16 -28
-33 -28 -38 0 -5 -4 -9 -8 -9 -5 0 -22 -19 -39 -42 -17 -24 -40 -52 -50 -63
-18 -20 -155 -202 -226 -301 -20 -29 -37 -56 -37 -62 0 -6 -4 -12 -8 -14 -5
-1 -34 -43 -65 -93 -31 -49 -63 -99 -72 -110 -8 -10 -15 -25 -15 -32 0 -7 -4
-13 -10 -13 -5 0 -10 -4 -10 -10 0 -5 -13 -31 -29 -57 -69 -111 -241 -449
-241 -472 0 -6 -4 -11 -10 -11 -5 0 -10 -4 -10 -9 0 -5 -5 -22 -12 -38 -6 -15
-12 -31 -12 -34 -1 -3 -8 -21 -17 -40 -9 -19 -22 -45 -27 -59 -6 -14 -20 -46
-31 -72 -11 -27 -17 -48 -13 -48 4 0 2 -4 -3 -8 -6 -4 -16 -23 -22 -42 -7 -19
-37 -107 -68 -195 -30 -88 -55 -168 -55 -177 0 -10 -4 -18 -8 -18 -4 0 -8 -8
-9 -17 -1 -10 -13 -61 -27 -113 -27 -95 -32 -116 -40 -158 -3 -12 -7 -26 -10
-31 -3 -5 -8 -30 -11 -57 -4 -26 -9 -53 -13 -58 -3 -6 -7 -20 -8 -31 0 -11 -5
-36 -9 -55 -4 -19 -9 -44 -10 -55 -2 -11 -8 -47 -14 -80 -15 -83 -19 -112 -26
-175 -3 -30 -8 -66 -10 -80 -5 -28 -11 -92 -21 -237 -14 -215 -9 -338 11 -230
8 43 11 53 15 62 1 3 3 8 4 13 1 4 17 54 36 112 19 58 35 107 35 110 2 10 57
176 65 195 5 11 14 38 21 60 6 22 15 45 19 50 5 6 9 15 9 20 1 14 21 76 31
100 5 11 28 72 52 135 23 63 46 117 50 118 5 2 6 8 3 12 -3 5 -1 17 4 27 20
36 71 162 71 175 0 8 4 18 8 23 5 6 15 26 22 45 8 19 28 67 47 107 18 40 33
75 33 77 0 3 16 41 36 83 97 209 134 293 134 302 0 5 5 11 12 13 6 2 12 12 14
21 2 17 169 351 253 507 28 52 62 115 74 140 12 25 24 47 27 50 3 3 15 23 27
45 11 22 30 56 41 75 11 19 34 60 50 90 24 47 63 117 106 194 6 11 14 25 19
30 4 6 33 52 64 101 32 50 62 95 68 100 6 6 24 29 39 53 16 23 33 42 39 42 6
0 7 3 4 7 -6 6 79 114 95 121 5 2 8 8 8 13 0 5 8 17 18 27 9 10 44 49 77 88
74 85 379 391 459 459 32 28 68 59 80 70 39 35 119 102 191 160 39 31 79 64
90 74 29 26 358 269 435 322 36 24 67 46 70 50 3 3 21 15 40 26 51 32 105 73
94 72 -5 0 -31 -10 -59 -23z"/>
</g>
</svg>
