<svg xmlns="http://www.w3.org/2000/svg" width="24" height="24" viewBox="0 0 24 24">
  <path fill-rule="evenodd" d="M12,0.5 C18.35145,0.5 23.5,5.64855 23.5,12 C23.5,18.35145 18.35145,23.5 12,23.5 C5.64855,23.5 0.5,18.35145 0.5,12 C0.5,5.64855 5.64855,0.5 12,0.5 Z M12,2.8 C6.9189803,2.8 2.8,6.9189803 2.8,12 C2.8,17.0810197 6.9189803,21.2 12,21.2 C17.0810197,21.2 21.2,17.0810197 21.2,12 C21.2,6.9189803 17.0810197,2.8 12,2.8 Z M17.75,13.15 C17.75,16.3256373 15.1756373,18.9 12,18.9 C8.82436269,18.9 6.25,16.3256373 6.25,13.15 L17.75,13.15 Z"/>
</svg>
