<svg xmlns="http://www.w3.org/2000/svg" width="24" height="24" viewBox="0 0 24 24">
  <g fill="none" fill-rule="evenodd">
    <path fill="#000" d="M22.4322055,17.8 C22.0536064,17.8005454 21.6863994,17.6435358 21.3923419,17.355376 L17.3128767,13.2861125 C16.9888055,12.9743588 16.8,12.5011127 16.8,12.0005732 C16.8,11.5000337 16.9888055,11.0267876 17.3128767,10.7150339 L21.3923419,6.64577037 C21.8934211,6.16062763 22.5795349,6.06308873 23.1601101,6.39446194 C23.6651942,6.66348681 23.9935747,7.26436429 24,7.93130967 L24,16.0698367 C23.9935747,16.736782 23.6651942,17.3376595 23.1601101,17.6066844 C22.9314463,17.7323366 22.6833982,17.7982123 22.4322055,17.8 L22.4322055,17.8 Z" transform="matrix(-1 0 0 1 40.8 0)"/>
    <rect width="19.61" height="2.4" y=".8" fill="#000" rx="1.2"/>
    <rect width="14" height="2.4" y="5.8" fill="#000" rx="1.2"/>
    <rect width="14" height="2.4" y="10.8" fill="#000" rx="1.2"/>
    <rect width="14" height="2.4" y="15.8" fill="#000" rx="1.2"/>
    <rect width="19.61" height="2.4" y="20.8" fill="#000" rx="1.2"/>
  </g>
</svg>
