<svg id="Layer_1" data-name="Layer 1" xmlns="http://www.w3.org/2000/svg" xmlns:xlink="http://www.w3.org/1999/xlink" viewBox="0 0 1600.38 379.66"><defs><style>.cls-1{fill:url(#linear-gradient);}.cls-2{fill:url(#linear-gradient-2);}</style><linearGradient id="linear-gradient" x1="353.07" y1="685.15" x2="353.97" y2="357.22" gradientUnits="userSpaceOnUse"><stop offset="0.02" stop-color="#3eb5ff"/><stop offset="0.04" stop-color="#45adff"/><stop offset="0.12" stop-color="#5b94ff"/><stop offset="0.22" stop-color="#6c80ff"/><stop offset="0.32" stop-color="#7873ff"/><stop offset="0.46" stop-color="#7f6aff"/><stop offset="0.69" stop-color="#8168ff"/></linearGradient><linearGradient id="linear-gradient-2" x1="369.04" y1="397.41" x2="368.94" y2="354.43" gradientUnits="userSpaceOnUse"><stop offset="0" stop-color="#3eb5ff"/><stop offset="1" stop-color="#48e7ff"/></linearGradient></defs><path class="cls-1" d="M505.17,672.15a28.57,28.57,0,0,0-.36-3.95,28.85,28.85,0,0,0-9.93-17.44l-.39-.32a27.88,27.88,0,0,0-4-2.76l-.58-.33a29.37,29.37,0,0,0-26.49-.61h0a28.89,28.89,0,0,0-5.36,3.32h0a132.15,132.15,0,0,1-196.7-138c.07-.4.14-.81.22-1.21a131.82,131.82,0,0,1,38.68-70.55l-40.95-41a190.17,190.17,0,0,0-44,65.2l-.4,1a189.16,189.16,0,0,0-13.42,70.22c0,104.84,85,189.83,189.83,189.83a189,189,0,0,0,96.08-26.07,29.09,29.09,0,0,0,17.88-26.73C505.19,672.62,505.18,672.38,505.17,672.15Z" transform="translate(-201.4 -346)"/><path class="cls-2" d="M511,402.88a29.08,29.08,0,0,1-29.16,29h-.72a29.09,29.09,0,0,1-14.19-4.06h0a31.9,31.9,0,0,1-3-2,132.14,132.14,0,0,0-162,13c-.57.52-1.14,1.05-1.7,1.59a131.76,131.76,0,0,0-38.67,70.53c-10-10.52-19.41-25.56-26.38-43.32a155.48,155.48,0,0,1-8-27.3,190.76,190.76,0,0,1,32.08-40.87q4.67-4.51,9.64-8.71a189.88,189.88,0,0,1,226.89-13.3l.49.33a27.63,27.63,0,0,1,4,2.76l.44.31a28.87,28.87,0,0,1,7,8.86c.22.42.42.85.62,1.28.34.74.65,1.49.92,2.26.08.2.14.41.21.61s.14.41.2.62a24.52,24.52,0,0,1,.65,2.52c.09.43.17.86.24,1.3a28.42,28.42,0,0,1,.37,3.94C511,402.4,511,402.64,511,402.88Z" transform="translate(-201.4 -346)"/><path d="M558.4,608.59V475.86H582a20.12,20.12,0,0,1,4.93.51,8.61,8.61,0,0,1,3.33,1.6,6.74,6.74,0,0,1,2,2.88,25.58,25.58,0,0,1,1.21,4.35l2.18,12.42A65.1,65.1,0,0,1,612,479.82a33.32,33.32,0,0,1,19.84-6.52q9.09,0,14.6,4.35l-5.12,29.18a5.78,5.78,0,0,1-2.05,3.78,7,7,0,0,1-4.1,1.09,27.53,27.53,0,0,1-5.12-.58,40,40,0,0,0-7.42-.58q-15.61,0-24.58,16.64v81.41Z" transform="translate(-201.4 -346)"/><path d="M718.4,643a14.22,14.22,0,0,1-4.35,5.83q-2.56,1.85-8.19,1.85h-29.7l25.6-53.76-53-121.08h35.07q4.6,0,7.17,2a11,11,0,0,1,3.58,4.87L716.35,540a128.1,128.1,0,0,1,5,15.88q1.27-4.1,2.81-8.07t2.94-8.06l19.72-57a9.67,9.67,0,0,1,4-4.93,11.52,11.52,0,0,1,6.46-2h32Z" transform="translate(-201.4 -346)"/><path d="M805.7,650.7V475.86h24.57a10.93,10.93,0,0,1,6.21,1.66,8.88,8.88,0,0,1,3.52,5l2.94,9.73a66.42,66.42,0,0,1,8.26-7.68,54.25,54.25,0,0,1,9.47-5.95,52,52,0,0,1,10.88-3.91,54.64,54.64,0,0,1,12.74-1.4,40.91,40.91,0,0,1,19.2,4.6,44.28,44.28,0,0,1,15.23,13.32,67,67,0,0,1,10,21.31,103,103,0,0,1,3.65,28.61,88.21,88.21,0,0,1-4.16,27.64,69.66,69.66,0,0,1-11.65,22,53.69,53.69,0,0,1-17.92,14.59,50.69,50.69,0,0,1-23.11,5.25q-10.37,0-17.4-2.94a47.3,47.3,0,0,1-12.8-7.94V650.7Zm64.76-147.07a34.56,34.56,0,0,0-7.87.83,29.43,29.43,0,0,0-6.53,2.37,24.86,24.86,0,0,0-5.56,3.91,56.47,56.47,0,0,0-5.12,5.44V572.5a25,25,0,0,0,9.72,7,30.73,30.73,0,0,0,11,2,23.37,23.37,0,0,0,10.11-2.18,20.55,20.55,0,0,0,8-7,37.18,37.18,0,0,0,5.32-12.48,78.09,78.09,0,0,0,1.92-18.68,86.28,86.28,0,0,0-1.54-17.67,36.09,36.09,0,0,0-4.29-11.58,16.58,16.58,0,0,0-6.59-6.34A18.92,18.92,0,0,0,870.46,503.63Z" transform="translate(-201.4 -346)"/><path d="M1000.25,610.64a46.89,46.89,0,0,1-16.7-2.75,32.25,32.25,0,0,1-19.65-20,47.28,47.28,0,0,1-2.56-16V503.25H950.08a7.17,7.17,0,0,1-7.43-7.81V480l21.12-4.09,7.81-32.39q1.53-6.14,8.7-6.14H1001v38.78h32.26v27.14H1001v65.92a12.4,12.4,0,0,0,2.24,7.61,7.55,7.55,0,0,0,6.46,3,12.66,12.66,0,0,0,3.65-.45,14.06,14.06,0,0,0,2.56-1c.73-.38,1.41-.72,2.05-1a5.24,5.24,0,0,1,2.24-.45,4.65,4.65,0,0,1,2.88.83,10.6,10.6,0,0,1,2.24,2.62l12,18.82a54.76,54.76,0,0,1-17.28,8.64A68.65,68.65,0,0,1,1000.25,610.64Z" transform="translate(-201.4 -346)"/><path d="M1115.2,473.81a76.77,76.77,0,0,1,27.51,4.73A60.46,60.46,0,0,1,1164,492.11a61.25,61.25,0,0,1,13.82,21.44,77.49,77.49,0,0,1,4.93,28.35,78.84,78.84,0,0,1-4.93,28.61A61.6,61.6,0,0,1,1164,592.14a60.62,60.62,0,0,1-21.32,13.7,75.7,75.7,0,0,1-27.51,4.8,76.66,76.66,0,0,1-27.72-4.8,61.65,61.65,0,0,1-21.5-13.7,60.51,60.51,0,0,1-14-21.63,78.62,78.62,0,0,1-4.93-28.61,77.28,77.28,0,0,1,4.93-28.35,60.17,60.17,0,0,1,14-21.44,61.49,61.49,0,0,1,21.5-13.57A77.75,77.75,0,0,1,1115.2,473.81Zm0,107.39q13.68,0,20.16-9.66t6.46-29.38q0-19.71-6.46-29.31t-20.16-9.6q-14.09,0-20.61,9.6t-6.53,29.31q0,19.71,6.53,29.38T1115.2,581.2Z" transform="translate(-201.4 -346)"/><path d="M1304.82,533.45q2.37,5.25,4.55,10.76,2.18-5.64,4.6-11t5-10.31l47.87-94.31a15.86,15.86,0,0,1,2.62-3.78,8.61,8.61,0,0,1,3-2,10.4,10.4,0,0,1,3.78-.65h38V608.59h-38.15V501.33q0-7.81.77-16.9l-49.4,95.87a16.35,16.35,0,0,1-6.21,6.79,17.16,17.16,0,0,1-8.9,2.3h-5.89a17.12,17.12,0,0,1-8.89-2.3,16.28,16.28,0,0,1-6.21-6.79l-49.66-96q.51,4.49.76,8.9t.26,8.13V608.59h-38.14V422.22h38a10.35,10.35,0,0,1,3.77.65,8.52,8.52,0,0,1,3,2,15.87,15.87,0,0,1,2.63,3.78l48,94.69Q1302.45,528.2,1304.82,533.45Z" transform="translate(-201.4 -346)"/><path d="M1536.57,608.59q-5.64,0-8.52-1.53t-4.8-6.4l-2.81-7.3q-5,4.23-9.6,7.42a59.8,59.8,0,0,1-9.54,5.44,46.38,46.38,0,0,1-10.49,3.33,64.27,64.27,0,0,1-12.35,1.09,53.81,53.81,0,0,1-16.52-2.38,34.41,34.41,0,0,1-12.61-7,31,31,0,0,1-8-11.5,41.69,41.69,0,0,1-2.81-15.86,33.37,33.37,0,0,1,3.58-14.51q3.59-7.44,12.42-13.55t23.81-10.2q15-4.11,37.76-4.11v-5.69q0-11.75-4.8-17t-13.64-5.23a36,36,0,0,0-11.52,1.54,51.83,51.83,0,0,0-8,3.45c-2.34,1.28-4.63,2.44-6.84,3.46a18.9,18.9,0,0,1-7.94,1.54,11.91,11.91,0,0,1-7-2,14.67,14.67,0,0,1-4.55-4.93l-7.17-12.41a80.81,80.81,0,0,1,26.69-15.81,93.43,93.43,0,0,1,31.42-5.18,57.54,57.54,0,0,1,21.7,3.9,46.58,46.58,0,0,1,16.38,10.88,47.58,47.58,0,0,1,10.31,16.58,59.52,59.52,0,0,1,3.58,21v82.94ZM1491,584.4a31.51,31.51,0,0,0,13.44-2.69,41,41,0,0,0,11.65-8.7V554.83a102.16,102.16,0,0,0-19.59,1.55,47.16,47.16,0,0,0-12.16,3.88,14.79,14.79,0,0,0-6.21,5.29,12.62,12.62,0,0,0-1.72,6.45c0,4.57,1.23,7.77,3.71,9.63S1486.22,584.4,1491,584.4Z" transform="translate(-201.4 -346)"/><path d="M1629.49,610.64a46.85,46.85,0,0,1-16.7-2.75,32.25,32.25,0,0,1-19.65-20,47.28,47.28,0,0,1-2.56-16V503.25h-11.26a7.17,7.17,0,0,1-7.43-7.81V480l21.12-4.09,7.81-32.39q1.53-6.14,8.7-6.14h20.74v38.78h32.25v27.14h-32.25v65.92a12.34,12.34,0,0,0,2.24,7.61,7.55,7.55,0,0,0,6.46,3,12.66,12.66,0,0,0,3.65-.45,14.06,14.06,0,0,0,2.56-1c.73-.38,1.41-.72,2-1a5.24,5.24,0,0,1,2.24-.45,4.67,4.67,0,0,1,2.88.83,10.6,10.6,0,0,1,2.24,2.62l12,18.82a54.76,54.76,0,0,1-17.28,8.64A68.65,68.65,0,0,1,1629.49,610.64Z" transform="translate(-201.4 -346)"/><path d="M1742.13,473.81a68.39,68.39,0,0,1,24.13,4.09,52.49,52.49,0,0,1,18.81,11.91,54.2,54.2,0,0,1,12.29,19.13,70.15,70.15,0,0,1,4.42,25.67,55,55,0,0,1-.39,7.29,11.43,11.43,0,0,1-1.4,4.48,5.4,5.4,0,0,1-2.76,2.31,12.77,12.77,0,0,1-4.41.64h-76.55q1.92,16.63,10.12,24.13t21.12,7.48a37.81,37.81,0,0,0,11.9-1.66,61,61,0,0,0,8.9-3.71c2.6-1.37,5-2.6,7.16-3.71a14.9,14.9,0,0,1,6.85-1.67,8.19,8.19,0,0,1,7.17,3.46L1801,587.86a58.94,58.94,0,0,1-13.25,11.45,68.25,68.25,0,0,1-14.59,6.91,78.51,78.51,0,0,1-15,3.46,112.36,112.36,0,0,1-14.27,1,74.44,74.44,0,0,1-26.17-4.54,60.08,60.08,0,0,1-21.38-13.51,63.62,63.62,0,0,1-14.46-22.27q-5.33-13.3-5.32-31a70.05,70.05,0,0,1,4.55-25.21,61.16,61.16,0,0,1,33.66-35.07A68,68,0,0,1,1742.13,473.81Zm.77,27.39q-11.4,0-17.79,6.46t-8.45,18.63h49.53a35.08,35.08,0,0,0-1.21-9.22,22.49,22.49,0,0,0-4-8,20.34,20.34,0,0,0-7.23-5.69A24.77,24.77,0,0,0,1742.9,501.2Z" transform="translate(-201.4 -346)"/></svg>