<svg id="Layer_1" data-name="Layer 1" xmlns="http://www.w3.org/2000/svg" xmlns:xlink="http://www.w3.org/1999/xlink" viewBox="0 0 815.46 1000"><defs><style>.cls-1{fill:url(#linear-gradient);}.cls-2{fill:url(#linear-gradient-2);}</style><linearGradient id="linear-gradient" x1="900.88" y1="943.29" x2="903.26" y2="79.55" gradientUnits="userSpaceOnUse"><stop offset="0.02" stop-color="#3eb5ff"/><stop offset="0.04" stop-color="#45adff"/><stop offset="0.12" stop-color="#5b94ff"/><stop offset="0.22" stop-color="#6c80ff"/><stop offset="0.32" stop-color="#7873ff"/><stop offset="0.46" stop-color="#7f6aff"/><stop offset="0.69" stop-color="#8168ff"/></linearGradient><linearGradient id="linear-gradient-2" x1="942.94" y1="185.4" x2="942.69" y2="72.2" gradientUnits="userSpaceOnUse"><stop offset="0" stop-color="#3eb5ff"/><stop offset="1" stop-color="#48e7ff"/></linearGradient></defs><path class="cls-1" d="M1301.51,909.05a75.75,75.75,0,0,0-27.12-56.35l-1-.83a75,75,0,0,0-10.62-7.27c-.5-.3-1-.58-1.53-.86a77.37,77.37,0,0,0-69.77-1.63h0a76.35,76.35,0,0,0-14.12,8.75l0,0a346.41,346.41,0,0,1-175.89,47.66c-192.16,0-347.94-155.77-347.94-347.93a348.2,348.2,0,0,1,5.73-63.12q.28-1.61.6-3.21A347.34,347.34,0,0,1,761.65,298.47L653.79,190.61a500.65,500.65,0,0,0-116,171.72l-1.08,2.72A498.4,498.4,0,0,0,501.4,550c0,276.15,223.86,500,500,500a497.71,497.71,0,0,0,253.07-68.67,76.6,76.6,0,0,0,47.07-70.4C1301.54,910.3,1301.53,909.67,1301.51,909.05Z" transform="translate(-501.4 -50)"/><path class="cls-2" d="M1316.86,199.81c0,42.16-34.39,76.34-76.81,76.34l-1.42,0h-.47a76.79,76.79,0,0,1-37.37-10.68l0,0a79.59,79.59,0,0,1-7.85-5.33,348,348,0,0,0-426.78,34.19c-1.5,1.39-3,2.78-4.48,4.19A347.3,347.3,0,0,0,659.8,484.26c-26.26-27.71-51.11-67.34-69.47-114.1a407,407,0,0,1-21-71.91,501.83,501.83,0,0,1,84.48-107.64q12.29-11.91,25.4-23a500.15,500.15,0,0,1,597.6-35l1.29.86a75,75,0,0,1,10.62,7.27l1.17.83a76.36,76.36,0,0,1,18.51,23.32c.57,1.11,1.11,2.25,1.64,3.39q1.32,2.91,2.42,6c.19.53.37,1.07.55,1.61s.36,1.08.53,1.62c.68,2.19,1.25,4.4,1.72,6.66.22,1.13.43,2.26.63,3.41a77.3,77.3,0,0,1,1,10.39C1316.85,198.55,1316.86,199.18,1316.86,199.81Z" transform="translate(-501.4 -50)"/></svg>