<?xml version="1.0" encoding="utf-8"?>
<!-- Generator: Adobe Illustrator 25.4.1, SVG Export Plug-In . SVG Version: 6.00 Build 0)  -->
<svg version="1.1" id="Layer_1" xmlns="http://www.w3.org/2000/svg" xmlns:xlink="http://www.w3.org/1999/xlink" x="0px" y="0px"
	 viewBox="0 0 1200.9 1074.8" style="enable-background:new 0 0 1200.9 1074.8;" xml:space="preserve">
<style type="text/css">
	.st0{fill:none;stroke:url(#SVGID_1_);stroke-width:7;stroke-miterlimit:10;}
	.st1{fill:none;stroke:url(#SVGID_00000054250697712228134690000013414877929657365950_);stroke-width:7;stroke-miterlimit:10;}
	.st2{fill:none;stroke:url(#SVGID_00000036233795009940405070000012519809211888450220_);stroke-width:7;stroke-miterlimit:10;}
	.st3{fill:none;stroke:url(#SVGID_00000067202319070796064370000008041820631801426050_);stroke-width:7;stroke-miterlimit:10;}
	.st4{fill:none;stroke:url(#SVGID_00000165926044826544857530000016776794872603931546_);stroke-width:7;stroke-miterlimit:10;}
	.st5{fill:none;stroke:url(#SVGID_00000101073811709878213860000011535816834758873241_);stroke-width:7;stroke-miterlimit:10;}
	.st6{fill:none;stroke:url(#SVGID_00000126311046118559362240000016552972795926599597_);stroke-width:7;stroke-miterlimit:10;}
	.st7{fill:url(#SVGID_00000128468903699164110290000002707672676970342784_);}
	.st8{fill:url(#SVGID_00000172413904648773098800000000757883425900255639_);}
	.st9{fill:#2BB673;stroke:#2BB673;stroke-width:7;stroke-miterlimit:10;}
	.st10{fill:none;stroke:#2196BC;stroke-width:7;stroke-miterlimit:10;}
	.st11{fill:none;stroke:url(#SVGID_00000159433485179245498660000016284229674172321182_);stroke-width:7;stroke-miterlimit:10;}
	.st12{fill:none;stroke:url(#SVGID_00000090998964345597588350000000282464942016734882_);stroke-width:7;stroke-miterlimit:10;}
	.st13{fill:none;stroke:url(#SVGID_00000051380306160394536750000015877951274034289028_);stroke-width:7;stroke-miterlimit:10;}
	.st14{fill:none;stroke:url(#SVGID_00000132055617872017082850000005702777283313000889_);stroke-width:7;stroke-miterlimit:10;}
	.st15{fill:none;stroke:url(#SVGID_00000072282099738796574900000002862319191375643826_);stroke-width:7;stroke-miterlimit:10;}
	.st16{fill:none;stroke:url(#SVGID_00000072977120330685956040000008486022768119295626_);stroke-width:7;stroke-miterlimit:10;}
	.st17{fill:none;stroke:url(#SVGID_00000022531549203518717090000013229333053041991818_);stroke-width:7;stroke-miterlimit:10;}
	.st18{fill:url(#SVGID_00000171708258086566152490000006512842453491764656_);}
	.st19{fill:url(#SVGID_00000087400429271689564010000009781225737437035651_);}
</style>
<g id="Layer_1_00000032629035096934825030000009092189548475564968_">
	
		<linearGradient id="SVGID_1_" gradientUnits="userSpaceOnUse" x1="18.6491" y1="1052.584" x2="1191.1083" y2="1052.584" gradientTransform="matrix(1 0 0 -1 0 1640)">
		<stop  offset="0.4693" style="stop-color:#2BB673"/>
		<stop  offset="0.9832" style="stop-color:#085750"/>
	</linearGradient>
	<path class="st0" d="M703,122.4c-7,9.2-18.8,21.9-36.7,30.9c-15.8,8-31,10.4-38.4,11.5c-5.8,0.9-10.2,1.2-12.9,1.3
		c-11.6,0.5-21.2-0.9-39-1.8c-35.3-1.7-64.2,0.8-86.3,2.5c-9,0.7-17.6,1.6-28.7,2.9c-93.5,11.1-168.6,32.4-237.8,67.3
		c-79.8,40.4-125.7,82.7-188.1,173.3c-14.2,20.6-14.1,20.2-11.8,33.8c1.2,7.5,3.7,12.4,10.1,20c11.7,13.9,23.3,21.5,40.9,27.2
		c62.2,19.8,152.2,32.6,295.5,42.1l35.3,2.4l25.3,25.7c39.1,40,54.3,54,65.1,60.4c7.9,4.7,17.8,9,17.8,9c13,6.3,20.8,9.1,32.5,14.2
		c5.3,2.3,14.5,6.5,32.6,14.9c25.8,11.9,58.7,27.3,66.4,20.8c4.8-4,0.9-8,7.4-40.8c1.3-6.3,2.4-10.6,2.7-17.6
		c0.8-20.9-2.9-36.6-13.4-56.9c-3.2-6.2-5.8-11.6-5.8-11.9c0-1.1,12.2,0.3,36.4,4.1c83.9,12.8,119.8,24.2,158.7,50.1
		c47.6,31.9,94.4,76.9,133.1,128.1c11.7,15.6,29.9,41.5,29.9,42.8c0,0.6-7.6,8.7-16.8,18c-9.2,9.4-19.6,20.6-23,24.8
		c-19.2,24.2-38.4,60.9-41.3,78.8c-0.5,3.4-0.2,4.3,2.4,7.3l3,3.4l15.2,0.6c21.7,0.8,25.8,1.7,67.6,16.2c8,2.8,16.9,5.2,19.7,5.5
		c5.9,0.7,12.2-1.4,16.8-5.2c1.6-1.4,3.3-2.2,3.8-2c0.5,0.1,3.2,3.3,6.1,7.1c7,9.1,14.6,14.9,32.3,25c8.2,4.8,17.4,10.4,20.1,12.6
		c15,11.7,32.5,29.7,53.4,54.9c6.5,7.8,14.2,16.7,17.2,19.8c6.1,6.3,8.9,7,13.3,3.3c2.3-2,2.7-3.2,3.6-12.4
		c1.2-12.1-0.4-52-2.8-67.8c-5.1-34.5-15.6-68.2-31-99.5c-13.6-27.8-29.2-50.7-52.1-76.8l-11.2-12.6l-0.6-29.6
		c-1-41.8-3.3-69.6-9-106.7c-19.6-127-70.8-242.1-150-337.1c-5.6-6.8-58-58.9-73.7-73.4c-0.2-0.2-0.5-0.4-0.8-0.7
		c-0.4-0.4-5.2-4.9-10-10c-7.6-8.1-11.4-12.1-14-16c-3.1-4.6-7.3-12.8-8.3-25.5"/>
	
		<linearGradient id="SVGID_00000040560873526237583060000016112285176407902094_" gradientUnits="userSpaceOnUse" x1="39.3395" y1="1038.9653" x2="1170.5087" y2="1038.9653" gradientTransform="matrix(1 0 0 -1 0 1640)">
		<stop  offset="0" style="stop-color:#2196BC"/>
		<stop  offset="0.9832" style="stop-color:#085750"/>
	</linearGradient>
	
		<path style="fill:none;stroke:url(#SVGID_00000040560873526237583060000016112285176407902094_);stroke-width:7;stroke-miterlimit:10;" d="
		M648.4,185.9c32,0.5,49.8,1.8,66.1,13.8c10.3,7.6,16.5,16.8,20.2,23.3c4,10.2,10.3,24.8,20.1,41.6c4.4,7.5,6.6,12.2,11,17.3
		c8.4,9.9,19.7,15.8,46.8,37.3c37.3,29.4,40.9,31.5,49.5,30c5.2-1.1,10-6.1,16.4-17.7c3.2-5.8,7.9-12.6,10.3-15.1
		c4.3-4.5,4.6-4.7,10-4.7c3,0,6.7,0.6,8.2,1.4c5.1,2.6,22.1,22.8,38.1,45.2c48.1,67.3,81.8,140.7,102.7,224
		c14.8,59.3,21.6,111.6,23.1,178.8l0.6,29.6l10,11.2c24.5,27.4,37.7,46.6,52.5,76.1c16.1,32,25.4,62.5,29.8,97.1
		c1.7,13.2,3.7,40.4,3.1,41c-0.9,1-3.6-1.6-17.8-17.2c-15.7-17.3-31.3-32.5-40-39.3c-3-2.2-10.7-7.1-17.1-10.7
		c-20.6-11.7-25.2-14.8-30.8-20.7c-5.6-5.9-10.6-14.8-12.5-22.4c-1.1-4.6-5.5-9.8-8.2-9.8c-4.5,0-7.9,2.9-10.6,9.2
		c-2.4,5.6-8.7,13.1-11.1,13.1c-0.5,0-10.4-3.3-22.1-7.4c-27.1-9.3-44.8-14-56.5-14.7c-6.4-0.4-9.2-1-9.6-1.9
		c-0.8-1.9,13.5-30.5,20.6-41c7.2-10.8,16.6-21.5,41-47c9.7-10.1,18-19.3,18.2-20.5c0.3-1.4-0.5-4.3-1.9-7.5
		c-5.5-11.6-29.9-46.3-49-69.7c-11-13.4-15-17.9-39.3-43.1l-20.4-21.2l2.1-10.6c2.5-12.2,7.2-26.7,9.2-28.8c1.4-1.3,2.1-1.1,6.9,1.6
		c3,1.6,16.7,10.6,30.5,19.8c27.9,18.8,31.9,20.7,42.8,19.9c8.6-0.7,16.8-4.9,23.9-12.5c13.1-14.2,12.3-29.2-3-61
		c-10.6-21.9-22.6-38-39.9-53.5c-15.3-13.7-35.7-25.5-51.7-29.9c-10.5-2.9-32.9-2.9-42.3,0c-13.6,4.2-21.1,8.8-36.8,23.1
		c-16.5,14.8-37.9,23.3-90.5,35.4l-18.6,4.3l-18.1-3.2c-39.9-7.1-74.6-11.8-93.1-12.8c-11.3-0.6-11.8-0.5-14,1.6
		c-3.4,3.4-2.1,7.5,6.2,19.8c8.2,12.2,18.1,30.5,21,38.9c1.6,4.7,1.9,8.2,1.9,20.6c0,7.1-0.5,6.6-0.6,11.5
		c-0.1,5.7,0.3,6.1,0.2,10.7c-0.1,5.5-0.7,9.8-1.4,14.4c-1.3,8.3-1.8,12.5-2.6,13.4c-7.8,8.8-48.8-22.1-111.6-50.1
		c-9.3-4.2-18.3-5.8-27.6-14.3c-2.4-2.2-22.1-21.3-43.8-42.5c-38.6-37.8-39.4-38.5-44.1-39.2l-4.7-0.8l2.7-2.8
		c2.7-2.8,19.7-16.3,44.6-35.5c6.3-4.9,14.4-11.7,17.8-15.2c11.3-0.9,22.6-1.8,33.9-2.7c5.2,0.2,10.1-2.6,12.4-7.3
		c2.2-4.5,1.7-9.8-1.3-13.8c-7.7-11.8-15.9-17.7-21.9-20.9c-29.4-15.6-62.3,3.1-98.3-4.4c-2.7-0.6-10.6-2.3-21.7-3.7
		c-7.6-1-15.2-1.5-24.4-1.7c-30.8-1.2-47.8,0.6-123.2,12.6c-36,5.7-60.5,9.2-84.4,11.8c-21,2.4-68,2.4-82.5,0.1
		c-5.5-0.9-10.5-2-10.9-2.4c-1.8-1.8,36.9-55.3,57.9-79.8c40.3-47.1,96.2-85.9,165.2-114.9c60.1-25.2,128-41.3,211.4-50.2
		c4.9-0.5,9.7-0.9,9.7-0.9c36.8-3.2,62.9-2.1,85.4-1.8C611.4,187.2,608.3,185.3,648.4,185.9z"/>
	
		<linearGradient id="SVGID_00000000903086172687197330000008339556054571697817_" gradientUnits="userSpaceOnUse" x1="750.8573" y1="1359.9214" x2="892.8118" y2="1359.9214" gradientTransform="matrix(1 0 0 -1 0 1640)">
		<stop  offset="0" style="stop-color:#2BB673"/>
		<stop  offset="0.9832" style="stop-color:#085750"/>
	</linearGradient>
	
		<path style="fill:none;stroke:url(#SVGID_00000000903086172687197330000008339556054571697817_);stroke-width:7;stroke-miterlimit:10;" d="
		M800.7,239.4c45.5,6.6,41,5.4,50.3,13.3c4.4,3.8,15,13.4,23.8,21.5c13.1,12.2,15.5,14.8,14.2,15.6c-11,6.7-13.2,8.5-17.9,15.2
		c-2.8,3.9-6.3,9.7-8,12.9c-3.3,6.6-5.3,9.2-7.2,9.2c-0.7,0-5.5-3.6-10.8-7.9C840,315,827.4,305,817.2,297
		c-22.5-17.5-31.2-24.9-38.6-33.6c-5.9-6.9-15.1-19.4-19.1-25.9l-2.2-3.8l7.2,0.7C768.4,234.8,784.7,237,800.7,239.4z"/>
	
		<linearGradient id="SVGID_00000120524492215799490150000005128404834802570422_" gradientUnits="userSpaceOnUse" x1="39.4765" y1="1166.8821" x2="453.9016" y2="1166.8821" gradientTransform="matrix(1 0 0 -1 0 1640)">
		<stop  offset="0" style="stop-color:#2BB673"/>
		<stop  offset="0.9832" style="stop-color:#085750"/>
	</linearGradient>
	
		<path style="fill:none;stroke:url(#SVGID_00000120524492215799490150000005128404834802570422_);stroke-width:7;stroke-miterlimit:10;" d="
		M375.7,431.9c24.3,4.3,53.8,12.6,69.3,19.6c5.4,2.4,6.1,3,4.9,4.2c-0.8,0.8-10.5,8.2-21.7,16.6s-28.5,21.8-38.5,29.8l-18.1,14.5
		l-20.2-1.6c-101.9-7.7-165.9-15.2-215.2-25.3c-52.3-10.8-75.1-19.5-89.3-34.4c-4.8-4.9-4.9-5-1.9-4.5c13.3,2.5,21.8,3,49.5,3
		c38.4,0,45.9-0.8,140.2-15c28-4.2,54.2-8.2,58.2-8.6c4-0.5,21.7-0.8,39.3-0.6C359.3,429.9,365.8,430.1,375.7,431.9z"/>
	
		<linearGradient id="SVGID_00000075883154839613852230000012526742044370413221_" gradientUnits="userSpaceOnUse" x1="769.3685" y1="1072.964" x2="1008.297" y2="1072.964" gradientTransform="matrix(1 0 0 -1 0 1640)">
		<stop  offset="0" style="stop-color:#2BB673"/>
		<stop  offset="0.9832" style="stop-color:#085750"/>
	</linearGradient>
	
		<path style="fill:none;stroke:url(#SVGID_00000075883154839613852230000012526742044370413221_);stroke-width:7;stroke-miterlimit:10;" d="
		M928.7,517.6c17.9,13.6,21.3,6.4,37.7,18.2c0,0,29.2,15.5,37.7,66c1,5.8,1,7.4-0.5,11.2c-2.6,6.7-11.1,12-16.9,10.7
		c-4-0.9-11.5-5.4-28.6-17.7c-17.6-12.5-32.7-21.7-40.3-24.6c-4.7-1.7-6.1-1.9-9.1-1.1c-3.1,0.9-15.2,9.3-19.2,29.8
		c-2.7,14.2,0.9,21.6-2.2,23.1c-3.9,1.8-10.5-9.5-23.5-22.2c0,0-23.2-19.4-57.4-36.6c-6.8-3.4-13.5-6.3-21.4-9.5
		c-7.1-2.8-12.6-5.4-12.1-5.8c0.4-0.5,6.2-2.4,12.9-4.4c12.8-3.8,35.7-12.5,44.6-17c6.6-3.4,12.8-8,24.1-18
		c10.3-9,17.5-13.7,26.3-16.8c2-0.7,3.7-1.2,5.3-1.5c0,0,6.4-1.3,13.2-0.4C909.8,502.6,924.4,514.3,928.7,517.6z"/>
	
		<linearGradient id="SVGID_00000070825090603297655220000001620717443756592550_" gradientUnits="userSpaceOnUse" x1="286.6204" y1="1291.8237" x2="483.6426" y2="1291.8237" gradientTransform="matrix(1 0 0 -1 0 1640)">
		<stop  offset="0" style="stop-color:#2BB673"/>
		<stop  offset="0.9832" style="stop-color:#085750"/>
	</linearGradient>
	
		<path style="fill:none;stroke:url(#SVGID_00000070825090603297655220000001620717443756592550_);stroke-width:7;stroke-miterlimit:10;" d="
		M421.3,303c-15.5,1.4-40.8,5.5-53.3,8.6c-40.2,10.2-63.3,24.2-72.8,44c-4.9,10.2-5.9,15-4.5,21.1c2.9,12.3,18.4,18.4,42.7,17.1
		c27.8-1.6,56.7-11.9,87.8-31.6c17.7-11.2,24.2-14.8,37.2-20.5c12.3-5.4,18.9-9.5,20.7-12.6c1.6-2.9,1.3-9.9-0.5-13.3
		c-4.2-8.1-17-12.8-35.5-13.3C436.4,302.2,426.6,302.5,421.3,303z"/>
	
		<linearGradient id="SVGID_00000109746500792353690580000006451120562318179262_" gradientUnits="userSpaceOnUse" x1="304.9258" y1="1291.7651" x2="460.6155" y2="1291.7651" gradientTransform="matrix(1 0 0 -1 0 1640)">
		<stop  offset="0" style="stop-color:#2BB673"/>
		<stop  offset="0.9832" style="stop-color:#085750"/>
	</linearGradient>
	
		<path style="fill:none;stroke:url(#SVGID_00000109746500792353690580000006451120562318179262_);stroke-width:7;stroke-miterlimit:10;" d="
		M457.1,321.2c0.3,0.5-3.8,2.7-8.9,5c-11.3,5-22.2,11.4-40,22.7c-23.3,14.9-41.7,22.9-60.1,25.9c-8.6,1.5-32.8,1.5-36.3,0.1
		c-1.5-0.7-2.9-1.8-3.3-2.8c-0.9-2.2,6.6-16.6,10.9-20.9c8-8,33.6-18.7,55.8-23.5c10.8-2.3,34.7-6,43.7-6.7
		C428.3,320.3,456.6,320.4,457.1,321.2z"/>
	<g>
		<g>
			<g>
				
					<linearGradient id="SVGID_00000132785386232736040690000014185963738380364950_" gradientUnits="userSpaceOnUse" x1="672.3283" y1="1582.5874" x2="895.896" y2="1502.4247" gradientTransform="matrix(1 0 0 -1 0 1640)">
					<stop  offset="0.4476" style="stop-color:#2BB673"/>
					<stop  offset="1" style="stop-color:#085750"/>
				</linearGradient>
				<path style="fill:url(#SVGID_00000132785386232736040690000014185963738380364950_);" d="M638.1,163.4
					c5.2-1.6,10.5-3.6,15.5-5.9c5-2.2,9.9-4.9,14.5-7.8c9.2-5.8,17.3-13.2,24.7-21.3c3.8-4,7.5-8.2,11.1-12.3
					c3.6-4.2,7.2-8.3,10.7-12.6C721.4,95,727.9,86,734,76.9v-0.1l0.1-0.2c2.8-3.7,5.8-7.3,9-10.7c3.1-3.4,6.5-6.7,9.8-9.9
					c6.9-6.3,14.3-12,22-17.1c7.9-5,16.1-9.4,24.7-13c8.5-3.8,17.7-6.3,26.7-8.6c18.1-4.3,37.5-5.7,56.3-2.1c4.8,0.9,9.4,2,14,3.5
					s9,3.2,13.4,5.2c2.2,1.1,4.4,2.1,6.5,3.5c2.1,1.3,4.3,2.7,6.5,4.5c1.1,1,2.2,1.9,3.3,3.3l0.4,0.6c0.1,0.2,0.3,0.4,0.5,0.7
					c0.2,0.2,0.3,0.4,0.4,0.7L928,38c0.3,0.5,0.6,1.3,0.8,1.9c0.1,0.4,0.2,0.9,0.3,1.4c0,0.2,0.1,0.4,0.1,0.7s0,0.6,0,0.8
					c0,1.1-0.2,2.2-0.7,3.3c-0.3,0.6-0.6,1.2-0.9,1.6c-0.4,0.5-0.8,1-1.2,1.5c-0.4,0.4-0.8,0.7-1.2,1s-0.7,0.4-1,0.6
					c-0.2,0.1-0.3,0.2-0.5,0.3l-0.4,0.2l-0.7,0.3c-1.6,0.6-2.6,0.9-3.8,1.3c-2.1,0.7-4.1,1.4-6,2c-1.9,0.8-4,1.6-5.9,2.4
					c-4.1,1.7-7.8,3.5-11.3,5.6c-3.5,2.1-6.5,4.5-9.5,7.4c-1.5,1.5-3.1,3.1-4.7,4.7c-1.6,1.6-3.1,3.1-4.6,4.8
					c-6.1,6.4-11.8,13-17.2,20c-2.7,3.5-5.2,7-7.7,10.6c-2.4,3.6-4.8,7.3-6.8,11c-0.3,0.5-0.5,0.9-0.7,1.3l-0.8,1.5
					c-0.5,1-1,1.9-1.5,2.9c-1,1.9-1.8,4-2.7,5.9c-1.7,4-3.3,8-4.7,12c-2.7,8.2-4.8,16.5-5.4,25c-0.4,4.3-0.6,8.5-0.5,13
					c0,2.1,0.2,4.2,0.5,6.3c0.3,2,0.7,4.2,1.3,6.2c1.1,4.2,2.7,8.2,4.7,12.1c2,3.9,4.5,7.7,7.2,11.3l-0.8,0.7
					c-3.6-2.8-6.9-6.1-9.9-9.8c-2.9-3.7-5.4-7.8-7.4-12.1c-2-4.4-3.3-9.2-4-14c-0.7-4.6-1.1-9.4-1.2-14.2
					c-0.1-9.5,1.4-19.1,3.8-28.2c1.3-4.6,2.7-9,4.5-13.5c0.9-2.2,1.7-4.4,2.7-6.5c0.5-1.1,1-2.1,1.5-3.2l0.8-1.6
					c0.3-0.6,0.6-1.2,0.9-1.7c2.2-4.3,4.8-8.2,7.4-12.1c2.6-3.9,5.3-7.7,8.1-11.4c5.6-7.4,11.6-14.5,18-21.3
					c1.6-1.7,3.2-3.3,4.9-4.9s3.1-3.2,4.9-4.9c3.5-3.4,7.7-6.6,11.9-9.2c4.3-2.6,8.7-4.7,13-6.5c2.2-1,4.4-1.8,6.7-2.6
					c2.2-0.8,4.6-1.6,6.8-2.2c1.1-0.3,2.2-0.7,2.7-0.9c0,0,0,0,0.1,0l0,0h0.1c-0.1,0.1-0.1,0.1-0.3,0.2c-0.2,0.1-0.4,0.3-0.5,0.4
					c-0.3,0.2-0.5,0.5-0.7,0.8s-0.4,0.6-0.5,0.9c-0.3,0.6-0.3,1.3-0.4,1.6c0,0.1,0,0.3,0,0.4v0.3c0,0.2,0.1,0.4,0.1,0.5
					c0,0.2,0.2,0.4,0.1,0.4c0,0,0,0,0,0.1l0,0c0,0,0,0,0-0.1l-0.1-0.1c-0.3-0.4-0.8-0.9-1.5-1.5c-1.3-1.1-2.9-2.2-4.7-3.3
					s-3.6-2-5.4-2.9c-7.6-3.7-15.7-6.5-24-8.2c-1.1-0.3-2-0.4-3.1-0.6s-2.1-0.4-3.1-0.5c-2.1-0.3-4.3-0.6-6.4-0.8
					c-4.3-0.4-8.5-0.6-12.8-0.5c-8.6,0.2-17.2,1.2-25.8,3l-1.6,0.3l-1.6,0.4l-3.2,0.8c-2.1,0.5-4.3,1-6.3,1.6l-6.2,1.9l-6.1,2.2
					c-8.2,3.2-16,7-23.5,11.5s-14.7,9.7-21.3,15.4c-3.3,2.9-6.5,5.9-9.6,9s-6,6.4-8.8,9.8l0.2-0.2c-6.5,9.2-13.4,18.1-20.8,26.6
					c-3.7,4.3-7.4,8.4-11.3,12.5c-3.9,4.1-7.8,8.1-11.8,11.9s-8.2,7.7-12.7,11.2s-9.3,6.6-14.3,9.3c-4.9,2.7-10.2,4.9-15.5,6.8
					c-5.3,1.8-10.7,3.4-16.2,4.5L638.1,163.4z"/>
			</g>
		</g>
		<g>
			
				<linearGradient id="SVGID_00000144326188846484146380000007948201694594401692_" gradientUnits="userSpaceOnUse" x1="752.1086" y1="1586.4475" x2="845.794" y2="1552.8556" gradientTransform="matrix(1 0 0 -1 0 1640)">
				<stop  offset="0.375" style="stop-color:#2196BC"/>
				<stop  offset="0.7933" style="stop-color:#062D5A"/>
			</linearGradient>
			<path style="fill:url(#SVGID_00000144326188846484146380000007948201694594401692_);" d="M736.9,109.4
				c5-11.9,12.6-22.8,21.5-32.3c4.5-4.9,9.3-9.1,14.5-13.3l3.9-3l1.9-1.5l2-1.4l4.1-2.7c1.4-0.9,2.8-1.6,4.2-2.5
				c1.5-0.8,2.8-1.7,4.3-2.4l4.4-2.2c2.9-1.6,5.9-2.8,8.8-4.2c6-2.6,12.1-4.8,18.4-6.5c12.5-3.5,25.4-5.5,38.3-5.5
				c-12.3,3.7-24.4,7.7-35.9,12.4c-5.8,2.3-11.5,4.9-17,7.8c-5.5,2.8-11.1,5.7-16.3,9c-5.3,3.2-10.4,6.7-15.4,10.3l-3.7,2.8
				l-1.8,1.4l-1.8,1.5c-1.2,1-2.4,1.9-3.6,2.9c-1.2,1.1-2.3,2-3.6,3c-4.7,4.1-9.3,8.3-13.7,12.8c-2.2,2.2-4.4,4.6-6.5,6.9
				c-1.1,1.2-2.1,2.3-3.2,3.5c-1.1,1.2-2.1,2.4-3.2,3.6L736.9,109.4z"/>
		</g>
	</g>
	<path class="st9" d="M471.5,460"/>
	<path class="st10" d="M844.7,579.8"/>
	<g>
	</g>
</g>
<g id="Layer_2_00000127764355083260885410000004045861888837700522_">
</g>
<g>
	<g id="Layer_1_00000115513019359211188560000018323805854497098886_">
		
			<linearGradient id="SVGID_00000052070759872058638650000014296474336572660631_" gradientUnits="userSpaceOnUse" x1="18.6491" y1="1052.584" x2="1191.1083" y2="1052.584" gradientTransform="matrix(1 0 0 -1 0 1640)">
			<stop  offset="0.4693" style="stop-color:#2BB673"/>
			<stop  offset="0.9832" style="stop-color:#085750"/>
		</linearGradient>
		
			<path style="fill:none;stroke:url(#SVGID_00000052070759872058638650000014296474336572660631_);stroke-width:7;stroke-miterlimit:10;" d="
			M703,122.4c-7,9.2-18.8,21.9-36.7,30.9c-15.8,8-31,10.4-38.4,11.5c-5.8,0.9-10.2,1.2-12.9,1.3c-11.6,0.5-21.2-0.9-39-1.8
			c-35.3-1.7-64.2,0.8-86.3,2.5c-9,0.7-17.6,1.6-28.7,2.9c-93.5,11.1-168.6,32.4-237.8,67.3c-79.8,40.4-125.7,82.7-188.1,173.3
			c-14.2,20.6-14.1,20.2-11.8,33.8c1.2,7.5,3.7,12.4,10.1,20c11.7,13.9,23.3,21.5,40.9,27.2c62.2,19.8,152.2,32.6,295.5,42.1
			l35.3,2.4l25.3,25.7c39.1,40,54.3,54,65.1,60.4c7.9,4.7,17.8,9,17.8,9c13,6.3,20.8,9.1,32.5,14.2c5.3,2.3,14.5,6.5,32.6,14.9
			c25.8,11.9,58.7,27.3,66.4,20.8c4.8-4,0.9-8,7.4-40.8c1.3-6.3,2.4-10.6,2.7-17.6c0.8-20.9-2.9-36.6-13.4-56.9
			c-3.2-6.2-5.8-11.6-5.8-11.9c0-1.1,12.2,0.3,36.4,4.1c83.9,12.8,119.8,24.2,158.7,50.1c47.6,31.9,94.4,76.9,133.1,128.1
			c11.7,15.6,29.9,41.5,29.9,42.8c0,0.6-7.6,8.7-16.8,18c-9.2,9.4-19.6,20.6-23,24.8c-19.2,24.2-38.4,60.9-41.3,78.8
			c-0.5,3.4-0.2,4.3,2.4,7.3l3,3.4l15.2,0.6c21.7,0.8,25.8,1.7,67.6,16.2c8,2.8,16.9,5.2,19.7,5.5c5.9,0.7,12.2-1.4,16.8-5.2
			c1.6-1.4,3.3-2.2,3.8-2c0.5,0.1,3.2,3.3,6.1,7.1c7,9.1,14.6,14.9,32.3,25c8.2,4.8,17.4,10.4,20.1,12.6
			c15,11.7,32.5,29.7,53.4,54.9c6.5,7.8,14.2,16.7,17.2,19.8c6.1,6.3,8.9,7,13.3,3.3c2.3-2,2.7-3.2,3.6-12.4
			c1.2-12.1-0.4-52-2.8-67.8c-5.1-34.5-15.6-68.2-31-99.5c-13.6-27.8-29.2-50.7-52.1-76.8l-11.2-12.6l-0.6-29.6
			c-1-41.8-3.3-69.6-9-106.7c-19.6-127-70.8-242.1-150-337.1c-5.6-6.8-58-58.9-73.7-73.4c-0.2-0.2-0.5-0.4-0.8-0.7
			c-0.4-0.4-5.2-4.9-10-10c-7.6-8.1-11.4-12.1-14-16c-3.1-4.6-7.3-12.8-8.3-25.5"/>
		
			<linearGradient id="SVGID_00000026160253408309189210000002194983837190049451_" gradientUnits="userSpaceOnUse" x1="39.3395" y1="1038.9653" x2="1170.5087" y2="1038.9653" gradientTransform="matrix(1 0 0 -1 0 1640)">
			<stop  offset="0" style="stop-color:#2196BC"/>
			<stop  offset="0.9832" style="stop-color:#085750"/>
		</linearGradient>
		
			<path style="fill:none;stroke:url(#SVGID_00000026160253408309189210000002194983837190049451_);stroke-width:7;stroke-miterlimit:10;" d="
			M648.4,185.9c32,0.5,49.8,1.8,66.1,13.8c10.3,7.6,16.5,16.8,20.2,23.3c4,10.2,10.3,24.8,20.1,41.6c4.4,7.5,6.6,12.2,11,17.3
			c8.4,9.9,19.7,15.8,46.8,37.3c37.3,29.4,40.9,31.5,49.5,30c5.2-1.1,10-6.1,16.4-17.7c3.2-5.8,7.9-12.6,10.3-15.1
			c4.3-4.5,4.6-4.7,10-4.7c3,0,6.7,0.6,8.2,1.4c5.1,2.6,22.1,22.8,38.1,45.2c48.1,67.3,81.8,140.7,102.7,224
			c14.8,59.3,21.6,111.6,23.1,178.8l0.6,29.6l10,11.2c24.5,27.4,37.7,46.6,52.5,76.1c16.1,32,25.4,62.5,29.8,97.1
			c1.7,13.2,3.7,40.4,3.1,41c-0.9,1-3.6-1.6-17.8-17.2c-15.7-17.3-31.3-32.5-40-39.3c-3-2.2-10.7-7.1-17.1-10.7
			c-20.6-11.7-25.2-14.8-30.8-20.7c-5.6-5.9-10.6-14.8-12.5-22.4c-1.1-4.6-5.5-9.8-8.2-9.8c-4.5,0-7.9,2.9-10.6,9.2
			c-2.4,5.6-8.7,13.1-11.1,13.1c-0.5,0-10.4-3.3-22.1-7.4c-27.1-9.3-44.8-14-56.5-14.7c-6.4-0.4-9.2-1-9.6-1.9
			c-0.8-1.9,13.5-30.5,20.6-41c7.2-10.8,16.6-21.5,41-47c9.7-10.1,18-19.3,18.2-20.5c0.3-1.4-0.5-4.3-1.9-7.5
			c-5.5-11.6-29.9-46.3-49-69.7c-11-13.4-15-17.9-39.3-43.1l-20.4-21.2l2.1-10.6c2.5-12.2,7.2-26.7,9.2-28.8
			c1.4-1.3,2.1-1.1,6.9,1.6c3,1.6,16.7,10.6,30.5,19.8c27.9,18.8,31.9,20.7,42.8,19.9c8.6-0.7,16.8-4.9,23.9-12.5
			c13.1-14.2,12.3-29.2-3-61c-10.6-21.9-22.6-38-39.9-53.5c-15.3-13.7-35.7-25.5-51.7-29.9c-10.5-2.9-32.9-2.9-42.3,0
			c-13.6,4.2-21.1,8.8-36.8,23.1c-16.5,14.8-37.9,23.3-90.5,35.4l-18.6,4.3l-18.1-3.2c-39.9-7.1-74.6-11.8-93.1-12.8
			c-11.3-0.6-11.8-0.5-14,1.6c-3.4,3.4-2.1,7.5,6.2,19.8c8.2,12.2,18.1,30.5,21,38.9c1.6,4.7,1.9,8.2,1.9,20.6
			c0,7.1-0.5,6.6-0.6,11.5c-0.1,5.7,0.3,6.1,0.2,10.7c-0.1,5.5-0.7,9.8-1.4,14.4c-1.3,8.3-1.8,12.5-2.6,13.4
			c-7.8,8.8-48.8-22.1-111.6-50.1c-9.3-4.2-18.3-5.8-27.6-14.3c-2.4-2.2-22.1-21.3-43.8-42.5c-38.6-37.8-39.4-38.5-44.1-39.2
			l-4.7-0.8l2.7-2.8c2.7-2.8,19.7-16.3,44.6-35.5c6.3-4.9,14.4-11.7,17.8-15.2c11.3-0.9,22.6-1.8,33.9-2.7
			c5.2,0.2,10.1-2.6,12.4-7.3c2.2-4.5,1.7-9.8-1.3-13.8c-7.7-11.8-15.9-17.7-21.9-20.9c-29.4-15.6-62.3,3.1-98.3-4.4
			c-2.7-0.6-10.6-2.3-21.7-3.7c-7.6-1-15.2-1.5-24.4-1.7c-30.8-1.2-47.8,0.6-123.2,12.6c-36,5.7-60.5,9.2-84.4,11.8
			c-21,2.4-68,2.4-82.5,0.1c-5.5-0.9-10.5-2-10.9-2.4c-1.8-1.8,36.9-55.3,57.9-79.8c40.3-47.1,96.2-85.9,165.2-114.9
			c60.1-25.2,128-41.3,211.4-50.2c4.9-0.5,9.7-0.9,9.7-0.9c36.8-3.2,62.9-2.1,85.4-1.8C611.4,187.2,608.3,185.3,648.4,185.9z"/>
		
			<linearGradient id="SVGID_00000164485543878324435530000007817024229550981268_" gradientUnits="userSpaceOnUse" x1="750.8573" y1="1359.9214" x2="892.8118" y2="1359.9214" gradientTransform="matrix(1 0 0 -1 0 1640)">
			<stop  offset="0" style="stop-color:#2BB673"/>
			<stop  offset="0.9832" style="stop-color:#085750"/>
		</linearGradient>
		
			<path style="fill:none;stroke:url(#SVGID_00000164485543878324435530000007817024229550981268_);stroke-width:7;stroke-miterlimit:10;" d="
			M800.7,239.4c45.5,6.6,41,5.4,50.3,13.3c4.4,3.8,15,13.4,23.8,21.5c13.1,12.2,15.5,14.8,14.2,15.6c-11,6.7-13.2,8.5-17.9,15.2
			c-2.8,3.9-6.3,9.7-8,12.9c-3.3,6.6-5.3,9.2-7.2,9.2c-0.7,0-5.5-3.6-10.8-7.9C840,315,827.4,305,817.2,297
			c-22.5-17.5-31.2-24.9-38.6-33.6c-5.9-6.9-15.1-19.4-19.1-25.9l-2.2-3.8l7.2,0.7C768.4,234.8,784.7,237,800.7,239.4z"/>
		
			<linearGradient id="SVGID_00000095331061160413298020000015816724863549213621_" gradientUnits="userSpaceOnUse" x1="39.4765" y1="1166.8821" x2="453.9016" y2="1166.8821" gradientTransform="matrix(1 0 0 -1 0 1640)">
			<stop  offset="0" style="stop-color:#2BB673"/>
			<stop  offset="0.9832" style="stop-color:#085750"/>
		</linearGradient>
		
			<path style="fill:none;stroke:url(#SVGID_00000095331061160413298020000015816724863549213621_);stroke-width:7;stroke-miterlimit:10;" d="
			M375.7,431.9c24.3,4.3,53.8,12.6,69.3,19.6c5.4,2.4,6.1,3,4.9,4.2c-0.8,0.8-10.5,8.2-21.7,16.6s-28.5,21.8-38.5,29.8l-18.1,14.5
			l-20.2-1.6c-101.9-7.7-165.9-15.2-215.2-25.3c-52.3-10.8-75.1-19.5-89.3-34.4c-4.8-4.9-4.9-5-1.9-4.5c13.3,2.5,21.8,3,49.5,3
			c38.4,0,45.9-0.8,140.2-15c28-4.2,54.2-8.2,58.2-8.6c4-0.5,21.7-0.8,39.3-0.6C359.3,429.9,365.8,430.1,375.7,431.9z"/>
		
			<linearGradient id="SVGID_00000098191169177664749780000015305033668210727090_" gradientUnits="userSpaceOnUse" x1="769.3685" y1="1072.964" x2="1008.297" y2="1072.964" gradientTransform="matrix(1 0 0 -1 0 1640)">
			<stop  offset="0" style="stop-color:#2BB673"/>
			<stop  offset="0.9832" style="stop-color:#085750"/>
		</linearGradient>
		
			<path style="fill:none;stroke:url(#SVGID_00000098191169177664749780000015305033668210727090_);stroke-width:7;stroke-miterlimit:10;" d="
			M928.7,517.6c17.9,13.6,21.3,6.4,37.7,18.2c0,0,29.2,15.5,37.7,66c1,5.8,1,7.4-0.5,11.2c-2.6,6.7-11.1,12-16.9,10.7
			c-4-0.9-11.5-5.4-28.6-17.7c-17.6-12.5-32.7-21.7-40.3-24.6c-4.7-1.7-6.1-1.9-9.1-1.1c-3.1,0.9-15.2,9.3-19.2,29.8
			c-2.7,14.2,0.9,21.6-2.2,23.1c-3.9,1.8-10.5-9.5-23.5-22.2c0,0-23.2-19.4-57.4-36.6c-6.8-3.4-13.5-6.3-21.4-9.5
			c-7.1-2.8-12.6-5.4-12.1-5.8c0.4-0.5,6.2-2.4,12.9-4.4c12.8-3.8,35.7-12.5,44.6-17c6.6-3.4,12.8-8,24.1-18
			c10.3-9,17.5-13.7,26.3-16.8c2-0.7,3.7-1.2,5.3-1.5c0,0,6.4-1.3,13.2-0.4C909.8,502.6,924.4,514.3,928.7,517.6z"/>
		
			<linearGradient id="SVGID_00000073719138885963004310000012031770674372607394_" gradientUnits="userSpaceOnUse" x1="286.6204" y1="1291.8237" x2="483.6426" y2="1291.8237" gradientTransform="matrix(1 0 0 -1 0 1640)">
			<stop  offset="0" style="stop-color:#2BB673"/>
			<stop  offset="0.9832" style="stop-color:#085750"/>
		</linearGradient>
		
			<path style="fill:none;stroke:url(#SVGID_00000073719138885963004310000012031770674372607394_);stroke-width:7;stroke-miterlimit:10;" d="
			M421.3,303c-15.5,1.4-40.8,5.5-53.3,8.6c-40.2,10.2-63.3,24.2-72.8,44c-4.9,10.2-5.9,15-4.5,21.1c2.9,12.3,18.4,18.4,42.7,17.1
			c27.8-1.6,56.7-11.9,87.8-31.6c17.7-11.2,24.2-14.8,37.2-20.5c12.3-5.4,18.9-9.5,20.7-12.6c1.6-2.9,1.3-9.9-0.5-13.3
			c-4.2-8.1-17-12.8-35.5-13.3C436.4,302.2,426.6,302.5,421.3,303z"/>
		
			<linearGradient id="SVGID_00000078003215258807720580000010742412829832563893_" gradientUnits="userSpaceOnUse" x1="304.9258" y1="1291.7651" x2="460.6155" y2="1291.7651" gradientTransform="matrix(1 0 0 -1 0 1640)">
			<stop  offset="0" style="stop-color:#2BB673"/>
			<stop  offset="0.9832" style="stop-color:#085750"/>
		</linearGradient>
		
			<path style="fill:none;stroke:url(#SVGID_00000078003215258807720580000010742412829832563893_);stroke-width:7;stroke-miterlimit:10;" d="
			M457.1,321.2c0.3,0.5-3.8,2.7-8.9,5c-11.3,5-22.2,11.4-40,22.7c-23.3,14.9-41.7,22.9-60.1,25.9c-8.6,1.5-32.8,1.5-36.3,0.1
			c-1.5-0.7-2.9-1.8-3.3-2.8c-0.9-2.2,6.6-16.6,10.9-20.9c8-8,33.6-18.7,55.8-23.5c10.8-2.3,34.7-6,43.7-6.7
			C428.3,320.3,456.6,320.4,457.1,321.2z"/>
		<g>
			<g>
				<g>
					
						<linearGradient id="SVGID_00000011723162375585263530000001541041829145812406_" gradientUnits="userSpaceOnUse" x1="672.3283" y1="1582.5874" x2="895.896" y2="1502.4247" gradientTransform="matrix(1 0 0 -1 0 1640)">
						<stop  offset="0.4476" style="stop-color:#2BB673"/>
						<stop  offset="1" style="stop-color:#085750"/>
					</linearGradient>
					<path style="fill:url(#SVGID_00000011723162375585263530000001541041829145812406_);" d="M638.1,163.4
						c5.2-1.6,10.5-3.6,15.5-5.9c5-2.2,9.9-4.9,14.5-7.8c9.2-5.8,17.3-13.2,24.7-21.3c3.8-4,7.5-8.2,11.1-12.3
						c3.6-4.2,7.2-8.3,10.7-12.6C721.4,95,727.9,86,734,76.9v-0.1l0.1-0.2c2.8-3.7,5.8-7.3,9-10.7c3.1-3.4,6.5-6.7,9.8-9.9
						c6.9-6.3,14.3-12,22-17.1c7.9-5,16.1-9.4,24.7-13c8.5-3.8,17.7-6.3,26.7-8.6c18.1-4.3,37.5-5.7,56.3-2.1c4.8,0.9,9.4,2,14,3.5
						s9,3.2,13.4,5.2c2.2,1.1,4.4,2.1,6.5,3.5c2.1,1.3,4.3,2.7,6.5,4.5c1.1,1,2.2,1.9,3.3,3.3l0.4,0.6c0.1,0.2,0.3,0.4,0.5,0.7
						c0.2,0.2,0.3,0.4,0.4,0.7L928,38c0.3,0.5,0.6,1.3,0.8,1.9c0.1,0.4,0.2,0.9,0.3,1.4c0,0.2,0.1,0.4,0.1,0.7s0,0.6,0,0.8
						c0,1.1-0.2,2.2-0.7,3.3c-0.3,0.6-0.6,1.2-0.9,1.6c-0.4,0.5-0.8,1-1.2,1.5c-0.4,0.4-0.8,0.7-1.2,1s-0.7,0.4-1,0.6
						c-0.2,0.1-0.3,0.2-0.5,0.3l-0.4,0.2l-0.7,0.3c-1.6,0.6-2.6,0.9-3.8,1.3c-2.1,0.7-4.1,1.4-6,2c-1.9,0.8-4,1.6-5.9,2.4
						c-4.1,1.7-7.8,3.5-11.3,5.6c-3.5,2.1-6.5,4.5-9.5,7.4c-1.5,1.5-3.1,3.1-4.7,4.7c-1.6,1.6-3.1,3.1-4.6,4.8
						c-6.1,6.4-11.8,13-17.2,20c-2.7,3.5-5.2,7-7.7,10.6c-2.4,3.6-4.8,7.3-6.8,11c-0.3,0.5-0.5,0.9-0.7,1.3l-0.8,1.5
						c-0.5,1-1,1.9-1.5,2.9c-1,1.9-1.8,4-2.7,5.9c-1.7,4-3.3,8-4.7,12c-2.7,8.2-4.8,16.5-5.4,25c-0.4,4.3-0.6,8.5-0.5,13
						c0,2.1,0.2,4.2,0.5,6.3c0.3,2,0.7,4.2,1.3,6.2c1.1,4.2,2.7,8.2,4.7,12.1c2,3.9,4.5,7.7,7.2,11.3l-0.8,0.7
						c-3.6-2.8-6.9-6.1-9.9-9.8c-2.9-3.7-5.4-7.8-7.4-12.1c-2-4.4-3.3-9.2-4-14c-0.7-4.6-1.1-9.4-1.2-14.2
						c-0.1-9.5,1.4-19.1,3.8-28.2c1.3-4.6,2.7-9,4.5-13.5c0.9-2.2,1.7-4.4,2.7-6.5c0.5-1.1,1-2.1,1.5-3.2l0.8-1.6
						c0.3-0.6,0.6-1.2,0.9-1.7c2.2-4.3,4.8-8.2,7.4-12.1c2.6-3.9,5.3-7.7,8.1-11.4c5.6-7.4,11.6-14.5,18-21.3
						c1.6-1.7,3.2-3.3,4.9-4.9s3.1-3.2,4.9-4.9c3.5-3.4,7.7-6.6,11.9-9.2c4.3-2.6,8.7-4.7,13-6.5c2.2-1,4.4-1.8,6.7-2.6
						c2.2-0.8,4.6-1.6,6.8-2.2c1.1-0.3,2.2-0.7,2.7-0.9c0,0,0,0,0.1,0l0,0h0.1c-0.1,0.1-0.1,0.1-0.3,0.2c-0.2,0.1-0.4,0.3-0.5,0.4
						c-0.3,0.2-0.5,0.5-0.7,0.8s-0.4,0.6-0.5,0.9c-0.3,0.6-0.3,1.3-0.4,1.6c0,0.1,0,0.3,0,0.4v0.3c0,0.2,0.1,0.4,0.1,0.5
						c0,0.2,0.2,0.4,0.1,0.4c0,0,0,0,0,0.1l0,0c0,0,0,0,0-0.1l-0.1-0.1c-0.3-0.4-0.8-0.9-1.5-1.5c-1.3-1.1-2.9-2.2-4.7-3.3
						s-3.6-2-5.4-2.9c-7.6-3.7-15.7-6.5-24-8.2c-1.1-0.3-2-0.4-3.1-0.6s-2.1-0.4-3.1-0.5c-2.1-0.3-4.3-0.6-6.4-0.8
						c-4.3-0.4-8.5-0.6-12.8-0.5c-8.6,0.2-17.2,1.2-25.8,3l-1.6,0.3l-1.6,0.4l-3.2,0.8c-2.1,0.5-4.3,1-6.3,1.6l-6.2,1.9l-6.1,2.2
						c-8.2,3.2-16,7-23.5,11.5s-14.7,9.7-21.3,15.4c-3.3,2.9-6.5,5.9-9.6,9s-6,6.4-8.8,9.8l0.2-0.2c-6.5,9.2-13.4,18.1-20.8,26.6
						c-3.7,4.3-7.4,8.4-11.3,12.5c-3.9,4.1-7.8,8.1-11.8,11.9s-8.2,7.7-12.7,11.2s-9.3,6.6-14.3,9.3c-4.9,2.7-10.2,4.9-15.5,6.8
						c-5.3,1.8-10.7,3.4-16.2,4.5L638.1,163.4z"/>
				</g>
			</g>
			<g>
				
					<linearGradient id="SVGID_00000145033843895658282030000013149892104632160412_" gradientUnits="userSpaceOnUse" x1="752.1086" y1="1586.4475" x2="845.794" y2="1552.8556" gradientTransform="matrix(1 0 0 -1 0 1640)">
					<stop  offset="0.375" style="stop-color:#2196BC"/>
					<stop  offset="0.7933" style="stop-color:#062D5A"/>
				</linearGradient>
				<path style="fill:url(#SVGID_00000145033843895658282030000013149892104632160412_);" d="M736.9,109.4
					c5-11.9,12.6-22.8,21.5-32.3c4.5-4.9,9.3-9.1,14.5-13.3l3.9-3l1.9-1.5l2-1.4l4.1-2.7c1.4-0.9,2.8-1.6,4.2-2.5
					c1.5-0.8,2.8-1.7,4.3-2.4l4.4-2.2c2.9-1.6,5.9-2.8,8.8-4.2c6-2.6,12.1-4.8,18.4-6.5c12.5-3.5,25.4-5.5,38.3-5.5
					c-12.3,3.7-24.4,7.7-35.9,12.4c-5.8,2.3-11.5,4.9-17,7.8c-5.5,2.8-11.1,5.7-16.3,9c-5.3,3.2-10.4,6.7-15.4,10.3l-3.7,2.8
					l-1.8,1.4l-1.8,1.5c-1.2,1-2.4,1.9-3.6,2.9c-1.2,1.1-2.3,2-3.6,3c-4.7,4.1-9.3,8.3-13.7,12.8c-2.2,2.2-4.4,4.6-6.5,6.9
					c-1.1,1.2-2.1,2.3-3.2,3.5c-1.1,1.2-2.1,2.4-3.2,3.6L736.9,109.4z"/>
			</g>
		</g>
		<path class="st9" d="M471.5,460"/>
		<path class="st10" d="M844.7,579.8"/>
		<g>
		</g>
	</g>
	<g id="Layer_2_00000013179661419171477890000014786472402525316484_">
	</g>
</g>
<g id="Layer_1_00000124122122875388570400000008295611023560811408_">
	<image style="overflow:visible;" width="1318" height="1186" xlink:href="63B393F0.png"  transform="matrix(1 0 0 1 -54 -59.2)">
	</image>
</g>
<g id="Layer_2_00000147212341882440609750000012955207119508152199_">
</g>
</svg>
