<svg id="Icon_Name" data-name="Icon Name" xmlns="http://www.w3.org/2000/svg" xmlns:xlink="http://www.w3.org/1999/xlink" viewBox="0 0 10.12 10.12"><defs><style>.cls-1{fill:url(#linear-gradient);}.cls-2{fill:#fff;}</style><linearGradient id="linear-gradient" x1="8.5912" y1="7.7303" x2="0.5188" y2="1.6293" gradientUnits="userSpaceOnUse"><stop offset="0" stop-color="#2bb673"/><stop offset="0.1754" stop-color="#2ab37a"/><stop offset="0.428" stop-color="#27ab8d"/><stop offset="0.7258" stop-color="#239dac"/><stop offset="0.8571" stop-color="#2196bc"/></linearGradient></defs><circle class="cls-1" cx="5.06" cy="5.06" r="5.06"/><path class="cls-2" d="M4.3644,15.3905a8.4336,8.4336,0,0,0,1.1912-1.9062c.3016-.6913.5373-1.4412.8658-2.1566A8.9041,8.9041,0,0,1,7.6709,9.3219a2.5132,2.5132,0,0,1,.9987-.737,3.0419,3.0419,0,0,1,.6-.1584,2.6724,2.6724,0,0,1,.3142-.0312.9506.9506,0,0,1,.1853.01A.329.329,0,0,1,10.05,8.62a.3586.3586,0,0,1-.0693.3165,1.0079,1.0079,0,0,1-.1184.1374c-.0771.0774-.1616.1448-.2317.2033a2.2554,2.2554,0,0,0-.3584.3865,3.611,3.611,0,0,0-.4909.9734,3.4526,3.4526,0,0,0-.12,2.1529,3.7055,3.7055,0,0,0,3.3257,2.5182l0,.0149a3.4666,3.4666,0,0,1-2.29-.4961,3.2831,3.2831,0,0,1-1.4259-1.9277A3.8764,3.8764,0,0,1,8.39,10.5036a4.0233,4.0233,0,0,1,.5458-1.087,2.6729,2.6729,0,0,1,.4259-.4612c.078-.0652.1442-.1189.2032-.1785.0634-.0286.0939-.19.0851-.0315.0555.1041.0809.0693.0471.0713a.5716.5716,0,0,0-.1033-.0057,2.3061,2.3061,0,0,0-.2617.0234,2.6391,2.6391,0,0,0-.5194.1311,2.1086,2.1086,0,0,0-.8479.6189,8.5566,8.5566,0,0,0-1.21,1.902,21.8871,21.8871,0,0,0-.8269,2.1528,3.3018,3.3018,0,0,1-.6136,1.0349,5.364,5.364,0,0,1-.9386.73Z" transform="translate(-3.0244 -7.4221)"/><path class="cls-2" d="M6.5771,12.9731a4.6829,4.6829,0,0,1,.5422-1.7509,3.9168,3.9168,0,0,1,.5131-.7653c.1962-.2373.4063-.4619.619-.6774-.15.2705-.3018.532-.4678.7806a5.958,5.958,0,0,0-.4469.7754c-.2812.5278-.4978,1.0808-.7479,1.6406Z" transform="translate(-3.0244 -7.4221)"/><path class="cls-2" d="M7.7222,14.2315a.5847.5847,0,1,0-.8081,0H6.9126l-.1791,1.0857H7.9027l-.1789-1.0857Zm-.4041-.7054a.2755.2755,0,1,1-.2755.2755A.2755.2755,0,0,1,7.3181,13.5261Z" transform="translate(-3.0244 -7.4221)"/></svg>