<?xml version="1.0" encoding="UTF-8"?>
<svg width="491px" height="360px" viewBox="0 0 491 360" version="1.1" xmlns="http://www.w3.org/2000/svg" xmlns:xlink="http://www.w3.org/1999/xlink">
    <title>__🥭Illustrations/ illustration_order_complete</title>
    <defs>
        <linearGradient x1="19.4959033%" y1="70.8554375%" x2="77.4790349%" y2="18.1660829%" id="linearGradient-1">
            <stop stop-color="#00AB55" offset="0%"></stop>
            <stop stop-color="#00AB55" stop-opacity="0" offset="100%"></stop>
        </linearGradient>
        <filter x="-18.8%" y="-24.1%" width="137.5%" height="160.1%" filterUnits="objectBoundingBox" id="filter-2">
            <feOffset dx="12" dy="12" in="SourceAlpha" result="shadowOffsetOuter1"></feOffset>
            <feGaussianBlur stdDeviation="12" in="shadowOffsetOuter1" result="shadowBlurOuter1"></feGaussianBlur>
            <feColorMatrix values="0 0 0 0 0   0 0 0 0 0.321568627   0 0 0 0 0.28627451  0 0 0 0.32 0" type="matrix" in="shadowBlurOuter1" result="shadowMatrixOuter1"></feColorMatrix>
            <feMerge>
                <feMergeNode in="shadowMatrixOuter1"></feMergeNode>
                <feMergeNode in="SourceGraphic"></feMergeNode>
            </feMerge>
        </filter>
        <linearGradient x1="8.63677192e-05%" y1="49.9999321%" x2="100.000086%" y2="49.9999321%" id="linearGradient-3">
            <stop stop-color="#007B55" offset="0%"></stop>
            <stop stop-color="#00AB55" offset="100%"></stop>
        </linearGradient>
        <linearGradient x1="8.63677192e-05%" y1="49.9999321%" x2="100.000086%" y2="49.9999321%" id="linearGradient-4">
            <stop stop-color="#007B55" offset="0%"></stop>
            <stop stop-color="#00AB55" offset="100%"></stop>
        </linearGradient>
        <linearGradient x1="8.63677192e-05%" y1="49.9999321%" x2="100.000086%" y2="49.9999321%" id="linearGradient-5">
            <stop stop-color="#007B55" offset="0%"></stop>
            <stop stop-color="#00AB55" offset="100%"></stop>
        </linearGradient>
        <linearGradient x1="8.63677192e-05%" y1="49.9999321%" x2="100.000086%" y2="49.9999321%" id="linearGradient-6">
            <stop stop-color="#007B55" offset="0%"></stop>
            <stop stop-color="#00AB55" offset="100%"></stop>
        </linearGradient>
        <linearGradient x1="8.63677192e-05%" y1="49.9999321%" x2="100.000086%" y2="49.9999321%" id="linearGradient-7">
            <stop stop-color="#007B55" offset="0%"></stop>
            <stop stop-color="#00AB55" offset="100%"></stop>
        </linearGradient>
        <linearGradient x1="8.63677192e-05%" y1="49.9999321%" x2="100.000086%" y2="49.9999321%" id="linearGradient-8">
            <stop stop-color="#007B55" offset="0%"></stop>
            <stop stop-color="#00AB55" offset="100%"></stop>
        </linearGradient>
        <linearGradient x1="8.63677192e-05%" y1="49.9999321%" x2="100.000086%" y2="49.9999321%" id="linearGradient-9">
            <stop stop-color="#007B55" offset="0%"></stop>
            <stop stop-color="#00AB55" offset="100%"></stop>
        </linearGradient>
        <linearGradient x1="8.63677192e-05%" y1="49.9999321%" x2="100.000086%" y2="49.9999321%" id="linearGradient-10">
            <stop stop-color="#007B55" offset="0%"></stop>
            <stop stop-color="#00AB55" offset="100%"></stop>
        </linearGradient>
        <linearGradient x1="0.000393236335%" y1="49.9998765%" x2="100.00059%" y2="49.9998765%" id="linearGradient-11">
            <stop stop-color="#00AB55" offset="0%"></stop>
            <stop stop-color="#007B55" offset="100%"></stop>
        </linearGradient>
        <linearGradient x1="8.63677192e-05%" y1="49.9999321%" x2="100.000086%" y2="49.9999321%" id="linearGradient-12">
            <stop stop-color="#007B55" offset="0%"></stop>
            <stop stop-color="#00AB55" offset="100%"></stop>
        </linearGradient>
        <filter x="-64.8%" y="-56.1%" width="229.6%" height="212.2%" filterUnits="objectBoundingBox" id="filter-13">
            <feOffset dx="0" dy="0" in="SourceAlpha" result="shadowOffsetOuter1"></feOffset>
            <feGaussianBlur stdDeviation="12" in="shadowOffsetOuter1" result="shadowBlurOuter1"></feGaussianBlur>
            <feColorMatrix values="0 0 0 0 0   0 0 0 0 0.321568627   0 0 0 0 0.28627451  0 0 0 1 0" type="matrix" in="shadowBlurOuter1" result="shadowMatrixOuter1"></feColorMatrix>
            <feMerge>
                <feMergeNode in="shadowMatrixOuter1"></feMergeNode>
                <feMergeNode in="SourceGraphic"></feMergeNode>
            </feMerge>
        </filter>
        <linearGradient x1="49.6622116%" y1="34.5020299%" x2="52.2276766%" y2="82.2820019%" id="linearGradient-14">
            <stop stop-color="#00AB55" offset="0%"></stop>
            <stop stop-color="#007B55" offset="100%"></stop>
        </linearGradient>
        <linearGradient x1="1.28142936%" y1="0%" x2="98.7185706%" y2="100%" id="linearGradient-15">
            <stop stop-color="#FFE16A" offset="0%"></stop>
            <stop stop-color="#B78103" offset="100%"></stop>
        </linearGradient>
        <linearGradient x1="18.1032526%" y1="0%" x2="81.8967474%" y2="100%" id="linearGradient-16">
            <stop stop-color="#FFE16A" offset="0%"></stop>
            <stop stop-color="#B78103" offset="100%"></stop>
        </linearGradient>
        <path d="M149.109555,43.0214837 C149.109555,43.0214837 140.483798,44.3717507 141.470386,41.8468843 C142.456973,39.3220178 146.988249,39.300178 146.988249,39.300178 L149.109555,43.0214837 Z" id="path-17"></path>
        <path d="M126.787418,269.723798 L127.593591,270.761662 C127.593591,270.761662 126.930801,269.767478 126.215786,268.469436 L124.948131,265.811632 C124.605341,264.913353 124.397389,264.068249 124.484748,263.457685 C124.795252,261.282255 129.302789,256.308487 129.302789,256.308487 L125.106706,252.268131 L119.852819,259.856024 C119.425519,260.037389 118.727596,260.6527 119.407478,262.732226 C120.339941,265.58184 127.436914,276.874896 129.820297,279.050326 C129.820297,279.050326 130.335905,277.630742 126.787418,269.723798 Z" id="path-18"></path>
        <path d="M97.2591098,261.952641 L98.0652819,262.990504 C98.0652819,262.990504 97.4024926,261.99632 96.6874777,260.698279 L95.419822,258.040475 C95.0770326,257.142196 94.8690801,256.297092 94.9564392,255.685579 C95.2669436,253.510148 99.7744807,248.53638 99.7744807,248.53638 L95.5783976,244.496024 L90.3245104,252.084866 C89.8972107,252.266231 89.1992878,252.881543 89.8791691,254.961068 C90.811632,257.810682 97.9086053,269.103739 100.291988,271.27917 C100.291988,271.280119 100.807596,269.860534 97.2591098,261.952641 Z" id="path-19"></path>
        <path d="M94.9393472,17.5838576 L96.5374481,13.5340059 C96.5374481,13.5340059 93.0525816,6.89281899 97.4081899,3.62065282 C101.764748,0.348486647 108.961424,2.46694362 107.316795,8.97424332 C107.316795,8.97424332 106.967359,14.0600593 103.387537,16.2554303 C99.8077151,18.4508012 98.3843323,19.9577448 98.3843323,19.9577448 L94.9393472,17.5838576 Z" id="path-20"></path>
        <linearGradient x1="49.7706956%" y1="25.5463845%" x2="51.5122372%" y2="100.936456%" id="linearGradient-21">
            <stop stop-color="#00AB55" offset="0%"></stop>
            <stop stop-color="#007B55" offset="100%"></stop>
        </linearGradient>
        <linearGradient x1="-0.00763747454%" y1="50.0048232%" x2="99.9923625%" y2="50.0048232%" id="linearGradient-22">
            <stop stop-color="#FEBD9F" offset="0%"></stop>
            <stop stop-color="#C8FACD" offset="100%"></stop>
        </linearGradient>
        <path d="M112,68.8465282 L111.067537,77.6536499 C111.067537,77.6536499 110.860534,82.7299703 117.180772,82.7299703 C123.501009,82.7299703 123.294006,78.1711573 123.294006,78.1711573 L122.15454,68.4315727 L112,68.8465282 Z" id="path-23"></path>
        <ellipse id="path-24" cx="117.905282" cy="60.610089" rx="9.84308605" ry="13.9347181"></ellipse>
        <linearGradient x1="49.6622116%" y1="26.0802212%" x2="52.2276766%" y2="99.824483%" id="linearGradient-25">
            <stop stop-color="#00AB55" offset="0%"></stop>
            <stop stop-color="#007B55" offset="100%"></stop>
        </linearGradient>
        <path d="M143.548961,36.8322849 C143.548961,36.8322849 147.43454,41.3388724 149.091513,39.9924036 C150.749436,38.6449852 153.960831,34.811632 151.888902,33.0502077 C149.816973,31.2887834 142.823501,30.9260534 143.548961,36.8322849 Z" id="path-26"></path>
        <path d="M96.5374481,13.5330564 C96.5374481,13.5330564 102.571869,5.85305638 103.814837,7.17388724 C105.057804,8.4947181 100.295786,17.730089 100.295786,17.730089 L96.5374481,13.5330564 Z" id="path-27"></path>
    </defs>
    <g id="__🥭Illustrations/-illustration_order_complete" stroke="none" stroke-width="1" fill="none" fill-rule="evenodd">
        <g id="Group" fill="url(#linearGradient-1)" opacity="0.24">
            <g id="__🥭Illustrations/-X🩸Setup/-Shape_1">
                <path d="M0,198.780719 C0,240.237877 15.2878786,278.015536 40.4451471,306.566479 C69.3061245,339.331025 111.157498,359.93074 157.808105,360 C178.196244,360.029445 197.690976,356.113053 215.597791,348.963528 C224.856526,345.265384 235.219385,345.689815 244.186769,350.071216 C254.705518,355.203871 266.48428,358.081668 278.922076,358.081668 C284.059965,358.081668 289.091418,357.587047 293.958382,356.648253 C307.850785,353.977737 320.49285,347.65843 330.875061,338.708088 C337.399824,333.080811 345.756553,330.252367 354.297123,330.262238 L354.442261,330.262238 C382.663556,330.262238 408.877645,321.530143 430.641907,306.566479 C450.099012,293.206222 465.98787,274.87014 476.574349,253.341502 C485.804056,234.580989 491,213.387949 491,190.957807 C491,114.027201 429.856011,51.6533755 354.442261,51.6533755 C346.754243,51.6533755 339.222114,52.3157951 331.873826,53.5517999 C312.416722,21.4200619 277.573905,0 237.826496,0 C221.045307,0 205.136023,3.81768653 190.895289,10.6612269 C177.352292,17.1483328 165.311207,26.3662746 155.461168,37.5999899 C122.014902,38.1439636 91.0886637,49.2899413 65.7765813,67.8914297 C25.9324134,97.1552417 0,144.882355 0,198.780719 Z" id="background"></path>
            </g>
        </g>
        <g id="#gr" filter="url(#filter-2)" transform="translate(87.222789, 20.345638)">
            <g opacity="0.64" transform="translate(0.000000, 97.258160)" fill-rule="nonzero">
                <path d="M219.909318,11.2436795 L219.909318,128.632404 C219.909318,134.832997 214.870979,139.821958 208.66089,139.821958 L11.2208902,139.821958 C5.01554896,139.821958 0.0227893175,134.833947 0.0227893175,128.632404 L0.0227893175,11.2436795 C0.0227893175,5.04308605 5.01554896,1.42108547e-14 11.2208902,1.42108547e-14 L208.66089,1.42108547e-14 C214.870979,1.42108547e-14 219.909318,5.04308605 219.909318,11.2436795 Z" id="Path" fill="url(#linearGradient-3)"></path>
                <rect id="Rectangle" fill="#C8FACD" x="7.10542736e-14" y="26.335905" width="219.886528" height="24.6846291"></rect>
                <path d="M124.967122,49.5249852 C124.967122,92.0109199 96.9808902,127.921187 58.3805341,139.821958 L11.2218398,139.821958 C5.01649852,139.821958 0.0237388724,134.833947 0.0237388724,128.632404 L0.0237388724,11.2436795 C0.0237388724,5.04308605 5.01649852,1.42108547e-14 11.2218398,1.42108547e-14 L110.99727,1.42108547e-14 C119.883205,14.4265875 124.967122,31.3694955 124.967122,49.5249852 Z" id="Path" fill="url(#linearGradient-4)" opacity="0.5"></path>
                <path d="M106.81543,16.2411869 C106.81543,68.4477151 64.4852226,110.722849 12.3290208,110.722849 C8.13863501,110.722849 4.05839763,110.468368 0.0227893175,109.86635 L0.0227893175,11.2436795 C0.0227893175,5.04308605 5.01554896,9.23705556e-14 11.2208902,9.23705556e-14 L105.402493,9.23705556e-14 C106.363442,5.24344214 106.81543,10.6872404 106.81543,16.2411869 Z" id="Path" fill="url(#linearGradient-5)" opacity="0.25"></path>
                <polygon id="Path" fill="#C8FACD" points="96.1072997 66.0254006 98.6245697 71.1406528 104.269674 71.9525223 100.183739 75.9368546 101.155134 81.5544214 96.1072997 78.901365 91.0604154 81.5544214 92.0223145 75.9368546 87.9363798 71.9525223 93.5767359 71.1406528"></polygon>
                <polygon id="Path" fill="#C8FACD" points="115.211395 66.0254006 117.728665 71.1406528 123.373769 71.9525223 119.287834 75.9368546 120.259228 81.5544214 115.211395 78.901365 110.16451 81.5544214 111.126409 75.9368546 107.05092 71.9525223 112.680831 71.1406528"></polygon>
                <polygon id="Path" fill="#C8FACD" points="134.316439 66.0254006 136.83276 71.1406528 142.477864 71.9525223 138.392878 75.9368546 139.363323 81.5544214 134.316439 78.901365 129.268605 81.5544214 130.230504 75.9368546 126.150267 71.9525223 131.785875 71.1406528"></polygon>
                <polygon id="Path" fill="#C8FACD" points="153.420534 66.0254006 155.94635 71.1406528 161.581958 71.9525223 157.496973 75.9368546 158.468368 81.5544214 153.420534 78.901365 148.368902 81.5544214 149.330801 75.9368546 145.254362 71.9525223 150.88997 71.1406528"></polygon>
                <polygon id="Path" fill="#C8FACD" points="172.520831 66.0254006 175.050445 71.1406528 180.687003 71.9525223 176.59632 75.9368546 177.567715 81.5544214 172.520831 78.901365 167.472997 81.5544214 168.434896 75.9368546 164.358457 71.9525223 169.994065 71.1406528"></polygon>
                <polygon id="Path" fill="#C8FACD" points="191.623976 66.0254006 194.15454 71.1406528 199.78635 71.9525223 195.709911 75.9368546 196.67181 81.5544214 191.623976 78.901365 186.577092 81.5544214 187.538991 75.9368546 183.463501 71.9525223 189.09816 71.1406528"></polygon>
                <rect id="Rectangle" fill="#C8FACD" x="92.9528783" y="89.4974481" width="104.991335" height="3.59311573"></rect>
                <rect id="Rectangle" fill="#C8FACD" x="92.9528783" y="97.5857567" width="104.991335" height="3.58362018"></rect>
                <path d="M59.9966766,103.747418 L25.2306231,103.747418 C22.4104451,103.747418 20.1239169,101.46089 20.1239169,98.6407122 L20.1239169,70.624095 C20.1239169,67.8039169 22.4104451,65.5173887 25.2306231,65.5173887 L59.9966766,65.5173887 C62.8168546,65.5173887 65.1033828,67.8039169 65.1033828,70.624095 L65.1033828,98.6407122 C65.1033828,101.46089 62.8168546,103.747418 59.9966766,103.747418 Z" id="Path" fill="#C8FACD"></path>
            </g>
            <g transform="translate(33.096736, 190.322346)" fill-rule="nonzero">
                <path d="M69.1133531,7.17842525 C69.1133531,7.17842525 88.147181,31.4585439 38.7902671,29.8025202 C38.7893175,29.8025202 49.1518101,-17.6229991 69.1133531,7.17842525 Z" id="Path" fill="url(#linearGradient-6)"></path>
                <path d="M62.4892582,1.2532027 C62.2053412,13.1530247 38.7902671,29.8025202 38.7902671,29.8025202 C38.7902671,29.8025202 46.8652819,-7.14181214 62.4892582,1.2532027 Z" id="Path" fill="#007B55"></path>
                <path d="M8.46053412,7.17842525 C8.46053412,7.17842525 -10.5704451,31.4585439 38.7893175,29.8025202 C38.7893175,29.8025202 28.4268249,-17.6229991 8.46053412,7.17842525 Z" id="Path" fill="url(#linearGradient-7)"></path>
                <path d="M15.0846291,1.2532027 C15.368546,13.1530247 38.7893175,29.8025202 38.7893175,29.8025202 C38.7893175,29.8025202 30.7143027,-7.14181214 15.0846291,1.2532027 Z" id="Path" fill="#007B55"></path>
                <rect id="Rectangle" fill="#00AB55" x="3.7915727" y="35.1019861" width="69.9964392" height="55.72273" rx="8"></rect>
                <rect id="Rectangle" fill="#C9EEBC" x="31.7569139" y="35.1019861" width="14.0591098" height="55.72273"></rect>
                <rect id="Rectangle" fill="url(#linearGradient-8)" x="4.26325641e-14" y="29.3790187" width="77.5795846" height="11.4468843"></rect>
                <rect id="Rectangle" fill="#007B55" x="31.7569139" y="29.3790187" width="14.0591098" height="11.4468843"></rect>
            </g>
            <g transform="translate(122.388131, 151.297485)">
                <path d="M95.3704451,9.9056014 C95.3704451,9.9056014 121.635134,43.4096964 53.5264095,41.1250673 C53.5264095,41.1250673 67.8267062,-24.3182562 95.3704451,9.9056014 Z" id="Path" fill="url(#linearGradient-9)" fill-rule="nonzero"></path>
                <path d="M86.2300297,1.72993375 C85.8378635,18.1515361 53.5264095,41.1250673 53.5264095,41.1250673 C53.5264095,41.1250673 64.6703858,-9.85558554 86.2300297,1.72993375 Z" id="Path" fill="#5BE584"></path>
                <path d="M11.6747774,9.9056014 C11.6747774,9.9056014 -14.5861128,43.4096964 53.5264095,41.1250673 C53.5264095,41.1250673 39.2270623,-24.3182562 11.6747774,9.9056014 Z" id="Path" fill="url(#linearGradient-10)" fill-rule="nonzero"></path>
                <path d="M20.8161424,1.72993375 C21.2083086,18.1515361 53.5273591,41.1250673 53.5273591,41.1250673 C53.5273591,41.1250673 42.3833828,-9.85558554 20.8161424,1.72993375 Z" id="Path" fill="#5BE584"></path>
                <rect id="Rectangle" fill="url(#linearGradient-11)" fill-rule="nonzero" x="5.23204748" y="48.4385391" width="96.588724" height="76.8930564" rx="8"></rect>
                <rect id="Rectangle" fill="#C9EEBC" fill-rule="nonzero" x="43.8219585" y="48.4385391" width="19.4013056" height="76.8930564"></rect>
                <rect id="Rectangle" fill="#00AB55" fill-rule="nonzero" x="-4.26325641e-14" y="40.5401415" width="107.053769" height="15.7958457"></rect>
                <rect id="Rectangle" fill="url(#linearGradient-12)" fill-rule="nonzero" x="43.8219585" y="40.5401415" width="19.4013056" height="15.7958457"></rect>
            </g>
            <g filter="url(#filter-13)" transform="translate(101.557876, 203.143295)">
                <path d="M62.5485929,6.47189832 C62.5485929,6.47189832 79.708949,28.3619873 35.2099579,26.8683375 C35.2099579,26.8683375 44.5526285,-15.8882204 62.5485929,6.47189832 Z" id="Path" fill="#005249"></path>
                <path d="M56.5768422,1.13065202 C56.3204623,11.8596728 35.2099579,26.869287 35.2099579,26.869287 C35.2099579,26.869287 42.4911448,-6.43919961 56.5768422,1.13065202 Z" id="Path" fill="#00AB55"></path>
                <path d="M7.86657511,6.47189832 C7.86657511,6.47189832 -9.29093231,28.3619873 35.2099579,26.8683375 C35.2099579,26.8683375 25.8672873,-15.8882204 7.86657511,6.47189832 Z" id="Path" fill="#005249"></path>
                <path d="M13.8383259,1.13065202 C14.0947057,11.8596728 35.2099579,26.869287 35.2099579,26.869287 C35.2099579,26.869287 27.9297205,-6.43919961 13.8383259,1.13065202 Z" id="Path" fill="#00AB55"></path>
                <rect id="Rectangle" fill="url(#linearGradient-14)" fill-rule="nonzero" x="3.65719825" y="31.6474473" width="63.1055193" height="50.2381009" rx="8"></rect>
                <rect id="Rectangle" fill="#22418A" fill-rule="nonzero" opacity="0.25" x="28.8697799" y="31.6474473" width="12.6756083" height="50.2381009"></rect>
                <rect id="Rectangle" fill="#007B55" fill-rule="nonzero" x="0.238800627" y="26.487566" width="69.9432641" height="10.3197626"></rect>
                <rect id="Rectangle" fill="#005249" x="28.8697799" y="26.487566" width="12.6756083" height="10.3197626"></rect>
            </g>
            <g transform="translate(137.478457, 0.000000)">
                <polygon id="Path" fill="url(#linearGradient-15)" points="58.4489021 119.122611 -2.84217094e-14 66.3311573 67.5351929 -2.13162821e-14 117.586231 45.2073591"></polygon>
                <polygon id="Path" fill="#FFFFFF" fill-rule="nonzero" opacity="0.24" points="58.4489021 119.122611 33.8468843 96.5232047 117.586231 45.2073591"></polygon>
                <path d="M96.9191691,44.0308605 C95.4302671,45.6792878 92.8873591,45.8084273 91.2389318,44.3195252 C89.5905045,42.8306231 89.461365,40.2877151 90.9502671,38.6392878 C92.4391691,36.9908605 94.9820772,36.8617211 96.631454,38.3506231 C98.2779822,39.8395252 98.4071217,42.3824332 96.9191691,44.0308605 Z" id="Path" fill="#C9EEBC" fill-rule="nonzero"></path>
                <path d="M95.584095,42.8258754 C94.7608309,43.7374481 93.3545401,43.8086647 92.4429674,42.9854006 C91.5313947,42.1621365 91.460178,40.7558457 92.2834421,39.844273 C93.1067062,38.9327003 94.512997,38.8614837 95.4245697,39.6847478 C96.3361424,40.5080119 96.4073591,41.9143027 95.584095,42.8258754 Z" id="Path" fill="#1F9FDE" fill-rule="nonzero"></path>
                <path d="M75.7080119,25.1100297 C74.2191098,26.758457 71.6762018,26.8875964 70.0277745,25.3986944 C68.3793472,23.9097923 68.2502077,21.3668843 69.7391098,19.718457 C71.2280119,18.0700297 73.7709199,17.9408902 75.4193472,19.4297923 C77.0677745,20.9177448 77.1969139,23.4616024 75.7080119,25.1100297 Z" id="Path" fill="#C9EEBC" fill-rule="nonzero"></path>
                <path d="M74.3738872,23.9050445 C73.5506231,24.8166172 72.1443323,24.8878338 71.2327596,24.0645697 C70.3211869,23.2413056 70.2499703,21.8350148 71.0732344,20.9234421 C71.8964985,20.0118694 73.3027893,19.9406528 74.214362,20.7639169 C75.1259347,21.587181 75.1971513,22.9934718 74.3738872,23.9050445 Z" id="Path" fill="#1F9FDE" fill-rule="nonzero"></path>
                <path d="M65.487003,52.0517507 C59.0651632,46.2509199 58.5590504,36.307181 64.3598813,29.8853412 C64.7112166,29.4969733 65.3103858,29.4665875 65.6987537,29.8169733 C66.0871217,30.1683086 66.1175074,30.7674777 65.7671217,31.1558457 C60.6670623,36.8018991 61.1124036,45.544451 66.758457,50.6445104 C72.4045104,55.7445697 81.1470623,55.300178 86.2471217,49.6531751 C86.598457,49.2648071 87.1976261,49.2344214 87.5859941,49.5848071 C87.974362,49.9351929 88.0047478,50.5353116 87.654362,50.9236795 C81.8525816,57.3464688 71.9088427,57.851632 65.487003,52.0517507 Z" id="Path" fill="#C9EEBC" fill-rule="nonzero"></path>
                <path d="M93.8530564,41.392997 C93.4646884,41.0426113 93.4343027,40.4424926 93.7846884,40.0541246 L103.811988,28.9519288 C108.731632,23.5052819 108.302433,15.0713353 102.855786,10.1516914 C97.4091395,5.23204748 88.9751929,5.66124629 84.055549,11.1078932 L74.0282493,22.210089 C73.6769139,22.598457 73.0777448,22.6288427 72.6893769,22.278457 C72.3010089,21.9271217 72.2706231,21.3279525 72.6210089,20.9395846 L82.6483086,9.83738872 C88.268724,3.61495549 97.9038576,3.12498516 104.126291,8.74540059 C110.348724,14.365816 110.838694,24.0009496 105.218279,30.2233828 L95.1909792,41.3255786 C94.8405935,41.7139466 94.2414243,41.7443323 93.8530564,41.392997 Z" id="Path" fill="#B78103" fill-rule="nonzero"></path>
                <polygon id="Path" fill="url(#linearGradient-16)" points="79.9591691 99.995727 41.4813056 67.7896736 73.9836202 10.1640356 113.230623 25.0530564"></polygon>
                <polygon id="Path" fill="#000000" fill-rule="nonzero" opacity="0.12" points="79.9591691 99.995727 61.6023739 84.349911 113.230623 25.0530564"></polygon>
                <path d="M97.6132938,30.3734125 C96.7928783,31.9867062 95.0172107,32.7938279 93.6631454,32.1851632 C92.3271217,31.5831454 91.9064688,29.8245697 92.7078932,28.2492582 C93.5093175,26.6739466 95.2441543,25.8487834 96.5991691,26.412819 C97.9722255,26.9835015 98.4337092,28.7601187 97.6132938,30.3734125 Z" id="Path" fill="#B78103" fill-rule="nonzero"></path>
                <path d="M96.4966172,29.890089 C96.0455786,30.7779228 95.0684866,31.2261128 94.3202374,30.8947181 C93.5767359,30.5652226 93.3393472,29.5909792 93.7846884,28.7145401 C94.2300297,27.8390504 95.1947774,27.3842136 95.9439763,27.7023145 C96.6979228,28.0223145 96.9476558,29.0032047 96.4966172,29.890089 Z" id="Path" fill="#7A4F01" fill-rule="nonzero"></path>
                <path d="M81.1935905,23.4046291 C80.4377448,24.891632 78.8804748,25.6712166 77.7296142,25.1518101 C76.5920475,24.6390504 76.2805935,23.048546 77.0202967,21.5938279 C77.76,20.1391098 79.2849852,19.3452819 80.4386944,19.8267062 C81.6056973,20.3138279 81.9494362,21.9185757 81.1935905,23.4046291 Z" id="Path" fill="#B78103" fill-rule="nonzero"></path>
                <path d="M80.2449852,22.9934718 C79.8290801,23.8119881 78.971632,24.2449852 78.3354303,23.9620178 C77.7030267,23.6818991 77.5264095,22.7997626 77.9375668,21.9916914 C78.348724,21.1836202 79.195727,20.7458754 79.8328783,21.0164985 C80.4747774,21.2899703 80.6608902,22.1749555 80.2449852,22.9934718 Z" id="Path" fill="#7A4F01" fill-rule="nonzero"></path>
                <path d="M77.5026706,44.3897923 C72.9780415,41.885816 71.8176855,35.2892582 74.7214243,29.578635 C74.897092,29.232997 75.2541246,29.0554303 75.52,29.1826706 C75.7868249,29.309911 75.8599407,29.6954303 75.6833234,30.0429674 C73.1166766,35.0898516 74.1621365,40.9030267 78.1664095,43.0832047 C82.3463501,45.3602374 88.1443323,42.8467656 90.9198813,37.388724 C91.1107418,37.0136499 91.52,36.8303858 91.8343027,36.9804154 C92.1495549,37.1313947 92.2502077,37.5596439 92.0583976,37.9375668 C88.8840356,44.1808902 82.2542433,47.0200593 77.5026706,44.3897923 Z" id="Path" fill="#B78103" fill-rule="nonzero"></path>
                <path d="M95.08273,29.3630861 C94.7636795,29.224451 94.6611276,28.8094955 94.8519881,28.4353709 L100.296736,17.730089 C102.967834,12.4781009 101.401068,7.02385757 96.9761424,5.62706231 C92.731632,4.28724036 87.3894362,7.19857567 84.9120475,12.0688427 L79.8632641,21.9954896 C79.6866469,22.3430267 79.3220178,22.5281899 79.0504451,22.4104451 C78.779822,22.2927003 78.702908,21.9176261 78.8785757,21.5719881 L83.9017211,11.6956677 C86.7171513,6.16071217 92.7905045,2.82397626 97.6408309,4.31952522 C102.726647,5.88818991 104.55454,12.1315134 101.485579,18.1649852 L96.0104451,28.930089 C95.8176855,29.3089614 95.40273,29.5017211 95.08273,29.3630861 Z" id="Path" fill="#B78103" fill-rule="nonzero"></path>
                <polygon id="Path" fill="#7A4F01" fill-rule="nonzero" points="113.230623 25.0530564 97.8402374 101.218754 89.5183383 99.1515727 79.9591691 99.995727"></polygon>
                <polygon id="Path" fill="#B78103" fill-rule="nonzero" points="89.5183383 99.1515727 113.050208 26.1137092 97.8402374 101.218754"></polygon>
                <g id="Path">
                    <use fill="#FFFFFF" xlink:href="#path-17"></use>
                    <use fill-opacity="0.8" fill="#BA8B72" xlink:href="#path-17"></use>
                </g>
                <path d="M120.599169,260.426706 C120.599169,260.426706 119.356202,259.260653 118.812107,259.494243 C118.268012,259.726884 115.082255,259.726884 114.071929,264.85638 C113.061602,269.984926 112.828961,269.052463 112.828961,269.052463 L114.149792,270.761662 L115.858991,269.829199 C115.858991,269.829199 122.930326,280.242018 128.214599,282.573175 C133.498872,284.904332 131.167715,279.309555 131.167715,279.309555 C131.167715,279.309555 129.302789,273.248546 126.971632,269.674421 C124.640475,266.099347 120.599169,260.426706 120.599169,260.426706 Z" id="Path" fill="#7A4F01" fill-rule="nonzero"></path>
                <g id="Path">
                    <use fill="#FFFFFF" xlink:href="#path-18"></use>
                    <use fill-opacity="0.5" fill="#BA8B72" xlink:href="#path-18"></use>
                </g>
                <path d="M91.0708605,252.656499 C91.0708605,252.656499 89.8278932,251.491395 89.2837982,251.724036 C88.7397033,251.957626 85.5539466,251.957626 84.5436202,257.086172 C83.5332938,262.214718 83.3006528,261.282255 83.3006528,261.282255 L84.6214837,262.991454 L86.3306825,262.058991 C86.3306825,262.058991 93.4020178,272.47181 98.6862908,274.802967 C103.970564,277.134125 101.639407,271.539347 101.639407,271.539347 C101.639407,271.539347 99.7744807,265.478338 97.4433234,261.904214 C95.1121662,258.329139 91.0708605,252.656499 91.0708605,252.656499 Z" id="Path" fill="#7A4F01" fill-rule="nonzero"></path>
                <g id="Path">
                    <use fill="#FFFFFF" xlink:href="#path-19"></use>
                    <use fill-opacity="0.5" fill="#BA8B72" xlink:href="#path-19"></use>
                </g>
                <path d="M91.9169139,143.203205 C92.4818991,140.941365 133.877745,143.203205 133.877745,143.203205 C133.877745,143.203205 159.520475,171.177092 157.189318,199.617211 C154.85816,228.057329 131.080356,258.828605 131.080356,258.828605 L125.019347,253.233828 C125.019347,253.233828 137.141365,212.671691 135.276439,204.745757 C133.411513,196.819822 125.95181,174.129258 125.95181,174.129258 C125.95181,174.129258 131.080356,205.67822 127.350504,215.002849 C123.620653,224.327478 101.241543,252.301365 101.241543,252.301365 L93.3156083,244.997389 C93.3156083,244.997389 109.323205,216.401543 109.789436,208.009377 C110.255668,199.617211 95.1805341,182.366647 93.3156083,172.109555 C91.4506825,161.852463 87.2545994,161.852463 91.9169139,143.203205 Z" id="Path" fill="#005249"></path>
                <path d="M151.059941,46.7266469 L148.573056,43.1525223 C148.573056,43.1525223 141.113353,42.3757864 140.802849,36.9357864 C140.492344,31.4967359 146.241899,26.6786944 150.749436,31.6515134 C150.749436,31.6515134 154.789792,34.7594065 154.635015,38.9554896 C154.479288,43.1515727 154.945519,45.1722255 154.945519,45.1722255 L151.059941,46.7266469 Z" id="Path" fill="#BA8B72"></path>
                <g id="Path">
                    <use fill="#FFFFFF" xlink:href="#path-20"></use>
                    <use fill="#BA8B72" xlink:href="#path-20"></use>
                </g>
                <path d="M84.8550742,81.3825519 C84.8550742,81.3825519 92.3147774,91.6396439 91.3823145,101.896736 C90.4498516,112.153828 85.1655786,136.708368 88.8954303,141.682136 C92.6252819,146.654955 106.612226,142.304095 117.179822,143.236558 C127.747418,144.169021 135.518576,147.588368 140.801899,144.169021 C146.086172,140.749674 136.450089,133.28997 138.626469,115.573175 C140.801899,97.8563798 142.978279,85.578635 158.830148,82.7812463 C174.682018,79.9838576 180.743027,72.0579228 175.148249,65.9969139 C169.553472,59.935905 155.566528,42.6853412 155.566528,42.6853412 L148.106825,45.9489614 C148.106825,45.9489614 160.695074,65.9969139 157.897685,68.7943027 C155.100297,71.5916914 133.65365,71.5916914 125.727715,73.9228487 C117.80178,76.2540059 107.544688,75.321543 102.416142,73.9228487 C96.925816,72.4254006 85.1655786,57.6047478 87.4967359,47.3476558 C89.8278932,37.0905638 102.882374,19.3737685 102.882374,19.3737685 L93.0915134,13.3127596 C93.0915134,13.3127596 63.2527003,42.2191098 68.8474777,52.9424332 C74.4422552,63.6667062 84.8550742,81.3825519 84.8550742,81.3825519 Z" id="Path" fill="url(#linearGradient-21)" fill-rule="nonzero"></path>
                <path d="M116.040356,72.1623739 C116.040356,72.1623739 103.399881,75.4782196 101.949911,66.3605935 C100.499941,57.2429674 99.0490208,38.1797033 116.662315,36.7287834 C134.275608,35.2778635 135.311573,67.8105638 132.20368,69.8834421 C129.094837,71.9544214 116.040356,72.1623739 116.040356,72.1623739 Z" id="Path" fill="#B72136" fill-rule="nonzero"></path>
                <ellipse id="Oval" fill="url(#linearGradient-22)" fill-rule="nonzero" cx="108.141009" cy="57.6826113" rx="1.86492582" ry="2.95311573"></ellipse>
                <g id="Path">
                    <use fill="#FFFFFF" xlink:href="#path-23"></use>
                    <use fill-opacity="0.8" fill="#BA8B72" xlink:href="#path-23"></use>
                </g>
                <g id="Oval">
                    <use fill="#FFFFFF" xlink:href="#path-24"></use>
                    <use fill-opacity="0.5" fill="#BA8B72" xlink:href="#path-24"></use>
                </g>
                <path d="M106.715727,51.4402374 C106.715727,51.4402374 108.477151,56.1025519 110.342077,56.1025519 C112.207003,56.1025519 117.07632,55.377092 119.563205,54.9630861 C119.770208,54.5490801 120.081662,52.6841543 119.770208,50.92273 C119.770208,50.92273 120.392166,55.1710386 121.117626,55.1710386 C121.843086,55.1710386 128.680831,55.2745401 128.680831,55.2745401 C128.680831,55.2745401 132.617685,50.8192285 127.541365,46.5718694 C122.464095,42.3235608 106.405223,41.3910979 106.715727,51.4402374 Z" id="Path" fill="#B72136" fill-rule="nonzero"></path>
                <path d="M108.141009,54.7304451 C108.141009,54.7304451 117.180772,44.3176261 126.815905,49.6797626 C126.815905,49.6797626 123.708012,46.105638 118.268012,45.794184 C112.828961,45.4836795 108.01092,50.690089 107.000593,54.4199407 C107.000593,54.4189911 106.715727,55.1188131 108.141009,54.7304451 Z" id="Path" fill="#FFC107" fill-rule="nonzero"></path>
                <polygon id="Path" fill="url(#linearGradient-25)" fill-rule="nonzero" points="221.101958 88.3570326 177.59905 108.798101 140.642374 57.3160831 169.40819 29.2216024"></polygon>
                <polygon id="Path" fill="#000000" fill-rule="nonzero" opacity="0.12" points="221.101958 88.3570326 200.103501 97.9959644 169.40819 29.2216024"></polygon>
                <g id="Group" transform="translate(142.919527, 32.089033)" fill="#C9EEBC" fill-rule="nonzero">
                    <path d="M29.144568,20.7261601 C33.287476,26.0018871 33.0804731,32.9070503 28.8786926,35.9750622 C24.8782179,38.895893 18.678574,37.2436675 14.8879508,32.41708 C14.6591081,32.1255666 14.648663,31.742896 14.8670606,31.5634301 C15.0854582,31.3830147 15.4500873,31.474172 15.6798796,31.7675844 C19.0299093,36.0339346 24.5021941,37.4696616 28.011749,34.8707298 C31.6760814,32.1569019 31.8308588,26.1063381 28.2083069,21.4934004 C27.9595235,21.1762491 27.9652208,20.7470503 28.2225502,20.53435 C28.4808291,20.3207002 28.8938855,20.4061601 29.144568,20.7261601 Z M15.7691378,4.55998799 L21.4501154,11.7949795 C22.4932534,11.2806118 23.894773,11.6793113 24.811749,12.8477031 C25.882847,14.211264 25.8676541,16.079988 24.7918084,17.0096022 C23.730206,17.9278218 22.0324018,17.5840829 20.9869419,16.2518574 C20.099427,15.1217068 19.9530262,13.6247628 20.5634245,12.6167375 L14.9097906,5.4164865 C11.4239745,0.977317363 6.05329206,0.13886039 3.05459769,3.41957256 C0.178395913,6.56639748 0.553470097,12.3833708 3.78575496,16.4996913 L9.09344084,23.2591625 C9.9989258,22.8026167 11.2740917,23.2078704 12.1342416,24.3031334 C13.1208291,25.5603441 13.170206,27.2268129 12.2548351,28.0177921 C11.3499093,28.7992758 9.84201609,28.4289494 8.87726832,27.1992758 C8.07199832,26.1738829 7.88672112,24.8599522 8.35942684,23.9831503 L3.05554725,17.2279999 C-0.618280645,12.5495429 -1.06742011,5.92639748 2.18860363,2.31618977 C5.60320303,-1.4696856 11.7639152,-0.540071361 15.7691378,4.55998799 Z" id="Combined-Shape"></path>
                </g>
                <path d="M166.860534,45.7125223 C167.449258,46.4626706 167.44546,47.4919881 166.855786,48.0094955 C166.269911,48.5222552 165.327003,48.3361424 164.745875,47.5954896 C164.164748,46.8548368 164.15905,45.8340653 164.737329,45.3108605 C165.319407,44.7838576 166.27181,44.9623739 166.860534,45.7125223 Z" id="Path" fill="#005249" fill-rule="nonzero"></path>
                <path d="M154.314065,57.0502077 C154.857211,57.7414837 154.887596,58.6606528 154.385282,59.1002967 C153.886766,59.537092 153.049258,59.3348368 152.51276,58.6511573 C151.976261,57.9674777 151.938279,57.055905 152.430148,56.6105638 C152.925816,56.1633234 153.77092,56.3589318 154.314065,57.0502077 Z" id="Path" fill="#005249" fill-rule="nonzero"></path>
                <polygon id="Path" fill="#005249" points="169.40819 29.2216024 229.377329 73.3151335 224.224095 79.7113353 221.101958 88.3570326"></polygon>
                <polygon id="Path" fill="#FFFFFF" fill-rule="nonzero" opacity="0.12" points="224.224095 79.7113353 170.257092 29.8065282 229.377329 73.3151335"></polygon>
                <g id="Path">
                    <use fill="#FFFFFF" xlink:href="#path-26"></use>
                    <use fill-opacity="0.8" fill="#BA8B72" xlink:href="#path-26"></use>
                </g>
                <path d="M142.667774,36.5208309 C142.667774,36.5208309 147.123086,40.0436795 148.781009,38.6962611 C150.438932,37.3497923 153.650326,33.5154896 151.578398,31.7550148 C149.505519,29.9935905 141.942315,30.615549 142.667774,36.5208309 Z" id="Path" fill="#BA8B72"></path>
                <path d="M84.0564985,11.1078932 C88.9761424,5.66124629 97.410089,5.23204748 102.856736,10.1516914 C106.462196,13.4077151 107.866588,18.2039169 106.978754,22.6535312 C107.591217,22.8472404 108.184688,23.1026706 108.752522,23.4160237 C109.92997,18.2238576 108.350861,12.5597626 104.12724,8.74445104 C97.9048071,3.12403561 88.2696736,3.61400593 82.6492582,9.83643917 L81.5344807,11.069911 C82.1023145,11.3690208 82.6426113,11.7203561 83.1496736,12.1096736 L84.0564985,11.1078932 Z" id="Path" fill="#B78103" fill-rule="nonzero"></path>
                <path d="M84.3508605,13.1731751 L84.9120475,12.0697923 C87.3894362,7.19952522 92.731632,4.28724036 96.9761424,5.62801187 C101.401068,7.02480712 102.967834,12.4790504 100.296736,17.7310386 L100.513234,17.885816 C100.897804,18.0605341 101.089614,18.24 101.445697,18.455549 L101.485579,18.1678338 C104.55454,12.134362 102.726647,5.89103858 97.6408309,4.32237389 C92.7905045,2.82587537 86.7171513,6.16261128 83.9017211,11.6985163 L83.5351929,12.4192285 C83.6937685,12.5512166 83.8494955,12.6851039 83.9995252,12.8227893 C84.1201187,12.9329377 84.2369139,13.0506825 84.3508605,13.1731751 Z" id="Path" fill="#B78103" fill-rule="nonzero"></path>
                <g id="Path">
                    <use fill="#FFFFFF" xlink:href="#path-27"></use>
                    <use fill="#BA8B72" xlink:href="#path-27"></use>
                </g>
            </g>
        </g>
    </g>
</svg>