<?xml version="1.0" encoding="UTF-8" standalone="no"?>
<svg
   xmlns:dc="http://purl.org/dc/elements/1.1/"
   xmlns:cc="http://creativecommons.org/ns#"
   xmlns:rdf="http://www.w3.org/1999/02/22-rdf-syntax-ns#"
   xmlns:svg="http://www.w3.org/2000/svg"
   xmlns="http://www.w3.org/2000/svg"
   xmlns:xlink="http://www.w3.org/1999/xlink"
   xmlns:sodipodi="http://sodipodi.sourceforge.net/DTD/sodipodi-0.dtd"
   xmlns:inkscape="http://www.inkscape.org/namespaces/inkscape"
   width="444px"
   height="341px"
   viewBox="0 0 444 341"
   version="1.1"
   id="svg335"
   sodipodi:docname="illustration_register.svg"
   inkscape:version="1.0.2 (e86c870879, 2021-01-15, custom)">
  <metadata
     id="metadata339">
    <rdf:RDF>
      <cc:Work
         rdf:about="">
        <dc:format>image/svg+xml</dc:format>
        <dc:type
           rdf:resource="http://purl.org/dc/dcmitype/StillImage" />
      </cc:Work>
    </rdf:RDF>
  </metadata>
  <sodipodi:namedview
     pagecolor="#ffffff"
     bordercolor="#666666"
     borderopacity="1"
     objecttolerance="10"
     gridtolerance="10"
     guidetolerance="10"
     inkscape:pageopacity="0"
     inkscape:pageshadow="2"
     inkscape:window-width="1920"
     inkscape:window-height="1017"
     id="namedview337"
     showgrid="false"
     inkscape:zoom="2.3873874"
     inkscape:cx="212.78491"
     inkscape:cy="120.23585"
     inkscape:window-x="1912"
     inkscape:window-y="-8"
     inkscape:window-maximized="1"
     inkscape:current-layer="Oval" />
  <title
     id="title2">__🥭Illustrations/ illustration_register</title>
  <defs
     id="defs165">
    <filter
       id="filter-1">
      <feColorMatrix
         in="SourceGraphic"
         type="matrix"
         values="0 0 0 0 0.568627 0 0 0 0 0.619608 0 0 0 0 0.670588 0 0 0 1.000000 0"
         id="feColorMatrix4" />
    </filter>
    <linearGradient
       x1="19.4959033%"
       y1="59.9312023%"
       x2="77.4790349%"
       y2="34.8409284%"
       id="linearGradient-2">
      <stop
         stop-color="#000000"
         offset="0%"
         id="stop7" />
      <stop
         stop-color="#000000"
         stop-opacity="0"
         offset="100%"
         id="stop9" />
    </linearGradient>
    <linearGradient
       x1="19.4959033%"
       y1="59.696079%"
       x2="77.4790349%"
       y2="35.1998226%"
       id="linearGradient-3">
      <stop
         stop-color="#000000"
         offset="0%"
         id="stop12" />
      <stop
         stop-color="#000000"
         stop-opacity="0"
         offset="100%"
         id="stop14" />
    </linearGradient>
    <linearGradient
       x1="19.4959033%"
       y1="59.6960795%"
       x2="77.4790349%"
       y2="35.1998218%"
       id="linearGradient-4">
      <stop
         stop-color="#000000"
         offset="0%"
         id="stop17" />
      <stop
         stop-color="#000000"
         stop-opacity="0"
         offset="100%"
         id="stop19" />
    </linearGradient>
    <linearGradient
       x1="19.4959033%"
       y1="59.931203%"
       x2="77.4790349%"
       y2="34.8409273%"
       id="linearGradient-5">
      <stop
         stop-color="#000000"
         offset="0%"
         id="stop22" />
      <stop
         stop-color="#000000"
         stop-opacity="0"
         offset="100%"
         id="stop24" />
    </linearGradient>
    <linearGradient
       x1="19.4959033%"
       y1="60.3532578%"
       x2="77.4790349%"
       y2="34.1966993%"
       id="linearGradient-6">
      <stop
         stop-color="#000000"
         offset="0%"
         id="stop27" />
      <stop
         stop-color="#000000"
         stop-opacity="0"
         offset="100%"
         id="stop29" />
    </linearGradient>
    <linearGradient
       x1="19.4959033%"
       y1="59.8563421%"
       x2="77.4790349%"
       y2="34.9551956%"
       id="linearGradient-7">
      <stop
         stop-color="#000000"
         offset="0%"
         id="stop32" />
      <stop
         stop-color="#000000"
         stop-opacity="0"
         offset="100%"
         id="stop34" />
    </linearGradient>
    <linearGradient
       x1="19.4959033%"
       y1="59.856342%"
       x2="77.4790349%"
       y2="34.9551957%"
       id="linearGradient-8">
      <stop
         stop-color="#000000"
         offset="0%"
         id="stop37" />
      <stop
         stop-color="#000000"
         stop-opacity="0"
         offset="100%"
         id="stop39" />
    </linearGradient>
    <filter
       x="-30.5%"
       y="-51.9%"
       width="161.1%"
       height="206.0%"
       filterUnits="objectBoundingBox"
       id="filter-9">
      <feOffset
         dx="12"
         dy="24"
         in="SourceAlpha"
         result="shadowOffsetOuter1"
         id="feOffset42" />
      <feGaussianBlur
         stdDeviation="12"
         in="shadowOffsetOuter1"
         result="shadowBlurOuter1"
         id="feGaussianBlur44" />
      <feColorMatrix
         values="0 0 0 0 0.129411765   0 0 0 0 0.168627451   0 0 0 0 0.211764706  0 0 0 0.16 0"
         type="matrix"
         in="shadowBlurOuter1"
         result="shadowMatrixOuter1"
         id="feColorMatrix46" />
      <feMerge
         id="feMerge52">
        <feMergeNode
           in="shadowMatrixOuter1"
           id="feMergeNode48" />
        <feMergeNode
           in="SourceGraphic"
           id="feMergeNode50" />
      </feMerge>
    </filter>
    <rect
       id="path-10"
       x="0"
       y="0"
       width="316"
       height="182"
       rx="12" />
    <filter
       x="-2.4%"
       y="-3.0%"
       width="104.7%"
       height="108.2%"
       filterUnits="objectBoundingBox"
       id="filter-11">
      <feMorphology
         radius="0.5"
         operator="dilate"
         in="SourceAlpha"
         result="shadowSpreadOuter1"
         id="feMorphology56" />
      <feOffset
         dx="0"
         dy="2"
         in="shadowSpreadOuter1"
         result="shadowOffsetOuter1"
         id="feOffset58" />
      <feGaussianBlur
         stdDeviation="2"
         in="shadowOffsetOuter1"
         result="shadowBlurOuter1"
         id="feGaussianBlur60" />
      <feComposite
         in="shadowBlurOuter1"
         in2="SourceAlpha"
         operator="out"
         result="shadowBlurOuter1"
         id="feComposite62" />
      <feColorMatrix
         values="0 0 0 0 0.129411765   0 0 0 0 0.168627451   0 0 0 0 0.211764706  0 0 0 0.04 0"
         type="matrix"
         in="shadowBlurOuter1"
         id="feColorMatrix64" />
    </filter>
    <linearGradient
       x1="50%"
       y1="0%"
       x2="50%"
       y2="100%"
       id="linearGradient-12">
      <stop
         stop-color="#00AB55"
         stop-opacity="0.8"
         offset="0%"
         id="stop67" />
      <stop
         stop-color="#00AB55"
         offset="100%"
         id="stop69" />
    </linearGradient>
    <filter
       x="-25.6%"
       y="-35.9%"
       width="151.1%"
       height="171.9%"
       filterUnits="objectBoundingBox"
       id="filter-13">
      <feOffset
         dx="-2"
         dy="4"
         in="SourceAlpha"
         result="shadowOffsetOuter1"
         id="feOffset72" />
      <feGaussianBlur
         stdDeviation="4"
         in="shadowOffsetOuter1"
         result="shadowBlurOuter1"
         id="feGaussianBlur74" />
      <feColorMatrix
         values="0 0 0 0 0   0 0 0 0 0.321568627   0 0 0 0 0.28627451  0 0 0 0.12 0"
         type="matrix"
         in="shadowBlurOuter1"
         result="shadowMatrixOuter1"
         id="feColorMatrix76" />
      <feMerge
         id="feMerge82">
        <feMergeNode
           in="shadowMatrixOuter1"
           id="feMergeNode78" />
        <feMergeNode
           in="SourceGraphic"
           id="feMergeNode80" />
      </feMerge>
    </filter>
    <circle
       id="path-14"
       cx="13"
       cy="13"
       r="13" />
    <filter
       x="-123.1%"
       y="-50.0%"
       width="300.0%"
       height="300.0%"
       filterUnits="objectBoundingBox"
       id="filter-16">
      <feOffset
         dx="-6"
         dy="13"
         in="SourceAlpha"
         result="shadowOffsetOuter1"
         id="feOffset86" />
      <feGaussianBlur
         stdDeviation="6.5"
         in="shadowOffsetOuter1"
         result="shadowBlurOuter1"
         id="feGaussianBlur88" />
      <feColorMatrix
         values="0 0 0 0 0   0 0 0 0 0.250980392   0 0 0 0 0.501960784  0 0 0 0.12 0"
         type="matrix"
         in="shadowBlurOuter1"
         id="feColorMatrix90" />
    </filter>
    <circle
       id="path-17"
       cx="13"
       cy="13"
       r="13" />
    <filter
       x="-123.1%"
       y="-50.0%"
       width="300.0%"
       height="300.0%"
       filterUnits="objectBoundingBox"
       id="filter-19">
      <feOffset
         dx="-6"
         dy="13"
         in="SourceAlpha"
         result="shadowOffsetOuter1"
         id="feOffset94" />
      <feGaussianBlur
         stdDeviation="6.5"
         in="shadowOffsetOuter1"
         result="shadowBlurOuter1"
         id="feGaussianBlur96" />
      <feColorMatrix
         values="0 0 0 0 0   0 0 0 0 0.250980392   0 0 0 0 0.501960784  0 0 0 0.12 0"
         type="matrix"
         in="shadowBlurOuter1"
         id="feColorMatrix98" />
    </filter>
    <circle
       id="path-20"
       cx="13"
       cy="13"
       r="13" />
    <filter
       x="-123.1%"
       y="-50.0%"
       width="300.0%"
       height="300.0%"
       filterUnits="objectBoundingBox"
       id="filter-22">
      <feOffset
         dx="-6"
         dy="13"
         in="SourceAlpha"
         result="shadowOffsetOuter1"
         id="feOffset102" />
      <feGaussianBlur
         stdDeviation="6.5"
         in="shadowOffsetOuter1"
         result="shadowBlurOuter1"
         id="feGaussianBlur104" />
      <feColorMatrix
         values="0 0 0 0 0   0 0 0 0 0.250980392   0 0 0 0 0.501960784  0 0 0 0.12 0"
         type="matrix"
         in="shadowBlurOuter1"
         id="feColorMatrix106" />
    </filter>
    <circle
       id="path-23"
       cx="13"
       cy="13"
       r="13" />
    <filter
       x="-123.1%"
       y="-50.0%"
       width="300.0%"
       height="300.0%"
       filterUnits="objectBoundingBox"
       id="filter-25">
      <feOffset
         dx="-6"
         dy="13"
         in="SourceAlpha"
         result="shadowOffsetOuter1"
         id="feOffset110" />
      <feGaussianBlur
         stdDeviation="6.5"
         in="shadowOffsetOuter1"
         result="shadowBlurOuter1"
         id="feGaussianBlur112" />
      <feColorMatrix
         values="0 0 0 0 0   0 0 0 0 0.250980392   0 0 0 0 0.501960784  0 0 0 0.12 0"
         type="matrix"
         in="shadowBlurOuter1"
         id="feColorMatrix114" />
    </filter>
    <path
       d="M116.86317,3.94539814 L129.919312,5.39853583 L129.919312,15.0380523 L116.86317,16.5170728 C114.70349,16.5170728 112.7987,15.4236057 111.670168,13.759071 L39.3603187,13.7586995 L39.3603187,6.65940085 L111.700389,6.65923118 C112.832519,5.01954854 114.722651,3.94539814 116.86317,3.94539814 Z"
       id="path-26" />
    <filter
       x="-1.1%"
       y="-8.0%"
       width="102.2%"
       height="115.9%"
       filterUnits="objectBoundingBox"
       id="filter-27">
      <feOffset
         dx="0"
         dy="-2"
         in="SourceAlpha"
         result="shadowOffsetInner1"
         id="feOffset118" />
      <feComposite
         in="shadowOffsetInner1"
         in2="SourceAlpha"
         operator="arithmetic"
         k2="-1"
         k3="1"
         result="shadowInnerInner1"
         id="feComposite120" />
      <feColorMatrix
         values="0 0 0 0 0.717647059   0 0 0 0 0.505882353   0 0 0 0 0.0117647059  0 0 0 1 0"
         type="matrix"
         in="shadowInnerInner1"
         id="feColorMatrix122" />
    </filter>
    <linearGradient
       x1="50%"
       y1="0%"
       x2="50%"
       y2="100%"
       id="linearGradient-28">
      <stop
         stop-color="#FFFFFF"
         offset="0%"
         id="stop125" />
      <stop
         stop-color="#DFE3E8"
         offset="100%"
         id="stop127" />
    </linearGradient>
    <path
       d="M34.6663073,0 L25.2118598,5.12029294 L25.2118598,15.3643432 L34.6663073,20.4846361 L44.1207547,15.3643432 L44.1207547,5.12375728 L34.6663073,0 Z M34.6663073,12.8180541 C33.1437519,12.8180528 31.9092875,11.660131 31.9086088,10.2313461 C31.9079305,8.80256123 33.1412947,7.64360742 34.6638494,7.64233167 C36.1864042,7.64105801 37.42197,8.7979448 37.4240083,10.2267285 C37.4289253,10.9160683 37.1405547,11.5787596 36.6228515,12.0678306 C36.1051484,12.5569015 35.4009045,12.8319114 34.6663073,12.8319114 L34.6663073,12.8180541 Z"
       id="path-29" />
    <filter
       x="-5.3%"
       y="-4.9%"
       width="110.6%"
       height="119.5%"
       filterUnits="objectBoundingBox"
       id="filter-30">
      <feOffset
         dx="0"
         dy="2"
         in="SourceAlpha"
         result="shadowOffsetOuter1"
         id="feOffset131" />
      <feColorMatrix
         values="0 0 0 0 0.568627451   0 0 0 0 0.619607843   0 0 0 0 0.670588235  0 0 0 1 0"
         type="matrix"
         in="shadowOffsetOuter1"
         id="feColorMatrix133" />
    </filter>
    <path
       d="M9.45444744,0 L0,5.12029294 L0,15.3643432 L9.45444744,20.4846361 L18.9088949,15.3643432 L18.9088949,5.12375728 L9.45444744,0 Z M9.45444744,12.8180541 C7.93141124,12.8180541 6.69674645,11.6594291 6.69674645,10.2301929 C6.69674645,8.80095661 7.93141124,7.64233169 9.45444744,7.64233169 C10.9774836,7.64233169 12.212188,8.80095661 12.212188,10.2301929 C12.2160786,10.9189342 11.9272718,11.5807324 11.409676,12.0690517 C10.8920801,12.557371 10.1884009,12.8319114 9.45444744,12.8319114 L9.45444744,12.8180541 Z"
       id="path-31" />
    <filter
       x="-5.3%"
       y="-4.9%"
       width="110.6%"
       height="119.5%"
       filterUnits="objectBoundingBox"
       id="filter-32">
      <feOffset
         dx="0"
         dy="2"
         in="SourceAlpha"
         result="shadowOffsetOuter1"
         id="feOffset137" />
      <feColorMatrix
         values="0 0 0 0 0.568627451   0 0 0 0 0.619607843   0 0 0 0 0.670588235  0 0 0 1 0"
         type="matrix"
         in="shadowOffsetOuter1"
         id="feColorMatrix139" />
    </filter>
    <path
       d="M22.0603774,0 L12.6059299,5.12029294 L12.6059299,15.3643432 L22.0603774,20.4846361 L31.5148248,15.3643432 L31.5148248,5.12375728 L22.0603774,0 Z M22.0603774,12.8180541 C20.5373412,12.8180541 19.3026764,11.6594291 19.3026764,10.2301929 C19.3026764,8.80095661 20.5373412,7.64233169 22.0603774,7.64233169 C23.5834136,7.64233169 24.8181179,8.80095661 24.8181179,10.2301929 C24.8220085,10.9189342 24.5332018,11.5807324 24.0156059,12.0690517 C23.4980101,12.557371 22.7943309,12.8319114 22.0603774,12.8319114 L22.0603774,12.8180541 Z"
       id="path-33" />
    <filter
       x="-5.3%"
       y="-4.9%"
       width="110.6%"
       height="119.5%"
       filterUnits="objectBoundingBox"
       id="filter-34">
      <feOffset
         dx="0"
         dy="2"
         in="SourceAlpha"
         result="shadowOffsetOuter1"
         id="feOffset143" />
      <feColorMatrix
         values="0 0 0 0 0.568627451   0 0 0 0 0.619607843   0 0 0 0 0.670588235  0 0 0 1 0"
         type="matrix"
         in="shadowOffsetOuter1"
         id="feColorMatrix145" />
    </filter>
    <filter
       id="filter-35">
      <feColorMatrix
         in="SourceGraphic"
         type="matrix"
         values="0 0 0 0 0.568627 0 0 0 0 0.619608 0 0 0 0 0.670588 0 0 0 1.000000 0"
         id="feColorMatrix148" />
    </filter>
    <linearGradient
       x1="100%"
       y1="100%"
       x2="0%"
       y2="100%"
       id="linearGradient-36">
      <stop
         stop-color="#000000"
         stop-opacity="0.2"
         offset="0%"
         id="stop151" />
      <stop
         stop-color="#000000"
         stop-opacity="0.968381141"
         offset="100%"
         id="stop153" />
      <stop
         stop-color="#000000"
         offset="100%"
         id="stop155" />
    </linearGradient>
    <linearGradient
       x1="0%"
       y1="100%"
       x2="100%"
       y2="100%"
       id="linearGradient-37">
      <stop
         stop-color="#000000"
         stop-opacity="0.2"
         offset="0%"
         id="stop158" />
      <stop
         stop-color="#000000"
         stop-opacity="0.968381141"
         offset="100%"
         id="stop160" />
      <stop
         stop-color="#000000"
         offset="100%"
         id="stop162" />
    </linearGradient>
  </defs>
  <g
     id="__🥭Illustrations/-illustration_register"
     stroke="none"
     stroke-width="1"
     fill="none"
     fill-rule="evenodd">
    <g
       id="Group"
       transform="translate(31,130)"
       opacity="0.64">
      <g
         id="🎨shape"
         filter="url(#filter-1)">
        <g
           id="g182">
          <polygon
             id="path"
             fill="url(#linearGradient-2)"
             opacity="0.231235"
             points="89.757383,152.52017 65.544825,164.86581 37.827817,150.30429 61.721789,138.59176 " />
          <polygon
             id="polygon168"
             fill="url(#linearGradient-3)"
             opacity="0.231235"
             points="34.854932,44.173811 18.603553,52.361479 0,42.70423 16.037546,34.936443 " />
          <polygon
             id="polygon170"
             fill="url(#linearGradient-4)"
             opacity="0.231235"
             points="340.73701,166.18526 323.36485,174.93759 303.47829,164.61433 320.62187,156.31083 " />
          <polygon
             id="polygon172"
             fill="url(#linearGradient-5)"
             opacity="0.231235"
             points="208.43293,201.80197 190.78214,210.80185 170.57665,200.18661 187.99518,191.64826 " />
          <polygon
             id="polygon174"
             fill="url(#linearGradient-6)"
             opacity="0.231235"
             points="380.39952,67.643676 363.58775,76.396011 344.3427,66.072745 360.93326,57.769248 " />
          <polygon
             id="polygon176"
             fill="#19bb56"
             opacity="0.04"
             points="256.14583,7.4954539 243.11605,14.139152 228.20038,6.3029953 241.05872,-3.8026725e-14 " />
          <polygon
             id="polygon178"
             fill="url(#linearGradient-7)"
             opacity="0.231235"
             points="356.3813,105.85132 220.20595,175.02299 64.321005,93.435893 198.70458,27.811485 " />
          <polygon
             id="polygon180"
             fill="url(#linearGradient-8)"
             opacity="0.231235"
             points="360.37183,121.47377 224.19648,190.64544 68.311534,109.05834 202.69511,43.433931 " />
        </g>
      </g>
    </g>
    <g
       id="#gr"
       filter="url(#filter-9)"
       transform="translate(64,80)">
      <g
         id="background">
        <use
           fill="#000000"
           fill-opacity="1"
           filter="url(#filter-11)"
           xlink:href="#path-10"
           id="use186"
           x="0"
           y="0"
           width="100%"
           height="100%" />
        <use
           stroke="#f4f6f8"
           stroke-width="1"
           fill="#ffffff"
           fill-rule="evenodd"
           xlink:href="#path-10"
           id="use188"
           x="0"
           y="0"
           width="100%"
           height="100%" />
      </g>
      <g
         transform="translate(24,29)"
         fill="#f4f6f8"
         id="line">
        <rect
           x="0"
           y="0"
           width="154"
           height="4"
           rx="2"
           id="rect191" />
        <rect
           x="0"
           y="23"
           width="154"
           height="4"
           rx="2"
           id="rect193" />
        <rect
           x="0"
           y="47"
           width="154"
           height="4"
           rx="2"
           id="rect195" />
        <rect
           x="0"
           y="71"
           width="154"
           height="4"
           rx="2"
           id="rect197" />
        <rect
           x="0"
           y="95"
           width="154"
           height="4"
           rx="2"
           id="rect199" />
        <rect
           x="0"
           y="119"
           width="154"
           height="4"
           rx="2"
           id="rect201" />
      </g>
      <g
         transform="translate(28.090836,25)"
         fill="url(#linearGradient-12)"
         id="Oval">
        <circle
           cx="71.909164"
           cy="6"
           r="6"
           id="circle204"
           style="fill:#3eb5fa;fill-opacity:1" />
        <circle
           cx="23.333153"
           cy="30"
           r="6"
           id="circle206"
           style="fill:#3eb5fa;fill-opacity:1" />
        <circle
           cx="128.90782"
           cy="54"
           r="6"
           id="circle208"
           style="fill:#0b357a;fill-opacity:1" />
        <circle
           cx="54.060108"
           cy="78"
           r="6"
           id="circle210"
           style="fill:#3eb5fa;fill-opacity:1" />
        <circle
           cx="6"
           cy="102"
           r="6"
           id="circle212"
           style="fill:#3eb5fa;fill-opacity:1" />
        <circle
           cx="103.90916"
           cy="126"
           r="6"
           id="circle214"
           style="fill:#3eb5fa;fill-opacity:1" />
      </g>
      <g
         filter="url(#filter-13)"
         transform="translate(202,101)"
         id="Rectangle">
        <rect
           fill="#005249"
           x="0"
           y="0"
           width="22"
           height="16"
           rx="3.1514826"
           id="rect217"
           style="fill:#0b357a;fill-opacity:1" />
        <rect
           fill="#007b55"
           x="34"
           y="0"
           width="22"
           height="16"
           rx="3.1514826"
           id="rect219"
           style="fill:#1f6ab7;fill-opacity:1" />
        <rect
           fill="#007b55"
           x="0"
           y="24"
           width="22"
           height="16"
           rx="3.1514826"
           id="rect221"
           style="fill:#1f6ab7;fill-opacity:1" />
        <rect
           fill="#00ab55"
           x="34"
           y="24"
           width="22"
           height="16"
           rx="3.1514826"
           id="rect223"
           style="fill:#3eb5ff;fill-opacity:1" />
        <rect
           fill="#00ab55"
           x="0"
           y="48"
           width="22"
           height="16"
           rx="3.1514826"
           id="rect225"
           style="fill:#3eb5ff;fill-opacity:1" />
        <rect
           fill="#00ab55"
           x="68"
           y="0"
           width="22"
           height="16"
           rx="3.1514826"
           id="rect227"
           style="fill:#3eb5ff;fill-opacity:1" />
        <rect
           fill="#5be584"
           x="68"
           y="24"
           width="22"
           height="16"
           rx="3.1514826"
           id="rect229"
           style="fill:#8be0ff;fill-opacity:1" />
        <rect
           fill="#5be584"
           x="34"
           y="48"
           width="22"
           height="16"
           rx="3.1514826"
           id="rect231"
           style="fill:#8be0ff;fill-opacity:1" />
        <rect
           fill="#c8facd"
           x="68"
           y="48"
           width="22"
           height="16"
           rx="3.1514826"
           id="rect233"
           style="fill:#d8f9ff;fill-opacity:1" />
      </g>
      <g
         transform="translate(215,17)"
         id="g290">
        <g
           id="4">
          <mask
             id="mask-15"
             fill="#ffffff">
            <use
               xlink:href="#path-14"
               id="use236"
               x="0"
               y="0"
               width="100%"
               height="100%" />
          </mask>
          <g
             id="g243">
            <use
               fill="#000000"
               fill-opacity="1"
               filter="url(#filter-16)"
               xlink:href="#path-14"
               id="use239"
               x="0"
               y="0"
               width="100%"
               height="100%" />
            <use
               fill="#ffffff"
               fill-rule="evenodd"
               xlink:href="#path-14"
               id="use241"
               x="0"
               y="0"
               width="100%"
               height="100%" />
          </g>
          <path
             d="m 15,12.758637 c -0.0019,4.54826 2.20809,8.793682 5.883226,11.30174 3.370269,-2.663858 5.284855,-6.845802 5.139214,-11.225351 C 25.876799,8.4554773 23.688909,4.4189466 20.149613,2 16.902169,4.5611177 14.99785,8.5396469 15,12.758637 Z"
             id="Path"
             fill="#919eab"
             opacity="0.16"
             mask="url(#mask-15)" />
          <path
             d="m 21.292173,4.877865 0.783595,0.7820496 -7.617249,7.6316034 c 0.0048,0.03788 0.0073,0.07649 0.0073,0.115682 0,0.500315 -0.404785,0.9059 -0.904114,0.9059 -0.499328,0 -0.904113,-0.405585 -0.904113,-0.9059 0,-0.500314 0.404785,-0.9059 0.904113,-0.9059 0.03912,0 0.07765,0.0025 0.115455,0.0073 z"
             id="Combined-Shape"
             fill="#212b36"
             mask="url(#mask-15)" />
        </g>
        <g
           id="3"
           transform="translate(38)">
          <mask
             id="mask-18"
             fill="#ffffff">
            <use
               xlink:href="#path-17"
               id="use248"
               x="0"
               y="0"
               width="100%"
               height="100%" />
          </mask>
          <g
             id="g255">
            <use
               fill="#000000"
               fill-opacity="1"
               filter="url(#filter-19)"
               xlink:href="#path-17"
               id="use251"
               x="0"
               y="0"
               width="100%"
               height="100%" />
            <use
               fill="#ffffff"
               fill-rule="evenodd"
               xlink:href="#path-17"
               id="use253"
               x="0"
               y="0"
               width="100%"
               height="100%" />
          </g>
          <path
             d="m 15.606469,12.758637 c -0.0019,4.54826 2.20809,8.793682 5.883226,11.30174 3.370269,-2.663858 5.284855,-6.845802 5.139214,-11.225351 C 26.483268,8.4554773 24.295378,4.4189466 20.756082,2 17.508638,4.5611177 15.604319,8.5396469 15.606469,12.758637 Z"
             id="path257"
             fill="#919eab"
             opacity="0.16"
             mask="url(#mask-18)" />
          <path
             d="m 21.484067,4.877865 0.783595,0.7820496 -7.61725,7.6316034 c 0.0048,0.03788 0.0073,0.07649 0.0073,0.115682 0,0.500315 -0.404786,0.9059 -0.904114,0.9059 -0.499328,0 -0.904114,-0.405585 -0.904114,-0.9059 0,-0.500314 0.404786,-0.9059 0.904114,-0.9059 0.03912,0 0.07765,0.0025 0.115454,0.0073 z"
             id="path259"
             fill="#212b36"
             mask="url(#mask-18)" />
        </g>
        <g
           id="2"
           transform="translate(0,34)">
          <mask
             id="mask-21"
             fill="#ffffff">
            <use
               xlink:href="#path-20"
               id="use262"
               x="0"
               y="0"
               width="100%"
               height="100%" />
          </mask>
          <g
             id="g269">
            <use
               fill="#000000"
               fill-opacity="1"
               filter="url(#filter-22)"
               xlink:href="#path-20"
               id="use265"
               x="0"
               y="0"
               width="100%"
               height="100%" />
            <use
               fill="#ffffff"
               fill-rule="evenodd"
               xlink:href="#path-20"
               id="use267"
               x="0"
               y="0"
               width="100%"
               height="100%" />
          </g>
          <path
             d="m 15,13.092329 c -0.0019,4.54826 2.20809,8.793683 5.883226,11.301741 3.370269,-2.663858 5.284855,-6.845803 5.139214,-11.225351 C 25.876799,8.7891701 23.688909,4.7526393 20.149613,2.3336927 16.902169,4.8948104 14.99785,8.8733396 15,13.092329 Z"
             id="path271"
             fill="#919eab"
             opacity="0.16"
             mask="url(#mask-21)" />
          <path
             d="m 13.561707,12.640336 c 0.499329,0 0.904114,0.405586 0.904114,0.9059 0,0.500315 -0.404785,0.905901 -0.904114,0.905901 -0.03911,0 -0.07765,-0.0025 -0.115454,-0.0073 L 5.3182951,22.589531 4.5347005,21.807482 12.664896,13.661919 c -0.0048,-0.03788 -0.0073,-0.07649 -0.0073,-0.115683 0,-0.500314 0.404785,-0.9059 0.904113,-0.9059 z"
             id="path273"
             fill="#919eab"
             mask="url(#mask-21)" />
        </g>
        <g
           id="1"
           transform="translate(38,34)">
          <mask
             id="mask-24"
             fill="#ffffff">
            <use
               xlink:href="#path-23"
               id="use276"
               x="0"
               y="0"
               width="100%"
               height="100%" />
          </mask>
          <g
             id="g283">
            <use
               fill="#000000"
               fill-opacity="1"
               filter="url(#filter-25)"
               xlink:href="#path-23"
               id="use279"
               x="0"
               y="0"
               width="100%"
               height="100%" />
            <use
               fill="#ffffff"
               fill-rule="evenodd"
               xlink:href="#path-23"
               id="use281"
               x="0"
               y="0"
               width="100%"
               height="100%" />
          </g>
          <path
             d="m 15.606469,13.092329 c -0.0019,4.54826 2.20809,8.793683 5.883226,11.301741 3.370269,-2.663858 5.284855,-6.845803 5.139214,-11.225351 C 26.483268,8.7891701 24.295378,4.7526393 20.756082,2.3336927 17.508638,4.8948104 15.604319,8.8733396 15.606469,13.092329 Z"
             id="path285"
             fill="#919eab"
             opacity="0.16"
             mask="url(#mask-24)" />
          <path
             d="m 21.484067,5.016901 0.783595,0.7820496 -7.61725,7.6316034 c 0.0048,0.03788 0.0073,0.07649 0.0073,0.115682 0,0.500315 -0.404786,0.905901 -0.904114,0.905901 -0.499328,0 -0.904114,-0.405586 -0.904114,-0.905901 0,-0.500314 0.404786,-0.9059 0.904114,-0.9059 0.03912,0 0.07765,0.0025 0.115454,0.0073 z"
             id="path287"
             fill="#212b36"
             mask="url(#mask-24)" />
        </g>
      </g>
    </g>
    <g
       id="g305"
       transform="translate(86,278)">
      <g
         id="g297"
         fill-rule="nonzero">
        <use
           fill="#ffc107"
           xlink:href="#path-26"
           id="use293"
           x="0"
           y="0"
           width="100%"
           height="100%" />
        <use
           fill="#000000"
           fill-opacity="1"
           filter="url(#filter-27)"
           xlink:href="#path-26"
           id="use295"
           x="0"
           y="0"
           width="100%"
           height="100%" />
      </g>
      <path
         d="M 5.6165765,3.4018581 H 58.678832 V 16.483795 H 5.6165765 c -2.7514007,0 -4.98185169,-2.234858 -4.98185169,-4.991695 V 8.3824598 C 0.64082944,5.6299561 2.8694934,3.4018581 5.6165765,3.4018581 Z"
         id="path299"
         fill="#b78103" />
      <rect
         id="rect301"
         fill="#7a4f01"
         x="57.711983"
         y="0.4955827"
         width="4.8342414"
         height="19.378866"
         rx="1.8451302" />
      <path
         d="M 57.711984,3.4018581 V 16.483795 H 56.745136 V 3.4018581 Z m -4.354507,9.2069029 v 0.968758 H 8.8713863 v -0.968758 z m 0,-3.3943521 V 10.183167 H 8.8713863 V 9.2144089 Z m 0,-3.3906547 V 6.7925127 H 8.8713863 V 5.8237542 Z"
         id="path303"
         fill="#7a4f01" />
    </g>
    <g
       id="g324"
       transform="translate(287.75526,41.121024)"
       fill-rule="nonzero">
      <g
         id="Shape">
        <use
           fill="#000000"
           fill-opacity="1"
           filter="url(#filter-30)"
           xlink:href="#path-29"
           id="use307"
           x="0"
           y="0"
           width="100%"
           height="100%" />
        <use
           fill="url(#linearGradient-28)"
           xlink:href="#path-29"
           id="use309"
           x="0"
           y="0"
           width="100%"
           height="100%" />
      </g>
      <g
         id="g316">
        <use
           fill="#000000"
           fill-opacity="1"
           filter="url(#filter-32)"
           xlink:href="#path-31"
           id="use312"
           x="0"
           y="0"
           width="100%"
           height="100%" />
        <use
           fill="url(#linearGradient-28)"
           xlink:href="#path-31"
           id="use314"
           x="0"
           y="0"
           width="100%"
           height="100%" />
      </g>
      <g
         id="g322">
        <use
           fill="#000000"
           fill-opacity="1"
           filter="url(#filter-34)"
           xlink:href="#path-33"
           id="use318"
           x="0"
           y="0"
           width="100%"
           height="100%" />
        <use
           fill="url(#linearGradient-28)"
           xlink:href="#path-33"
           id="use320"
           x="0"
           y="0"
           width="100%"
           height="100%" />
      </g>
    </g>
    <g
       filter="url(#filter-35)"
       id="g332">
      <g
         transform="translate(95.514825,23)"
         id="g330">
        <path
           d="m 111.99956,292.02083 0.79913,0.76364 c -1.13413,1.19185 -2.70112,1.87914 -4.37604,1.87914 v -1.10654 c 1.36971,0 2.64901,-0.56111 3.57691,-1.53624 z m -8.4815,-2.77872 c 0.17637,1.35012 0.899,2.55866 1.98397,3.35713 l -0.6536,0.89188 c -1.32583,-0.97572 -2.20946,-2.45353 -2.42525,-4.10537 z m 144.1942,-1.40241 v 1.10654 h -4.41688 v -1.10654 z m -8.83377,0 v 1.10654 h -4.41688 v -1.10654 z m -8.83377,0 v 1.10654 h -4.41688 v -1.10654 z m -8.83376,0 v 1.10654 h -4.41689 v -1.10654 z m -8.83377,0 v 1.10654 h -4.41688 v -1.10654 z m -8.83377,0 v 1.10654 h -4.41688 v -1.10654 z m -8.83376,0 v 1.10654 h -4.41689 v -1.10654 z m -8.83377,0 v 1.10654 H 181.459 v -1.10654 z m -8.83377,0 v 1.10654 h -4.41688 v -1.10654 z m -8.83377,0 v 1.10654 h -4.41688 v -1.10654 z m -8.83376,0 v 1.10654 h -4.41689 v -1.10654 z m -8.83377,0 v 1.10654 h -4.41688 v -1.10654 z m -8.83377,0 v 1.10654 h -4.41688 v -1.10654 z m -8.83376,0 v 1.10654 h -4.41689 v -1.10654 z m -8.83377,0 v 1.10654 h -2.85576 v -1.10654 z m -11.62827,-3.81925 c 1.23391,1.08654 1.98484,2.62969 2.05681,4.3021 l -1.1032,0.0477 c -0.0589,-1.36807 -0.67259,-2.62925 -1.68249,-3.51854 z m 139.70735,-0.61751 v 4.42619 h -1.10422 v -4.42619 z m -144.22722,-0.86573 0.096,1.10236 c -1.35517,0.11848 -2.5869,0.79125 -3.42805,1.8459 l -0.86257,-0.69085 c 1.02798,-1.2889 2.53559,-2.11237 4.19464,-2.25741 z m 144.22722,-7.98664 v 4.42619 h -1.10422 v -4.42619 z m 0,-8.85237 v 4.42618 h -1.10422 v -4.42618 z m 0,-8.85238 v 4.42619 h -1.10422 v -4.42619 z"
           id="path326"
           fill="url(#linearGradient-36)" />
        <path
           d="M 1.1038821,33.388895 V 37.81779 H 0 v -4.428895 z m 0,-8.857791 v 4.428895 H 0 v -4.428895 z m 0,-8.85779 v 4.428895 H 0 V 15.673314 Z M 147.22767,9.4894283 l 0.79889,0.7641047 c -1.13378,1.192577 -2.70029,1.88029 -4.3747,1.88029 V 11.0266 c 1.36929,0 2.6482,-0.561451 3.57581,-1.5371717 z M 1.1038821,6.8155239 V 11.244419 H 0 V 6.8155239 Z M 138.74878,6.709007 c 0.17632,1.3509471 0.89872,2.5602245 1.98336,3.359184 l -0.6534,0.892422 C 138.75331,9.9842937 137.86996,8.5055817 137.65423,6.8527291 Z M 8.8205158,5.697727 V 6.8049508 H 4.4049873 V 5.697727 Z m 8.8310572,0 V 6.8049508 H 13.236044 V 5.697727 Z m 8.831057,0 V 6.8049508 H 22.067101 V 5.697727 Z m 8.831057,0 V 6.8049508 H 30.898158 V 5.697727 Z m 8.831056,0 V 6.8049508 H 39.729215 V 5.697727 Z m 8.831057,0 V 6.8049508 H 48.560272 V 5.697727 Z m 8.831057,0 V 6.8049508 H 57.391329 V 5.697727 Z m 8.831057,0 V 6.8049508 H 66.222386 V 5.697727 Z m 8.831057,0 V 6.8049508 H 75.053443 V 5.697727 Z m 8.831057,0 V 6.8049508 H 83.8845 V 5.697727 Z m 8.831057,0 V 6.8049508 H 92.715556 V 5.697727 Z m 8.831055,0 v 1.1072238 h -4.41553 V 5.697727 Z m 8.83106,0 v 1.1072238 h -4.41553 V 5.697727 Z m 8.83106,0 v 1.1072238 h -4.41553 V 5.697727 Z m 7.26672,0 v 1.1072238 h -2.8512 V 5.697727 Z m 16.74826,-4.2135732 c 1.23353,1.0872036 1.98423,2.6312968 2.05618,4.3047267 l -1.10286,0.047703 c -0.0588,-1.3689084 -0.67239,-2.6308653 -1.68198,-3.5206907 z M 143.12076,0 l 0.0959,1.1030339 c -1.35475,0.118551 -2.5861,0.7917339 -3.427,1.8470354 L 138.9274,2.2587911 C 139.95506,0.96910185 141.46222,0.1451349 143.12076,0 Z"
           id="path328"
           fill="url(#linearGradient-37)" />
      </g>
    </g>
  </g>
</svg>
