<?xml version="1.0" encoding="UTF-8" standalone="no"?>
<svg
   xmlns:dc="http://purl.org/dc/elements/1.1/"
   xmlns:cc="http://creativecommons.org/ns#"
   xmlns:rdf="http://www.w3.org/1999/02/22-rdf-syntax-ns#"
   xmlns:svg="http://www.w3.org/2000/svg"
   xmlns="http://www.w3.org/2000/svg"
   xmlns:xlink="http://www.w3.org/1999/xlink"
   xmlns:sodipodi="http://sodipodi.sourceforge.net/DTD/sodipodi-0.dtd"
   xmlns:inkscape="http://www.inkscape.org/namespaces/inkscape"
   width="444px"
   height="341px"
   viewBox="0 0 444 341"
   version="1.1"
   id="svg123"
   sodipodi:docname="illustration_login.svg"
   inkscape:version="1.0.2 (e86c870879, 2021-01-15, custom)">
  <metadata
     id="metadata127">
    <rdf:RDF>
      <cc:Work
         rdf:about="">
        <dc:format>image/svg+xml</dc:format>
        <dc:type
           rdf:resource="http://purl.org/dc/dcmitype/StillImage" />
      </cc:Work>
    </rdf:RDF>
  </metadata>
  <sodipodi:namedview
     pagecolor="#ffffff"
     bordercolor="#666666"
     borderopacity="1"
     objecttolerance="10"
     gridtolerance="10"
     guidetolerance="10"
     inkscape:pageopacity="0"
     inkscape:pageshadow="2"
     inkscape:window-width="1920"
     inkscape:window-height="1017"
     id="namedview125"
     showgrid="false"
     inkscape:zoom="2.3873874"
     inkscape:cx="222"
     inkscape:cy="170.5"
     inkscape:window-x="-8"
     inkscape:window-y="-8"
     inkscape:window-maximized="1"
     inkscape:current-layer="Bottom/Skinny-Jeans-1" />
  <title
     id="title2">__🥭Illustrations/ illustration_login</title>
  <defs
     id="defs67">
    <filter
       id="filter-1">
      <feColorMatrix
         in="SourceGraphic"
         type="matrix"
         values="0 0 0 0 0.568627 0 0 0 0 0.619608 0 0 0 0 0.670588 0 0 0 1.000000 0"
         id="feColorMatrix4" />
    </filter>
    <linearGradient
       x1="19.4959033%"
       y1="59.9312023%"
       x2="77.4790349%"
       y2="34.8409284%"
       id="linearGradient-2">
      <stop
         stop-color="#000000"
         offset="0%"
         id="stop7" />
      <stop
         stop-color="#000000"
         stop-opacity="0"
         offset="100%"
         id="stop9" />
    </linearGradient>
    <linearGradient
       x1="19.4959033%"
       y1="59.696079%"
       x2="77.4790349%"
       y2="35.1998226%"
       id="linearGradient-3">
      <stop
         stop-color="#000000"
         offset="0%"
         id="stop12" />
      <stop
         stop-color="#000000"
         stop-opacity="0"
         offset="100%"
         id="stop14" />
    </linearGradient>
    <linearGradient
       x1="19.4959033%"
       y1="59.6960795%"
       x2="77.4790349%"
       y2="35.1998218%"
       id="linearGradient-4">
      <stop
         stop-color="#000000"
         offset="0%"
         id="stop17" />
      <stop
         stop-color="#000000"
         stop-opacity="0"
         offset="100%"
         id="stop19" />
    </linearGradient>
    <linearGradient
       x1="19.4959033%"
       y1="59.931203%"
       x2="77.4790349%"
       y2="34.8409273%"
       id="linearGradient-5">
      <stop
         stop-color="#000000"
         offset="0%"
         id="stop22" />
      <stop
         stop-color="#000000"
         stop-opacity="0"
         offset="100%"
         id="stop24" />
    </linearGradient>
    <linearGradient
       x1="19.4959033%"
       y1="60.3532578%"
       x2="77.4790349%"
       y2="34.1966993%"
       id="linearGradient-6">
      <stop
         stop-color="#000000"
         offset="0%"
         id="stop27" />
      <stop
         stop-color="#000000"
         stop-opacity="0"
         offset="100%"
         id="stop29" />
    </linearGradient>
    <linearGradient
       x1="19.4959033%"
       y1="59.8563421%"
       x2="77.4790349%"
       y2="34.9551956%"
       id="linearGradient-7">
      <stop
         stop-color="#000000"
         offset="0%"
         id="stop32" />
      <stop
         stop-color="#000000"
         stop-opacity="0"
         offset="100%"
         id="stop34" />
    </linearGradient>
    <linearGradient
       x1="19.4959033%"
       y1="59.856342%"
       x2="77.4790349%"
       y2="34.9551957%"
       id="linearGradient-8">
      <stop
         stop-color="#000000"
         offset="0%"
         id="stop37" />
      <stop
         stop-color="#000000"
         stop-opacity="0"
         offset="100%"
         id="stop39" />
    </linearGradient>
    <filter
       x="-27.1%"
       y="-25.9%"
       width="154.2%"
       height="151.9%"
       filterUnits="objectBoundingBox"
       id="filter-9">
      <feOffset
         dx="16"
         dy="16"
         in="SourceAlpha"
         result="shadowOffsetOuter1"
         id="feOffset42" />
      <feGaussianBlur
         stdDeviation="12"
         in="shadowOffsetOuter1"
         result="shadowBlurOuter1"
         id="feGaussianBlur44" />
      <feColorMatrix
         values="0 0 0 0 0.129411765   0 0 0 0 0.168627451   0 0 0 0 0.211764706  0 0 0 0.24 0"
         type="matrix"
         in="shadowBlurOuter1"
         result="shadowMatrixOuter1"
         id="feColorMatrix46" />
      <feMerge
         id="feMerge52">
        <feMergeNode
           in="shadowMatrixOuter1"
           id="feMergeNode48" />
        <feMergeNode
           in="SourceGraphic"
           id="feMergeNode50" />
      </feMerge>
    </filter>
    <linearGradient
       x1="107.139416%"
       y1="50%"
       x2="62.7764544%"
       y2="50%"
       id="linearGradient-10">
      <stop
         stop-color="#919EAB"
         stop-opacity="0"
         offset="0%"
         id="stop55" />
      <stop
         stop-color="#919EAB"
         offset="100%"
         id="stop57" />
    </linearGradient>
    <rect
       id="path-11"
       x="0"
       y="6.63820441"
       width="184.529868"
       height="272.166381" />
    <linearGradient
       x1="49.7558309%"
       y1="25.5463845%"
       x2="51.610268%"
       y2="100.936456%"
       id="linearGradient-12">
      <stop
         stop-color="#00AB55"
         offset="0%"
         id="stop61"
         style="stop-color:#3eb5ff;stop-opacity:1" />
      <stop
         stop-color="#007B55"
         offset="100%"
         id="stop63"
         style="stop-color:#1f6ab7;stop-opacity:1" />
    </linearGradient>
    <polygon
       id="path-13"
       points="0 278.804585 0 6.63820441 132.755301 0.0248525691 132.755301 285.467642" />
    <linearGradient
       inkscape:collect="always"
       xlink:href="#linearGradient-12"
       id="linearGradient958"
       x1="11.629868"
       y1="48.06937"
       x2="92.713341"
       y2="48.06937"
       gradientUnits="userSpaceOnUse" />
  </defs>
  <g
     id="__🥭Illustrations/-illustration_login"
     stroke="none"
     stroke-width="1"
     fill="none"
     fill-rule="evenodd">
    <g
       id="Group"
       transform="translate(32,130)"
       opacity="0.64">
      <g
         id="🎨shape"
         filter="url(#filter-1)">
        <g
           id="g84">
          <polygon
             id="path"
             fill="url(#linearGradient-2)"
             opacity="0.231235"
             points="37.827817,150.30429 61.721789,138.59176 89.757383,152.52017 65.544825,164.86581 " />
          <polygon
             id="polygon70"
             fill="url(#linearGradient-3)"
             opacity="0.231235"
             points="0,42.70423 16.037546,34.936443 34.854932,44.173811 18.603553,52.361479 " />
          <polygon
             id="polygon72"
             fill="url(#linearGradient-4)"
             opacity="0.231235"
             points="303.47829,164.61433 320.62187,156.31083 340.73701,166.18526 323.36485,174.93759 " />
          <polygon
             id="polygon74"
             fill="url(#linearGradient-5)"
             opacity="0.231235"
             points="170.57665,200.18661 187.99518,191.64826 208.43293,201.80197 190.78214,210.80185 " />
          <polygon
             id="polygon76"
             fill="url(#linearGradient-6)"
             opacity="0.231235"
             points="344.3427,66.072745 360.93326,57.769248 380.39952,67.643676 363.58775,76.396011 " />
          <polygon
             id="polygon78"
             fill="#19bb56"
             opacity="0.04"
             points="228.20038,6.3029953 241.05872,-3.8026725e-14 256.14583,7.4954539 243.11605,14.139152 " />
          <polygon
             id="polygon80"
             fill="url(#linearGradient-7)"
             opacity="0.231235"
             points="64.321005,93.435893 198.70458,27.811485 356.3813,105.85132 220.20595,175.02299 " />
          <polygon
             id="polygon82"
             fill="url(#linearGradient-8)"
             opacity="0.231235"
             points="68.311534,109.05834 202.69511,43.433931 360.37183,121.47377 224.19648,190.64544 " />
        </g>
      </g>
    </g>
    <g
       id="#gr"
       filter="url(#filter-9)"
       transform="translate(80)">
      <g
         id="-bg">
        <use
           fill="#ffffff"
           xlink:href="#path-11"
           id="use88"
           x="0"
           y="0"
           width="100%"
           height="100%" />
        <use
           fill="url(#linearGradient-10)"
           xlink:href="#path-11"
           id="use90"
           x="0"
           y="0"
           width="100%"
           height="100%" />
      </g>
      <g
         id="Humaaan"
         transform="matrix(-1,0,0,1,283.43257,45.13979)">
        <g
           id="Head/Front"
           transform="translate(68.722994)">
          <g
             id="Head"
             transform="translate(2.920617,4.621811)"
             fill="#ba8b72">
            <path
               d="m 23.630744,5.6647652 c 3.590028,6.6987378 3.163439,23.6906408 -1.476353,24.8878918 -1.850367,0.477468 -5.792229,-0.69216 -9.804097,-3.112921 l 2.5183,17.834065 H 0 L 5.1181036,21.389718 C 2.2637077,18.035395 0.33186085,13.924717 0.65469908,9.318622 1.5849489,-3.953718 20.040715,-1.0339723 23.630744,5.6647652 Z"
               id="path93" />
          </g>
          <path
             d="M 6.8968121,28.999904 C 5.0306572,20.688713 -0.28571339,15.023252 0.52622393,11.308505 1.0675155,8.8320069 2.5102197,7.2919597 4.8543366,6.6883633 6.0666917,1.7785547 9.9767856,-0.30977829 16.584618,0.42336439 26.496367,1.5230784 32.545947,5.6437328 29.933433,14.710971 c -2.401516,0 -5.300658,-0.869438 -9.309569,0.620189 -1.272011,0.472652 -2.181791,1.938389 -2.729339,4.39721 H 16.082914 C 14.324669,16.810422 12.591028,15.738155 10.881992,16.511571 9.1729554,17.284986 8.7844636,19.163616 9.7165166,22.14746 L 8.824115,28.999904 Z"
             id="Hair"
             fill="#ffc107" />
        </g>
        <g
           id="Bottom/Skinny-Jeans-1"
           transform="translate(0,101.3713)">
          <path
             d="m 100.55912,0 28.70029,137.06178 h -11.9052 L 96.475178,78.904736 84.761207,47.877705 C 80.378014,61.200666 76.618741,71.808801 75.311778,74.007549 73.443206,77.151108 54.234644,90.520187 17.686091,114.11478 v 0 L 11.549711,103.6691 C 39.255963,81.607452 54.698099,69.017881 57.876119,65.900387 l 0.193699,-0.1938 c 0.234039,-0.23969 0.371177,-0.404539 0.411414,-0.494547 0.558281,-1.248858 0.575246,-21.533879 0.677538,-42.968641 l 0.0085,-1.74012 C 59.202083,13.535546 59.247659,6.497724 59.32537,0 v 0 z"
             id="Combined-Shape"
             fill="#005249"
             style="fill:#0b357a;fill-opacity:1" />
          <g
             id="Left-Shoe"
             transform="rotate(50,-103.84167,62.916034)"
             fill="#ffc107">
            <path
               d="M 0,13.522615 0.61952474,0.49864446 H 13.629544 C 19.798526,4.8399678 27.852347,8.3543724 37.791009,11.041858 v 2.480757 H 14.249069 L 6.1952474,12.282236 v 1.240379 z"
               id="Shoe" />
          </g>
          <g
             id="Right-Shoe"
             transform="translate(116.24939,134.70257)"
             fill="#ffc107">
            <path
               d="M 0,13.522615 0.61952474,0.49864446 H 13.629544 C 19.798526,4.8399678 27.852347,8.3543724 37.791009,11.041858 v 2.480757 H 14.249069 L 6.1952474,12.282236 v 1.240379 z"
               id="path101" />
          </g>
        </g>
        <g
           id="Body/Long-Sleeve-1"
           transform="translate(14.293321,32.93235)">
          <path
             d="m 24.496764,45.150657 13.565976,0.05097 C 27.730461,78.712799 22.245756,96.258719 21.608624,97.839385 c -1.433545,3.556495 1.600029,8.972975 2.897306,11.883755 -4.225187,1.89267 -3.774989,-5.11667 -9.104949,-2.63432 -4.864941,2.26577 -8.5656892,6.37119 -14.1864252,2.89931 -0.69103645,-0.42685 -1.44829983,-2.03401 0.3813442,-3.28992 4.5583106,-3.12893 11.127112,-8.605121 12.014661,-10.407652 1.210331,-2.458073 4.839065,-19.504706 10.886203,-51.139901 z m 85.818626,15.511332 17.54984,17.138939 c 5.10636,2.180467 9.29029,4.588144 12.5518,7.223029 0.0936,0.113065 0.18832,0.239352 0.2751,0.372062 l 0.0838,0.1346 c 0.52326,0.885547 0.58566,1.946754 -2.27787,1.316628 -0.18653,-0.04105 -0.37369,-0.08176 -0.56096,-0.121865 l -0.56164,-0.118268 c -3.08527,-0.637711 -6.06238,-1.041183 -6.64086,-0.03917 -0.64859,1.123466 1.26254,2.845013 0.0639,4.31534 -0.79912,0.980218 -3.48662,-2.137663 -8.06251,-9.353644 l -18.2495,-10.770997 z"
             id="Skin"
             fill="#ba8b72" />
          <path
             d="m 62.77909,9.3408073 5.256552,-1.383247 C 79.045348,36.971666 124.01419,53.471147 127.63883,64.360316 c 1.32925,3.993346 -1.42247,6.311545 0.2008,7.421286 l -6.49196,5.690263 c -1.2947,-1.269223 -3.58187,1.459785 -8.97032,0.162243 C 106.9889,76.336567 65.860971,44.566867 62.77909,9.3408073 Z"
             id="Clothes-Back"
             fill="#007b55"
             transform="rotate(5,95.396896,42.975613)"
             style="fill:#1f6ab7;fill-opacity:1" />
          <path
             d="M 56.306208,0.39075995 72.993215,1.5592861 c 1.365089,0.095965 2.394339,1.2799643 2.299405,2.6451256 L 74.846526,10.569591 C 74.218231,50.128356 97.060383,60.214518 91.973832,76.078593 87.774382,89.175949 47.578731,103.25555 40.623122,90.417051 37.807298,85.219669 36.529901,78.933694 36.385174,72.09949 c -1.777337,5.250858 -3.183513,9.770966 -4.217867,13.560549 -1.784195,6.536799 -8.701142,7.575852 -8.701142,10.094062 v 0 l -9.11298,-2.51821 C 14.971297,89.814799 10.675219,88.148931 11.827109,80.505912 16.988182,46.261188 30.854931,21.438129 53.427355,6.0367346 L 53.66189,2.6902218 c 0.09495,-1.365319 1.279027,-2.39481055 2.644318,-2.29946185 z"
             id="Clothes-Front"
             fill="url(#linearGradient-12)"
             fill-rule="nonzero"
             style="mix-blend-mode:normal;fill:url(#linearGradient958);fill-opacity:1" />
        </g>
      </g>
      <g
         id="-block">
        <mask
           id="mask-14"
           fill="#ffffff">
          <use
             xlink:href="#path-13"
             id="use110"
             x="0"
             y="0"
             width="100%"
             height="100%" />
        </mask>
        <use
           id="use113"
           fill="#ffffff"
           xlink:href="#path-13"
           x="0"
           y="0"
           width="100%"
           height="100%" />
        <path
           d="M 114.0582,1.2881915 V 284.97613 h -0.82828 V 1.2881915 Z M 90.452145,2.53082 V 284.62819 H 89.623863 V 2.53082 Z M 66.84609,3.7734484 V 282.90508 H 66.017808 V 3.7734484 Z M 43.240035,5.0160769 V 281.31451 H 42.411752 V 5.0160769 Z M 19.63398,6.6729148 V 280.48609 H 18.805697 V 6.6729148 Z"
           id="path115"
           fill="#919eab"
           opacity="0.12"
           mask="url(#mask-14)" />
      </g>
      <polygon
         id="Path"
         fill="#dfe3e8"
         points="139.39307,0 139.39307,285.44279 131.42775,285.418 131.74185,0 " />
      <path
         d="m 123.24961,154.52499 c 0.91489,0 1.65656,0.74179 1.65656,1.65684 0,0.65792 -0.38342,1.22628 -0.93897,1.49374 l 0.42958,0.74299 1.15131,1.9882 h -4.59697 l 1.15132,-1.9882 0.42958,-0.74299 c -0.55555,-0.26746 -0.93898,-0.83582 -0.93898,-1.49374 0,-0.91505 0.74167,-1.65684 1.65657,-1.65684 z m 0,-16.56838 c 2.97341,0 5.38383,2.41082 5.38383,5.38472 0,2.9739 -2.41042,5.38473 -5.38383,5.38473 -2.97341,0 -5.38384,-2.41083 -5.38384,-5.38473 0,-2.9739 2.41043,-5.38472 5.38384,-5.38472 z"
         id="path119"
         fill="#919eab"
         opacity="0.48" />
    </g>
  </g>
</svg>
