<?xml version="1.0" encoding="utf-8"?>
<!-- Generator: Adobe Illustrator 25.4.1, SVG Export Plug-In . SVG Version: 6.00 Build 0)  -->
<svg version="1.1" id="Icon_Name" xmlns="http://www.w3.org/2000/svg" xmlns:xlink="http://www.w3.org/1999/xlink" x="0px" y="0px"
	 viewBox="0 0 10.1 10.1" style="enable-background:new 0 0 10.1 10.1;" xml:space="preserve">
<style type="text/css">
	.st0{fill:url(#SVGID_1_);}
	.st1{fill:#FFFFFF;}
</style>
<linearGradient id="SVGID_1_" gradientUnits="userSpaceOnUse" x1="1.5911" y1="10.5317" x2="8.3915" y2="3.4905" gradientTransform="matrix(1 0 0 -1 0 12)">
	<stop  offset="0" style="stop-color:#2BB673"/>
	<stop  offset="0.1761" style="stop-color:#2AB379"/>
	<stop  offset="0.4135" style="stop-color:#28AC8A"/>
	<stop  offset="0.6846" style="stop-color:#24A0A6"/>
	<stop  offset="0.8571" style="stop-color:#2196BC"/>
</linearGradient>
<circle class="st0" cx="5.1" cy="5.1" r="5.1"/>
<path class="st1" d="M8.2,4V3.4H6.4L5.6,1.1H4.5L3.8,3.4H2V4h1.6l-0.3,1H2v0.7h1L2.2,7.9h0.9l0.7-2.1h2.4L7,7.9h0.9L7.2,5.7h1V5.1
	H6.9L6.6,4L8.2,4z M4.7,3.1C4.8,2.7,4.9,2.3,5,1.9h0c0.1,0.4,0.2,0.8,0.4,1.2l0.1,0.3H4.6L4.7,3.1z M6.1,5.1H4l0.3-1h1.3L6.1,5.1z"
	/>
</svg>
