<svg id="Icon_Name" data-name="Icon Name" xmlns="http://www.w3.org/2000/svg" xmlns:xlink="http://www.w3.org/1999/xlink" viewBox="0 0 10.1193 10.1193"><defs><style>.cls-1{fill:url(#linear-gradient);}.cls-2{fill:#fff;}</style><linearGradient id="linear-gradient" x1="1.5911" y1="1.4683" x2="8.3915" y2="8.5095" gradientUnits="userSpaceOnUse"><stop offset="0" stop-color="#2bb673"/><stop offset="0.1761" stop-color="#2ab379"/><stop offset="0.4135" stop-color="#28ac8a"/><stop offset="0.6846" stop-color="#24a0a6"/><stop offset="0.8571" stop-color="#2196bc"/></linearGradient></defs><circle class="cls-1" cx="5.0597" cy="5.0597" r="5.0597"/><path class="cls-2" d="M11.1267,10.8509V10.19H9.3316L8.5549,7.9137H7.4988L6.7254,10.19H4.9207v.661h1.58l-.342,1.0065H4.9207v.661H5.9344l-.739,2.1748h.9054l.7039-2.1326H9.2085l.7243,2.1326h.9353l-.742-2.1748h1.0006v-.661H9.9005l-.3434-1.0065ZM7.65,9.9153c.1311-.4124.2416-.8248.3419-1.2273h.0205c.1.3923.2011.7948.3518,1.2371l.09.2648H7.5566ZM9.021,11.8574H6.9921l.3407-1.0065H8.6786Z" transform="translate(-2.964 -6.8046)"/></svg>