<?xml version="1.0" encoding="UTF-8" standalone="no"?><!DOCTYPE svg PUBLIC "-//W3C//DTD SVG 1.1//EN" "http://www.w3.org/Graphics/SVG/1.1/DTD/svg11.dtd"><svg width="100%" height="100%" viewBox="0 0 65 65" version="1.1" xmlns="http://www.w3.org/2000/svg" xmlns:xlink="http://www.w3.org/1999/xlink" xml:space="preserve" xmlns:serif="http://www.serif.com/" style="fill-rule:evenodd;clip-rule:evenodd;stroke-linejoin:round;stroke-miterlimit:2;"><rect id="Artboard21" x="0.716" y="0.881" width="64" height="64" style="fill:none;"/><g><path d="M29.116,40.408l-15.678,0l-0.007,0c-0.511,-0.001 -1.022,-0.03 -1.53,-0.092c-0.967,-0.117 -1.921,-0.345 -2.836,-0.681c-1.516,-0.555 -2.922,-1.403 -4.123,-2.482c-1.292,-1.16 -2.342,-2.583 -3.068,-4.161c-0.503,-1.094 -0.848,-2.259 -1.023,-3.45c-0.207,-1.412 -0.176,-2.859 0.093,-4.261c0.284,-1.479 0.834,-2.904 1.617,-4.191c0.846,-1.393 1.961,-2.619 3.266,-3.595c1.364,-1.021 2.932,-1.763 4.587,-2.168c1.101,-0.268 2.233,-0.386 3.364,-0.355c2.393,-7.995 9.714,-13.87 18.43,-14.091l-1.164,4.495c-6.738,0.731 -12.174,5.827 -13.416,12.398l-0.412,2.18c0,0 -2.21,-0.431 -2.197,-0.428c-1.176,-0.222 -2.394,-0.198 -3.558,0.086c-1.08,0.264 -2.102,0.749 -2.992,1.414c-0.855,0.64 -1.585,1.443 -2.139,2.355c-0.51,0.839 -0.869,1.767 -1.054,2.731c-0.176,0.918 -0.196,1.866 -0.061,2.79c0.114,0.776 0.339,1.535 0.667,2.248c0.474,1.032 1.162,1.962 2.007,2.721c0.785,0.705 1.703,1.26 2.694,1.623c0.596,0.218 1.217,0.367 1.847,0.443c0.337,0.041 0.675,0.06 1.015,0.061l16.822,0l-1.151,4.41Zm9.395,-4.41l13.484,0c4.587,0 8.311,-3.724 8.311,-8.311c0,-4.587 -3.724,-8.311 -8.311,-8.311c-0.548,0 -1.083,0.052 -1.6,0.153l-2.178,0.425l-0.412,-2.18c-0.927,-4.906 -4.193,-8.99 -8.593,-11.049l1.156,-4.312c5.403,2.273 9.587,6.881 11.287,12.557c0.113,-0.004 0.226,-0.005 0.34,-0.005c7.021,0 12.721,5.7 12.721,12.722c0,7.021 -5.7,12.721 -12.721,12.721l-16.319,0l2.835,-4.41Z" style="fill:#025bf7;"/><path d="M30.161,1.039c0.74,0.383 1.413,0.258 2.047,-0.158l1.991,0l-9.727,30.221l9.228,2.058l-3.386,10.52l9.637,-13.495l-8.606,-1.744l8.474,-26.329l0.549,0.301l2.862,1.491l-6.997,21.739l7.197,1.605l2.703,0.594l-1.57,2.359l-18.267,25.371l-6.996,9.101l3.643,-10.48l5.869,-18.234l-9.228,-2.059l10.577,-32.861Z" style="fill:#025bf7;"/></g></svg>