<svg width="200" height="200" viewBox="0 0 200 200" fill="none" xmlns="http://www.w3.org/2000/svg">
<g clip-path="url(#clip0)">
<path d="M100 200C155.228 200 200 155.228 200 100C200 44.7715 155.228 0 100 0C44.7715 0 0 44.7715 0 100C0 155.228 44.7715 200 100 200Z" fill="white"/>
<mask id="mask0" style="mask-type:alpha" maskUnits="userSpaceOnUse" x="-23" y="-23" width="246" height="246">
<path d="M125.882 196.593C179.228 182.298 210.887 127.465 196.592 74.1181C182.298 20.7715 127.465 -10.8868 74.118 3.4074C20.7714 17.7016 -10.8869 72.5353 3.40729 125.882C17.7015 179.228 72.5352 210.887 125.882 196.593Z" fill="white"/>
</mask>
<g mask="url(#mask0)">
<path d="M82.235 207.343C119.112 166.23 115.678 103.007 74.5647 66.1302C33.4517 29.2534 -29.7716 32.6875 -66.6485 73.8005C-103.525 114.914 -100.091 178.137 -58.9782 215.014C-17.8651 251.891 45.3582 248.456 82.235 207.343Z" fill="black"/>
<path d="M127.855 222.035C177.024 167.218 172.445 82.9206 117.628 33.7516C62.8103 -15.4174 -21.4872 -10.8386 -70.6562 43.9787C-119.825 98.796 -115.246 183.093 -60.4291 232.262C-5.61187 281.432 78.6856 276.853 127.855 222.035Z" fill="black" fill-opacity="0.4"/>
<path d="M179.615 164.329C228.784 109.512 224.206 25.214 169.388 -23.955C114.571 -73.1241 30.2735 -68.5452 -18.8955 -13.728C-68.0645 41.0893 -63.4856 125.387 -8.66839 174.556C46.1489 223.725 130.446 219.146 179.615 164.329Z" fill="black" fill-opacity="0.4"/>
</g>
</g>
<defs>
<clipPath id="clip0">
<rect width="200" height="200" fill="white"/>
</clipPath>
</defs>
</svg>
