<?xml version="1.0" encoding="utf-8"?>
<!-- Generator: Adobe Illustrator 26.0.2, SVG Export Plug-In . SVG Version: 6.00 Build 0)  -->
<svg version="1.1"
	 id="svg22" xmlns:cc="http://creativecommons.org/ns#" xmlns:dc="http://purl.org/dc/elements/1.1/" xmlns:inkscape="http://www.inkscape.org/namespaces/inkscape" xmlns:rdf="http://www.w3.org/1999/02/22-rdf-syntax-ns#" xmlns:sodipodi="http://sodipodi.sourceforge.net/DTD/sodipodi-0.dtd" xmlns:svg="http://www.w3.org/2000/svg"
	 xmlns="http://www.w3.org/2000/svg" xmlns:xlink="http://www.w3.org/1999/xlink" x="0px" y="0px" viewBox="0 0 6.4 7.1"
	 style="enable-background:new 0 0 6.4 7.1;" xml:space="preserve">
<style type="text/css">
	.st0{fill:url(#path16_00000029739886524206786540000015703229578537224361_);}
	.st1{fill:url(#path18_00000122679691163132794420000015031953309424012717_);}
	.st2{fill:#E8E2CD;}
	.st3{fill:#F4F2EA;}
</style>
<sodipodi:namedview  bordercolor="#666666" borderopacity="1" gridtolerance="10" guidetolerance="10" id="namedview24" inkscape:current-layer="svg22" inkscape:cx="3.187" inkscape:cy="3.54495" inkscape:pageopacity="0" inkscape:pageshadow="2" inkscape:window-height="1017" inkscape:window-maximized="1" inkscape:window-width="1920" inkscape:window-x="1912" inkscape:window-y="-8" inkscape:zoom="122.42768" objecttolerance="10" pagecolor="#ffffff" showgrid="false">
	</sodipodi:namedview>
<g>
	<g id="Layer_2_00000168097137568201565840000016460647515817017004_">
		<g id="Icon_Name">
			
				<linearGradient id="path16_00000080200750146237048060000004328078078258218684_" gradientUnits="userSpaceOnUse" x1="0.701" y1="837.7083" x2="5.4494" y2="837.7083" gradientTransform="matrix(1 0 0 1 -0.1451 -834.0128)">
				<stop  offset="0.4476" style="stop-color:#D40005"/>
				<stop  offset="1" style="stop-color:#FFD4D5"/>
			</linearGradient>
			<path id="path16" style="fill:url(#path16_00000080200750146237048060000004328078078258218684_);" d="M0.7,6.3
				C0.9,6.1,1,5.9,1.2,5.7C1.3,5.5,1.4,5.2,1.5,5c0.1-0.5,0.2-1,0.3-1.5C2,2.2,2.9,1.3,4.1,1.1c0.3,0,0.6,0,0.9,0.1
				c0.1,0,0.1,0.1,0.2,0.1c0.1,0.1,0.1,0.1,0.1,0.1c0,0.1,0,0.1,0,0.2L5.2,1.7C5.1,1.8,5,1.9,5,2.1C4.7,2.4,4.5,2.9,4.4,3.4
				c-0.1,0.5-0.1,1,0,1.5c0.1,0.5,0.4,0.9,0.7,1.3l0,0C4.7,6,4.3,5.5,4.2,5C3.9,4.5,3.9,3.9,4,3.4c0.1-0.3,0.1-0.6,0.2-0.8
				C4.3,2.3,4.4,2,4.7,1.8C4.7,1.6,4.9,1.5,5,1.5l0,0c0,0,0,0.1,0,0.1c0,0.1,0,0,0,0c-0.1,0-0.1-0.1-0.1-0.1
				C4.6,1.5,4.3,1.5,4.1,1.5c-1,0.2-1.8,0.9-2.1,2C1.9,4,1.8,4.5,1.6,5C1.5,5.3,1.4,5.5,1.2,5.7S0.9,6.1,0.7,6.3L0.7,6.3z"/>
			
				<linearGradient id="path18_00000048500861981386202050000010417102405740299409_" gradientUnits="userSpaceOnUse" x1="2.1564" y1="836.98" x2="4.0414" y2="836.98" gradientTransform="matrix(1 0 0 1 -0.1451 -834.0128)">
				<stop  offset="0.375" style="stop-color:#00943F"/>
				<stop  offset="0.7933" style="stop-color:#002A14"/>
			</linearGradient>
			<path id="path18" style="fill:url(#path18_00000048500861981386202050000010417102405740299409_);" d="M2.1,4.3
				c0-1.2,0.7-2.2,1.7-2.7C3.4,1.9,3.1,2.3,2.7,2.8C2.4,3.3,2.2,3.8,2.1,4.3L2.1,4.3z"/>
		</g>
	</g>
	<g>
		<path class="st2" d="M5.2,6.9L5.2,6.9l0.1-0.1l0.1-0.1c0,0,0-0.1,0-0.1c0,0-0.1-0.1,0-0.1c0-0.1,0-0.1,0-0.1c0,0,0.1,0,0.1-0.1
			c0,0,0-0.1,0-0.1V6c0,0,0-0.1-0.1-0.1L5.3,5.8H5.2l0,0H5.2L5.1,5.8H5L5,5.7H4.9H4.8H4.7L4.7,5.6c0,0-0.1,0-0.1,0L4.4,5.6
			c0,0-0.1,0.1-0.1,0.1L4.2,5.6H4.2H4.1C3.8,5.5,3.7,5.5,3.7,5.5c-0.1,0-0.1,0-0.1-0.1L3.5,5.5L3.4,5.4H3.4H3.3L3.2,5.3H3.1
			C2.9,5.4,2.9,5.5,2.8,5.5H2.8H2.7H2.6H2.6L2.5,5.4L2.4,5.5H2.3C2.1,5.5,2.1,5.4,2,5.4L2,5.5H1.9H1.8H1.8H1.7L1.6,5.6
			c-0.1,0-0.2-0.1-0.2-0.1L1.3,5.6H1.2c0,0-0.1,0-0.1,0c0,0,0,0.1-0.1,0.1H1L0.9,5.8c0,0,0,0-0.1,0H0.7c0,0,0,0.1,0,0.1L0.7,6
			L0.6,6.1c0,0,0,0.1-0.1,0.1v0.1v0.1l0.1,0.1c0,0,0,0.1,0.1,0.1c0,0-0.1,0.1-0.1,0.1l0.1,0.1c0,0,0,0.1,0,0.1c0,0,0.1,0,0.1,0.1
			c0,0,0,0.1,0.1,0.1c0,0,0.1,0,0.1,0L1,7c0.1,0,0.1-0.1,0.1-0.1l0.1-0.1c0.1,0,0.1-0.1,0.1-0.1s0.1-0.1,0.1-0.1
			c0.1,0,0-0.1,0.1-0.1h0.1h0.1c0,0,0-0.1,0.1-0.1h0.1h0.1h0.1H2H2c0,0,0.1-0.1,0.1-0.1h0.1h0.1l0.1-0.1h0.1l0.1,0.1l0.1-0.1h0.1
			h0.1h0.1h0.1H3l0.1,0.1l0.1-0.1l0.1,0.1h0.1h0.1c0,0,0.1,0.1,0.1,0.1l0.1,0.1h0.1c0,0,0.1,0.1,0.1,0.1h0.1l0.1,0.1H4l0.1,0.1
			c0,0,0,0.1,0.1,0.1c0,0,0.1,0,0.1,0l0.1-0.1c0,0,0-0.1,0.1-0.1C5.1,6.9,5.1,6.9,5.2,6.9z"/>
		<path class="st3" d="M5.2,6.9L5.2,6.9l0.1-0.1l0.1-0.1c0,0,0-0.1,0-0.1c0,0-0.1-0.1,0-0.1c0-0.1,0-0.1,0-0.1c0,0,0.1,0,0.1-0.1
			c0,0,0-0.1,0-0.1V6c0,0,0-0.1-0.1-0.1L5.3,5.8H5.2l0,0H5.2L5.1,5.8H5L5,5.7H4.9H4.8H4.7L4.7,5.6c0,0-0.1,0-0.1,0L4.4,5.6
			c0,0-0.1,0.1-0.1,0.1L4.2,5.6H4.2H4.1C3.8,5.5,3.7,5.5,3.7,5.5c-0.1,0-0.1,0-0.1-0.1L3.5,5.5L3.4,5.4H3.4H3.3L3.2,5.3H3.1
			C2.9,5.4,2.9,5.5,2.8,5.5H2.8H2.7H2.6H2.6L2.5,5.4L2.4,5.5H2.3C2.1,5.5,2.1,5.4,2,5.4L2,5.5H1.9H1.8H1.8H1.7L1.6,5.6
			c-0.1,0-0.2-0.1-0.2-0.1L1.3,5.6H1.2c0,0-0.1,0-0.1,0c0,0,0,0.1-0.1,0.1H1L0.9,5.8c0,0,0,0-0.1,0H0.7c0,0,0,0.1,0,0.1L0.7,6
			L0.6,6.1c0,0,0,0.1-0.1,0.1v0.1v0.1l0.1,0.1c0,0,0,0.1,0.1,0.1c0,0-0.1,0.1-0.1,0.1l0.1,0.1c0,0,0,0.1,0,0.1c0,0,0.1,0,0.1,0.1
			c0,0,0,0.1,0.1,0.1c0,0,0.1,0,0.1,0L1,7c0.1,0,0.1-0.1,0.1-0.1l0.1-0.1c0.1,0,0.1-0.1,0.1-0.1s0.1-0.1,0.1-0.1
			c0.1,0,0-0.1,0.1-0.1h0.1h0.1c0,0,0-0.1,0.1-0.1h0.1h0.1h0.1H2H2c0,0,0.1-0.1,0.1-0.1h0.1h0.1l0.1-0.1h0.1l0.1,0.1l0.1-0.1h0.1
			h0.1h0.1h0.1H3l0.1,0.1l0.1-0.1l0.1,0.1h0.1h0.1c0,0,0.1,0.1,0.1,0.1l0.1,0.1h0.1c0,0,0.1,0.1,0.1,0.1h0.1l0.1,0.1H4l0.1,0.1
			c0,0,0,0.1,0.1,0.1c0,0,0.1,0,0.1,0l0.1-0.1c0,0,0-0.1,0.1-0.1C5.1,6.9,5.1,6.9,5.2,6.9z M5,7c0,0-0.1,0-0.1,0c0,0,0-0.1-0.1-0.1
			c0,0,0-0.1-0.1-0.1H4.6L4.5,6.8H4.4c0,0-0.1-0.1-0.1-0.1H4.2L4.2,6.6c0,0-0.1-0.1-0.1-0.1H3.9H3.9L3.8,6.4L3.7,6.5L3.6,6.4H3.6
			H3.5H3.4H3.4H3.3L3.2,6.5L3.1,6.4H3.1L3,6.5H2.9H2.8c0,0-0.1,0.1-0.1,0.1H2.6H2.6c-0.1,0-0.1,0-0.1,0c-0.1,0-0.1,0-0.1,0
			c-0.1,0-0.1,0-0.1,0c-0.1,0-0.1,0.1-0.1,0.1c-0.1,0-0.1,0-0.1,0H2.1c0,0,0,0.1-0.1,0.1c0,0-0.1,0.1-0.1,0.1c0,0,0,0.1-0.1,0.1
			c0,0-0.1,0-0.1,0.1c0,0,0,0.1-0.1,0.1L1.6,7.1c0,0-0.1,0-0.1,0c0,0,0-0.1,0-0.1c0,0-0.1,0-0.1-0.1c0,0,0-0.1,0-0.1L1.3,6.6
			c0,0,0-0.1,0-0.1s-0.1-0.1,0-0.1c0,0,0,0,0-0.1C0.6,6.1,0.7,6,0.7,6s0.1,0.1,0,0.1c0,0,0,0.1,0.1,0.1v0.1c0,0-0.1,0.1,0,0.1
			c0.1,0.1,0.1,0.1,0.1,0.1s0.1,0,0.1,0L1,6.6c0.1,0,0.1-0.1,0.1-0.1l0.1-0.1c0.1,0,0.1-0.1,0.1-0.1s0.1-0.1,0.1-0.1
			c0,0.1,0,0.1,0,0.1h0.1h0.1c0,0,0-0.1,0.1-0.1h0.1h0.1h0.1h0.1H2c0,0,0.1-0.1,0.1-0.1h0.1h0.1l0.1-0.1h0.1
			c0.4,0.1,0.4,0.1,0.4,0.1l0.1-0.1H3h0.1h0.1h0.1h0.1c0.2,0.1,0.3,0.1,0.3,0.1l0.1-0.1l0.1,0.1h0.1h0.1c0,0,0.1,0.1,0.1,0.1
			l0.1,0.1h0.1c0,0,0.1,0.1,0.1,0.1h0.1l0.1,0.1h0.1l0.1,0.1c0,0,0,0.1,0.1,0.1c0,0,0.1,0,0.1,0C5.2,6.8,5,7,5,7z"/>
	</g>
	<g>
		<path class="st2" d="M6.1,1.2L6.1,1.2C6.1,1,6.1,1,6.1,1s0-0.1,0-0.1s0-0.1,0-0.1S6,0.6,6,0.6l0,0c0,0,0-0.1-0.1-0.1
			c0,0-0.1,0-0.1-0.1L5.7,0.4c0,0-0.1,0-0.1-0.1c-0.1,0-0.1-0.1-0.1-0.1c-0.1,0-0.1-0.1-0.1-0.1S5.2,0.1,5.2,0.1l0,0
			C5.1,0.1,5.1,0.2,5,0.2L5,0.1c-0.1,0-0.1,0.1-0.1,0.1c-0.1,0-0.1-0.1-0.1,0c-0.1,0-0.1,0.1-0.1,0.1c-0.1,0-0.1,0-0.1,0.1
			c0,0,0,0.1-0.1,0.1c0,0-0.1,0-0.1,0.1v0.1c0,0.1,0,0.1,0,0.1S4.2,1,4.2,1c0,0.1,0,0.1,0,0.1c0,0.1-0.1,0.1,0,0.1
			c0,0.1,0.1,0.1,0.1,0.1c0,0.1,0,0.1,0,0.1c0,0.1,0,0.1,0,0.1s0.1,0.1,0.1,0.1s0.1,0.1,0.1,0.1c0,0,0.1,0,0.1,0.1
			c0,0,0,0.1,0.1,0.1l0.1,0.1c0.1,0,0.1-0.1,0.1-0.1C5,2.1,5,2.2,5,2.2C5,2.2,5,2.1,5.1,2.1s0.1,0,0.1,0s0.1,0,0.1,0
			c0.1,0,0.1,0,0.1,0s0.1,0,0.1,0S5.7,2,5.8,2c0.1,0,0.1,0,0.1,0C5.8,1.8,5.8,1.8,5.8,1.8l0.1-0.1V1.6C5.9,1.5,6,1.5,6,1.5
			c0-0.1,0.1-0.1,0.1-0.1C6.1,1.3,6.1,1.3,6.1,1.2z"/>
		<path class="st3" d="M6.1,1.2L6.1,1.2c0-0.1,0-0.1,0-0.2s0-0.1,0-0.1s0-0.1,0-0.1S6,0.6,6,0.6l0,0c0,0,0-0.1-0.1-0.1
			c0,0-0.1,0-0.1-0.1L5.7,0.4c0,0-0.1,0-0.1-0.1c-0.1,0-0.1-0.1-0.1-0.1c-0.1,0-0.1-0.1-0.1-0.1S5.2,0.1,5.2,0.1l0,0
			C5.1,0.1,5.1,0.2,5,0.2c0,0-0.1-0.1-0.1-0.1c-0.1,0-0.1,0.1-0.1,0.1c-0.1,0-0.1-0.1-0.1,0c-0.1,0-0.1,0.1-0.1,0.1
			c0,0-0.1,0-0.1,0.1c0,0,0,0.1-0.1,0.1c0,0-0.1,0-0.1,0.1v0.1c0,0.1,0,0.1,0,0.1S4.2,1,4.2,1c0,0.1,0,0.1,0,0.1
			c0,0.1-0.1,0.1,0,0.1c0,0.1,0.1,0.1,0.1,0.1c0,0.1,0,0.1,0,0.1c0,0.1,0,0.1,0,0.1s0.1,0.1,0.1,0.1c-0.1-0.1,0-0.1,0-0.1
			c0,0,0.1,0,0.1,0.1c0,0,0,0.1,0.1,0.1l0.1,0.1C4.7,2.1,4.7,2,4.7,2c0.1,0,0.1,0.1,0.1,0.1C4.9,2.1,4.9,2,5,2C5,2,5,2,5.1,2
			s0.1,0,0.1,0s0.1,0,0.1,0c0.1,0,0.1,0,0.1,0s0-0.1,0.1-0.1s0.1,0,0.1,0c0,0,0.1,0,0.1,0l0.1-0.1V1.6C5.9,1.5,6,1.5,6,1.5
			c0-0.1,0.1-0.1,0.1-0.1C6.1,1.3,6.1,1.3,6.1,1.2z M5.9,1.5C5.9,1.6,5.8,1.6,5.9,1.5L5.8,1.7c0,0-0.1,0-0.1,0c0,0,0,0.1-0.1,0.1
			c0,0-0.1,0-0.1,0c-0.1,0-0.1,0-0.1,0s-0.1,0-0.1,0C5,1.8,5,1.8,5,1.8C5,1.8,5,2,5,1.9c-0.1,0-0.1-0.1-0.1-0.1c0,0-0.1,0.1-0.1,0
			L4.6,1.8c0,0,0-0.1-0.1-0.1c0,0-0.1,0-0.1-0.1L4.3,1.5c0,0,0-0.1,0-0.1c0-0.1,0-0.1,0-0.1s0-0.1,0-0.1C4.3,1,4.2,1,4.2,1
			s0.1-0.1,0.1-0.1s0-0.1,0-0.1h0.1c0,0.1,0.1,0.1,0.1,0.1c0,0.1,0,0.1,0,0.1s0,0.1,0,0.1s0,0.1,0.1,0.1c0,0.1,0.1,0.1,0.1,0.1
			s0.1,0,0.1,0.1c0,0,0,0.1,0.1,0.1l0.1,0.1c0,0,0.1-0.1,0.1-0.1c0.1,0,0.1,0.1,0.1,0.1c0.1,0,0.1-0.1,0.1-0.1s0.1,0,0.1,0
			c0.1,0,0.1,0,0.1,0s0.1,0,0.1,0S5.8,1.5,5.9,1.5c-0.1-0.1-0.1-0.2,0-0.2c0,0,0.1,0,0.1,0C5.8,1.4,5.9,1.4,5.9,1.5z"/>
	</g>
</g>
</svg>
