<?xml version="1.0" encoding="utf-8"?>
<!-- Generator: Adobe Illustrator 26.0.2, SVG Export Plug-In . SVG Version: 6.00 Build 0)  -->
<svg version="1.1" id="Layer_1" xmlns="http://www.w3.org/2000/svg" xmlns:xlink="http://www.w3.org/1999/xlink" x="0px" y="0px"
	 viewBox="0 0 10.1 10.1" style="enable-background:new 0 0 10.1 10.1;" xml:space="preserve">
<style type="text/css">
	.st0{fill:url(#SVGID_1_);}
	.st1{fill:#FFFFFF;}
	.st2{fill:#E8E2CD;}
	.st3{fill:#F4F2EA;}
</style>
<g id="Layer_2_00000046319096359892308610000012127029061343992960_">
	<g id="Icon_Name">
		
			<linearGradient id="SVGID_1_" gradientUnits="userSpaceOnUse" x1="8.5919" y1="2.1605" x2="0.5179" y2="8.2627" gradientTransform="matrix(1 0 0 -1 0 9.8898)">
			<stop  offset="0" style="stop-color:#E40001;stop-opacity:0.3"/>
			<stop  offset="0.8571" style="stop-color:#E40010"/>
		</linearGradient>
		<circle class="st0" cx="5.1" cy="5.1" r="5.1"/>
		<path class="st1" d="M2,8.5c0.3-0.2,0.5-0.5,0.7-0.8C2.8,7.3,3,7,3,6.6c0.2-0.7,0.3-1.4,0.4-2.1c0.3-1.6,1.6-2.8,3.1-3.1
			c0.4,0,0.8,0,1.2,0.1c0.1,0,0.2,0.1,0.3,0.1c0.1,0.1,0.2,0.1,0.2,0.2c0,0.1,0,0.2,0,0.3c0,0-0.1,0.1-0.1,0.1
			C8.1,2.4,7.9,2.5,7.8,2.7C7.5,3.2,7.2,3.9,7.1,4.6C7,5.2,7,6,7.2,6.6c0.1,0.7,0.5,1.3,1,1.8l0,0c-0.7-0.3-1.2-1-1.4-1.7
			C6.5,6,6.5,5.2,6.6,4.5c0.1-0.4,0.2-0.7,0.3-1.1C7,3,7.2,2.6,7.4,2.3C7.6,2.2,7.7,2,7.9,1.9c0,0,0,0,0,0c0,0,0,0.1,0,0.2
			c0,0.1,0,0,0,0C7.8,2.1,7.7,2,7.7,2C7.3,1.9,7,1.9,6.7,1.9C5.3,2.2,4.2,3.2,3.8,4.6C3.6,5.2,3.5,6,3.3,6.7C3.1,7.1,3,7.4,2.8,7.7
			C2.6,8,2.3,8.3,2,8.5L2,8.5z"/>
		<path class="st1" d="M3.9,5.8c0-1.6,0.9-3,2.4-3.7c-0.6,0.4-1.1,1-1.6,1.6C4.4,4.4,4.1,5.1,3.9,5.8L3.9,5.8z"/>
		<path class="st1" d="M6.3,8.4H5.9L5.6,7.6H4.7L4.4,8.4H4l0.3-0.8H3.9V7.2h0.5l0.1-0.3H3.9V6.6h0.7l0.3-0.9h0.5l0.3,0.9h0.7v0.3
			H5.8l0.1,0.3h0.5v0.3H6L6.3,8.4z M5.9,8.3h0.3L5.9,7.5h0.4V7.3H5.9L5.7,6.8h0.6V6.7H5.6L5.3,5.8H5L4.7,6.7H4v0.2h0.6L4.5,7.3H4
			v0.2h0.4L4.1,8.3h0.3l0.3-0.8h1L5.9,8.3z M5.6,7.3H4.7l0.2-0.5h0.6L5.6,7.3z M4.8,7.2h0.7L5.4,6.9H4.9L4.8,7.2z M5.4,6.7H4.9
			L5,6.5C5,6.4,5.1,6.2,5.1,6l0,0h0.1l0,0c0,0.2,0.1,0.3,0.1,0.5L5.4,6.7z M5,6.6h0.2l0-0.1c0-0.1-0.1-0.2-0.1-0.3
			C5.1,6.3,5.1,6.4,5,6.6L5,6.6L5,6.6z"/>
	</g>
</g>
<sodipodi:namedview  bordercolor="#666666" borderopacity="1.0" id="base" pagecolor="#ffffff"></sodipodi:namedview>
<g>
	<path class="st2" d="M7.9,9.6c0,0,0.1-0.1,0.1-0.1c0,0,0-0.1,0-0.1c0,0,0.1-0.1,0.1-0.1c0,0,0-0.1,0-0.2c0-0.1-0.1-0.1,0-0.2
		c0-0.1,0-0.1,0-0.2c0,0,0.1,0,0.2-0.1c0,0,0-0.1,0-0.2c0,0,0-0.1,0-0.1c0,0,0-0.1-0.1-0.1c0,0-0.1-0.1-0.1-0.1c0,0-0.1,0-0.1,0
		c0,0,0,0,0,0c0,0-0.1,0-0.1,0c0,0-0.1-0.1-0.1-0.1c0,0-0.1,0-0.1,0c0,0-0.1-0.1-0.1-0.1c0,0-0.1,0-0.1,0c0,0-0.1,0-0.1,0
		c0,0-0.1,0-0.1,0c0,0-0.1-0.1-0.1-0.1c0,0-0.1,0-0.2,0c0,0-0.1-0.1-0.1-0.1c0,0-0.1,0.1-0.2,0.1c0,0-0.1-0.1-0.1-0.1
		c0,0-0.1,0-0.1,0c0,0-0.1,0-0.1,0c0,0-0.1,0.1-0.1,0.1c0,0-0.1-0.1-0.1-0.1c0,0-0.1,0.1-0.1,0.1c0,0-0.1-0.1-0.1-0.1
		c0,0-0.1,0-0.1,0c0,0-0.1,0-0.1,0c0,0-0.1-0.1-0.1-0.1c0,0-0.1,0-0.1,0c0,0-0.1,0.1-0.1,0.1c0,0-0.1,0-0.1,0c0,0-0.1,0-0.1,0
		c0,0-0.1,0-0.1,0c0,0-0.1,0-0.1,0c0,0-0.1-0.1-0.1-0.1c0,0-0.1,0.1-0.1,0.1c0,0-0.1,0-0.1,0c0,0-0.1-0.1-0.1-0.1
		c0,0-0.1,0.1-0.1,0.1c0,0-0.1,0-0.1,0c0,0-0.1,0-0.1,0c0,0-0.1,0-0.1,0c0,0-0.1,0-0.1,0c0,0-0.1,0.1-0.1,0.1c0,0-0.1-0.1-0.2-0.1
		c0,0-0.1,0.1-0.1,0.1c0,0-0.1,0-0.1,0c0,0-0.1,0-0.2,0c0,0,0,0.1-0.1,0.2c0,0-0.1,0-0.1,0C2,7.9,2,8,2,8c0,0,0,0-0.1,0
		c0,0-0.1,0-0.1,0c0,0,0,0.1,0,0.2c0,0-0.1,0.1-0.1,0.1c0,0-0.1,0.1-0.1,0.1c0,0,0,0.1-0.1,0.1c0,0,0,0.1,0,0.1c0,0,0,0.1,0,0.1
		c0,0,0.1,0.1,0.1,0.1c0,0,0,0.1,0.1,0.1c0,0-0.1,0.1-0.1,0.2c0,0,0.1,0.1,0.1,0.1c0,0,0,0.1,0,0.2c0,0,0.1,0,0.1,0.1
		c0,0,0,0.1,0.1,0.1c0,0,0.1,0,0.2,0c0,0,0.1,0.1,0.1,0.1c0.1,0,0.1-0.1,0.1-0.1c0,0,0.1-0.1,0.1-0.1c0.1,0,0.1-0.1,0.1-0.1
		c0,0,0.1-0.1,0.2-0.1c0.1,0,0-0.1,0.1-0.2c0,0,0.1,0,0.1,0c0,0,0.1,0,0.1,0c0,0,0-0.1,0.1-0.1c0,0,0.1,0,0.1,0c0,0,0.1,0,0.1,0
		c0,0,0.1,0,0.1,0c0,0,0.1,0,0.1,0c0,0,0.1,0,0.1,0c0,0,0.1-0.2,0.2-0.2c0,0,0.1,0,0.1,0c0,0,0.1,0,0.1,0c0,0,0.1-0.1,0.1-0.1
		c0,0,0.1,0,0.1,0c0,0,0.1,0.1,0.1,0.1c0,0,0.1-0.1,0.1-0.1c0,0,0.1,0,0.1,0c0,0,0.1,0,0.1,0c0,0,0.1,0,0.1,0c0,0,0.1,0,0.1,0
		c0,0,0.1,0,0.1,0c0,0,0.1,0.1,0.1,0.1c0,0,0.1-0.1,0.1-0.1c0,0,0.1,0.1,0.1,0.1c0,0,0.1,0,0.1,0c0,0,0.1,0,0.1,0
		c0,0,0.1,0.1,0.2,0.1c0,0,0.1,0.2,0.1,0.2c0,0,0.1,0,0.1,0c0,0,0.1,0.1,0.2,0.1c0,0,0.1,0,0.1,0c0,0,0.1,0.1,0.1,0.1
		c0,0,0.1,0,0.1,0c0,0,0.1,0.1,0.1,0.1c0,0,0,0.1,0.1,0.1c0,0,0.1,0,0.2,0c0,0,0.1-0.1,0.1-0.1c0,0,0-0.1,0.1-0.1
		C7.9,9.7,7.9,9.6,7.9,9.6z"/>
	<path class="st3" d="M7.9,9.6c0,0,0.1-0.1,0.1-0.1c0,0,0-0.1,0-0.1c0,0,0.1-0.1,0.1-0.1c0,0,0-0.1,0-0.2c0,0-0.1-0.1,0-0.2
		c0-0.1,0-0.1,0-0.2c0,0,0.1,0,0.2-0.1c0,0,0-0.1,0-0.2c0,0,0-0.1,0-0.1c0,0,0-0.1-0.1-0.1c0,0-0.1-0.1-0.1-0.1c0,0-0.1,0-0.1,0
		c0,0,0,0,0,0c0,0-0.1,0-0.1,0c0,0-0.1-0.1-0.1-0.1c0,0-0.1,0-0.1,0c0,0-0.1-0.1-0.1-0.1c0,0-0.1,0-0.1,0c0,0-0.1,0-0.1,0
		c0,0-0.1,0-0.1,0c0,0-0.1-0.1-0.1-0.1c0,0-0.1,0-0.2,0c0,0-0.1-0.1-0.1-0.1c0,0-0.1,0.1-0.2,0.1c0,0-0.1-0.1-0.1-0.1
		c0,0-0.1,0-0.1,0c0,0-0.1,0-0.1,0c0,0-0.1,0.1-0.1,0.1c0,0-0.1-0.1-0.1-0.1c0,0-0.1,0.1-0.1,0.1c0,0-0.1-0.1-0.1-0.1
		c0,0-0.1,0-0.1,0c0,0-0.1,0-0.1,0c0,0-0.1-0.1-0.1-0.1c0,0-0.1,0-0.1,0c0,0-0.1,0.1-0.1,0.1c0,0-0.1,0-0.1,0c0,0-0.1,0-0.1,0
		c0,0-0.1,0-0.1,0c0,0-0.1,0-0.1,0c0,0-0.1-0.1-0.1-0.1c0,0-0.1,0.1-0.1,0.1c0,0-0.1,0-0.1,0c0,0-0.1-0.1-0.1-0.1
		c0,0-0.1,0.1-0.1,0.1c0,0-0.1,0-0.1,0c0,0-0.1,0-0.1,0c0,0-0.1,0-0.1,0c0,0-0.1,0-0.1,0c0,0-0.1,0.1-0.1,0.1c0,0-0.1-0.1-0.2-0.1
		c0,0-0.1,0.1-0.1,0.1c0,0-0.1,0-0.1,0c0,0-0.1,0-0.2,0c0,0,0,0.1-0.1,0.2c0,0-0.1,0-0.1,0C2,7.9,2,8,2,8c0,0,0,0-0.1,0
		c0,0-0.1,0-0.1,0c0,0,0,0.1,0,0.2c0,0-0.1,0.1-0.1,0.1c0,0-0.1,0.1-0.1,0.1c0,0,0,0.1-0.1,0.1c0,0,0,0.1,0,0.1c0,0,0,0.1,0,0.1
		c0,0,0.1,0.1,0.1,0.1c0,0,0,0.1,0.1,0.1c0,0-0.1,0.1-0.1,0.2c0,0,0.1,0.1,0.1,0.1c0,0,0,0.1,0,0.2c0,0,0.1,0,0.1,0.1
		c0,0,0,0.1,0.1,0.1c0,0,0.1,0,0.2,0c0,0,0.1,0.1,0.1,0.1c0.1,0,0.1-0.1,0.1-0.1c0,0,0.1-0.1,0.1-0.1c0.1,0,0.1-0.1,0.1-0.1
		c0,0,0.1-0.1,0.2-0.1c0.1,0,0-0.1,0.1-0.2c0,0,0.1,0,0.1,0c0,0,0.1,0,0.1,0c0,0,0-0.1,0.1-0.1c0,0,0.1,0,0.1,0c0,0,0.1,0,0.1,0
		c0,0,0.1,0,0.1,0c0,0,0.1,0,0.1,0c0,0,0.1,0,0.1,0c0,0,0.1-0.2,0.2-0.2c0,0,0.1,0,0.1,0c0,0,0.1,0,0.1,0c0,0,0.1-0.1,0.1-0.1
		c0,0,0.1,0,0.1,0c0,0,0.1,0.1,0.1,0.1c0,0,0.1-0.1,0.1-0.1c0,0,0.1,0,0.1,0c0,0,0.1,0,0.1,0c0,0,0.1,0,0.1,0c0,0,0.1,0,0.1,0
		c0,0,0.1,0,0.1,0c0,0,0.1,0.1,0.1,0.1c0,0,0.1-0.1,0.1-0.1c0,0,0.1,0.1,0.1,0.1c0,0,0.1,0,0.1,0c0,0,0.1,0,0.1,0
		c0,0,0.1,0.1,0.2,0.1c0,0,0.1,0.2,0.1,0.2c0,0,0.1,0,0.1,0c0,0,0.1,0.1,0.2,0.1c0,0,0.1,0,0.1,0c0,0,0.1,0.1,0.1,0.1
		c0,0,0.1,0,0.1,0c0,0,0.1,0.1,0.1,0.1c0,0,0,0.1,0.1,0.1c0,0,0.1,0,0.2,0c0,0,0.1-0.1,0.1-0.1c0,0,0-0.1,0.1-0.1
		C7.9,9.7,7.9,9.6,7.9,9.6z M7.7,9.7c0,0-0.1,0-0.2,0c0,0,0-0.1-0.1-0.1c0,0,0-0.1-0.1-0.1c0,0-0.1,0-0.1,0c0,0-0.1-0.1-0.1-0.1
		c0,0-0.1,0-0.1,0c0,0-0.1-0.1-0.2-0.1c0,0-0.1,0-0.1,0c0,0-0.1-0.2-0.1-0.2c0,0-0.1-0.1-0.2-0.1c0,0-0.1,0-0.1,0c0,0-0.1,0-0.1,0
		c0,0-0.1-0.1-0.1-0.1c0,0-0.1,0.1-0.1,0.1c0,0-0.1-0.1-0.1-0.1c0,0-0.1,0-0.1,0c0,0-0.1,0-0.1,0c0,0-0.1,0-0.1,0c0,0-0.1,0-0.1,0
		c0,0-0.1,0-0.1,0c0,0-0.1,0.1-0.1,0.1c0,0-0.1-0.1-0.1-0.1c0,0-0.1,0-0.1,0c0,0-0.1,0.1-0.1,0.1c0,0-0.1,0-0.1,0c0,0-0.1,0-0.1,0
		C4,8.9,3.9,9,3.9,9c0,0-0.1,0-0.1,0c0,0-0.1,0-0.1,0C3.5,9,3.5,9,3.4,9C3.4,9,3.3,9,3.3,9C3.2,9,3.2,9,3.1,9C3.1,9,3.1,9.1,3,9.1
		c-0.1,0-0.1,0-0.1,0c0,0-0.1,0-0.1,0c0,0,0,0.1-0.1,0.2c0,0-0.1,0.1-0.2,0.1c0,0,0,0.1-0.1,0.1c0,0-0.1,0-0.1,0.1
		c0,0,0,0.1-0.1,0.1c0,0-0.1-0.1-0.1-0.1c0,0-0.1,0-0.2,0c0,0,0-0.1,0-0.2c0,0-0.1,0-0.1-0.1c0,0,0-0.1,0-0.2C1.8,9,1.7,9,1.7,9
		c0,0,0-0.1,0-0.2c0-0.1-0.1-0.1,0-0.1c0,0,0,0,0-0.1c0-0.1,0.1-0.2,0.2-0.2c0,0,0.1,0.1,0,0.1c0,0,0,0.1,0.1,0.1c0,0,0,0.1,0,0.1
		c0,0-0.1,0.2,0,0.2C2,9,1.9,9.1,2,9.1c0,0,0.1,0,0.2,0c0,0,0.1,0.1,0.1,0.1c0.1,0,0.1-0.1,0.1-0.1c0,0,0.1-0.1,0.1-0.1
		c0.1,0,0.1-0.1,0.1-0.1C2.6,9,2.7,9,2.7,9c0.1,0,0-0.1,0.1-0.2c0,0,0.1,0,0.1,0c0,0,0.1,0,0.1,0c0,0,0-0.1,0.1-0.1c0,0,0.1,0,0.1,0
		c0,0,0.1,0,0.1,0c0,0,0.1,0,0.1,0c0,0,0.1,0,0.1,0c0,0,0.1,0,0.1,0c0,0,0.1-0.2,0.2-0.2c0,0,0.1,0,0.1,0c0,0,0.1,0,0.1,0
		c0,0,0.1-0.1,0.1-0.1c0,0,0.1,0,0.1,0c0,0,0.1,0.1,0.1,0.1c0,0,0.1-0.1,0.1-0.1c0,0,0.1,0,0.1,0c0,0,0.1,0,0.1,0c0,0,0.1,0,0.1,0
		c0,0,0.1,0,0.1,0c0,0,0.1,0,0.1,0c0,0,0.1,0.1,0.1,0.1c0,0,0.1-0.1,0.1-0.1c0,0,0.1,0.1,0.1,0.1c0,0,0.1,0,0.1,0c0,0,0.1,0,0.1,0
		c0,0,0.1,0.1,0.2,0.1c0,0,0.1,0.2,0.1,0.2c0,0,0.1,0,0.1,0C6.9,8.9,6.9,9,7,9c0,0,0.1,0,0.1,0c0,0,0.1,0.1,0.1,0.1c0,0,0.1,0,0.1,0
		c0,0,0.1,0.1,0.1,0.1c0,0,0,0.1,0.1,0.1c0,0,0.1,0,0.2,0C8,9.4,7.8,9.7,7.7,9.7z"/>
</g>
<g>
	<path class="st2" d="M9.2,1.8c0-0.1-0.1-0.1-0.1-0.2c0-0.1,0-0.1,0-0.2c0-0.1,0-0.1,0-0.2c0-0.1,0-0.1,0-0.2C9.1,1,9,1,9,0.9
		c0,0,0,0,0,0c0,0,0-0.1-0.1-0.1c0,0-0.1,0-0.2-0.1c0,0-0.1-0.1-0.1-0.1c0,0-0.1,0-0.2-0.1c-0.1,0-0.1-0.1-0.1-0.1
		c-0.1,0-0.1-0.1-0.2-0.1C8.1,0.3,8.1,0.3,8,0.3c0,0,0,0,0,0c-0.1,0-0.1,0.1-0.2,0.1c-0.1,0-0.1-0.1-0.2-0.1c-0.1,0-0.1,0.2-0.1,0.2
		c-0.1,0-0.2-0.1-0.2,0c-0.1,0-0.1,0.1-0.2,0.1C7.1,0.5,7,0.6,7,0.6c0,0,0,0.1-0.1,0.2c0,0-0.2,0-0.2,0.1c0,0,0,0.2,0,0.2
		c0,0.1,0,0.1,0,0.2c0,0.1-0.1,0.1-0.1,0.1c0,0.1,0,0.1,0,0.2c0,0.1-0.1,0.1,0,0.2c0,0.1,0.1,0.1,0.1,0.2c0,0.1,0,0.1,0,0.2
		c0,0.1,0,0.1,0,0.2c0,0.1,0.1,0.1,0.1,0.2c0,0.1,0.1,0.1,0.2,0.1c0,0,0.1,0,0.2,0.1c0,0,0,0.1,0.1,0.2c0,0,0.1,0.1,0.1,0.1
		c0.1,0,0.2-0.1,0.2-0.1C7.5,2.9,7.5,3,7.6,3c0.1,0,0.1-0.1,0.2-0.1c0.1,0,0.1,0,0.2,0C8,3,8,3,8.1,3c0.1,0,0.1,0,0.2,0
		c0.1,0,0.1,0,0.2,0c0.1,0,0-0.2,0.1-0.2c0.1,0,0.1,0,0.2,0c0,0,0.1-0.1,0.1-0.1c0,0,0.1-0.1,0.1-0.1c0,0,0-0.2,0-0.2
		c0-0.1,0.1-0.1,0.1-0.1C9.2,2.1,9.3,2,9.3,2C9.3,1.9,9.2,1.8,9.2,1.8z"/>
	<path class="st3" d="M9.2,1.8c0-0.1-0.1-0.1-0.1-0.2c0-0.1,0-0.1,0-0.2c0-0.1,0-0.1,0-0.2c0-0.1,0-0.1,0-0.2C9,1,9,1,9,0.9
		c0,0,0,0,0,0c0,0,0-0.1-0.1-0.1c0,0-0.1,0-0.2-0.1c0,0-0.1-0.1-0.1-0.1c0,0-0.1,0-0.2-0.1c-0.1,0-0.1-0.1-0.1-0.1
		c-0.1,0-0.1-0.1-0.2-0.1C8.1,0.3,8,0.3,8,0.3c0,0,0,0,0,0c-0.1,0-0.1,0.1-0.2,0.1c-0.1,0-0.1-0.1-0.2-0.1c-0.1,0-0.1,0.2-0.1,0.2
		c-0.1,0-0.2-0.1-0.2,0c-0.1,0-0.1,0.1-0.2,0.1C7,0.5,7,0.6,7,0.6c0,0,0,0.1-0.1,0.2c0,0-0.2,0-0.2,0.1c0,0,0,0.2,0,0.2
		c0,0.1,0,0.1,0,0.2c0,0.1-0.1,0.1-0.1,0.1c0,0.1,0,0.1,0,0.2c0,0.1-0.1,0.1,0,0.2c0,0.1,0.1,0.1,0.1,0.2c0,0.1,0,0.1,0,0.2
		c0,0.1,0,0.1,0,0.2c0,0.1,0.1,0.1,0.1,0.2c0,0.1,0.1,0.1,0.2,0.1c0,0,0.1,0,0.2,0.1c0,0,0,0.1,0.1,0.2c0,0,0.1,0.1,0.1,0.1
		c0.1,0,0.2-0.1,0.2-0.1C7.5,2.9,7.5,3,7.5,3c0.1,0,0.1-0.1,0.2-0.1c0.1,0,0.1,0,0.2,0C8,3,8,3,8.1,3c0.1,0,0.1,0,0.2,0
		c0.1,0,0.1,0,0.2,0c0.1,0,0-0.2,0.1-0.2c0.1,0,0.1,0,0.2,0c0,0,0.1-0.1,0.1-0.1c0,0,0.1-0.1,0.1-0.1c0,0,0-0.2,0-0.2
		c0-0.1,0.1-0.1,0.1-0.1C9.1,2.1,9.2,2,9.2,2C9.3,1.9,9.2,1.8,9.2,1.8z M9,2.2c0,0.1-0.1,0.1-0.1,0.1c0,0-0.1,0.1-0.1,0.1
		c0,0-0.1,0-0.2,0c0,0,0,0.2-0.1,0.2c0,0-0.1,0-0.2,0c-0.1,0-0.1,0-0.2,0c-0.1,0-0.1,0-0.2,0c-0.1,0-0.1,0-0.2,0
		c-0.1,0-0.1,0.1-0.2,0.1c-0.1,0-0.1-0.1-0.1-0.1c-0.1,0-0.2,0.1-0.2,0.1c0,0-0.1-0.1-0.1-0.1c0,0,0-0.1-0.1-0.2c0,0-0.1,0-0.2-0.1
		c0,0-0.1-0.1-0.1-0.1c0-0.1-0.1-0.1-0.1-0.2c0-0.1,0-0.1,0-0.2c0-0.1,0-0.1,0-0.2c0-0.1-0.1-0.1-0.1-0.2c0-0.1,0.1-0.1,0.1-0.2
		c0-0.1,0-0.1,0-0.2c0,0,0.1,0,0.1,0c0,0.1,0.1,0.1,0.1,0.1c0,0.1,0,0.1,0,0.2c0,0.1,0,0.1,0,0.2c0,0.1,0,0.1,0.1,0.2
		c0,0.1,0.1,0.1,0.1,0.1c0,0,0.1,0,0.2,0.1c0,0,0,0.1,0.1,0.2c0,0,0.1,0.1,0.1,0.1c0,0,0.1-0.1,0.2-0.1c0.1,0,0.1,0.1,0.1,0.1
		c0.1,0,0.1-0.1,0.2-0.1c0.1,0,0.1,0,0.2,0c0.1,0,0.1,0,0.2,0c0.1,0,0.1,0,0.2,0c0.1,0,0.1,0,0.2,0c0,0,0-0.2,0.1-0.2
		c0,0,0.1,0,0.2,0C8.9,2.1,9,2.1,9,2.2z"/>
</g>
</svg>
