<svg xmlns="http://www.w3.org/2000/svg" xmlns:xlink="http://www.w3.org/1999/xlink" viewBox="0 0 7.6222 7.0094"><defs><style>.cls-1{fill:url(#linear-gradient);}.cls-2{fill:url(#linear-gradient-2);}</style><linearGradient id="linear-gradient" x1="7.5895" y1="7.1674" x2="1.8458" y2="2.8263" gradientUnits="userSpaceOnUse"><stop offset="0" stop-color="#002145"/><stop offset="0.1265" stop-color="#02284c"/><stop offset="0.3087" stop-color="#073a5f"/><stop offset="0.5246" stop-color="#10597e"/><stop offset="0.7644" stop-color="#1c84a9"/><stop offset="0.8571" stop-color="#2196bc"/></linearGradient><linearGradient id="linear-gradient-2" x1="2.0974" y1="2.9831" x2="3.9812" y2="2.9831" gradientUnits="userSpaceOnUse"><stop offset="0.4022" stop-color="#2bb673"/><stop offset="0.5665" stop-color="#25b16c"/><stop offset="0.8025" stop-color="#13a359"/><stop offset="1" stop-color="#009444"/></linearGradient></defs><g id="Layer_2" data-name="Layer 2"><g id="Icon_Name" data-name="Icon Name"><path class="cls-1" d="M0,6.9957A8.433,8.433,0,0,0,1.1912,5.09c.3017-.6914.5373-1.4413.8658-2.1566A8.9083,8.9083,0,0,1,3.3065.9271,2.5121,2.5121,0,0,1,4.3052.19a3.0368,3.0368,0,0,1,.6-.1584A2.6508,2.6508,0,0,1,5.2192.0006a.9572.9572,0,0,1,.1852.01.3292.3292,0,0,1,.2809.2145A.3586.3586,0,0,1,5.616.5418a1.0127,1.0127,0,0,1-.1184.1373C5.4205.7566,5.336.824,5.2659.8824a2.2628,2.2628,0,0,0-.3584.3865,3.6117,3.6117,0,0,0-.4909.9735,3.4526,3.4526,0,0,0-.12,2.1529A3.7057,3.7057,0,0,0,7.622,6.9134l0,.015a3.4678,3.4678,0,0,1-2.29-.4961A3.2836,3.2836,0,0,1,3.9061,4.5045a3.8761,3.8761,0,0,1,.1194-2.3956,4.0219,4.0219,0,0,1,.5458-1.087,2.6781,2.6781,0,0,1,.426-.4613C5.0752.4955,5.1414.4417,5.2.3821c.0634-.0286.0939-.19.0852-.0314.0554.1041.0808.0693.047.0713A.5538.5538,0,0,0,5.2293.4163,2.2833,2.2833,0,0,0,4.9676.44a2.632,2.632,0,0,0-.5194.131A2.1079,2.1079,0,0,0,3.6,1.19a8.5563,8.5563,0,0,0-1.21,1.9019,21.881,21.881,0,0,0-.8268,2.1528A3.3017,3.3017,0,0,1,.95,6.2793a5.3657,5.3657,0,0,1-.9386.73Z"/><path class="cls-2" d="M2.2127,4.5784a4.6824,4.6824,0,0,1,.5422-1.7509,3.922,3.922,0,0,1,.5131-.7654c.1962-.2373.4063-.4618.619-.6773-.15.27-.3018.5319-.4678.7806a5.9635,5.9635,0,0,0-.4469.7753c-.2812.5278-.4977,1.0809-.7479,1.6407Z"/></g></g></svg>