<svg xmlns="http://www.w3.org/2000/svg" xmlns:xlink="http://www.w3.org/1999/xlink" viewBox="0 0 20.7692 7.0899"><defs><style>.cls-1{fill:url(#linear-gradient);}.cls-2{fill:url(#linear-gradient-2);}.cls-3{fill:url(#linear-gradient-3);}</style><linearGradient id="linear-gradient" y1="2.7205" x2="14.8105" y2="2.7205" gradientUnits="userSpaceOnUse"><stop offset="0.0595" stop-color="#2196bc"/><stop offset="0.9139" stop-color="#2bb673"/></linearGradient><linearGradient id="linear-gradient-2" x1="14.2501" y1="3.5577" x2="20.7701" y2="3.5577" gradientUnits="userSpaceOnUse"><stop offset="0.4476" stop-color="#2bb673"/><stop offset="1" stop-color="#085750"/></linearGradient><linearGradient id="linear-gradient-3" x1="16.2486" y1="2.5968" x2="18.8368" y2="2.5968" gradientUnits="userSpaceOnUse"><stop offset="0.375" stop-color="#2196bc"/><stop offset="0.7933" stop-color="#062d5a"/></linearGradient></defs><g id="Layer_2" data-name="Layer 2"><g id="Icon_Name" data-name="Icon Name"><path class="cls-1" d="M0,2.7554A2.53,2.53,0,0,1,.2646,1.61,2.6993,2.6993,0,0,1,1.0371.688,2.9884,2.9884,0,0,1,1.8535.2413,2.6018,2.6018,0,0,1,2.7354.085,2.5568,2.5568,0,0,1,3.8311.333a2.8193,2.8193,0,0,1,.9257.7012A2.4629,2.4629,0,0,1,5.4043,2.708a2.5062,2.5062,0,0,1-.1689.9083,2.5875,2.5875,0,0,1-.4932.7983,2.7748,2.7748,0,0,1-.9385.6953,2.7191,2.7191,0,0,1-1.1348.2461,2.6866,2.6866,0,0,1-1.1171-.2393,2.6587,2.6587,0,0,1-.919-.6762,2.4628,2.4628,0,0,1-.4687-.7779A2.5563,2.5563,0,0,1,0,2.7554Zm.89.0557A2.8077,2.8077,0,0,0,1.4707,4.61a1.7135,1.7135,0,0,0,.5537.4756,1.4577,1.4577,0,0,0,.6738.1494,1.4838,1.4838,0,0,0,.6788-.1475A1.722,1.722,0,0,0,3.9336,4.61a2.8345,2.8345,0,0,0,.581-1.814,3.8529,3.8529,0,0,0-.16-1.12A2.6886,2.6886,0,0,0,3.9043.78,1.4874,1.4874,0,0,0,3.3809.34,1.5712,1.5712,0,0,0,2.6982.2027a1.5454,1.5454,0,0,0-.6738.1362A1.5239,1.5239,0,0,0,1.4961.78a2.6165,2.6165,0,0,0-.4482.8941A3.9515,3.9515,0,0,0,.89,2.8111Zm6.0137-.1939a1.0714,1.0714,0,0,1,.2979-.3486,1.1709,1.1709,0,0,1,.6953-.2168.5457.5457,0,0,1,.3633.1064.295.295,0,0,1,.1142.2349.2231.2231,0,0,1-.0683.169.238.238,0,0,1-.1739.0664.2824.2824,0,0,1-.2177-.1031l-.1133-.1245a.4273.4273,0,0,0-.32-.1435q-.249,0-.39.3232a2.3332,2.3332,0,0,0-.14.8994v.6865l.0039.2793a1.63,1.63,0,0,0,.0293.3653.3807.3807,0,0,0,.1142.1924.7511.7511,0,0,0,.378.15V5.231H5.8525V5.1538a.9588.9588,0,0,0,.3155-.082.3727.3727,0,0,0,.1543-.1806A.7849.7849,0,0,0,6.38,4.6363c.0107-.1128.0166-.2769.0166-.4917V3.2413a5.2492,5.2492,0,0,0-.0186-.5284.5735.5735,0,0,0-.081-.247.3923.3923,0,0,0-.15-.148.6644.6644,0,0,0-.2539-.0566V2.1841L6.84,2.0518A3.0011,3.0011,0,0,1,6.9033,2.6172Zm4.3155,1.9195.0742.0258a1.0244,1.0244,0,0,1-.3936.5621,1.321,1.321,0,0,1-.7275.1728,1.5406,1.5406,0,0,1-1.166-.4414,1.5249,1.5249,0,0,1-.4112-1.0947,1.89,1.89,0,0,1,.1133-.64,1.66,1.66,0,0,1,.3125-.54,1.4753,1.4753,0,0,1,.55-.3936,1.8321,1.8321,0,0,1,.7109-.1357,1.3128,1.3128,0,0,1,.835.2388.4174.4174,0,0,1,.1836.3237.2683.2683,0,0,1-.0771.1963.2534.2534,0,0,1-.1875.0791q-.2388,0-.3526-.3491A1.4507,1.4507,0,0,0,10.6,2.32a.3078.3078,0,0,0-.09-.1026.45.45,0,0,0-.2784-.0849.7072.7072,0,0,0-.3994.1215.9869.9869,0,0,0-.2734.2666,1.6709,1.6709,0,0,0-.1963.4024,2.21,2.21,0,0,0-.1279.728,1.8085,1.8085,0,0,0,.1172.64,1.4974,1.4974,0,0,0,.3193.5215.9908.9908,0,0,0,.7412.331.8046.8046,0,0,0,.583-.2246A1.1552,1.1552,0,0,0,11.2188,4.5367Zm3.5292.3379.0625.0371a.57.57,0,0,1-.6064.3857.7067.7067,0,0,1-.4346-.1289.9633.9633,0,0,1-.2353-.2939,2.4108,2.4108,0,0,1-.3721.29,1.1239,1.1239,0,0,1-.5557.1328.9817.9817,0,0,1-.6425-.1953.6423.6423,0,0,1-.2373-.5249.7152.7152,0,0,1,.1943-.5112.8682.8682,0,0,1,.2539-.1817,2.4359,2.4359,0,0,1,.415-.1382c.2139-.0537.3711-.0991.4727-.1357a.9986.9986,0,0,0,.2559-.1323.4434.4434,0,0,0,.1611-.1988.9044.9044,0,0,0,.0439-.3159.9949.9949,0,0,0-.1611-.6289.5353.5353,0,0,0-.1894-.147.556.556,0,0,0-.2413-.0551.4712.4712,0,0,0-.4443.29l-.0918.2134a.2662.2662,0,0,1-.2646.1728.2882.2882,0,0,1-.21-.083.2766.2766,0,0,1-.084-.2075c0-.125.0879-.2305.2647-.3164a1.6152,1.6152,0,0,1,.3554-.1084,2.1384,2.1384,0,0,1,.4141-.042,2.046,2.046,0,0,1,.4746.0586,1.631,1.631,0,0,1,.4131.1509.5839.5839,0,0,1,.2978.353,1.6213,1.6213,0,0,1,.0293.3711v1.36a2.4555,2.4555,0,0,0,.0293.47.2933.2933,0,0,0,.3018.2607.3419.3419,0,0,0,.1787-.04A.6359.6359,0,0,0,14.748,4.8746ZM13.5312,3.4263a2.419,2.419,0,0,1-.4365.2905,3.9761,3.9761,0,0,0-.37.2168.9893.9893,0,0,0-.1865.1768.764.764,0,0,0-.1719.4961.5967.5967,0,0,0,.1338.4009.4236.4236,0,0,0,.3389.1572.583.583,0,0,0,.3388-.1113.6937.6937,0,0,0,.24-.3,1.77,1.77,0,0,0,.1132-.7129Z" transform="translate(0 -0.0127)"/><path class="cls-2" d="M14.3952,7.0675a4.3672,4.3672,0,0,0,.6941-.8218,4.2284,4.2284,0,0,0,.3837-1.0015c.1742-.716.2675-1.4094.4472-2.1488A3.9807,3.9807,0,0,1,19.05.0315a2.9551,2.9551,0,0,1,1.1927.107,1.25,1.25,0,0,1,.3165.1461.4707.4707,0,0,1,.1891.2285.3411.3411,0,0,1-.0231.2841.4587.4587,0,0,1-.1008.1175,2.1191,2.1191,0,0,0-.36.359,4.3909,4.3909,0,0,0-.7005,1.9021,5.4268,5.4268,0,0,0,.0234,2.0757A3.083,3.083,0,0,0,20.57,7.0687l-.0212.0339a2.6521,2.6521,0,0,1-1.392-1.7394,4.9437,4.9437,0,0,1-.1171-2.2785,8.7271,8.7271,0,0,1,.2657-1.1005A2.6971,2.6971,0,0,1,19.8537.9229a2.605,2.605,0,0,1,.4224-.4067c.011-.0071.0178-.0218-.0081.0171a.1956.1956,0,0,0-.0172.1523c.0222.0561.0327.0395.0085.0286a.771.771,0,0,0-.18-.0834,2.4636,2.4636,0,0,0-.9768-.1049,3.5752,3.5752,0,0,0-2.863,2.66c-.1858.677-.341,1.43-.5577,2.1233a4.4114,4.4114,0,0,1-.4636,1.0166,3.8271,3.8271,0,0,1-.8.7736Z" transform="translate(0 -0.0127)"/><path class="cls-3" d="M16.3669,4.4275a3.9572,3.9572,0,0,1,2.41-3.6627,5.7427,5.7427,0,0,0-1.5536,1.5981,6.7666,6.7666,0,0,0-.8445,2.0659Z" transform="translate(0 -0.0127)"/></g></g></svg>