<svg xmlns="http://www.w3.org/2000/svg" xmlns:xlink="http://www.w3.org/1999/xlink" viewBox="0 0 22.4927 7.2754"><defs><style>.cls-1{fill:url(#linear-gradient);}.cls-2{fill:url(#linear-gradient-2);}.cls-3{fill:url(#linear-gradient-3);}.cls-4{fill:url(#linear-gradient-4);}.cls-5{fill:url(#linear-gradient-5);}.cls-6{fill:url(#linear-gradient-6);}</style><linearGradient id="linear-gradient" x1="22.46" y1="7.4333" x2="16.7163" y2="3.0922" gradientUnits="userSpaceOnUse"><stop offset="0" stop-color="#002145"/><stop offset="0.1265" stop-color="#02284c"/><stop offset="0.3087" stop-color="#073a5f"/><stop offset="0.5246" stop-color="#10597e"/><stop offset="0.7644" stop-color="#1c84a9"/><stop offset="0.8571" stop-color="#2196bc"/></linearGradient><linearGradient id="linear-gradient-2" x1="16.9679" y1="3.249" x2="18.8517" y2="3.249" gradientUnits="userSpaceOnUse"><stop offset="0.4022" stop-color="#2bb673"/><stop offset="0.5665" stop-color="#25b16c"/><stop offset="0.8025" stop-color="#13a359"/><stop offset="1" stop-color="#009444"/></linearGradient><linearGradient id="linear-gradient-3" x1="-0.6803" y1="2.8121" x2="18.7308" y2="2.7503" gradientUnits="userSpaceOnUse"><stop offset="0" stop-color="#2bb673"/><stop offset="0.1167" stop-color="#2ab37a"/><stop offset="0.2848" stop-color="#27ab8d"/><stop offset="0.4829" stop-color="#239dac"/><stop offset="0.5703" stop-color="#2196bc"/></linearGradient><linearGradient id="linear-gradient-4" x1="-0.6149" y1="3.8055" x2="18.7962" y2="3.7437" gradientUnits="userSpaceOnUse"><stop offset="0" stop-color="#2bb673"/><stop offset="0.1212" stop-color="#2ab37a"/><stop offset="0.2958" stop-color="#27ab8d"/><stop offset="0.5016" stop-color="#239dac"/><stop offset="0.5924" stop-color="#2196bc"/></linearGradient><linearGradient id="linear-gradient-5" x1="-0.6148" y1="3.851" x2="18.7963" y2="3.7892" gradientUnits="userSpaceOnUse"><stop offset="0" stop-color="#2bb673"/><stop offset="0.1754" stop-color="#2ab37a"/><stop offset="0.428" stop-color="#27ab8d"/><stop offset="0.7258" stop-color="#239dac"/><stop offset="0.8571" stop-color="#2196bc"/></linearGradient><linearGradient id="linear-gradient-6" x1="-0.6148" y1="3.8622" x2="18.7964" y2="3.8004" xlink:href="#linear-gradient-5"/></defs><g id="Layer_2" data-name="Layer 2"><g id="Icon_Name" data-name="Icon Name"><path class="cls-1" d="M14.8705,7.2617a8.4265,8.4265,0,0,0,1.1912-1.9062c.3017-.6913.5374-1.4412.8658-2.1565a8.9083,8.9083,0,0,1,1.25-2.0059,2.5129,2.5129,0,0,1,.9988-.737,3.0409,3.0409,0,0,1,.6-.1584A2.6934,2.6934,0,0,1,20.09.2665a.9593.9593,0,0,1,.1853.01.3288.3288,0,0,1,.2808.2145.3579.3579,0,0,1-.0693.3164,1.0079,1.0079,0,0,1-.1184.1374c-.0771.0775-.1616.1449-.2317.2033a2.2669,2.2669,0,0,0-.3584.3865,3.6125,3.6125,0,0,0-.4909.9734,3.4527,3.4527,0,0,0-.12,2.1529,3.7057,3.7057,0,0,0,3.3257,2.5182l0,.0149a3.4662,3.4662,0,0,1-2.29-.4961,3.2829,3.2829,0,0,1-1.426-1.9277,3.8754,3.8754,0,0,1,.12-2.3956,4.0192,4.0192,0,0,1,.5457-1.0871,2.6812,2.6812,0,0,1,.426-.4612c.0779-.0652.1441-.1189.2031-.1785.0635-.0286.0939-.19.0852-.0315.0554.1042.0808.0693.047.0713A.57.57,0,0,0,20.1.6822a2.3289,2.3289,0,0,0-.2618.0234,2.6364,2.6364,0,0,0-.5193.1311,2.1073,2.1073,0,0,0-.8479.619,8.5541,8.5541,0,0,0-1.21,1.9019A21.8868,21.8868,0,0,0,16.4342,5.51a3.3021,3.3021,0,0,1-.6137,1.0349,5.3657,5.3657,0,0,1-.9386.73Z"/><path class="cls-2" d="M17.0833,4.8444a4.6809,4.6809,0,0,1,.5421-1.751,3.9257,3.9257,0,0,1,.5131-.7653c.1962-.2373.4063-.4618.619-.6773-.15.27-.3018.5319-.4678.78a5.9761,5.9761,0,0,0-.4469.7754c-.2812.5278-.4977,1.0809-.7479,1.6406Z"/><path class="cls-3" d="M0,2.8379A2.6813,2.6813,0,0,1,.2812,1.62a2.8552,2.8552,0,0,1,.82-.979A3.1788,3.1788,0,0,1,1.9688.166,2.7756,2.7756,0,0,1,2.9062,0,2.7117,2.7117,0,0,1,4.07.2637a2.9886,2.9886,0,0,1,.9844.7451,2.6194,2.6194,0,0,1,.6875,1.7783,2.6491,2.6491,0,0,1-.18.9653,2.743,2.743,0,0,1-.5234.8487A2.9545,2.9545,0,0,1,4.041,5.34a2.9042,2.9042,0,0,1-2.3926.0079,2.8318,2.8318,0,0,1-.9765-.7193,2.6242,2.6242,0,0,1-.4981-.8266A2.7165,2.7165,0,0,1,0,2.8379Zm.9453.0586a2.9813,2.9813,0,0,0,.6172,1.9116,1.8316,1.8316,0,0,0,.5879.5064,1.56,1.56,0,0,0,.7168.1582,1.5855,1.5855,0,0,0,.7207-.1563A1.8364,1.8364,0,0,0,4.18,4.8081a3.0154,3.0154,0,0,0,.6172-1.9272,4.09,4.09,0,0,0-.17-1.19A2.8466,2.8466,0,0,0,4.1484.7388,1.5768,1.5768,0,0,0,3.5918.2715,1.6651,1.6651,0,0,0,2.8672.125,1.6509,1.6509,0,0,0,2.15.27,1.619,1.619,0,0,0,1.59.7388a2.7811,2.7811,0,0,0-.4765.95A4.1973,4.1973,0,0,0,.9453,2.8965Z"/><path class="cls-4" d="M7.3359,2.6909A1.1332,1.1332,0,0,1,7.6523,2.32,1.2407,1.2407,0,0,1,8.3906,2.09a.5807.5807,0,0,1,.3867.1133.3122.3122,0,0,1,.1211.2495.2407.2407,0,0,1-.0722.18.2551.2551,0,0,1-.1856.07.3.3,0,0,1-.23-.1093l-.1211-.1324a.4551.4551,0,0,0-.34-.1523c-.1767,0-.3154.1143-.414.3433a2.4784,2.4784,0,0,0-.1485.956v.7295l.0039.2964a1.7516,1.7516,0,0,0,.0313.3882.403.403,0,0,0,.1211.2046.8029.8029,0,0,0,.4023.16v.0821H6.2188V5.3867a1.0077,1.0077,0,0,0,.3359-.0874.4036.4036,0,0,0,.1641-.1924.8528.8528,0,0,0,.0605-.27q.0176-.1809.0176-.5229v-.96a5.5119,5.5119,0,0,0-.02-.5615A.6058.6058,0,0,0,6.6914,2.53a.4109.4109,0,0,0-.16-.1577.7039.7039,0,0,0-.2695-.06v-.082L7.2686,2.09A3.2615,3.2615,0,0,1,7.3359,2.6909Z"/><path class="cls-5" d="M11.9219,4.7305,12,4.7578a1.0873,1.0873,0,0,1-.418.5977,1.4032,1.4032,0,0,1-.7734.1836A1.634,1.634,0,0,1,9.57,5.07a1.6218,1.6218,0,0,1-.4375-1.1641,1.9856,1.9856,0,0,1,.1211-.68,1.7543,1.7543,0,0,1,.332-.5743,1.5654,1.5654,0,0,1,.584-.4179,1.9431,1.9431,0,0,1,.7559-.1446,1.3912,1.3912,0,0,1,.8867.254.4427.4427,0,0,1,.1953.3437.2873.2873,0,0,1-.082.209.2677.2677,0,0,1-.1992.084q-.2535,0-.375-.3711a1.5536,1.5536,0,0,0-.0879-.2344.3219.3219,0,0,0-.0957-.1094.4794.4794,0,0,0-.2959-.09.7546.7546,0,0,0-.4248.1289,1.0736,1.0736,0,0,0-.29.2832,1.7482,1.7482,0,0,0-.208.4277,2.338,2.338,0,0,0-.1367.7735,1.9208,1.9208,0,0,0,.125.68,1.601,1.601,0,0,0,.3389.5546,1.0551,1.0551,0,0,0,.7881.3516.8527.8527,0,0,0,.6191-.2383A1.2168,1.2168,0,0,0,11.9219,4.7305Z"/><path class="cls-6" d="M15.6719,5.09l.0664.0391a.6057.6057,0,0,1-.6445.41.7521.7521,0,0,1-.462-.1368,1.03,1.03,0,0,1-.25-.3125,2.562,2.562,0,0,1-.3955.3086,1.1981,1.1981,0,0,1-.5908.1407,1.0457,1.0457,0,0,1-.6826-.2071.6854.6854,0,0,1-.252-.5586.7607.7607,0,0,1,.2071-.5429.9257.9257,0,0,1,.27-.1934,2.5619,2.5619,0,0,1,.4414-.1465q.34-.0857.502-.1445a1.0386,1.0386,0,0,0,.2714-.1406.4732.4732,0,0,0,.1719-.211.9588.9588,0,0,0,.0469-.3359,1.0547,1.0547,0,0,0-.1719-.668.56.56,0,0,0-.2012-.1562.5863.5863,0,0,0-.2558-.0586.5.5,0,0,0-.4727.3086l-.0976.2265a.281.281,0,0,1-.2813.1836.3047.3047,0,0,1-.2226-.0879.2973.2973,0,0,1-.09-.2207q0-.1992.2813-.3359a1.7281,1.7281,0,0,1,.3779-.1152,2.2617,2.2617,0,0,1,.44-.045,2.1892,2.1892,0,0,1,.5049.0625,1.73,1.73,0,0,1,.4375.16.62.62,0,0,1,.3174.375,1.7413,1.7413,0,0,1,.0313.3945V4.5273a2.6276,2.6276,0,0,0,.0312.5.311.311,0,0,0,.32.2774.3536.3536,0,0,0,.19-.043A.671.671,0,0,0,15.6719,5.09Zm-1.293-1.539a2.6416,2.6416,0,0,1-.4629.3086,3.8621,3.8621,0,0,0-.3935.23,1.0636,1.0636,0,0,0-.1993.1875.8137.8137,0,0,0-.1826.5274.6314.6314,0,0,0,.1426.4258.45.45,0,0,0,.3594.1679.6113.6113,0,0,0,.36-.1191.7293.7293,0,0,0,.2549-.3184,1.8586,1.8586,0,0,0,.1211-.7578Z"/></g></g></svg>