<svg xmlns="http://www.w3.org/2000/svg" xmlns:xlink="http://www.w3.org/1999/xlink" viewBox="0 0 6.374 7.0899"><defs><style>.cls-1{fill:url(#linear-gradient);}.cls-2{fill:url(#linear-gradient-2);}</style><linearGradient id="linear-gradient" y1="3.5577" x2="6.52" y2="3.5577" gradientUnits="userSpaceOnUse"><stop offset="0.4476" stop-color="#2bb673"/><stop offset="1" stop-color="#085750"/></linearGradient><linearGradient id="linear-gradient-2" x1="1.9985" y1="2.5968" x2="4.5867" y2="2.5968" gradientUnits="userSpaceOnUse"><stop offset="0.375" stop-color="#2196bc"/><stop offset="0.7933" stop-color="#062d5a"/></linearGradient></defs><g id="Layer_2" data-name="Layer 2"><g id="Icon_Name" data-name="Icon Name"><path class="cls-1" d="M.1451,7.0675a4.3672,4.3672,0,0,0,.6941-.8218,4.2284,4.2284,0,0,0,.3837-1.0015c.1742-.716.2675-1.4094.4472-2.1488A3.9807,3.9807,0,0,1,4.8.0315a2.9551,2.9551,0,0,1,1.1927.107,1.25,1.25,0,0,1,.3165.1461.4713.4713,0,0,1,.1891.2285.3411.3411,0,0,1-.0231.2841.4607.4607,0,0,1-.1008.1175,2.1191,2.1191,0,0,0-.36.359,4.3909,4.3909,0,0,0-.7,1.9021,5.4268,5.4268,0,0,0,.0234,2.0757,3.083,3.083,0,0,0,.9821,1.8172l-.0212.0339a2.6521,2.6521,0,0,1-1.392-1.7394,4.9437,4.9437,0,0,1-.1171-2.2785,8.7271,8.7271,0,0,1,.2657-1.1005A2.6971,2.6971,0,0,1,5.6036.9229,2.605,2.605,0,0,1,6.026.5162c.011-.0071.0178-.0218-.0081.0171a.1956.1956,0,0,0-.0172.1523c.0222.0561.0327.0395.0085.0286A.773.773,0,0,0,5.83.6308,2.4638,2.4638,0,0,0,4.8527.5259a3.5752,3.5752,0,0,0-2.863,2.66c-.1858.677-.341,1.43-.5577,2.1233A4.4114,4.4114,0,0,1,.9684,6.326a3.8271,3.8271,0,0,1-.8.7736Z" transform="translate(-0.1451 -0.0127)"/><path class="cls-2" d="M2.1168,4.4275A3.9572,3.9572,0,0,1,4.5268.7648,5.7427,5.7427,0,0,0,2.9732,2.3629a6.7666,6.7666,0,0,0-.8445,2.0659Z" transform="translate(-0.1451 -0.0127)"/></g></g></svg>