<?xml version="1.0" encoding="UTF-8"?>
<svg width="40px" height="40px" viewBox="0 0 40 40" version="1.1" xmlns="http://www.w3.org/2000/svg" xmlns:xlink="http://www.w3.org/1999/xlink">
    <title>__🥬Icons/ color/ ic_m_material</title>
    <defs>
        <linearGradient x1="50%" y1="0%" x2="50%" y2="100%" id="linearGradient-1">
            <stop stop-color="#FFFFFF" stop-opacity="0.5" offset="0%"></stop>
            <stop stop-color="#000000" stop-opacity="0.5" offset="100%"></stop>
        </linearGradient>
        <rect id="path-2" x="0" y="0" width="40" height="40" rx="12"></rect>
        <filter x="-34.2%" y="-40.6%" width="168.4%" height="181.2%" filterUnits="objectBoundingBox" id="filter-4">
            <feOffset dx="0" dy="1" in="SourceAlpha" result="shadowOffsetOuter1"></feOffset>
            <feGaussianBlur stdDeviation="1" in="shadowOffsetOuter1" result="shadowBlurOuter1"></feGaussianBlur>
            <feColorMatrix values="0 0 0 0 0   0 0 0 0 0   0 0 0 0 0  0 0 0 0.48 0" type="matrix" in="shadowBlurOuter1" result="shadowMatrixOuter1"></feColorMatrix>
            <feMerge>
                <feMergeNode in="shadowMatrixOuter1"></feMergeNode>
                <feMergeNode in="SourceGraphic"></feMergeNode>
            </feMerge>
        </filter>
    </defs>
    <g id="__🥬Icons/-color/-ic_m_material" stroke="none" stroke-width="1" fill="none" fill-rule="evenodd">
        <mask id="mask-3" fill="white">
            <use xlink:href="#path-2"></use>
        </mask>
        <g id="background">
            <use fill-opacity="0.2" fill="#0095D5" xlink:href="#path-2"></use>
            <use fill-opacity="0.16" fill="url(#linearGradient-1)" xlink:href="#path-2"></use>
        </g>
        <g id="logo" filter="url(#filter-4)" mask="url(#mask-3)">
            <g transform="translate(11.000000, 13.000000)">
                <g id="#00b0ffff">
                    <path d="M8.13151629e-20,0.0301714286 C2.28601905,1.35100952 4.57234286,2.6712381 6.85775238,3.99299048 C6.85592381,4.87344762 6.85775238,5.7536 6.8568381,6.63405714 C5.33394286,5.75177143 3.80921905,4.87314286 2.28601905,3.99177143 C2.28540952,5.75268571 2.28571429,7.51390476 2.28571429,9.27481905 C1.52411429,8.83382857 0.761295238,8.39497143 8.13151629e-20,7.95306667 C8.13151629e-20,5.31230476 -0.000304761905,2.6712381 8.13151629e-20,0.0301714286 Z" id="Path" fill="#00B0FF" fill-rule="nonzero"></path>
                    <path d="M6.8568381,9.27847619 L6.86293333,9.28274286 C7.16281905,9.47900952 7.48251429,9.64449524 7.79032381,9.82857143 C8.23405714,10.081219 8.67108571,10.3469714 9.11969524,10.5904762 C9.89592381,11.0204952 10.6584381,11.476419 11.429181,11.9171048 C11.4276571,12.7975619 11.429181,13.678019 11.4285714,14.5584762 C9.90537143,13.6764952 8.38095238,12.7972571 6.85714286,11.9164952 C6.8568381,11.0369524 6.85744762,10.1577143 6.8568381,9.27847619 Z" id="Path" fill="#00B0FF" fill-rule="nonzero"></path>
                </g>
                <g id="#0081cbff" transform="translate(6.826667, 0.030476)">
                    <path d="M0.0310857143,3.96251429 C2.31649524,2.64198095 4.60251429,1.32205714 6.88731429,0.00060952381 C6.88792381,2.64198095 6.88766619,5.28335238 6.88731429,7.92502857 C5.39428571,8.78780952 3.90095238,9.65028571 2.40853333,10.5136762 C2.37074286,10.5301333 2.33813333,10.5694476 2.29302857,10.56 C1.84441905,10.3164952 1.40739048,10.0507429 0.963657143,9.79809524 C0.655847619,9.61401905 0.336152381,9.44853333 0.0362666667,9.25226667 C0.336457143,9.05569524 0.657980952,8.8896 0.9664,8.70491429 C2.17813333,8.00457143 3.39017143,7.30514286 4.6016,6.60388571 C4.60190476,5.72373333 4.60251429,4.84358095 4.60129524,3.96342857 C3.07748571,4.84327619 1.55459048,5.72464762 0.0301714286,6.60358095 C0.0310857143,5.72312381 0.0292571429,4.84297143 0.0310857143,3.96251429 Z" id="Path" fill="#0081CB" fill-rule="nonzero"></path>
                    <path d="M9.17394286,1.32022857 C9.9367619,0.882590476 10.6968381,0.44007619 11.4587429,0.00060952381 C11.4590476,0.881066667 11.4596571,1.76152381 11.4584381,2.64228571 C10.6971429,3.0823619 9.93615238,3.52365714 9.1736381,3.9616 C9.17333333,3.08114286 9.17272381,2.20068571 9.17394286,1.32022857 Z" id="Path" fill="#0081CB" fill-rule="nonzero"></path>
                    <path d="M9.17333333,6.60419048 C9.9352381,6.16411429 10.6977524,5.72434286 11.4590476,5.28304762 C11.4587429,7.04457143 11.4599619,8.80609524 11.4581333,10.5673143 C9.17241905,11.8872381 6.88792381,13.2089905 4.60190476,14.528 C4.60251429,13.6475429 4.60099048,12.7670857 4.60251429,11.8866286 C6.12662857,11.006781 7.65074286,10.1269333 9.17333333,9.24464762 C9.17333333,8.36449524 9.17333333,7.48434286 9.17333333,6.60419048 Z" id="Path" fill="#0081CB" fill-rule="nonzero"></path>
                </g>
            </g>
        </g>
    </g>
</svg>