<svg xmlns="http://www.w3.org/2000/svg" width="24" height="24" viewBox="0 0 24 24"><g class="nc-icon-wrapper" fill="#283440"><path d="M12,0A12,12,0,1,0,24,12,12.013,12.013,0,0,0,12,0Zm-.025,7.779a5.417,5.417,0,0,1,2.252,4.441,5.056,5.056,0,0,1-2.2,4A5.417,5.417,0,0,1,9.773,11.78,5.056,5.056,0,0,1,11.975,7.779ZM12,22a9.966,9.966,0,0,1-1.747-.163c-2.756-1.3-4.4-4.295-4.4-8.04,0-3.2,1.52-5.785,3.591-6.359A6.72,6.72,0,0,0,7.773,11.78c0,3.321,2.261,6.9,5.914,6.9,3.624,0,6.463-3.725,6.463-8.481a12.45,12.45,0,0,0-1.143-5.326A9.992,9.992,0,0,1,12,22Z" fill="#283440"/></g></svg>