<svg xmlns="http://www.w3.org/2000/svg" xmlns:xlink="http://www.w3.org/1999/xlink" viewBox="0 0 10.12 10.12"><defs><style>.cls-1{fill:url(#linear-gradient);}.cls-2{fill:#fff;}</style><linearGradient id="linear-gradient" x1="8.5912" y1="7.7303" x2="0.5188" y2="1.6293" gradientUnits="userSpaceOnUse"><stop offset="0" stop-color="#2bb673"/><stop offset="0.1754" stop-color="#2ab37a"/><stop offset="0.428" stop-color="#27ab8d"/><stop offset="0.7258" stop-color="#239dac"/><stop offset="0.8571" stop-color="#2196bc"/></linearGradient></defs><g id="Layer_2" data-name="Layer 2"><g id="Icon_Name" data-name="Icon Name"><circle class="cls-1" cx="5.06" cy="5.06" r="5.06"/><path class="cls-2" d="M1.9722,8.4146a4.37,4.37,0,0,0,.6941-.8218A4.2275,4.2275,0,0,0,3.05,6.5912c.1742-.7159.2675-1.4093.4472-2.1488a3.9806,3.9806,0,0,1,3.13-3.0638,2.9516,2.9516,0,0,1,1.1927.107,1.2431,1.2431,0,0,1,.3165.1461.47.47,0,0,1,.1891.2284.3413.3413,0,0,1-.0231.2842.4556.4556,0,0,1-.1008.1174,2.1227,2.1227,0,0,0-.36.359,4.3914,4.3914,0,0,0-.7,1.9022,5.4263,5.4263,0,0,0,.0234,2.0756,3.0832,3.0832,0,0,0,.9821,1.8172l-.0212.034A2.6523,2.6523,0,0,1,6.7333,6.71a4.9438,4.9438,0,0,1-.1171-2.2785,8.7244,8.7244,0,0,1,.2657-1.1006A2.6974,2.6974,0,0,1,7.4307,2.27a2.61,2.61,0,0,1,.4224-.4068c.011-.0071.0179-.0217-.0081.0172a.1954.1954,0,0,0-.0172.1522c.0222.0561.0327.04.0085.0287a.771.771,0,0,0-.18-.0834A2.4636,2.4636,0,0,0,6.68,1.873a3.5751,3.5751,0,0,0-2.863,2.66c-.1858.677-.341,1.43-.5577,2.1232A4.4076,4.4076,0,0,1,2.7955,7.673a3.825,3.825,0,0,1-.8.7737Z"/><path class="cls-2" d="M3.9439,5.7746a3.9574,3.9574,0,0,1,2.41-3.6628A5.7444,5.7444,0,0,0,4.8,3.71a6.7656,6.7656,0,0,0-.8445,2.0659Z"/></g></g></svg>